<svg width="42" height="34" viewBox="0 0 42 34" fill="none" xmlns="http://www.w3.org/2000/svg"><g clip-path="url(#clip0_334_225170)"><line x1="16" y1="20.3246" x2="24.7589" y2="15.2676" stroke="#52656D" stroke-width="4"/><rect x="17.7635" y="3.66309" width="9.1025" height="26.2961" rx="4.55125" transform="rotate(-30 17.7635 3.66309)" fill="#52656D"/><rect x="2.87354" y="12.2598" width="9.1025" height="26.2961" rx="4.55125" transform="rotate(-30 2.87354 12.2598)" fill="#52656D"/><rect x="25.9183" y="3.62891" width="9.1025" height="18.205" rx="4.55125" transform="rotate(-30 25.9183 3.62891)" fill="#52656D"/><rect x="-1.23499" y="19.3027" width="9.1025" height="18.205" rx="4.55125" transform="rotate(-30 -1.23499 19.3027)" fill="#52656D"/><rect opacity="0.2" x="2.81079" y="20.3145" width="3.03417" height="5.05694" rx="1.51708" transform="rotate(-30 2.81079 20.3145)" fill="white"/><rect opacity="0.2" x="31.1294" y="5.14355" width="3.03417" height="5.05694" rx="1.51708" transform="rotate(-30 31.1294 5.14355)" fill="white"/><rect opacity="0.2" x="6.85596" y="13.2354" width="3.03417" height="6.06833" rx="1.51708" transform="rotate(-30 6.85596 13.2354)" fill="white"/><rect opacity="0.2" x="22.027" y="5.14355" width="3.03417" height="6.06833" rx="1.51708" transform="rotate(-30 22.027 5.14355)" fill="white"/></g><defs><clipPath id="clip0_334_225170"><rect width="42" height="34" fill="white"/></clipPath></defs></svg>