<svg width="124" height="124" viewBox="0 0 124 124" version="1.1" xmlns="http://www.w3.org/2000/svg" xmlns:xlink="http://www.w3.org/1999/xlink"><title>course_page_hatching_inactive</title><defs><path d="M31.917.09a.84.84 0 0 1 .785.015l22.423 10.213 25.46-8.094c.624-.198 1.226.36 1.092 1.013-4.021 19.575-20.998 33.815-40.83 33.815-19.83 0-36.807-14.24-40.828-33.815-.122-.594.372-1.132.96-1.044l17.275 2.582L31.917.09z" id="a"/></defs><g stroke="none" stroke-width="1" fill="none" fill-rule="evenodd"><g><g transform="translate(3.34 14.323)"><path d="M2.922 63.575l39.15-39.844c2.099-2.135 5.768-1.579 7.246 1.1 7.103 12.868 5.101 28.784-5.242 39.31C33.732 74.668 17.62 77.187 4.29 70.655c-2.774-1.36-3.468-4.945-1.37-7.08zM115.739 63.575L76.589 23.73c-2.099-2.135-5.768-1.579-7.246 1.1-7.104 12.868-5.101 28.784 5.242 39.31 10.343 10.527 26.455 13.046 39.785 6.514 2.774-1.36 3.467-4.945 1.369-7.08z" fill="#202F36" fill-rule="nonzero"/><path d="M39.643 1.182c9.404 4.036 15.902 6.054 19.495 6.054 3.626 0 10.264-2.054 19.914-6.163 6.491-2.764 13.993.257 16.757 6.748a12.774 12.774 0 0 1 1.021 5.004v39.659c0 20.71-16.79 37.5-37.5 37.5s-37.5-16.79-37.5-37.5V12.92C21.83 5.865 27.55.146 34.605.146c1.733 0 3.447.353 5.039 1.036z" fill="#202F36"/><g transform="translate(17.813 58.225)"><mask fill="#52656d"><use xlink:href="#a"/></mask><use stroke="#52656d" stroke-width="3" fill="#202F36" fill-rule="nonzero" xlink:href="#a"/></g><path d="M57.948 28.074L76.544 7.99c.997-1.076 2.833-.85 3.627.448 3.812 6.235 3.164 14.084-1.75 19.39-4.912 5.307-12.868 6.75-19.638 3.709-1.41-.633-1.832-2.387-.835-3.463z" fill="#202F36" fill-rule="nonzero"/><path d="M62.052 28.074L43.456 7.99c-.997-1.076-2.833-.85-3.627.448-3.812 6.235-3.164 14.084 1.75 19.39 4.912 5.307 12.868 6.75 19.638 3.709 1.41-.633 1.832-2.387.835-3.463z" fill="#202F36" fill-rule="nonzero"/><path d="M52.822 19.088c3.864 4.32 9.052 4.291 12.914 0 2.575-2.86 3.475 5.333 2.7 24.58H50.304c-.897-19.267-.058-27.46 2.519-24.58z" fill="#202F36"/><path d="M39.91 11.91c8.507 0 15.403 6.895 15.403 15.401V41.5c0 8.506-6.896 15.401-15.402 15.401S24.509 50.006 24.509 41.5V27.31c0-8.506 6.896-15.401 15.402-15.401zM78.75 11.91c8.506 0 15.401 6.895 15.401 15.401V41.5c0 8.506-6.895 15.401-15.401 15.401S63.348 50.006 63.348 41.5V27.31c0-8.506 6.896-15.401 15.402-15.401z" fill="#202F36"/><path d="M40.58 18.526c5.918 0 10.715 4.797 10.715 10.714v10.33c0 5.918-4.797 10.715-10.714 10.715-5.918 0-10.715-4.797-10.715-10.714V29.24c0-5.918 4.797-10.715 10.715-10.715zM78.08 18.526c5.917 0 10.714 4.797 10.714 10.714v10.33c0 5.918-4.797 10.715-10.714 10.715-5.917 0-10.714-4.797-10.714-10.714V29.24c0-5.918 4.797-10.715 10.714-10.715z" fill="#52656d"/><path d="M76.74 25.142a6.696 6.696 0 0 1 6.697 6.697v7.78a6.696 6.696 0 0 1-13.393 0v-7.78a6.696 6.696 0 0 1 6.697-6.697zM41.92 25.142a6.696 6.696 0 0 1 6.696 6.697v7.78a6.696 6.696 0 0 1-13.393 0v-7.78a6.696 6.696 0 0 1 6.697-6.697z" fill="#202F36"/><g><path d="M59.5 39.699a5.527 5.527 0 0 1 5.527 5.526v.856a5.527 5.527 0 1 1-11.053 0v-.856A5.527 5.527 0 0 1 59.5 39.7z" fill="#52656d"/><path d="M51.338 46.763c.631-3.661 4.007-6.388 7.992-6.388 3.986 0 7.361 2.727 7.993 6.388l.043.252-8.081 1.3-7.99-1.3.043-.252z" fill="#202F36" fill-rule="nonzero"/><path d="M51.338 44.763c.631-3.661 4.007-6.388 7.992-6.388 3.986 0 7.361 2.727 7.993 6.388l.043.252-8.081 1.3-7.99-1.3.043-.252z" fill="#52656d" fill-rule="nonzero"/></g><path d="M57.991 41.853a6.252 6.252 0 0 1 4.018 0" stroke="#52656d" stroke-width="2.202" stroke-linecap="round" stroke-linejoin="round"/><ellipse fill="#52656d" cx="38.572" cy="28.451" rx="3.348" ry="3.308"/><ellipse fill="#52656d" cx="72.053" cy="28.451" rx="3.348" ry="3.308"/></g></g></g></svg>