<svg width="42" height="34" viewBox="0 0 42 34" fill="none" xmlns="http://www.w3.org/2000/svg"><path d="M42 8.49236C42 6.4901 40.3329 4.86694 38.2765 4.86694H29.9359C24.4521 4.86694 20.0066 9.19536 20.0066 14.5347V31.8401C20.0066 32.5075 20.5686 33.0638 21.2481 32.9753C25.129 32.4696 23.7034 29.5177 30.4323 29.5177C32.3039 29.5177 36.1106 29.5177 38.2776 29.5177C40.3341 29.5177 42 27.8945 42 25.8923V8.49236Z" fill="#52656D"/><path d="M0 8.49237C0 6.4901 1.66706 4.86694 3.72348 4.86694H12.0641C17.5479 4.86694 21.9934 9.19536 21.9934 14.5347V31.8401C21.9934 32.5075 21.4313 33.0594 20.749 32.9948C15.97 32.5427 18.3992 29.3905 11.5676 29.3905C9.69604 29.3905 5.88932 29.3905 3.72233 29.3905C1.66591 29.3905 0 27.7673 0 25.765V8.49237Z" fill="#52656D"/><path d="M36.8864 3.90058C36.8864 2.29877 35.5527 1.00024 33.9076 1.00024H27.95C23.563 1.00024 20.0066 4.46298 20.0066 8.73448V26.1365C20.0066 26.6704 20.4591 27.1221 20.9949 27.0082C23.3482 26.5078 23.1355 24.2029 28.4465 24.2029C29.9718 24.2029 32.1481 24.2029 33.9087 24.2029C35.5538 24.2029 36.8864 22.9044 36.8864 21.3026V3.90058Z" fill="#6E848E"/><path d="M5.11316 3.90058C5.11316 2.29877 6.44681 1.00024 8.09194 1.00024H14.0495C18.4366 1.00024 21.9929 4.46298 21.9929 8.73448V26.1365C21.9929 26.6704 21.5445 27.1184 21.0036 27.0307C18.236 26.5817 18.9484 24.2029 13.5531 24.2029C12.0277 24.2029 9.85141 24.2029 8.09083 24.2029C6.44569 24.2029 5.11316 22.9044 5.11316 21.3026V3.90058Z" fill="#6E848E"/><path fill-rule="evenodd" clip-rule="evenodd" d="M19.5113 3.11898C20.0999 3.66189 20.6032 4.29157 20.9995 4.987C21.3964 4.29065 21.9005 3.66022 22.4901 3.11682V26.2959C22.2659 26.4645 22.0336 26.6186 21.769 26.7459C21.5866 26.9583 21.3098 27.0806 21.0034 27.0308C20.9797 27.027 20.9563 27.023 20.9332 27.0189C20.7276 27.0465 20.5368 26.9915 20.3824 26.8822C20.0419 26.7707 19.7625 26.6235 19.5113 26.4552V3.11898Z" fill="#637881"/></svg>