<svg width="45" height="46" viewBox="0 0 45 46" fill="none" xmlns="http://www.w3.org/2000/svg"><g clip-path="url(#clip0)"><mask id="path-1-outside-1" maskUnits="userSpaceOnUse" x="1.97266" y="2.98242" width="42" height="40" fill="white"><rect fill="white" x="1.97266" y="2.98242" width="42" height="40"/><path fill-rule="evenodd" clip-rule="evenodd" d="M8.33173 6.95144C8.48864 6.27753 9.16216 5.85843 9.83607 6.01534C12.9007 6.72893 14.8912 8.93791 15.7554 11.568C16.1399 12.7382 16.3063 13.9998 16.2528 15.2725C16.2528 15.2725 15.1934 17.3516 16.378 15.0267C17.5626 12.7018 19.9454 11.542 21.7002 12.4361L22.0162 12.5971C22.1113 12.473 22.2163 12.354 22.3304 12.2399C23.692 10.8783 25.3723 11.397 26.2168 11.6577L26.2951 11.6818C26.8204 11.8428 27.0972 11.9233 27.3151 11.9308C27.4104 11.934 27.4148 11.928 27.4326 11.9039C27.4358 11.8996 27.4394 11.8947 27.4441 11.8891L27.4449 11.8881C27.46 11.8702 27.4763 11.851 27.474 11.7672C27.471 11.6547 27.4298 11.4692 27.308 11.2144C27.0605 10.6971 26.6144 10.1704 26.2781 9.86946C25.7642 9.40964 25.7204 8.62029 26.1802 8.1064C26.64 7.59251 27.4294 7.54868 27.9433 8.0085C28.4602 8.47101 29.1376 9.2524 29.5607 10.1368C29.6966 10.4209 29.8278 10.7668 29.9041 11.1448C30.1123 10.8012 30.5339 10.6288 30.9356 10.7517L31.9552 11.0634L33.4408 8.36478C34.0078 7.33481 34.8703 6.72161 35.3672 6.99515L35.884 7.27969C35.9576 7.29579 36.0303 7.32146 36.1005 7.35724L37.302 7.96943C37.7444 8.19484 37.9203 8.73618 37.6949 9.17857L37.0827 10.3801C37.0287 10.486 36.9566 10.5767 36.872 10.6503L34.9862 14.0758C34.887 14.2559 34.7788 14.4233 34.6651 14.5754L36.134 16.8373C36.4044 17.2537 36.2861 17.8104 35.8697 18.0808L33.6078 19.5497C33.1914 19.8201 32.6346 19.7018 32.3642 19.2854L30.8954 17.0235C30.625 16.6071 30.7433 16.0504 31.1597 15.7799L32.3103 15.0328L31.8027 14.7534C31.7365 14.7486 31.6698 14.7364 31.6037 14.7161L29.8843 14.1905C29.5824 14.0982 29.3644 13.8614 29.283 13.5791C28.6808 14.2432 27.9304 14.4504 27.2301 14.4265C26.655 14.4069 26.0683 14.2255 25.6606 14.0994L25.5635 14.0694C24.9834 13.8917 24.6611 13.8262 24.4533 13.8388L26.4662 14.8645C27.7666 15.527 28.3571 17.1316 28.0938 18.8643C28.3166 18.6926 28.6164 18.6278 28.9059 18.7163L30.6254 19.242C31.1002 19.3871 31.3674 19.8897 31.2222 20.3645L30.6965 22.0839C30.5514 22.5587 30.0488 22.826 29.574 22.6808L27.8546 22.1551C27.4487 22.031 27.1945 21.6457 27.22 21.2399L24.2813 27.0073C24.0647 27.4324 23.8081 27.8185 23.5225 28.1603C23.6249 28.1548 23.73 28.1668 23.8338 28.1985L24.6673 28.4534C24.5258 28.0994 24.5469 27.6856 24.7606 27.3351C25.9976 25.3062 27.7564 23.934 29.6995 23.2354L30.6584 22.3287C31.3926 21.6346 32.4737 21.5859 33.0731 22.2199L33.5504 22.7247C36.0885 22.9319 38.5792 24.1975 40.3733 26.5544C40.7925 27.1049 40.6859 27.891 40.1353 28.3101C39.5848 28.7293 38.7987 28.6227 38.3796 28.0721C37.5945 27.0408 36.6383 26.2906 35.6054 25.816C35.5375 26.2116 35.333 26.6055 34.9997 26.9206L32.341 29.4342C31.6068 30.1283 30.5257 30.1771 29.9263 29.5431L29.0907 28.6593L29.0631 28.7495C28.9804 29.0202 28.7814 29.2235 28.5377 29.3212C28.5429 29.3385 28.5477 29.3559 28.552 29.3735L32.0268 30.4359C33.0362 30.7445 33.7525 31.347 33.6621 31.8005C33.6936 31.9458 33.6894 32.1009 33.6429 32.2532L33.2486 33.5427C33.1035 34.0175 32.6009 34.2847 32.1261 34.1396L30.8365 33.7453C30.7373 33.715 30.6472 33.6691 30.568 33.611L27.2564 32.5986C26.6787 32.422 26.1969 32.149 25.9075 31.8629L25.5441 31.7517C25.3399 32.1073 24.9106 32.288 24.5018 32.163L24.3496 32.1165C24.2249 32.3937 24.0062 32.6306 23.7117 32.7743L9.6654 39.6314C9.18187 39.8674 8.63878 39.9535 8.10596 39.8784C6.63104 39.6706 5.60386 38.3064 5.81169 36.8315L7.9926 21.3537C8.02338 21.1353 8.10728 20.9278 8.23694 20.7493C8.67469 20.1468 9.51799 20.0132 10.1205 20.451L12.7492 22.3608C12.8527 22.019 12.9895 21.677 13.1607 21.3411L13.5939 20.4908C13.5208 20.4695 13.4486 20.4412 13.3782 20.4056C12.9255 20.1769 12.6715 19.7109 12.6911 19.2352C12.5612 19.2554 12.4249 19.2473 12.2908 19.2063L10.5714 18.6806C10.0966 18.5354 9.82938 18.0329 9.97454 17.5581L10.5002 15.8386C10.6454 15.3638 11.148 15.0966 11.6228 15.2418L13.3422 15.7675C13.4714 15.807 13.5853 15.873 13.6796 15.9577C13.847 14.711 13.7405 13.4631 13.3748 12.3502C12.7415 10.4225 11.356 8.94202 9.26783 8.45579C8.59392 8.29887 8.17481 7.62536 8.33173 6.95144ZM22.2617 29.2721C22.3926 29.1901 22.5214 29.1005 22.6475 29.0037L22.5103 29.4527L22.2617 29.2721Z"/><path d="M39.9923 19.2731L38.6538 19.1088C38.161 19.0483 37.7125 19.3987 37.652 19.8915L37.4876 21.2299C37.4271 21.7227 37.7776 22.1713 38.2704 22.2318L39.6088 22.3961C40.1016 22.4566 40.5501 22.1062 40.6106 21.6134L40.775 20.275C40.8355 19.7822 40.4851 19.3336 39.9923 19.2731Z"/><path d="M6.6604 11.803L8.3798 12.3286C8.41189 12.3384 8.44303 12.3499 8.47316 12.3628L8.8887 11.0037C9.03386 10.5289 9.53644 10.2617 10.0112 10.4068L11.7307 10.9325C12.2055 11.0777 12.4727 11.5802 12.3275 12.055L11.8018 13.7745C11.6567 14.2493 11.1541 14.5165 10.6793 14.3713L8.95989 13.8456C8.9278 13.8358 8.89666 13.8244 8.86653 13.8114L8.45099 15.1706C8.30583 15.6454 7.80325 15.9126 7.32845 15.7675L5.60904 15.2418C5.13424 15.0966 4.86701 14.594 5.01218 14.1192L5.53785 12.3998C5.68301 11.925 6.18559 11.6578 6.6604 11.803Z"/>
<path d="M19.851 6.97648L20.884 7.84326C21.2643 8.16241 21.3139 8.72945 20.9948 9.10978L20.128 10.1428C19.8089 10.5231 19.2418 10.5727 18.8615 10.2536L17.8285 9.3868C17.4482 9.06766 17.3985 8.50062 17.7177 8.12028L18.5845 7.08728C18.9036 6.70695 19.4707 6.65734 19.851 6.97648Z"/></mask><path fill-rule="evenodd" clip-rule="evenodd" d="M8.33173 6.95144C8.48864 6.27753 9.16216 5.85843 9.83607 6.01534C12.9007 6.72893 14.8912 8.93791 15.7554 11.568C16.1399 12.7382 16.3063 13.9998 16.2528 15.2725C16.2528 15.2725 15.1934 17.3516 16.378 15.0267C17.5626 12.7018 19.9454 11.542 21.7002 12.4361L22.0162 12.5971C22.1113 12.473 22.2163 12.354 22.3304 12.2399C23.692 10.8783 25.3723 11.397 26.2168 11.6577L26.2951 11.6818C26.8204 11.8428 27.0972 11.9233 27.3151 11.9308C27.4104 11.934 27.4148 11.928 27.4326 11.9039C27.4358 11.8996 27.4394 11.8947 27.4441 11.8891L27.4449 11.8881C27.46 11.8702 27.4763 11.851 27.474 11.7672C27.471 11.6547 27.4298 11.4692 27.308 11.2144C27.0605 10.6971 26.6144 10.1704 26.2781 9.86946C25.7642 9.40964 25.7204 8.62029 26.1802 8.1064C26.64 7.59251 27.4294 7.54868 27.9433 8.0085C28.4602 8.47101 29.1376 9.2524 29.5607 10.1368C29.6966 10.4209 29.8278 10.7668 29.9041 11.1448C30.1123 10.8012 30.5339 10.6288 30.9356 10.7517L31.9552 11.0634L33.4408 8.36478C34.0078 7.33481 34.8703 6.72161 35.3672 6.99515L35.884 7.27969C35.9576 7.29579 36.0303 7.32146 36.1005 7.35724L37.302 7.96943C37.7444 8.19484 37.9203 8.73618 37.6949 9.17857L37.0827 10.3801C37.0287 10.486 36.9566 10.5767 36.872 10.6503L34.9862 14.0758C34.887 14.2559 34.7788 14.4233 34.6651 14.5754L36.134 16.8373C36.4044 17.2537 36.2861 17.8104 35.8697 18.0808L33.6078 19.5497C33.1914 19.8201 32.6346 19.7018 32.3642 19.2854L30.8954 17.0235C30.625 16.6071 30.7433 16.0504 31.1597 15.7799L32.3103 15.0328L31.8027 14.7534C31.7365 14.7486 31.6698 14.7364 31.6037 14.7161L29.8843 14.1905C29.5824 14.0982 29.3644 13.8614 29.283 13.5791C28.6808 14.2432 27.9304 14.4504 27.2301 14.4265C26.655 14.4069 26.0683 14.2255 25.6606 14.0994L25.5635 14.0694C24.9834 13.8917 24.6611 13.8262 24.4533 13.8388L26.4662 14.8645C27.7666 15.527 28.3571 17.1316 28.0938 18.8643C28.3166 18.6926 28.6164 18.6278 28.9059 18.7163L30.6254 19.242C31.1002 19.3871 31.3674 19.8897 31.2222 20.3645L30.6965 22.0839C30.5514 22.5587 30.0488 22.826 29.574 22.6808L27.8546 22.1551C27.4487 22.031 27.1945 21.6457 27.22 21.2399L24.2813 27.0073C24.0647 27.4324 23.8081 27.8185 23.5225 28.1603C23.6249 28.1548 23.73 28.1668 23.8338 28.1985L24.6673 28.4534C24.5258 28.0994 24.5469 27.6856 24.7606 27.3351C25.9976 25.3062 27.7564 23.934 29.6995 23.2354L30.6584 22.3287C31.3926 21.6346 32.4737 21.5859 33.0731 22.2199L33.5504 22.7247C36.0885 22.9319 38.5792 24.1975 40.3733 26.5544C40.7925 27.1049 40.6859 27.891 40.1353 28.3101C39.5848 28.7293 38.7987 28.6227 38.3796 28.0721C37.5945 27.0408 36.6383 26.2906 35.6054 25.816C35.5375 26.2116 35.333 26.6055 34.9997 26.9206L32.341 29.4342C31.6068 30.1283 30.5257 30.1771 29.9263 29.5431L29.0907 28.6593L29.0631 28.7495C28.9804 29.0202 28.7814 29.2235 28.5377 29.3212C28.5429 29.3385 28.5477 29.3559 28.552 29.3735L32.0268 30.4359C33.0362 30.7445 33.7525 31.347 33.6621 31.8005C33.6936 31.9458 33.6894 32.1009 33.6429 32.2532L33.2486 33.5427C33.1035 34.0175 32.6009 34.2847 32.1261 34.1396L30.8365 33.7453C30.7373 33.715 30.6472 33.6691 30.568 33.611L27.2564 32.5986C26.6787 32.422 26.1969 32.149 25.9075 31.8629L25.5441 31.7517C25.3399 32.1073 24.9106 32.288 24.5018 32.163L24.3496 32.1165C24.2249 32.3937 24.0062 32.6306 23.7117 32.7743L9.6654 39.6314C9.18187 39.8674 8.63878 39.9535 8.10596 39.8784C6.63104 39.6706 5.60386 38.3064 5.81169 36.8315L7.9926 21.3537C8.02338 21.1353 8.10728 20.9278 8.23694 20.7493C8.67469 20.1468 9.51799 20.0132 10.1205 20.451L12.7492 22.3608C12.8527 22.019 12.9895 21.677 13.1607 21.3411L13.5939 20.4908C13.5208 20.4695 13.4486 20.4412 13.3782 20.4056C12.9255 20.1769 12.6715 19.7109 12.6911 19.2352C12.5612 19.2554 12.4249 19.2473 12.2908 19.2063L10.5714 18.6806C10.0966 18.5354 9.82938 18.0329 9.97454 17.5581L10.5002 15.8386C10.6454 15.3638 11.148 15.0966 11.6228 15.2418L13.3422 15.7675C13.4714 15.807 13.5853 15.873 13.6796 15.9577C13.847 14.711 13.7405 13.4631 13.3748 12.3502C12.7415 10.4225 11.356 8.94202 9.26783 8.45579C8.59392 8.29887 8.17481 7.62536 8.33173 6.95144ZM22.2617 29.2721C22.3926 29.1901 22.5214 29.1005 22.6475 29.0037L22.5103 29.4527L22.2617 29.2721Z" fill="#131F22" stroke="#131F22"/><path d="M19.851 6.97648L20.884 7.84326C21.2643 8.16241 21.3139 8.72945 20.9948 9.10978L20.128 10.1428C19.8089 10.5231 19.2418 10.5727 18.8615 10.2536L17.8285 9.3868C17.4482 9.06766 17.3985 8.50062 17.7177 8.12028L18.5845 7.08728C18.9036 6.70695 19.4707 6.65734 19.851 6.97648Z" fill="#131F22"/><path fill-rule="evenodd" clip-rule="evenodd" d="M8.33173 6.95144C8.48864 6.27753 9.16216 5.85843 9.83607 6.01534C12.9007 6.72893 14.8912 8.93791 15.7554 11.568C16.1399 12.7382 16.3063 13.9998 16.2528 15.2725C16.2528 15.2725 15.1934 17.3516 16.378 15.0267C17.5626 12.7018 19.9454 11.542 21.7002 12.4361L22.0162 12.5971C22.1113 12.473 22.2163 12.354 22.3304 12.2399C23.692 10.8783 25.3723 11.397 26.2168 11.6577L26.2951 11.6818C26.8204 11.8428 27.0972 11.9233 27.3151 11.9308C27.4104 11.934 27.4148 11.928 27.4326 11.9039C27.4358 11.8996 27.4394 11.8947 27.4441 11.8891L27.4449 11.8881C27.46 11.8702 27.4763 11.851 27.474 11.7672C27.471 11.6547 27.4298 11.4692 27.308 11.2144C27.0605 10.6971 26.6144 10.1704 26.2781 9.86946C25.7642 9.40964 25.7204 8.62029 26.1802 8.1064C26.64 7.59251 27.4294 7.54868 27.9433 8.0085C28.4602 8.47101 29.1376 9.2524 29.5607 10.1368C29.6966 10.4209 29.8278 10.7668 29.9041 11.1448C30.1123 10.8012 30.5339 10.6288 30.9356 10.7517L31.9552 11.0634L33.4408 8.36478C34.0078 7.33481 34.8703 6.72161 35.3672 6.99515L35.884 7.27969C35.9576 7.29579 36.0303 7.32146 36.1005 7.35724L37.302 7.96943C37.7444 8.19484 37.9203 8.73618 37.6949 9.17857L37.0827 10.3801C37.0287 10.486 36.9566 10.5767 36.872 10.6503L34.9862 14.0758C34.887 14.2559 34.7788 14.4233 34.6651 14.5754L36.134 16.8373C36.4044 17.2537 36.2861 17.8104 35.8697 18.0808L33.6078 19.5497C33.1914 19.8201 32.6346 19.7018 32.3642 19.2854L30.8954 17.0235C30.625 16.6071 30.7433 16.0504 31.1597 15.7799L32.3103 15.0328L31.8027 14.7534C31.7365 14.7486 31.6698 14.7364 31.6037 14.7161L29.8843 14.1905C29.5824 14.0982 29.3644 13.8614 29.283 13.5791C28.6808 14.2432 27.9304 14.4504 27.2301 14.4265C26.655 14.4069 26.0683 14.2255 25.6606 14.0994L25.5635 14.0694C24.9834 13.8917 24.6611 13.8262 24.4533 13.8388L26.4662 14.8645C27.7666 15.527 28.3571 17.1316 28.0938 18.8643C28.3166 18.6926 28.6164 18.6278 28.9059 18.7163L30.6254 19.242C31.1002 19.3871 31.3674 19.8897 31.2222 20.3645L30.6965 22.0839C30.5514 22.5587 30.0488 22.826 29.574 22.6808L27.8546 22.1551C27.4487 22.031 27.1945 21.6457 27.22 21.2399L24.2813 27.0073C24.0647 27.4324 23.8081 27.8185 23.5225 28.1603C23.6249 28.1548 23.73 28.1668 23.8338 28.1985L24.6673 28.4534C24.5258 28.0994 24.5469 27.6856 24.7606 27.3351C25.9976 25.3062 27.7564 23.934 29.6995 23.2354L30.6584 22.3287C31.3926 21.6346 32.4737 21.5859 33.0731 22.2199L33.5504 22.7247C36.0885 22.9319 38.5792 24.1975 40.3733 26.5544C40.7925 27.1049 40.6859 27.891 40.1353 28.3101C39.5848 28.7293 38.7987 28.6227 38.3796 28.0721C37.5945 27.0408 36.6383 26.2906 35.6054 25.816C35.5375 26.2116 35.333 26.6055 34.9997 26.9206L32.341 29.4342C31.6068 30.1283 30.5257 30.1771 29.9263 29.5431L29.0907 28.6593L29.0631 28.7495C28.9804 29.0202 28.7814 29.2235 28.5377 29.3212C28.5429 29.3385 28.5477 29.3559 28.552 29.3735L32.0268 30.4359C33.0362 30.7445 33.7525 31.347 33.6621 31.8005C33.6936 31.9458 33.6894 32.1009 33.6429 32.2532L33.2486 33.5427C33.1035 34.0175 32.6009 34.2847 32.1261 34.1396L30.8365 33.7453C30.7373 33.715 30.6472 33.6691 30.568 33.611L27.2564 32.5986C26.6787 32.422 26.1969 32.149 25.9075 31.8629L25.5441 31.7517C25.3399 32.1073 24.9106 32.288 24.5018 32.163L24.3496 32.1165C24.2249 32.3937 24.0062 32.6306 23.7117 32.7743L9.6654 39.6314C9.18187 39.8674 8.63878 39.9535 8.10596 39.8784C6.63104 39.6706 5.60386 38.3064 5.81169 36.8315L7.9926 21.3537C8.02338 21.1353 8.10728 20.9278 8.23694 20.7493C8.67469 20.1468 9.51799 20.0132 10.1205 20.451L12.7492 22.3608C12.8527 22.019 12.9895 21.677 13.1607 21.3411L13.5939 20.4908C13.5208 20.4695 13.4486 20.4412 13.3782 20.4056C12.9255 20.1769 12.6715 19.7109 12.6911 19.2352C12.5612 19.2554 12.4249 19.2473 12.2908 19.2063L10.5714 18.6806C10.0966 18.5354 9.82938 18.0329 9.97454 17.5581L10.5002 15.8386C10.6454 15.3638 11.148 15.0966 11.6228 15.2418L13.3422 15.7675C13.4714 15.807 13.5853 15.873 13.6796 15.9577C13.847 14.711 13.7405 13.4631 13.3748 12.3502C12.7415 10.4225 11.356 8.94202 9.26783 8.45579C8.59392 8.29887 8.17481 7.62536 8.33173 6.95144ZM22.2617 29.2721C22.3926 29.1901 22.5214 29.1005 22.6475 29.0037L22.5103 29.4527L22.2617 29.2721Z" stroke="#131F22" stroke-width="5.99324" mask="url(#path-1-outside-1)"/><path d="M39.9923 19.2731L38.6538 19.1088C38.161 19.0483 37.7125 19.3987 37.652 19.8915L37.4876 21.2299C37.4271 21.7227 37.7776 22.1713 38.2704 22.2318L39.6088 22.3961C40.1016 22.4566 40.5501 22.1062 40.6106 21.6134L40.775 20.275C40.8355 19.7822 40.4851 19.3336 39.9923 19.2731Z" fill="#131F22" stroke="#131F22" stroke-width="5.99324" mask="url(#path-1-outside-1)"/><path d="M6.6604 11.803L8.3798 12.3286C8.41189 12.3384 8.44303 12.3499 8.47316 12.3628L8.8887 11.0037C9.03386 10.5289 9.53644 10.2617 10.0112 10.4068L11.7307 10.9325C12.2055 11.0777 12.4727 11.5802 12.3275 12.055L11.8018 13.7745C11.6567 14.2493 11.1541 14.5165 10.6793 14.3713L8.95989 13.8456C8.9278 13.8358 8.89666 13.8244 8.86653 13.8114L8.45099 15.1706C8.30583 15.6454 7.80325 15.9126 7.32845 15.7675L5.60904 15.2418C5.13424 15.0966 4.86701 14.594 5.01218 14.1192L5.53785 12.3998C5.68301 11.925 6.18559 11.6578 6.6604 11.803Z" stroke="#131F22" stroke-width="5.99324" mask="url(#path-1-outside-1)"/><path d="M19.851 6.97648L20.884 7.84326C21.2643 8.16241 21.3139 8.72945 20.9948 9.10978L20.128 10.1428C19.8089 10.5231 19.2418 10.5727 18.8615 10.2536L17.8285 9.3868C17.4482 9.06766 17.3985 8.50062 17.7177 8.12028L18.5845 7.08728C18.9036 6.70695 19.4707 6.65734 19.851 6.97648Z" stroke="#131F22" stroke-width="5.99324" mask="url(#path-1-outside-1)"/><path d="M9.66394 39.6321L23.7102 32.775C24.3795 32.4483 24.6572 31.6409 24.3304 30.9717C24.2337 30.7734 24.0897 30.602 23.9113 30.4723L10.119 20.4517C9.51653 20.0139 8.67324 20.1475 8.23549 20.75C8.10582 20.9285 8.02192 21.136 7.99114 21.3545L5.81023 36.8322C5.6024 38.3071 6.62959 39.6713 8.10451 39.8791C8.63732 39.9542 9.18041 39.8681 9.66394 39.6321Z" fill="url(#paint0_linear)"/><path fill-rule="evenodd" clip-rule="evenodd" d="M26.1788 8.10694C26.6386 7.59305 27.428 7.54922 27.9419 8.00904C28.4588 8.47155 29.1362 9.25294 29.5593 10.1374C29.9599 10.9749 30.3199 12.3498 29.3529 13.4982C28.7392 14.2268 27.9569 14.4519 27.2287 14.427C26.6536 14.4074 26.0669 14.226 25.6592 14.0999C25.6256 14.0895 25.5932 14.0795 25.5621 14.07C24.5107 13.7478 24.3064 13.7946 24.0948 14.0062C23.9551 14.1459 23.9244 14.2324 23.9159 14.2627C23.9074 14.2932 23.8991 14.3472 23.9246 14.4553C23.9899 14.7325 24.2016 15.0965 24.5997 15.6601C24.6488 15.7296 24.7018 15.8035 24.7576 15.8811C25.0813 16.3322 25.4954 16.9092 25.7523 17.4809C26.0815 18.2137 26.2794 19.212 25.654 20.1994C25.1509 20.9939 24.4492 21.4259 23.654 21.5403C22.9535 21.6411 22.2747 21.478 21.797 21.3458C21.601 21.2915 21.4361 21.2424 21.2902 21.1989C21.0073 21.1146 20.796 21.0517 20.5683 21.0141C20.4784 20.9992 20.415 20.9944 20.3721 20.9939C20.325 21.0695 20.3091 21.1316 20.3025 21.1807C20.2895 21.2769 20.302 21.4208 20.3825 21.6167C20.5561 22.0393 20.9456 22.456 21.2653 22.6581C21.8481 23.0266 22.0219 23.7979 21.6533 24.3807C21.2848 24.9635 20.5135 25.1373 19.9307 24.7687C19.2326 24.3273 18.4681 23.5282 18.0727 22.5657C17.8686 22.069 17.7427 21.478 17.8277 20.8473C17.915 20.1989 18.2149 19.5915 18.7286 19.0778L18.8059 19.0006L18.8954 18.9379C19.6196 18.4309 20.4154 18.4579 20.975 18.5503C21.3666 18.6149 21.8174 18.7489 22.1648 18.8521C22.2768 18.8854 22.3781 18.9155 22.4632 18.9391C22.9104 19.0629 23.1523 19.0896 23.2983 19.0686C23.3005 19.0683 23.3028 19.068 23.305 19.0677C23.3557 19.0608 23.4253 19.0512 23.5444 18.8633C23.5445 18.8631 23.5449 18.8628 23.5454 18.8623C23.5544 18.8549 23.611 18.8082 23.4744 18.5044C23.3292 18.1812 23.0902 17.8458 22.7605 17.383C22.6971 17.294 22.6303 17.2002 22.5601 17.1009C22.189 16.5756 21.6858 15.842 21.494 15.0282C21.3909 14.5909 21.3684 14.1011 21.5107 13.5915C21.6529 13.0816 21.9378 12.6316 22.329 12.2404C23.6906 10.8788 25.3709 11.3975 26.2155 11.6583C26.2424 11.6666 26.2685 11.6746 26.2937 11.6824C26.8191 11.8433 27.0958 11.9239 27.3138 11.9313C27.409 11.9346 27.4134 11.9285 27.4312 11.9045C27.4344 11.9001 27.438 11.8952 27.4427 11.8897L27.4435 11.8887C27.4587 11.8708 27.4749 11.8515 27.4727 11.7677C27.4697 11.6552 27.4284 11.4697 27.3066 11.215C27.0591 10.6976 26.613 10.1709 26.2767 9.87C25.7628 9.41018 25.719 8.62083 26.1788 8.10694ZM20.2941 21.0003C20.2939 21.0002 20.2961 20.9993 20.301 20.9983C20.2968 21 20.2943 21.0005 20.2941 21.0003Z" fill="#CA94FF"/><path d="M39.375 27.3135C35.7506 22.5525 28.9307 22.9 25.8289 27.9875" stroke="#14D4F4" stroke-width="2.50573" stroke-linecap="round"/><path d="M9.55078 7.23584C14.7036 8.43565 16.3026 14.6148 13.942 19.2876" stroke="#FF82BD" stroke-width="2.50573" stroke-linecap="round"/><path d="M33.4201 14.3115L31.1582 15.7804C30.7419 16.0508 30.6235 16.6076 30.8939 17.024L32.3628 19.2858C32.6332 19.7022 33.19 19.8206 33.6064 19.5502L35.8682 18.0813C36.2846 17.8109 36.403 17.2541 36.1326 16.8377L34.6637 14.5759C34.3933 14.1595 33.8365 14.0411 33.4201 14.3115Z" fill="#FF82BD"/><path d="M40.8928 19.2734L39.5544 19.1091C39.0616 19.0486 38.6131 19.399 38.5526 19.8918L38.3882 21.2302C38.3277 21.723 38.6781 22.1716 39.1709 22.2321L40.5094 22.3964C41.0022 22.4569 41.4507 22.1065 41.5112 21.6137L41.6755 20.2753C41.7361 19.7825 41.3856 19.3339 40.8928 19.2734Z" fill="#CA94FF"/><path d="M8.37794 12.329L6.65853 11.8034C6.18373 11.6582 5.68115 11.9254 5.53599 12.4002L5.01031 14.1196C4.86515 14.5944 5.13238 15.097 5.60718 15.2422L7.32659 15.7679C7.80139 15.913 8.30397 15.6458 8.44913 15.171L8.97481 13.4516C9.11997 12.9768 8.85274 12.4742 8.37794 12.329Z" fill="#CA94FF"/><path d="M33.0457 31.1312L31.7562 30.737C31.2814 30.5918 30.7788 30.859 30.6336 31.3338L30.2394 32.6234C30.0942 33.0982 30.3615 33.6008 30.8363 33.7459L32.1258 34.1402C32.6006 34.2853 33.1032 34.0181 33.2484 33.5433L33.6426 32.2538C33.7878 31.779 33.5205 31.2764 33.0457 31.1312Z" fill="#FFC300"/><path d="M37.2994 7.96955L36.0979 7.35735C35.6555 7.13195 35.1141 7.30784 34.8887 7.75022L34.2765 8.95173C34.0511 9.39411 34.227 9.93545 34.6694 10.1609L35.8709 10.7731C36.3133 10.9985 36.8547 10.8226 37.0801 10.3802L37.6923 9.17868C37.9177 8.7363 37.7418 8.19495 37.2994 7.96955Z" fill="#FFC300"/><path d="M20.8818 7.84357L19.8488 6.97678C19.4685 6.65764 18.9014 6.70725 18.5823 7.08759L17.7155 8.12058C17.3964 8.50092 17.446 9.06796 17.8263 9.3871L18.8593 10.2539C19.2397 10.573 19.8067 10.5234 20.1258 10.1431L20.9926 9.11009C21.3118 8.72975 21.2622 8.16271 20.8818 7.84357Z" fill="#14D4F4"/></g><defs><linearGradient id="paint0_linear" x1="14.8825" y1="45.1939" x2="12.5814" y2="19.3427" gradientUnits="userSpaceOnUse"><stop stop-color="#FFE600"/><stop offset="1" stop-color="#FFD300"/></linearGradient><clipPath id="clip0"><rect width="44.9493" height="44.9493" fill="black" transform="translate(0 0.525391)"/></clipPath></defs></svg>