<svg width="26" height="26" viewBox="0 0 26 26" fill="none" xmlns="http://www.w3.org/2000/svg"><path d="M13 24.5C19.3513 24.5 24.5 19.3513 24.5 13C24.5 6.64873 19.3513 1.5 13 1.5C6.64873 1.5 1.5 6.64873 1.5 13C1.5 19.3513 6.64873 24.5 13 24.5Z" fill="#FF4B4B" stroke="#131F22" stroke-width="3"/><path d="M13 19.25C14.0355 19.25 14.875 18.4105 14.875 17.375C14.875 16.3395 14.0355 15.5 13 15.5C11.9645 15.5 11.125 16.3395 11.125 17.375C11.125 18.4105 11.9645 19.25 13 19.25Z" fill="#131F22"/><path d="M10.6329 9.7817C10.2479 8.24175 11.4127 6.75 13 6.75C14.5873 6.75 15.7521 8.24174 15.3671 9.7817L14.5532 13.0373C14.375 13.75 13.7346 14.25 13 14.25C12.2654 14.25 11.625 13.75 11.4468 13.0373L10.6329 9.7817Z" fill="#131F22"/></svg>