<?xml version="1.0" encoding="UTF-8"?>
<svg width="74px" height="75px" viewBox="0 0 74 75" version="1.1" xmlns="http://www.w3.org/2000/svg" xmlns:xlink="http://www.w3.org/1999/xlink"><title>duo_sad</title><desc>Created with Sketch.</desc><g id="duo_sad" stroke="none" fill="none" fill-rule="evenodd"><path d="M-5.62142416,28.3961677 L38.5053887,39.5740815 C40.8705954,40.1732201 41.9722663,42.9424598 40.6810862,45.0430721 C34.4774244,55.1357678 22.4080512,60.1331877 10.7498359,57.1800053 C-0.908379473,54.2268229 -9.25576923,44.057563 -10.0695911,32.1872445 C-10.2389734,29.7166522 -7.98663079,27.7970291 -5.62142416,28.3961677 Z" id="Combined-Shape-Copy-85" fill="#78C800" fill-rule="nonzero" transform="translate(15.574831, 43.153846) rotate(-104.000000) translate(-15.574831, -43.153846)"/><path d="M36.9244725,28.5334054 L81.0095452,39.9632525 C83.3747518,40.5623911 84.5948539,42.772107 83.3036738,44.8727192 C77.100012,54.965415 65.0306388,59.9628349 53.3724235,57.0096525 C41.7142081,54.0564701 33.3668184,43.8872102 32.5529965,32.0168917 C32.3836142,29.5462993 34.5592659,27.9342668 36.9244725,28.5334054 Z" id="Combined-Shape-Copy-86" fill="#78C800" fill-rule="nonzero" transform="translate(58.185670, 43.129841) scale(-1, 1) rotate(-104.000000) translate(-58.185670, -43.129841)"/><rect id="Rectangle-19" fill="#78C800" fill-rule="nonzero" x="3.22318996" y="63.3406593" width="23.515625" height="6.52747253" rx="3.26373626"/><rect id="Rectangle-19-Copy" fill="#78C800" fill-rule="nonzero" x="47.4040612" y="63.3406593" width="23.515625" height="6.52747253" rx="3.26373626"/><path d="M20.9051743,0.903916007 C28.7009395,4.2495901 34.0500457,5.92242714 36.9524929,5.92242714 C39.8352853,5.92242714 45.0982552,4.2721695 52.7414024,0.971654204 L52.741401,0.971650985 C57.961787,-1.28265125 64.0212191,1.12183473 66.2755213,6.34222073 C66.8320792,7.63106621 67.1191811,9.02011587 67.1191811,10.423996 L67.1191811,42.9674726 C67.1191811,59.6935679 53.5600018,73.2527473 36.8339065,73.2527473 L36.8339065,73.2527473 C20.1078112,73.2527473 6.54863188,59.6935679 6.54863188,42.9674726 L6.54863509,10.3653949 C6.54863509,4.67907218 11.1583105,0.0693968103 16.8446332,0.0693968103 C18.2407272,0.0693968103 19.6222376,0.353323745 20.9051743,0.903916007 Z" id="Rectangle-7-Copy-10" fill="#78C800" fill-rule="nonzero"/><path d="M19.121429,10.3053999 L32.575411,10.1538462 C33.2896071,10.1535703 33.7957304,10.8617527 33.5749574,11.5524406 C32.5142216,14.8709507 29.4308507,17.1634743 25.9105444,17.1648346 C22.390238,17.1661948 19.3085779,14.8760532 18.2503194,11.5583619 C18.0300621,10.8678444 18.4072329,10.3056758 19.121429,10.3053999 Z" id="Combined-Shape-Copy-91" fill="#8EE000" fill-rule="nonzero" transform="translate(25.907454, 13.659341) rotate(-312.000000) translate(-25.907454, -13.659341)"/><path d="M31.0365387,14.5205583 C34.0791182,17.9400292 39.6697587,17.9249655 42.6534299,14.5054945 C42.6534299,22.4892813 42.6534299,34.3895251 42.6534299,34.3294437 C42.6534299,34.2893895 38.7811328,34.2893895 31.0365387,34.3294437 C31.006998,28.5047569 31.006998,21.9017951 31.0365387,14.5205583 Z" id="Path-12-Copy-4" fill="#8EE000" fill-rule="nonzero"/><path d="M14.4903877,12.5765771 L27.824056,12.5714287 C28.5387435,12.5711527 29.045215,13.2793352 28.8242901,13.9700231 C27.7628245,17.2885331 24.6773321,19.5810568 21.1546037,19.582417 C17.6318753,19.5837772 14.5480949,17.2936357 13.4891083,13.9759443 C13.2686994,13.2854269 13.7757002,12.5768531 14.4903877,12.5765771 Z" id="Combined-Shape-Copy-92" fill="#8EE000" fill-rule="nonzero" transform="translate(21.156823, 16.076923) rotate(-312.000000) translate(-21.156823, -16.076923)"/><path d="M22.0168387,10.8791209 L22.6721233,10.8791209 C28.984832,10.8791209 34.1022935,15.9965824 34.1022935,22.3092911 L34.1022935,29.9104891 C34.1022935,36.2231978 28.984832,41.3406593 22.6721233,41.3406593 L22.0168387,41.3406593 C15.70413,41.3406593 10.5866685,36.2231978 10.5866685,29.9104891 L10.5866685,22.3092911 C10.5866685,15.9965824 15.70413,10.8791209 22.0168387,10.8791209 Z" id="Rectangle-130-Copy-60" fill="#8EE000" fill-rule="nonzero"/><path d="M41.093923,10.1589947 L54.4275914,10.1538462 C55.1422789,10.1535703 55.6487504,10.8617527 55.4278255,11.5524406 C54.3663598,14.8709507 51.2808675,17.1634743 47.7581391,17.1648346 C44.2354107,17.1661948 41.1516303,14.8760532 40.0926437,11.5583619 C39.8722348,10.8678444 40.3792355,10.1592706 41.093923,10.1589947 Z" id="Combined-Shape-Copy-93" fill="#8EE000" fill-rule="nonzero" transform="translate(47.760359, 13.659341) scale(-1, 1) rotate(-312.000000) translate(-47.760359, -13.659341)"/><path d="M45.6070228,12.5765771 L58.9406911,12.5714287 C59.6553786,12.5711527 60.1618501,13.2793352 59.9409252,13.9700231 C58.8794596,17.2885331 55.7939672,19.5810568 52.2712388,19.582417 C48.7485104,19.5837772 45.66473,17.2936357 44.6057434,13.9759443 C44.3853345,13.2854269 44.8923353,12.5768531 45.6070228,12.5765771 Z" id="Combined-Shape-Copy-94" fill="#8EE000" fill-rule="nonzero" transform="translate(52.273458, 16.076923) scale(-1, 1) rotate(-312.000000) translate(-52.273458, -16.076923)"/><path d="M51.2325687,10.6373626 L51.8885058,10.6373626 C58.2012146,10.6373626 63.3186761,15.7548242 63.3186761,22.0675329 L63.3186761,29.6687309 C63.3186761,35.9814396 58.2012146,41.0989011 51.8885058,41.0989011 L51.2917031,41.0989011 C45.0136921,41.0989011 39.9107178,36.0354715 39.8618787,29.7576505 L39.8027443,22.1564525 C39.7536354,15.8439348 44.8311313,10.6868175 51.143649,10.6377085 C51.1732884,10.6374779 51.2029285,10.6373626 51.2325687,10.6373626 Z" id="Rectangle-130-Copy-61" fill="#8EE000" fill-rule="nonzero"/><rect id="Rectangle-18" fill="#131F22" x="12.7244526" y="69.6263736" width="45.6060606" height="18.3736264"/><path d="M21.7539252,14.989011 L21.7539252,14.989011 C26.34721,14.989011 30.070803,18.712604 30.070803,23.3058889 L30.070803,28.7757438 C30.070803,33.3690286 26.34721,37.0926217 21.7539252,37.0926217 L21.7539252,37.0926217 C17.1606403,37.0926217 13.4370473,33.3690286 13.4370473,28.7757438 L13.4370473,23.3058889 C13.4370473,18.712604 17.1606403,14.989011 21.7539252,14.989011 Z" id="Mask" fill="#FFFFFF"/><path d="M14.8622367,25.0534513 C15.5579671,26.4002072 16.946363,27.3186813 18.5456125,27.3186813 C20.8422549,27.3186813 22.7040514,25.4245014 22.7040514,23.0879121 C22.7040514,20.7513228 20.8422549,18.8571429 18.5456125,18.8571429 C17.8688021,18.8571429 17.2297561,19.0216438 16.6649944,19.3134907 C17.9245523,17.9355601 19.7366671,17.0712513 21.7506521,17.0712513 C25.5550189,17.0712513 28.6390675,20.1553 28.6390675,23.9596667 L28.6390675,26.3121024 C28.3078573,26.1822589 27.948005,26.1110794 27.571812,26.1110794 C25.9319987,26.1110794 24.6026674,27.4635326 24.6026674,29.1318681 C24.6026674,30.8002037 25.9319987,32.1526569 27.571812,32.1526569 C27.5789443,32.1526569 27.5860708,32.1526313 27.5931914,32.1525802 C26.3755798,34.0971186 24.2141338,35.3902871 21.7506521,35.3902871 C17.9462853,35.3902871 14.8622367,32.3062385 14.8622367,28.5018717 L14.8622367,25.0534513 Z" id="Path" fill="#4B4B4B"/><path d="M26.3908345,51.4972953 L34.0130732,51.4945055 C34.4216269,51.494356 34.7111531,51.8781002 34.5848606,52.2523646 C33.97807,54.050572 32.2142373,55.2928262 30.2004572,55.2935633 C28.186677,55.2943003 26.423823,54.0533369 25.8184496,52.2555732 C25.692452,51.8814011 25.9822808,51.4974449 26.3908345,51.4972953 Z" id="Combined-Shape-Copy-46" fill="#8EE000" fill-rule="nonzero"/><path d="M39.6926021,51.4972953 L47.3148409,51.4945055 C47.7233945,51.494356 48.0129208,51.8781002 47.8866283,52.2523646 C47.2798377,54.050572 45.516005,55.2928262 43.5022249,55.2935633 C41.4884447,55.2943003 39.7255907,54.0533369 39.1202173,52.2555732 C38.9942197,51.8814011 39.2840485,51.4974449 39.6926021,51.4972953 Z" id="Combined-Shape-Copy-46" fill="#8EE000" fill-rule="nonzero"/><path d="M33.0417183,58.0247679 L40.6639571,58.0219781 C41.0725107,58.0218285 41.3620369,58.4055727 41.2357444,58.7798371 C40.6289538,60.5780445 38.8651212,61.8202987 36.851341,61.8210358 C34.8375608,61.8217728 33.0747068,60.5808094 32.4693334,58.7830457 C32.3433359,58.4088736 32.6331647,58.0249174 33.0417183,58.0247679 Z" id="Combined-Shape-Copy-46" fill="#8EE000" fill-rule="nonzero"/><path d="M16.4061919,56.3296703 L16.4061919,56.3296703 C18.5707454,56.3296703 20.3254627,58.0843877 20.3254627,60.2489412 L20.3254627,66.6741358 C20.3254627,68.8386893 18.5707454,70.5934066 16.4061919,70.5934066 L16.4061919,70.5934066 C14.2416383,70.5934066 12.486921,68.8386893 12.486921,66.6741358 L12.486921,60.2489412 C12.486921,58.0843877 14.2416383,56.3296703 16.4061919,56.3296703 Z" id="Rectangle-4-Copy-29" fill="#F49000" transform="translate(16.406192, 63.461538) rotate(-43.000000) translate(-16.406192, -63.461538)"/><path d="M57.2616211,56.3296703 L57.2616211,56.3296703 C59.4261747,56.3296703 61.180892,58.0843877 61.180892,60.2489412 L61.180892,66.6741358 C61.180892,68.8386893 59.4261747,70.5934066 57.2616211,70.5934066 L57.2616211,70.5934066 C55.0970676,70.5934066 53.3423503,68.8386893 53.3423503,66.6741358 L53.3423503,60.2489412 C53.3423503,58.0843877 55.0970676,56.3296703 57.2616211,56.3296703 Z" id="Rectangle-4-Copy-30" fill="#F49000" transform="translate(57.261621, 63.461538) scale(-1, 1) rotate(-43.000000) translate(-57.261621, -63.461538)"/><path d="M2.53767992,69.6263736 L71.1301331,69.6263736 C72.4569421,69.6263736 73.5325334,70.7019649 73.5325334,72.0287739 L73.5325334,72.0591382 C73.5325334,73.3859472 72.4569421,74.4615385 71.1301331,74.4615385 L2.53767992,74.4615385 C1.21087086,74.4615385 0.135279608,73.3859472 0.135279608,72.0591382 L0.135279608,72.0287739 C0.135279608,70.7019649 1.21087086,69.6263736 2.53767992,69.6263736 Z" id="Rectangle-11-Copy-4" fill="#253438"/><path d="M31.0143831,31.2740468 C31.5129089,28.6384946 33.7698285,26.5934066 36.8848061,26.5934066 C39.6604529,26.5934066 42.1549041,28.6384946 42.6534299,31.2740468 L42.6533851,31.9119514 C42.6533851,32.4421201 42.2235985,32.8719068 41.6934297,32.8719068 C41.5297034,32.8719068 41.3686978,32.8300308 41.2257191,32.7502599 C39.722193,31.9114098 38.2186669,31.4919848 36.7151407,31.4919848 C35.2515768,31.4919848 33.8312985,31.8894103 32.4543057,32.6842614 L32.4543022,32.6842554 C31.995122,32.9493111 31.4080128,32.7919422 31.142957,32.332762 C31.0587263,32.1868414 31.0143831,32.0213224 31.0143831,31.8528361 L31.0143831,31.2740468 Z" id="Combined-Shape-Copy-61" fill="#FFC200" fill-rule="nonzero"/><path d="M35.7073897,34.9617014 C34.6907316,35.5858014 33.3606344,35.2675702 32.7365344,34.2509122 C32.1124344,33.2342541 32.4306655,31.9041569 33.4473236,31.2800569 C35.7295016,29.8790869 38.1473836,29.8790869 40.2984565,31.3302544 C41.2873912,31.9974145 41.5482411,33.3399445 40.8810811,34.3288793 C40.213921,35.317814 38.871391,35.5786639 37.8824562,34.9115038 C37.1666534,34.4286054 36.5758023,34.4286054 35.7073897,34.9617014 Z" id="Path" fill="#F49000" fill-rule="nonzero"/><path d="M35.5858533,29.089317 C35.1410647,29.2527391 34.6480125,29.0246466 34.4845904,28.579858 C34.3211683,28.1350695 34.5492608,27.6420173 34.9940494,27.4785951 C36.0560236,27.0884095 37.1367263,27.0884095 38.1987005,27.4785951 C38.6434891,27.6420173 38.8715816,28.1350695 38.7081595,28.579858 C38.5447373,29.0246466 38.0516852,29.2527391 37.6068966,29.089317 C36.9269727,28.8395025 36.2657772,28.8395025 35.5858533,29.089317 Z" id="Path" fill="#FFDE00" fill-rule="nonzero"/><path d="M35.1176373,41.1228983 C34.7038259,41.5524721 34.020127,41.5652501 33.5905532,41.1514386 C33.1609793,40.7376272 33.1482014,40.0539283 33.5620128,39.6243545 L35.671585,37.434427 C36.3612707,36.7184706 37.5007688,36.697174 38.2167252,37.3868597 C38.2454673,37.4149626 38.2454673,37.4149626 38.27336,37.4439087 L40.3487722,39.6300435 C40.7594417,40.0626221 40.7416809,40.7462096 40.3091024,41.1568791 C39.8765238,41.5675486 39.1929362,41.5497878 38.7822668,41.1172092 L36.9660405,39.2040879 L35.1176373,41.1228983 Z" id="Path" fill="#6FBA00" fill-rule="nonzero"/><path d="M51.4453709,14.989011 L51.4453709,14.989011 C56.0386557,14.989011 59.7622487,18.712604 59.7622487,23.3058889 L59.7622487,28.7757438 C59.7622487,33.3690286 56.0386557,37.0926217 51.4453709,37.0926217 L51.4453709,37.0926217 C46.852086,37.0926217 43.128493,33.3690286 43.128493,28.7757438 L43.128493,23.3058889 C43.128493,18.712604 46.852086,14.989011 51.4453709,14.989011 Z" id="Mask" fill="#FFFFFF"/><path d="M57.2846371,32.1525802 C56.0670255,34.0971186 53.9055795,35.3902871 51.4420978,35.3902871 C47.637731,35.3902871 44.5536824,32.3062385 44.5536824,28.5018717 L44.5536824,25.0534513 C45.2494128,26.4002072 46.6378087,27.3186813 48.2370582,27.3186813 C50.5337006,27.3186813 52.3954971,25.4245014 52.3954971,23.0879121 C52.3954971,20.7513228 50.5337006,18.8571429 48.2370582,18.8571429 C47.5602478,18.8571429 46.9212018,19.0216438 46.3564401,19.3134907 C47.615998,17.9355601 49.4281128,17.0712513 51.4420978,17.0712513 C55.2464646,17.0712513 58.3305132,20.1553 58.3305132,23.9596667 L58.3305132,26.3121024 C57.999303,26.1822589 57.6394507,26.1110794 57.2632577,26.1110794 C55.6234444,26.1110794 54.2941131,27.4635326 54.2941131,29.1318681 C54.2941131,30.8002037 55.6234444,32.1526569 57.2632577,32.1526569 C57.27039,32.1526569 57.2775165,32.1526313 57.2846371,32.1525802 Z" id="Path" fill="#4B4B4B"/><path d="M29.9522836,30.5855985 C29.1089898,34.3110153 25.778221,37.0926217 21.7977731,37.0926217 C18.0207947,37.0926217 14.8287733,34.588123 13.7918368,31.1492535 C14.43328,30.8647652 15.2074896,30.853683 15.9659126,31.2843174 C16.8478456,31.7850811 18.3202242,32.0803528 20.3679667,32.0882842 C21.5751284,32.0929598 22.7144389,31.8129542 24.0490592,31.2620675 C24.4067635,31.1144191 25.519314,30.6164093 25.6096253,30.5777489 C26.4269352,30.2278748 26.9559391,30.0622557 27.6390538,30.0649016 C28.5006698,30.0682388 29.3036751,30.2431923 29.9522836,30.5855985 Z" id="Path" fill="#34A9FF" opacity="0.699404762"/><path d="M43.4335937,30.5855985 C44.0822022,30.2431923 44.7749127,30.0682388 45.6365286,30.0649016 C46.3196434,30.0622557 46.8486473,30.2278748 47.6659572,30.5777489 C47.7562685,30.6164093 48.868819,31.1144191 49.2265233,31.2620675 C50.5611436,31.8129542 51.700454,32.0929598 52.9076158,32.0882842 C54.9553583,32.0803528 56.4277369,31.7850811 57.3096699,31.2843174 C58.0680929,30.853683 58.8423025,30.8647652 59.4837457,31.1492535 C58.4468091,34.588123 55.2547877,37.0926217 51.4778094,37.0926217 C47.4973615,37.0926217 44.1665927,34.3110153 43.3232989,30.5855985 L43.4335937,30.5855985 Z" id="Path" fill="#34A9FF" opacity="0.699404762"/></g></svg>