<svg width="182" height="240" viewBox="0 0 182 240" version="1.1" xmlns="http://www.w3.org/2000/svg" xmlns:xlink="http://www.w3.org/1999/xlink"><title>duo-traveler</title><defs><path d="M21.816.99c20.724 6.142 34.162 9.213 40.315 9.213 3.504 0 7.152-1.485 10.946-4.456 7.388-5.784 18.066-4.484 23.85 2.904a16.988 16.988 0 0 1 3.612 10.473v51.012c0 27.763-22.507 50.27-50.27 50.27S0 97.898 0 70.135V17.277C0 7.895 7.606.29 16.988.29c1.635 0 3.26.236 4.828.7z" id="a"/><path d="M21.816.99c20.724 6.142 34.162 9.213 40.315 9.213 3.504 0 7.152-1.485 10.946-4.456 7.388-5.784 18.066-4.484 23.85 2.904a16.988 16.988 0 0 1 3.612 10.473v51.012c0 27.763-22.507 50.27-50.27 50.27S0 97.898 0 70.135V17.277C0 7.895 7.606.29 16.988.29c1.635 0 3.26.236 4.828.7z" id="b"/><path d="M14.08 0c7.642 0 13.838 6.196 13.838 13.838v8.538c0 7.642-6.196 13.838-13.838 13.838-7.643 0-13.838-6.196-13.838-13.838v-8.538C.242 6.196 6.437 0 14.08 0z" id="d"/><path d="M5.395 0a5.134 5.134 0 0 1 5.134 5.134v6.327a5.134 5.134 0 1 1-10.268 0V5.134A5.134 5.134 0 0 1 5.395 0z" id="f"/><path d="M21.816.99c20.724 6.142 34.162 9.213 40.315 9.213 3.504 0 7.152-1.485 10.946-4.456 7.388-5.784 18.066-4.484 23.85 2.904a16.988 16.988 0 0 1 3.612 10.473v51.012c0 27.763-22.507 50.27-50.27 50.27S0 97.898 0 70.135V17.277C0 7.895 7.606.29 16.988.29c1.635 0 3.26.236 4.828.7z" id="h"/></defs><g stroke="none" stroke-width="1" fill="none" fill-rule="evenodd"><g><g><g transform="matrix(-1 0 0 1 186 0)"><path d="M28.709 48.027c11.777 0 21.324 9.548 21.324 21.325v32.817c0 11.778-9.547 21.325-21.324 21.325h-14.99a6.336 6.336 0 0 1-6.335-6.336V69.352c0-11.777 9.547-21.325 21.325-21.325z" fill="#EA2B2B" fill-rule="nonzero"/><path d="M86.335 215.498c-.771 3.4.087 6.646 2.575 9.738" stroke="#F49000" stroke-width="13.068" stroke-linecap="round" stroke-linejoin="round"/><rect fill="#FF4B4B" fill-rule="nonzero" x="20.14" y="47.982" width="142.166" height="145.345" rx="20.592"/><g fill-rule="nonzero"><path d="M93.108 47.982h50.332c11.51 0 20.84 9.854 20.84 22.01v101.326c0 12.156-9.33 22.01-20.84 22.01H93.108c-11.51 0-20.84-9.854-20.84-22.01V69.992c0-12.156 9.33-22.01 20.84-22.01z" fill="#FF4B4B"/><path d="M158.491 58.617l-8.19-3.146a3.96 3.96 0 0 0-4.991 2.324l-6.779 17.68a3.96 3.96 0 0 0 2.278 5.116l21.095 8.104V69.992c0-4.144-1.208-8.084-3.413-11.375z" stroke="#FFDE00" stroke-width="4.752" fill="#1CB0F6"/><path d="M107.52 84.033l-.004-.004c-4.743-3.838-11.7-3.105-15.539 1.638-3.842 4.747-3.11 11.71 1.635 15.554l7.67 6.214.005.004c4.743 3.839 11.7 3.106 15.538-1.637 3.842-4.747 3.11-11.71-1.635-15.555l-7.67-6.214z" stroke="#F49000" stroke-width="4.752" fill="#FFF"/></g><rect fill="#EA2B2B" fill-rule="nonzero" x="15.401" y="47.982" width="38.306" height="145.345" rx="19.153"/><g fill-rule="nonzero"><g transform="rotate(-13 500.682 55.882)"><rect fill="#CCF8F7" x="0" y="10.765" width="29.618" height="55.316" rx="8.316"/><path d="M3.8 19.71c7.264 5.359 12.181 8.69 14.752 9.99 2.2 1.115 4.485.75 6.858-1.095a1.188 1.188 0 0 1 1.917.94l-.06 27.053a8.316 8.316 0 0 1-8.316 8.298h-8.673a8.316 8.316 0 0 1-8.316-8.304l-.055-35.924A1.188 1.188 0 0 1 3.8 19.71z" fill="#47D7FF"/><rect fill="#1899D6" x="5.075" y="0" width="18.166" height="7.902" rx="1.98"/><rect fill="#CCF8F7" x="5.015" y="7.86" width="19.35" height="3.951" rx="1.976"/></g></g><ellipse fill="#78C800" fill-rule="nonzero" cx="168.624" cy="176.93" rx="16.981" ry="17.455"/><rect stroke="#FF4B4B" stroke-width="7.524" x="122.42" y="154.211" width="50.548" height="34.77" rx="17.385"/><g><g fill="#78C800" fill-rule="nonzero"><path d="M90.924 95.933c20.724 6.143 34.162 9.214 40.315 9.214 3.504 0 7.153-1.485 10.947-4.456 7.387-5.784 18.065-4.484 23.849 2.904a16.988 16.988 0 0 1 3.612 10.472v51.013c0 27.763-22.506 50.269-50.27 50.269-27.762 0-50.269-22.506-50.269-50.27v-52.858c0-9.382 7.606-16.988 16.989-16.988 1.634 0 3.26.236 4.827.7z"/></g><g transform="translate(69.108 94.944)"><mask fill="#fff"><use xlink:href="#a"/></mask></g><g transform="translate(69.108 94.944)"><mask id="c" fill="#fff"><use xlink:href="#b"/></mask><g mask="url(#c)"><g><g transform="translate(21.325 9.483)"><path d="M36.332 15.962c4.325 4.717 11.387 3.933 15.008-.046 5.61-6.034 6.579 3.023 2.904 27.171H33.192c-.79-21.228.256-30.27 3.14-27.125z" fill="#8EE000"/><path d="M19.223 9.02h1.253c10.416 0 18.86 8.443 18.86 18.86v11.342c0 10.416-8.444 18.86-18.86 18.86h-1.253c-10.416 0-18.86-8.444-18.86-18.86V27.88c0-10.416 8.444-18.86 18.86-18.86z" fill="#8EE000"/><path d="M22.87 1.328l15.242 16.565c.8.888.502 2.296-.588 2.78-5.237 2.33-11.486 1.016-15.427-3.36-3.942-4.377-4.596-10.727-1.731-15.69C20.962.588 22.07.44 22.87 1.327z" fill="#8EE000" fill-rule="nonzero"/><path d="M15.283 5.266L30.202 21.83c.8.888.502 2.296-.588 2.78-5.237 2.33-11.486 1.016-15.427-3.36-3.942-4.377-4.596-10.727-1.731-15.691a1.757 1.757 0 0 1 2.827-.294zm49.393-3.328L52.29 15.334c-.648.72-.248 2.004.79 2.536 4.991 2.56 10.571 1.96 13.766-1.587 3.195-3.547 3.21-9.158.143-13.852-.639-.978-1.663-1.212-2.312-.493z" fill="#8EE000" fill-rule="nonzero"/><path d="M71.39 7.075L59.002 20.47c-.648.72-.248 2.004.791 2.537 4.99 2.56 10.57 1.96 13.765-1.588 3.195-3.547 3.21-9.157.143-13.852-.638-.977-1.663-1.212-2.311-.492zM87.648 5.85l12.1 13.434c.65.72.25 2.005-.79 2.538-4.99 2.559-10.572 1.956-13.77-1.593-3.197-3.55-3.214-9.162-.147-13.858.638-.977 1.958-1.241 2.607-.521z" fill="#8EE000" fill-rule="nonzero"/><path d="M64.537 9.02c8.179 0 14.809 6.63 14.809 14.808v19.445c0 8.179-6.63 14.809-14.809 14.809-8.179 0-14.809-6.63-14.809-14.809V23.828c0-8.178 6.63-14.809 14.809-14.809z" fill="#8EE000"/><g><g fill="#FFF" fill-rule="nonzero"><path d="M20.415 15.585c7.642 0 13.838 6.196 13.838 13.838v8.538c0 7.643-6.196 13.838-13.838 13.838-7.643 0-13.839-6.195-13.839-13.838v-8.538c0-7.642 6.196-13.838 13.839-13.838z"/></g><g transform="translate(6.335 15.585)"><mask id="e" fill="#fff"><use xlink:href="#d"/></mask><path d="M-.802 30.256c9.42-.129 18.107 2.9 26.064 9.084" stroke="#8EE000" stroke-width="8.316" mask="url(#e)"/></g></g><g fill="#FFF" fill-rule="nonzero"><path d="M62.607 15.98c6.113 0 11.069 4.956 11.069 11.07v13.68c0 6.113-4.956 11.07-11.07 11.07-6.113 0-11.069-4.957-11.069-11.07V27.05c0-6.114 4.956-11.07 11.07-11.07z"/><path d="M62.607 15.98c6.113 0 11.069 4.956 11.069 11.07v13.68c0 6.113-4.956 11.07-11.07 11.07-6.113 0-11.069-4.957-11.069-11.07V27.05c0-6.114 4.956-11.07 11.07-11.07z"/></g><path d="M63.45 20.947a5.331 5.331 0 0 1 5.332 5.331v9.884a5.331 5.331 0 1 1-10.662 0v-9.884a5.331 5.331 0 0 1 5.33-5.33zm-38.305-.395a6.516 6.516 0 0 1 6.516 6.516v7.514a6.516 6.516 0 1 1-13.032 0v-7.514a6.516 6.516 0 0 1 6.516-6.516z" fill="#4B4B4B"/><path d="M44.647 39.8a7.06 7.06 0 0 1 7.06 7.06v8.796a7.06 7.06 0 1 1-14.12 0V46.86a7.06 7.06 0 0 1 7.06-7.06z" fill="#F49000"/><g><g fill="#CD7900" fill-rule="nonzero"><path d="M45.437 42.96a5.134 5.134 0 0 1 5.134 5.134v6.327a5.134 5.134 0 1 1-10.268 0v-6.327a5.134 5.134 0 0 1 5.134-5.134z"/></g><g transform="translate(40.042 42.96)"><mask id="g" fill="#fff"><use xlink:href="#f"/></mask><ellipse fill="#FFBABA" fill-rule="nonzero" mask="url(#g)" cx=".147" cy="15.857" rx="8.096" ry="8.1"/></g></g><path d="M35.38 46.862c.777-4.697 4.93-8.194 9.832-8.194 4.902 0 9.054 3.497 9.83 8.194l.054.323-4.857 1.668-14.912-1.668.054-.323z" fill="#FFC200" fill-rule="nonzero"/><path d="M43.235 41.873a6.98 6.98 0 0 1 4.519 0" stroke="#FFDE00" stroke-width="2.831" stroke-linecap="round" stroke-linejoin="round"/><ellipse fill="#FFF" cx="19.689" cy="24.596" rx="4.236" ry="4.244"/><path d="M58.101 29.63a4.24 4.24 0 0 0 4.237-4.244 4.24 4.24 0 0 0-4.237-4.244 4.24 4.24 0 0 0-4.236 4.244 4.24 4.24 0 0 0 4.236 4.244z" fill="#FFF"/><path d="M78.754 47.605a16.864 16.864 0 0 1-1.223 3.182c-4.42 2.117-13.543 4.396-20.956 4.396-2.64 0-3.276-3.341-2.017-3.952 7.49-3.63 15.23-4.899 23.219-3.806.371.05.696.111.977.18z" fill="#8EE000"/></g></g></g></g><g transform="translate(69.108 94.944)"><mask fill="#fff"><use xlink:href="#h"/></mask></g></g><g fill="#8EE000" fill-rule="nonzero"><path d="M117.103 179.503l12.672-.004c.68 0 1.16.626.95 1.238-1.008 2.939-3.94 4.97-7.288 4.97-3.348.002-6.28-2.026-7.286-4.965-.21-.611.273-1.239.952-1.239zm20.93 0l12.672-.004c.68 0 1.16.626.95 1.238-1.008 2.939-3.94 4.97-7.288 4.97-3.348.002-6.28-2.026-7.286-4.965-.21-.611.273-1.239.952-1.239zm-9.873 10.668l12.673-.004c.679 0 1.16.627.95 1.238-1.009 2.94-3.941 4.97-7.289 4.97-3.348.002-6.279-2.026-7.285-4.964-.21-.612.272-1.24.951-1.24z"/></g><path d="M156.83 216.126c-1.372 3.204-3.974 5.325-7.804 6.364" stroke="#F49000" stroke-width="13.068" stroke-linecap="round" stroke-linejoin="round"/><g transform="translate(11.057)" fill-rule="nonzero"><path d="M119.709.568h9.767c10.498 0 19.008 8.51 19.008 19.008v9.398c0 10.498-8.51 19.008-19.008 19.008h-28.775V19.576C100.7 9.08 109.21.568 119.709.568z" fill="#1CB0F6"/><rect fill="#AA572A" x="46.204" y="3.729" width="77.401" height="44.253" rx="17.028"/><rect fill="#1CB0F6" x="48.178" y=".568" width="66.739" height="47.414" rx="19.8"/><rect fill="#AA572A" x="12.637" y="3.729" width="62.395" height="44.253" rx="17.028"/><rect fill="#1CB0F6" x="3.159" y=".568" width="62.395" height="47.414" rx="19.404"/><rect fill="#0190D3" x="0" y=".568" width="38.306" height="47.414" rx="17.82"/></g><path d="M11.86 158.557h41.452v34.77H11.86a4.752 4.752 0 0 1-4.752-4.751v-25.267a4.752 4.752 0 0 1 4.752-4.752z" fill="#EA2B2B" fill-rule="nonzero"/><path d="M18.166 164.484c1.105 0 2.015.869 2.066 1.973l.57 12.256a2.639 2.639 0 0 1-2.636 2.761 2.639 2.639 0 0 1-2.636-2.761l.57-12.256a2.068 2.068 0 0 1 2.066-1.973zM42.13 95.396c1.104 0 2.014.868 2.065 1.972l.57 12.257a2.639 2.639 0 0 1-2.636 2.76 2.639 2.639 0 0 1-2.636-2.76l.57-12.257a2.068 2.068 0 0 1 2.066-1.972z" fill="#DF8A8A" fill-rule="nonzero"/><path d="M16.194 88.679h26.847c.656 0 1.188.532 1.188 1.188v1.97c0 .656-.532 1.188-1.188 1.188H16.194a1.188 1.188 0 0 1-1.188-1.188v-1.97c0-.656.532-1.188 1.188-1.188z" fill="#D8D8D8" fill-rule="nonzero" opacity=".551"/><rect stroke="#EA2B2B" stroke-width="7.524" x="59.236" y="153.421" width="45.019" height="35.955" rx="17.978"/><ellipse fill="#78C800" fill-rule="nonzero" cx="80.363" cy="175.943" rx="21.127" ry="21.529"/></g><path d="M120.038 235.452H20.682" stroke="#424b4d" stroke-width="7.928" stroke-linecap="round" stroke-linejoin="round"/></g></g></g></svg>