<svg width="451" height="395" viewBox="0 0 451 395" fill="none" xmlns="http://www.w3.org/2000/svg"><mask id="mask0" mask-type="alpha" maskUnits="userSpaceOnUse" x="189" y="9" width="253" height="214"><path d="M441.502 9.48608H189.807V222.926H441.502V9.48608Z" fill="white"/></mask><g mask="url(#mask0)"><path d="M424.511 -5.96729H206.797C197.413 -5.96729 189.807 1.63958 189.807 11.0231V190.482C189.807 199.866 197.413 207.472 206.797 207.472H424.511C433.895 207.472 441.502 199.865 441.502 190.482V11.0231C441.502 1.63955 433.895 -5.96729 424.511 -5.96729Z" fill="#202f36"/><path d="M251.561 173.189C352.644 173.189 378.05 91.7093 389.263 54.8831" stroke="#B5E2F7" stroke-width="4.74076" stroke-linecap="round" stroke-linejoin="round"/><path fill-rule="evenodd" clip-rule="evenodd" d="M380.833 57.0218C379.819 56.7507 379.218 55.7105 379.49 54.6985C379.577 54.3724 379.75 54.0756 379.991 53.8386L391.007 42.9898C391.755 42.254 392.957 42.2623 393.694 43.0082C393.922 43.2389 394.087 43.524 394.173 43.8364L398.279 58.7306C398.558 59.7407 397.964 60.7852 396.952 61.0635C396.626 61.1532 396.283 61.1544 395.956 61.0671" fill="#B5E2F7"/><path d="M235.143 180.864H407.063C408.113 180.864 408.963 181.714 408.963 182.762C408.963 183.809 408.113 184.659 407.063 184.659H233.243C232.194 184.659 231.344 183.809 231.344 182.762V37.5003C231.344 36.4524 232.194 35.603 233.243 35.603C234.292 35.603 235.143 36.4524 235.143 37.5003V180.864Z" fill="#52656D"/></g><path d="M442.452 0H187.908C183.187 0 179.359 3.82241 179.359 8.53759V10.4348C179.359 15.15 183.187 18.9724 187.908 18.9724H442.452C447.173 18.9724 451 15.15 451 10.4348V8.53759C451 3.82241 447.173 0 442.452 0Z" fill="#1CB0F6"/><path d="M115.185 321.833C115.185 317.081 111.347 313.402 106.743 313.402H93.5424C88.9376 313.402 85.1004 317.234 85.1004 321.833C85.1004 326.586 88.9376 330.265 93.5424 330.265H106.743C111.347 330.418 115.185 326.586 115.185 321.833Z" fill="#F49000"/><path d="M149.414 330.265C153.559 330.265 157.089 327.353 157.703 323.213C158.47 318.614 155.4 314.169 150.796 313.402C149.875 313.249 148.647 312.176 147.265 310.489C144.349 306.81 139.13 306.044 135.293 308.956C131.609 311.869 130.842 317.081 133.758 320.914C137.902 326.126 142.661 329.346 147.879 330.112C148.493 330.265 148.954 330.265 149.414 330.265Z" fill="#F49000"/><path d="M12.653 272.778L71.5934 194.287C74.8167 190.148 81.1098 190.148 84.1796 194.441C98.7613 215.136 98.3008 243.19 82.6447 264.039C66.9887 284.888 40.1278 293.013 16.1833 284.735C11.2715 283.049 9.42965 277.07 12.653 272.778Z" fill="#4B4B4B"/><path fill-rule="evenodd" clip-rule="evenodd" d="M16.9522 266.952L32.7617 287.801C27.2361 287.648 21.7104 286.574 16.1847 284.735C11.273 283.049 9.4311 276.916 12.5009 272.777L16.9522 266.952Z" fill="#58CC02"/><path d="M114.265 230.774L199.145 180.797C203.75 178.038 209.583 180.644 210.657 185.856C216.183 210.538 204.978 236.446 182.568 249.783C160.159 263.12 132.07 260.361 113.037 243.498C109.046 239.818 109.66 233.533 114.265 230.774Z" fill="#4B4B4B"/><path d="M191.096 199.705L262.743 117.533" stroke="#A56644" stroke-width="4.89211" stroke-linecap="round"/><path d="M127.465 143.084C112.27 153.815 101.526 159.794 95.2324 161.174C89.0928 162.554 76.967 161.327 59.0085 157.801C47.0363 155.502 35.5245 163.167 33.2221 175.124C32.6081 178.037 32.6081 181.103 33.2221 183.863L47.4967 250.855C55.0178 286.268 89.8602 308.957 125.317 301.445C160.773 293.933 183.336 259.134 175.815 223.568L161.54 156.422C159.085 144.464 147.266 136.952 135.447 139.405C132.531 140.172 129.921 141.245 127.465 143.084Z" fill="#58CC02"/><path d="M83.5661 176.504L64.0728 162.247C62.8449 161.327 61.003 161.941 60.5425 163.32C59.3146 167 59.4681 170.832 60.696 174.358L54.0959 169.759C52.868 168.839 51.0261 169.452 50.5656 170.832C49.4912 174.358 49.4912 178.191 50.5656 181.563C45.1934 187.542 42.7376 195.82 44.426 204.405L47.3423 217.742C50.2586 231.693 64.0728 240.738 78.0405 237.672L78.6544 237.518C88.9383 235.372 96.4594 227.247 98.6082 217.589C100.604 217.129 103.52 216.516 107.357 215.749C109.046 215.443 111.808 214.83 115.646 214.063C121.478 222.035 131.609 226.327 141.893 224.181L142.66 224.028C156.628 221.115 165.53 207.318 162.614 193.367L159.698 180.03C157.856 171.445 152.023 164.853 144.655 161.634C144.195 158.108 142.814 154.582 140.358 151.976C139.283 150.75 137.441 151.056 136.674 152.436L132.53 159.488C132.223 155.809 130.688 152.129 128.232 149.37C127.158 148.144 125.776 148.297 125.009 149.677L111.808 172.059C111.655 172.212 111.655 172.365 111.501 172.518C105.822 180.49 93.85 182.79 84.7941 177.577C84.3336 176.964 84.0266 176.811 83.5661 176.504Z" fill="#89E219"/><path d="M129.615 169.299C119.945 171.292 113.652 180.95 115.801 190.608L118.103 201.186C120.099 211.151 129.615 217.283 139.285 215.29C148.955 213.297 155.248 203.639 153.099 193.981L150.797 183.403C148.801 173.438 139.285 167.306 129.615 169.299Z" fill="white"/><path d="M129.309 181.564C124.704 182.483 121.788 187.082 122.709 191.681L124.704 200.726C125.625 205.325 130.23 208.238 134.835 207.318C139.439 206.398 142.356 201.799 141.435 197.2L139.439 188.156C138.365 183.403 133.914 180.49 129.309 181.564Z" fill="#4B4B4B"/><path d="M124.365 193.763C121.313 193.763 118.839 191.292 118.839 188.244C118.839 185.196 121.313 182.725 124.365 182.725C127.417 182.725 129.891 185.196 129.891 188.244C129.891 191.292 127.417 193.763 124.365 193.763Z" fill="white"/><path d="M67.7595 182.483C58.0895 184.476 51.7964 194.134 53.9453 203.792L56.2476 214.37C58.3965 224.181 67.9129 230.313 77.5829 228.321C87.2528 226.328 93.5459 216.67 91.397 207.012L89.0947 196.434C86.9458 186.623 77.4294 180.337 67.7595 182.483Z" fill="white"/><path d="M72.978 193.521C68.3733 194.441 65.4569 199.04 66.3779 203.639L68.3733 212.684C69.2942 217.283 73.8989 220.196 78.5037 219.276C83.1084 218.356 86.0247 213.757 85.1038 209.158L83.1084 200.113C82.0339 195.361 77.5827 192.448 72.978 193.521Z" fill="#4B4B4B"/><path d="M68.2009 205.589C65.1492 205.589 62.6752 203.118 62.6752 200.07C62.6752 197.022 65.1492 194.551 68.2009 194.551C71.2526 194.551 73.7266 197.022 73.7266 200.07C73.7266 203.118 71.2526 205.589 68.2009 205.589Z" fill="white"/><path d="M137.442 219.429C141.74 216.669 146.959 214.216 153.405 212.224C156.936 211.15 159.085 207.471 158.164 203.792L155.247 192.601C140.666 196.28 129.154 201.799 121.172 208.851L129.768 218.509C131.61 220.808 134.987 221.115 137.442 219.429Z" fill="#8EE000"/><path d="M88.4796 228.78L92.7773 214.983C82.4935 211.763 69.7537 211.457 55.0186 213.91L57.321 227.094C57.7815 229.853 60.3908 231.693 63.1536 231.386C71.1352 230.313 78.0422 230.466 83.8749 231.693C85.8703 231.999 87.8656 230.773 88.4796 228.78Z" fill="#8EE000"/><path d="M103.826 201.186C98.9145 202.259 95.6912 207.165 96.7657 212.071L97.3796 214.983C98.4541 219.889 103.366 223.108 108.277 222.035C113.189 220.962 116.412 216.056 115.338 211.151L114.724 208.238C113.65 203.332 108.738 200.113 103.826 201.186Z" fill="#F49000"/><path d="M118.408 208.085C116.106 202.719 109.966 199.806 103.826 201.186C97.9936 202.413 93.6959 207.625 93.8493 213.297L94.0028 213.757C94.1563 214.217 94.3098 214.217 94.6168 214.217L106.589 213.757C106.896 213.757 106.896 213.757 107.05 213.604L118.254 209.158C118.715 209.158 118.715 209.005 118.715 208.545L118.408 208.085Z" fill="#FFC200"/><path d="M102.137 207.624C102.444 207.624 102.751 207.471 103.058 207.318C104.44 206.398 105.821 206.091 107.356 206.398C108.431 206.551 109.351 205.938 109.505 204.865C109.658 203.792 109.045 202.872 107.97 202.719C105.668 202.259 103.365 202.719 101.216 204.099C100.296 204.558 100.142 205.785 100.603 206.551C100.91 207.318 101.523 207.624 102.137 207.624Z" fill="#FFDE00"/><path d="M169.707 214.554L177.365 250.541L55.7605 276.356L48.1019 240.37L169.707 214.554Z" fill="white"/><path fill-rule="evenodd" clip-rule="evenodd" d="M118.715 225.407L99.2214 229.546C99.9889 232.919 103.212 234.912 106.436 234.299L113.957 232.766C117.333 231.999 119.329 228.78 118.715 225.407Z" fill="#4B4B4B"/><path fill-rule="evenodd" clip-rule="evenodd" d="M113.035 228.167L105.514 229.7L104.133 243.803C103.672 248.402 107.049 252.541 111.807 253.001C112.728 253.155 113.495 253.001 114.416 252.848C119.021 251.928 121.937 247.329 120.863 242.883C120.71 242.117 120.403 241.197 119.942 240.431L113.035 228.167Z" fill="#4B4B4B"/><path fill-rule="evenodd" clip-rule="evenodd" d="M171.516 197.047L113.957 247.483L43.8119 232.766C43.0445 232.612 42.1235 233.072 41.97 233.992C41.97 234.146 41.97 234.299 41.97 234.605L51.4865 298.532C51.9469 301.905 55.1702 304.204 58.3935 303.744C58.547 303.744 58.547 303.744 58.7005 303.744L176.735 279.829C179.805 279.216 181.954 276.303 181.647 273.237L174.126 198.12C173.972 197.353 173.358 196.587 172.437 196.74C172.13 196.74 171.823 196.893 171.516 197.047Z" fill="#4B4B4B"/><path fill-rule="evenodd" clip-rule="evenodd" d="M164.916 253.001L144.655 256.221C144.502 256.221 144.348 256.221 144.195 256.221C142.506 256.221 141.125 254.841 141.125 253.155L141.739 223.261L168.293 199.959C168.293 200.112 168.446 200.266 168.446 200.419L167.679 249.935C167.525 251.468 166.451 252.695 164.916 253.001Z" fill="#1899D6"/><path fill-rule="evenodd" clip-rule="evenodd" d="M77.2716 272.93C77.2716 274.463 76.0437 275.69 74.5088 275.843L54.862 277.836C53.1736 277.989 51.6387 276.763 51.4852 275.076C51.4852 274.923 51.4852 274.77 51.4852 274.77L52.0991 234.452L78.0391 239.817L77.2716 272.93Z" fill="#1899D6"/><path fill-rule="evenodd" clip-rule="evenodd" d="M102.543 116.202L72.459 122.64C71.6916 122.794 71.0776 123.56 71.2311 124.48L79.5196 163.418C79.6731 164.185 80.4405 164.798 81.3615 164.645L111.446 158.206C112.213 158.053 112.827 157.286 112.674 156.367L104.385 117.428C104.232 116.662 103.464 116.048 102.543 116.202Z" fill="#4B4B4B"/><path fill-rule="evenodd" clip-rule="evenodd" d="M85.5068 113.597L63.7111 118.196C62.4831 118.502 61.7157 119.729 61.8692 120.955C62.1762 122.182 63.4041 122.948 64.632 122.795L86.4277 118.196C87.6556 117.889 88.4231 116.663 88.2696 115.436C88.1161 114.057 86.8882 113.29 85.5068 113.597Z" fill="#FFD900"/><path fill-rule="evenodd" clip-rule="evenodd" d="M119.274 109.61L53.2726 123.56C51.1238 124.02 49.8958 126.013 50.3563 128.159C50.8168 130.305 52.8122 131.532 54.961 131.072L120.962 117.122C123.111 116.662 124.339 114.669 123.878 112.523C123.418 110.53 121.269 109.15 119.274 109.61Z" fill="#4B4B4B"/><path fill-rule="evenodd" clip-rule="evenodd" d="M84.5865 109.15C82.4376 109.61 81.2097 111.603 81.6701 113.749L82.2841 116.815C82.7446 118.961 84.74 120.188 86.8888 119.728C89.0377 119.268 90.2656 117.275 89.8051 115.129L89.1912 112.063C88.7307 109.917 86.7353 108.69 84.5865 109.15Z" fill="#4B4B4B"/><path fill-rule="evenodd" clip-rule="evenodd" d="M63.2743 129.674C59.4768 127.781 54.9415 129.239 52.9322 132.941L47.4321 143.882C47.0688 144.575 47.2789 145.534 48.0906 145.995L59.0288 151.501C59.7213 151.864 60.6806 151.655 61.1404 150.843L66.6405 139.902C68.4341 136.223 67.0717 131.566 63.2743 129.674Z" fill="#FFD900"/><path d="M57.5323 150.884L54.7602 149.431L58.1073 142.867C58.471 142.175 59.4084 141.749 60.2207 142.209C60.9137 142.572 61.3397 143.508 60.8794 144.32L57.5323 150.884Z" fill="#FFC800"/><path d="M50.7215 147.348L56.8815 135.365C57.2452 134.673 58.1826 134.248 58.995 134.708C59.688 135.071 60.1139 136.007 59.6536 136.818L53.4936 148.801L50.7215 147.348Z" fill="#FFC800"/><path fill-rule="evenodd" clip-rule="evenodd" d="M66.627 120.341L62.0222 119.881L58.7989 133.219L63.2502 134.292L66.627 120.341Z" fill="#FFD900"/><path d="M45.4432 141.497C48.9735 141.497 52.1968 139.35 55.1131 135.211C55.5736 134.445 55.4201 133.525 54.8061 133.065C54.0387 132.605 53.1177 132.758 52.6573 133.372C50.3549 136.744 47.8991 138.431 45.4432 138.431C44.5223 138.431 43.9083 139.044 43.9083 139.964C43.9083 140.883 44.6758 141.497 45.4432 141.497Z" fill="#FFD900"/><path fill-rule="evenodd" clip-rule="evenodd" d="M209.181 175.053L202.181 174.843C199.169 174.753 196.654 177.105 196.563 180.097C196.545 180.691 196.625 181.285 196.802 181.854L202.436 200.056C203.261 202.719 206.104 204.215 208.786 203.395C210.713 202.807 212.108 201.141 212.339 199.15L214.436 181.091C214.781 178.117 212.634 175.429 209.641 175.086C209.488 175.068 209.334 175.057 209.181 175.053Z" fill="#58CC02"/><rect x="49.9609" y="383.244" width="160.978" height="11.7566" rx="5.87832" fill="#424B4D"/><rect width="29.0453" height="98.4285" rx="6.75097" transform="matrix(0 -1 -1 0 182.547 359.446)" fill="#A560E8"/><mask id="mask1" mask-type="alpha" maskUnits="userSpaceOnUse" x="84" y="330" width="99" height="30"><rect width="29.0453" height="98.4285" rx="6.75097" transform="matrix(0 -1 -1 0 182.547 359.446)" fill="white"/></mask><g mask="url(#mask1)"><rect width="3.35138" height="23.4886" rx="1.67569" transform="matrix(0 -1 -1 0 114.319 347.158)" fill="#B77FEC"/><rect width="3.35138" height="7.82954" rx="1.67569" transform="matrix(0 -1 -1 0 125.504 347.158)" fill="#B77FEC"/><rect width="3.35138" height="15.6591" rx="1.67569" transform="matrix(0 -1 -1 0 172.481 347.157)" fill="#B77FEC"/></g><rect width="25.6939" height="127.51" rx="6.75097" transform="matrix(0 -1 -1 0 194.293 383.464)" fill="#00A0F5"/><mask id="mask2" mask-type="alpha" maskUnits="userSpaceOnUse" x="66" y="357" width="129" height="27"><rect width="25.6939" height="127.51" rx="6.75097" transform="matrix(0 -1 -1 0 194.293 383.464)" fill="white"/></mask><g mask="url(#mask2)"/><rect opacity="0.25" width="25.6939" height="10.0665" transform="matrix(0 -1 -1 0 91.3906 383.464)" fill="white"/><rect opacity="0.25" width="25.6939" height="21.2516" transform="matrix(0 -1 -1 0 179.753 383.464)" fill="white"/></svg>