<svg width="71" height="98" viewBox="0 0 71 98" fill="none" xmlns="http://www.w3.org/2000/svg"><rect width="71" height="98"/><path fill-rule="evenodd" clip-rule="evenodd" d="M63.0227 42.6944L39.3558 8.66724C39.1474 8.36759 38.8959 8.10037 38.6093 7.87424C37.0027 6.60615 34.6722 6.88064 33.4041 8.48733L23.3516 21.224L11.8683 17.3305C11.485 17.2005 11.083 17.1342 10.6783 17.1342C8.63145 17.1342 6.97217 18.7935 6.97217 20.8403V63.2936C6.97217 64.4845 7.54443 65.6028 8.51028 66.2994L11.1068 68.1722L17.6929 81.1507C18.2404 82.2296 19.4618 82.605 20.4211 81.9893C20.7318 81.7898 20.9893 81.5002 21.1666 81.1507L23.2926 76.9614L26.2914 79.1243C26.4163 79.2144 26.5451 79.2979 26.6774 79.3746L29.3712 89.4327C29.6926 90.6323 30.9226 91.3436 32.1186 91.0213C32.8913 90.8131 33.4948 90.2077 33.7024 89.4327L36.2289 79.9997H47.2425C48.6219 79.9997 49.9296 79.3849 50.8097 78.3227L52.7361 75.9977L55.7993 80.7988C56.4669 81.8451 57.8536 82.1504 58.8967 81.4809C59.3945 81.1613 59.7463 80.6577 59.8759 80.0794L63.6882 62.3302C64.0131 61.5476 64.1839 60.7031 64.1839 59.8432V46.3977C64.1839 45.0737 63.7787 43.7814 63.0227 42.6944Z" fill="#52656D"/><path d="M44.1839 8.55416C44.4341 8.91473 44.3446 9.40983 43.984 9.66C43.6234 9.91017 43.1283 9.82067 42.8782 9.4601L41.3256 7.22201L41.1649 7.00027C40.8543 6.5906 40.4931 6.22187 40.0899 5.90283C39.7457 5.63051 39.6875 5.13077 39.9598 4.78662C40.2321 4.44246 40.7319 4.38422 41.076 4.65653C41.5844 5.05876 42.0397 5.52363 42.4412 6.05353L42.6216 6.30239L44.1839 8.55416ZM49.6196 16.3886C49.8698 16.7491 49.7803 17.2442 49.4197 17.4944C49.0591 17.7446 48.564 17.6551 48.3139 17.2945L45.596 13.3773C45.3458 13.0167 45.4353 12.5216 45.7959 12.2715C46.1565 12.0213 46.6516 12.1108 46.9017 12.4714L49.6196 16.3886ZM55.0553 24.223C55.3054 24.5836 55.216 25.0787 54.8554 25.3288C54.4948 25.579 53.9997 25.4895 53.7495 25.1289L51.0317 21.2117C50.7815 20.8512 50.871 20.3561 51.2316 20.1059C51.5922 19.8557 52.0873 19.9452 52.3374 20.3058L55.0553 24.223ZM60.491 32.0574C60.7411 32.418 60.6516 32.9131 60.2911 33.1632C59.9305 33.4134 59.4354 33.3239 59.1852 32.9633L56.4674 29.0461C56.2172 28.6856 56.3067 28.1905 56.6673 27.9403C57.0278 27.6901 57.5229 27.7796 57.7731 28.1402L60.491 32.0574ZM65.9266 39.8918C66.1768 40.2524 66.0873 40.7475 65.7268 40.9977C65.3662 41.2478 64.8711 41.1583 64.6209 40.7978L61.9031 36.8806C61.6529 36.52 61.7424 36.0249 62.103 35.7747C62.4635 35.5245 62.9586 35.614 63.2088 35.9746L65.9266 39.8918ZM68.1589 49.4323C68.1589 49.8712 67.8031 50.2269 67.3643 50.2269C66.9254 50.2269 66.5696 49.8712 66.5696 49.4323L66.5697 46.4039L66.565 46.1053C66.5512 45.6759 66.5064 45.2484 66.431 44.8262C66.3538 44.3942 66.6415 43.9814 67.0735 43.9043C67.5055 43.8271 67.9183 44.1148 67.9955 44.5468C68.0843 45.0444 68.1372 45.5482 68.1538 46.0671L68.1589 46.3912V49.4323ZM68.1589 58.9677C68.1589 59.4066 67.8031 59.7624 67.3643 59.7624C66.9254 59.7624 66.5696 59.4066 66.5696 58.9677V54.2C66.5696 53.7612 66.9254 53.4054 67.3643 53.4054C67.8031 53.4054 68.1589 53.7612 68.1589 54.2V58.9677ZM66.441 68.49C66.349 68.9191 65.9266 69.1924 65.4975 69.1005C65.0684 69.0085 64.7951 68.5861 64.887 68.157L65.8858 63.4951C65.9778 63.066 66.4002 62.7926 66.8293 62.8846C67.2584 62.9765 67.5317 63.3989 67.4398 63.828L66.441 68.49ZM64.4433 77.8138C64.3514 78.2429 63.929 78.5163 63.4999 78.4243C63.0707 78.3324 62.7974 77.91 62.8893 77.4809L63.8882 72.8189C63.9801 72.3898 64.4025 72.1165 64.8316 72.2084C65.2607 72.3004 65.5341 72.7228 65.4421 73.1519L64.4433 77.8138ZM58.808 85.7901C58.3763 85.869 57.9623 85.583 57.8834 85.1513C57.8045 84.7196 58.0905 84.3056 58.5222 84.2267C59.11 84.1193 59.6739 83.8975 60.1746 83.5756L60.34 83.4651L60.5562 83.3037C61.0505 82.9126 61.4595 82.4247 61.7587 81.8706C61.9672 81.4844 62.4493 81.3404 62.8355 81.5489C63.2216 81.7574 63.3656 82.2395 63.1571 82.6257C62.7554 83.3696 62.2062 84.0247 61.5253 84.563L61.2606 84.7599L61.0491 84.9025C60.3585 85.3469 59.5993 85.6455 58.808 85.7901ZM51.3162 83.0237C50.9297 83.2315 50.4479 83.0867 50.24 82.7002C50.0321 82.3137 50.1769 81.8319 50.5635 81.624C50.969 81.4059 51.3523 81.1483 51.7 80.8612L51.8264 80.754C52.1938 80.4424 52.7517 80.5268 53.0106 80.9331L53.7828 82.1455L53.8848 82.2999C54.1045 82.6191 54.3599 82.9059 54.646 83.1568C54.976 83.4461 55.009 83.9481 54.7197 84.2781C54.4304 84.6081 53.9283 84.6411 53.5983 84.3518C53.2135 84.0144 52.8702 83.6288 52.5677 83.1891L52.45 83.0111L51.6702 81.787L52.3404 81.3601L52.8543 81.9661L52.72 82.0799C52.2838 82.4402 51.8135 82.7562 51.3162 83.0237ZM41.4835 84.0497C41.0447 84.0497 40.6889 83.694 40.6889 83.2551C40.6889 82.8163 41.0446 82.4605 41.4835 82.4605L46.2512 82.4602C46.69 82.4602 47.0458 82.816 47.0458 83.2548C47.0458 83.6937 46.6901 84.0495 46.2513 84.0495L41.4835 84.0497ZM37.7032 89.955C37.5899 90.379 37.1544 90.6309 36.7304 90.5176C36.3064 90.4044 36.0546 89.9688 36.1678 89.5448L37.3983 84.9387C37.5116 84.5147 37.9471 84.2628 38.3711 84.376C38.7951 84.4893 39.047 84.9248 38.9337 85.3488L37.7032 89.955ZM29.3898 94.7923C28.9782 94.6401 28.768 94.183 28.9203 93.7714C29.0725 93.3598 29.5296 93.1496 29.9412 93.3018C30.8324 93.6315 31.8028 93.6802 32.7269 93.4307L32.895 93.3825L33.0972 93.315C33.3846 93.2119 33.6603 93.0808 33.9207 92.9239C34.2966 92.6974 34.7849 92.8186 35.0114 93.1945C35.2379 93.5704 35.1168 94.0587 34.7409 94.2852C34.3908 94.4961 34.0202 94.6723 33.6179 94.8164L33.3691 94.899L33.1559 94.9609C31.896 95.3012 30.5881 95.2356 29.3898 94.7923ZM24.413 86.3638C24.2997 85.9398 24.5516 85.5043 24.9755 85.391C25.3995 85.2777 25.8351 85.5295 25.9484 85.9535L27.0656 90.1345L27.1153 90.3087C27.1349 90.3731 27.1559 90.4368 27.1782 90.5C27.3242 90.9138 27.107 91.3677 26.6932 91.5137C26.2793 91.6597 25.8255 91.4425 25.6795 91.0287L25.621 90.8546C25.6112 90.8241 25.6014 90.7925 25.5913 90.7594L25.5339 90.5583L24.413 86.3638ZM19.9015 86.3257C19.4641 86.3613 19.0806 86.0356 19.045 85.5982C19.0093 85.1608 19.335 84.7773 19.7724 84.7417C20.4498 84.6865 21.1093 84.4636 21.697 84.0858L21.8607 83.9762L22.0585 83.8282C22.4664 83.5055 22.8175 83.1103 23.0965 82.6601C23.3277 82.287 23.8175 82.172 24.1905 82.4032C24.5635 82.6344 24.6785 83.1242 24.4473 83.4972C24.0719 84.1031 23.5976 84.6371 23.0281 85.0872L22.7826 85.2701L22.5721 85.4122C21.7494 85.9416 20.8388 86.2494 19.9015 86.3257ZM12.5806 79.9264C12.3824 79.5349 12.5391 79.0568 12.9307 78.8586C13.3222 78.6603 13.8003 78.8171 13.9985 79.2086L15.5609 82.295L15.643 82.4509C15.7818 82.7033 15.9417 82.9394 16.1207 83.1573C16.3992 83.4965 16.35 83.9972 16.0109 84.2757C15.6718 84.5543 15.171 84.5051 14.8925 84.166C14.6514 83.8724 14.4365 83.555 14.244 83.2047L14.1492 83.0249L12.5806 79.9264ZM8.2738 71.419C8.07559 71.0275 8.23231 70.5494 8.62385 70.3511C9.0154 70.1529 9.49349 70.3097 9.69171 70.7012L11.8451 74.9549C12.0433 75.3464 11.8866 75.8245 11.4951 76.0228C11.1035 76.221 10.6254 76.0642 10.4272 75.6727L8.2738 71.419ZM3.00298 63.5097C2.99547 63.0709 3.3451 62.7091 3.78389 62.7016C4.22269 62.6941 4.58448 63.0438 4.59198 63.4825L4.59224 63.5248L4.60351 63.7466C4.69525 65.087 5.22683 66.3581 6.11139 67.3628C6.40139 67.6922 6.36947 68.1943 6.04008 68.4843C5.7107 68.7743 5.20859 68.7424 4.91858 68.413C3.80353 67.1465 3.1336 65.5446 3.01717 63.8416L3.00416 63.5791L3.00298 63.5097ZM3 53.9607C3 53.5219 3.35576 53.1661 3.79462 53.1661C4.23348 53.1661 4.58924 53.5219 4.58924 53.9607V58.7284C4.58924 59.1673 4.23348 59.5231 3.79462 59.5231C3.35576 59.5231 3 59.1673 3 58.7284V53.9607ZM3 44.4253C3 43.9864 3.35576 43.6306 3.79462 43.6306C4.23348 43.6306 4.58924 43.9864 4.58924 44.4253V49.193C4.58924 49.6318 4.23348 49.9876 3.79462 49.9876C3.35576 49.9876 3 49.6318 3 49.193V44.4253ZM3 34.8898C3 34.451 3.35576 34.0952 3.79462 34.0952C4.23348 34.0952 4.58924 34.451 4.58924 34.8898V39.6575C4.58924 40.0964 4.23348 40.4522 3.79462 40.4522C3.35576 40.4522 3 40.0964 3 39.6575V34.8898ZM3 25.3544C3 24.9155 3.35576 24.5598 3.79462 24.5598C4.23348 24.5598 4.58924 24.9155 4.58924 25.3544V30.1221C4.58924 30.561 4.23348 30.9167 3.79462 30.9167C3.35576 30.9167 3 30.561 3 30.1221V25.3544ZM4.91491 15.6906C5.20478 15.3611 5.70688 15.3289 6.03638 15.6188C6.36588 15.9087 6.39801 16.4108 6.10814 16.7403C5.17079 17.8058 4.62914 19.1626 4.59137 20.6075C4.5799 21.0462 4.21496 21.3926 3.77626 21.3811C3.33755 21.3696 2.9912 21.0047 3.00267 20.566C3.05025 18.7456 3.73397 17.033 4.91491 15.6906ZM14.5561 13.9689C14.9716 14.1102 15.1939 14.5615 15.0526 14.977C14.9114 15.3925 14.46 15.6149 14.0445 15.4736L12.652 15L12.3987 14.9195C11.8386 14.7544 11.2595 14.6713 10.6638 14.6714C10.3558 14.6721 10.051 14.6957 9.7509 14.7416C9.31709 14.808 8.91162 14.5101 8.84525 14.0763C8.77889 13.6425 9.07676 13.237 9.51057 13.1707C9.8888 13.1128 10.2727 13.0831 10.6619 13.0821C11.4111 13.0821 12.1416 13.1868 12.8636 13.3998L13.148 13.4902L14.5561 13.9689ZM22.3287 16.0326C22.6002 15.6878 23.0998 15.6283 23.4446 15.8998C23.7894 16.1713 23.8489 16.6709 23.5774 17.0157L22.87 17.9141C22.6616 18.1788 22.3089 18.2833 21.9899 18.1748L18.5585 17.0082C18.143 16.867 17.9207 16.4156 18.062 16.0001C18.2032 15.5846 18.6546 15.3623 19.0701 15.5036L22.5015 16.6702L21.6214 16.9309L22.3287 16.0326ZM28.2276 8.54069C28.499 8.19588 28.9987 8.13645 29.3435 8.40793C29.6883 8.67942 29.7477 9.17902 29.4762 9.52383L26.5268 13.2698C26.2553 13.6146 25.7557 13.674 25.4109 13.4025C25.0661 13.131 25.0067 12.6314 25.2781 12.2866L28.2276 8.54069ZM36.3342 3.00001C36.7731 3.00088 37.1282 3.35733 37.1273 3.79618C37.1265 4.23504 36.77 4.59011 36.3312 4.58927C34.9073 4.58651 33.5217 5.07969 32.4231 5.99536C32.086 6.27636 31.585 6.23087 31.304 5.89377C31.023 5.55667 31.0685 5.0556 31.4056 4.77461C32.7925 3.61851 34.54 2.99656 36.3342 3.00001Z" fill="#DCE6EC"/><path d="M33.8055 58.3912C33.8055 59.8533 34.7273 60.7433 36.0305 60.7433C37.3019 60.7433 38.2554 59.8533 38.2554 58.3912V41.4499C38.2554 39.8289 37.3019 38.7482 35.7762 38.7482C34.7591 38.7482 33.9009 39.1614 33.0745 39.7335L29.6735 42.0856C28.9107 42.5941 28.561 43.2934 28.561 43.9609C28.561 45.0416 29.3874 45.8362 30.4046 45.8362C30.8495 45.8362 31.3263 45.709 31.7395 45.423L33.742 44.0562H33.8055V58.3912Z" fill="#131F22"/></svg>