<svg width="20" height="20" viewBox="0 0 20 20" fill="none" xmlns="http://www.w3.org/2000/svg"><circle cx="10" cy="10" r="10" fill="#52656D"/><path fill-rule="evenodd" clip-rule="evenodd" d="M5.61726 5.75969C5.22674 6.15021 5.22674 6.78338 5.61726 7.1739L8.44428 10.0009L5.61623 12.829C5.2257 13.2195 5.2257 13.8527 5.61623 14.2432L5.77336 14.4003C6.16389 14.7908 6.79705 14.7908 7.18758 14.4003L10.0156 11.5723L12.8455 14.4021C13.236 14.7926 13.8692 14.7926 14.2597 14.4021L14.4168 14.245C14.8073 13.8544 14.8073 13.2213 14.4168 12.8308L11.587 10.0009L14.4158 7.17211C14.8063 6.78159 14.8063 6.14842 14.4158 5.7579L14.2586 5.60076C13.8681 5.21024 13.235 5.21024 12.8444 5.60076L10.0156 8.42957L7.18861 5.60255C6.79809 5.21203 6.16492 5.21203 5.7744 5.60256L5.61726 5.75969Z" fill="#131F22"/></svg>