<svg width="208" height="480" viewBox="0 0 208 480" fill="none" xmlns="http://www.w3.org/2000/svg"><circle cx="24" cy="312" r="24" fill="#596C73"/><g opacity="0.5"><path fill-rule="evenodd" clip-rule="evenodd" d="M29.9714 291.533C29.9714 294.663 27.4196 297.2 24.2718 297.2C21.124 297.2 18.5723 294.663 18.5723 291.533C18.5723 290.383 18.917 289.313 19.5093 288.419C20.9639 288.144 22.4649 288 23.9996 288C25.7556 288 27.4676 288.189 29.1163 288.547C29.6584 289.414 29.9714 290.437 29.9714 291.533Z" fill="#4A5A62"/><path fill-rule="evenodd" clip-rule="evenodd" d="M40.2227 329.685C35.9508 333.606 30.2543 336 23.9987 336C17.9989 336 12.5133 333.798 8.30566 330.158C11.46 326.353 16.223 323.929 21.5522 323.929H27.3828C32.4877 323.929 37.0731 326.153 40.2227 329.685Z" fill="#425259"/><path fill-rule="evenodd" clip-rule="evenodd" d="M17.4372 298.576H31.0192C37.5203 298.576 42.7904 303.846 42.7904 310.347C42.7904 316.848 37.5203 322.118 31.0192 322.118H17.4372C10.9361 322.118 5.66602 316.848 5.66602 310.347C5.66602 303.846 10.9361 298.576 17.4372 298.576Z" fill="#4A5A62"/><path fill-rule="evenodd" clip-rule="evenodd" d="M31.0189 322.117H17.4368C11.4397 322.117 6.49008 317.633 5.75879 311.834H42.6969C41.9656 317.633 37.016 322.117 31.0189 322.117Z" fill="#9AAAB2"/><path fill-rule="evenodd" clip-rule="evenodd" d="M24.3695 303.097C32.4198 303.097 38.9459 309.623 38.9459 317.673V328.581H9.79297V317.673C9.79297 309.623 16.3191 303.097 24.3695 303.097Z" fill="#728289"/><path fill-rule="evenodd" clip-rule="evenodd" d="M14.2812 302.048H35.5727V305.52H14.2812V302.048Z" fill="#4A5A62"/><path fill-rule="evenodd" clip-rule="evenodd" d="M10.4413 302.834H13.3377C15.0344 302.834 16.4098 304.209 16.4098 305.906V308.803C16.4098 310.499 15.0344 311.875 13.3377 311.875H10.4413C8.74458 311.875 7.36914 310.499 7.36914 308.803V305.906C7.36914 304.209 8.74458 302.834 10.4413 302.834Z" fill="#4A5A62"/><path fill-rule="evenodd" clip-rule="evenodd" d="M35.4012 302.507H37.9046C39.6013 302.507 40.9767 303.882 40.9767 305.579V308.803C40.9767 310.5 39.6013 311.875 37.9046 311.875H35.4012C33.7045 311.875 32.3291 310.5 32.3291 308.803V305.579C32.3291 303.882 33.7045 302.507 35.4012 302.507Z" fill="#4A5A62"/></g><circle cx="24" cy="240" r="24" fill="#596C73"/><g opacity="0.5"><path fill-rule="evenodd" clip-rule="evenodd" d="M46.2142 249.102C43.8318 248.419 40.7872 246.323 39.5756 241.918C39.2232 240.636 39.13 237.453 39.2962 232.368C39.2983 232.302 39.2994 232.237 39.2994 232.171C39.2994 228.847 36.6042 226.151 33.2795 226.151H14.681L14.6217 226.152C11.2971 226.184 8.62865 228.906 8.66143 232.231C8.7014 236.285 8.75315 238.847 8.81667 239.917C9.39786 249.707 12.5321 254.602 15.2095 254.602C15.6131 254.602 16.1596 254.575 16.8239 254.524L13.9968 254.972L14.0473 255.291C14.5828 258.672 17.7582 260.979 21.1397 260.444L40.5646 257.367C42.9854 255.057 44.9241 252.247 46.2142 249.102Z" fill="#4A5A62"/><path fill-rule="evenodd" clip-rule="evenodd" d="M36.996 260.181C33.2507 262.598 28.7893 264.001 24.0004 264.001C19.0787 264.001 14.503 262.519 10.6949 259.978V242.814C10.3336 242.975 9.93319 243.065 9.51181 243.065C7.90884 243.065 6.60938 241.766 6.60938 240.163C6.60938 238.56 7.90884 237.26 9.51181 237.26C9.93319 237.26 10.3336 237.35 10.6949 237.511V235.97C10.6949 232.843 13.2297 230.309 16.3565 230.309H31.3345C34.4613 230.309 36.996 232.843 36.996 235.97V237.618C37.4105 237.39 37.8868 237.26 38.3933 237.26C39.9963 237.26 41.2958 238.56 41.2958 240.163C41.2958 241.766 39.9963 243.065 38.3933 243.065C37.8868 243.065 37.4105 242.935 36.996 242.707V260.181Z" fill="#9AAAB2"/><path fill-rule="evenodd" clip-rule="evenodd" d="M24.0947 219.2C27.6568 219.2 30.5445 222.088 30.5445 225.65C30.5445 229.212 27.6568 232.1 24.0947 232.1C21.5266 232.1 19.3091 230.599 18.2714 228.427C17.8126 228.15 17.3877 227.803 17.0141 227.387C15.4199 225.612 15.1559 223.036 16.3152 221.023C16.5565 220.604 17.0048 220.543 17.3282 220.903L18.5932 222.282C19.7274 220.433 21.7671 219.2 24.0947 219.2Z" fill="#4A5A62"/></g><circle cx="24" cy="384" r="24" fill="#596C73"/><g opacity="0.4"><path fill-rule="evenodd" clip-rule="evenodd" d="M24.0948 367.467C27.6569 367.467 30.5446 370.354 30.5446 373.917C30.5446 377.479 27.6569 380.367 24.0948 380.367C21.5268 380.367 19.3093 378.866 18.2716 376.693C17.8127 376.417 17.3877 376.069 17.0141 375.653C15.4199 373.879 15.1559 371.303 16.3152 369.289C16.5565 368.87 17.0048 368.81 17.3282 369.17L18.5933 370.548C19.7275 368.7 21.7671 367.467 24.0948 367.467Z" fill="#9AAAB2"/><path fill-rule="evenodd" clip-rule="evenodd" d="M36.996 404.181C33.2507 406.598 28.7893 408.001 24.0004 408.001C19.0787 408.001 14.503 406.519 10.6949 403.978V386.814C10.3336 386.975 9.93319 387.065 9.51181 387.065C7.90884 387.065 6.60938 385.766 6.60938 384.163C6.60938 382.56 7.90884 381.26 9.51181 381.26C9.93319 381.26 10.3336 381.35 10.6949 381.511V379.97C10.6949 376.843 13.2297 374.309 16.3565 374.309H31.3345C34.4613 374.309 36.996 376.843 36.996 379.97V381.618C37.4105 381.39 37.8868 381.26 38.3933 381.26C39.9963 381.26 41.2958 382.56 41.2958 384.163C41.2958 385.766 39.9963 387.065 38.3933 387.065C37.8868 387.065 37.4105 386.935 36.996 386.707V404.181Z" fill="#4A5A62"/></g><path fill-rule="evenodd" clip-rule="evenodd" d="M24 192C37.2548 192 48 181.255 48 168C48 154.745 37.2548 144 24 144C10.7452 144 0 154.745 0 168C0 181.255 10.7452 192 24 192Z" fill="#596C73"/><g opacity="0.5"><path fill-rule="evenodd" clip-rule="evenodd" d="M31.6205 160.014C31.6205 165.32 27.2657 169.627 21.9001 169.627H16.5553C11.1897 169.627 6.83496 165.32 6.83496 160.014C6.83496 154.707 11.1828 150.4 16.5484 150.4H21.8932C27.2657 150.4 31.6205 154.707 31.6205 160.014Z" fill="#9AAAB2"/><path fill-rule="evenodd" clip-rule="evenodd" d="M36.6187 188.42C32.9528 190.69 28.6301 192 24.0014 192C19.6181 192 15.5092 190.825 11.9727 188.773C14.916 185.187 19.4092 182.896 24.4448 182.896C29.3132 182.896 33.6746 185.037 36.6187 188.42Z" fill="#4A5A62"/><path fill-rule="evenodd" clip-rule="evenodd" d="M19.1366 191.507V183.778C17.1219 184.477 15.2941 185.559 13.7433 186.935C13.1124 187.494 12.5058 188.102 11.9375 188.753C14.1387 190.035 16.5624 190.977 19.1366 191.507ZM36.6404 188.405C34.5204 189.721 32.1802 190.716 29.6877 191.322V183.751C31.7301 184.456 33.5786 185.545 35.1433 186.935C35.6615 187.393 36.1631 187.885 36.6404 188.405Z" fill="#697991"/><path fill-rule="evenodd" clip-rule="evenodd" d="M17.7385 159.611H31.1351C35.5932 159.611 39.36 162.549 40.5638 166.576C40.894 166.446 41.2542 166.375 41.6312 166.375C43.2257 166.375 44.5183 167.653 44.5183 169.23C44.5183 170.807 43.2257 172.085 41.6312 172.085C41.3228 172.085 41.0256 172.037 40.7469 171.949C39.7943 176.337 35.8507 179.625 31.1282 179.625H17.7385C12.9891 179.619 9.02753 176.293 8.1038 171.871C7.70412 172.034 7.2612 172.111 6.8007 172.078C5.21023 171.967 4.01252 170.601 4.12555 169.028C4.23858 167.455 5.61955 166.27 7.21002 166.382C7.59255 166.409 7.95236 166.509 8.27668 166.666C9.45126 162.592 13.2418 159.611 17.7385 159.611Z" fill="#4A5A62"/><path fill-rule="evenodd" clip-rule="evenodd" d="M19.1572 177.645H29.6876V183.807H19.1572V177.645Z" fill="#4A5A62"/><path fill-rule="evenodd" clip-rule="evenodd" d="M21.1245 160.677V161.328C21.1245 165.265 17.8982 168.462 13.9104 168.462C9.92256 168.462 6.69629 165.265 6.69629 161.328V160.677C6.69629 156.74 9.92256 153.543 13.9104 153.543C17.8982 153.543 21.1245 156.734 21.1245 160.677Z" fill="#9AAAB2"/></g><path fill-rule="evenodd" clip-rule="evenodd" d="M24 120C37.2548 120 48 109.255 48 96C48 82.7452 37.2548 72 24 72C10.7452 72 0 82.7452 0 96C0 109.255 10.7452 120 24 120Z" fill="#596C73"/><g opacity="0.5"><path fill-rule="evenodd" clip-rule="evenodd" d="M43.412 110.117C39.0482 116.107 31.9791 120 24.0008 120C15.982 120 8.88178 116.068 4.52346 110.026C4.52345 110.019 4.52344 110.012 4.52344 110.005V83.9833C4.52344 83.1811 4.6072 82.3985 4.76645 81.6437C8.03007 77.2783 12.7449 74.061 18.1959 72.707H22.5943C28.0678 72.707 32.6305 76.6068 33.6553 81.7794H35.0271C39.658 81.7794 43.412 85.5335 43.412 90.1643V110.117Z" fill="#4A5A62"/><path fill-rule="evenodd" clip-rule="evenodd" d="M31.0481 118.949C28.8197 119.632 26.4532 120 24.0008 120C22.0742 120 20.2006 119.773 18.4053 119.344L19.7031 115.35V103.32C19.7031 101.262 20.3504 99.5928 21.1488 99.5928H28.4494C29.2479 99.5928 29.8951 101.262 29.8951 103.32V115.4L31.0481 118.949Z" fill="#708087"/><path fill-rule="evenodd" clip-rule="evenodd" d="M18.2574 84.7432H31.1238C34.4373 84.7432 37.1234 87.4293 37.1234 90.7427V104.26C37.1234 107.573 34.4373 110.259 31.1238 110.259H18.2574C14.9439 110.259 12.2578 107.573 12.2578 104.26V90.7427C12.2578 87.4293 14.9439 84.7432 18.2574 84.7432Z" fill="#708087"/><path fill-rule="evenodd" clip-rule="evenodd" d="M15.6553 81.0566C17.9308 81.0566 19.7755 82.9013 19.7755 85.1768V88.7187C19.7755 90.9942 17.9308 92.8389 15.6553 92.8389C13.3798 92.8389 11.5352 90.9942 11.5352 88.7187V85.1768C11.5352 82.9013 13.3798 81.0566 15.6553 81.0566Z" fill="#4A5A62"/></g><path fill-rule="evenodd" clip-rule="evenodd" d="M24 48C37.2548 48 48 37.2548 48 24C48 10.7452 37.2548 0 24 0C10.7452 0 0 10.7452 0 24C0 37.2548 10.7452 48 24 48Z" fill="#596C73"/><g opacity="0.4"><path fill-rule="evenodd" clip-rule="evenodd" d="M23.5421 0.00390625C25.2155 0.953972 26.5513 2.40045 27.3709 4.12296C28.6614 6.59224 29.7022 7.86834 30.4931 7.95147C31.1318 8.01859 31.8378 7.96117 32.6112 7.77919C32.8002 7.73472 32.9893 7.70931 33.1766 7.70175C33.6219 7.61856 34.0866 7.59759 34.5601 7.64736C37.1929 7.92408 39.1029 10.2827 38.8261 12.9154C38.5494 15.5482 36.1908 17.4582 33.5581 17.1814C31.045 16.9173 29.1905 14.7562 29.2677 12.2705L27.3993 12.0742C25.762 15.5857 22.029 17.84 17.9597 17.4123C12.8317 16.8733 9.11156 12.2794 9.65053 7.15136C9.76229 6.0881 10.0484 5.08536 10.4774 4.16856C14.2107 1.61809 18.7011 0.0943357 23.5421 0.00390625Z" fill="#4A5A62"/><path fill-rule="evenodd" clip-rule="evenodd" d="M40.1983 41.7079C35.9292 45.6152 30.2427 47.9991 23.9993 47.9991C17.7857 47.9991 12.1236 45.6378 7.86146 41.7636V23.9077C7.86146 23.5713 7.87173 23.2374 7.89198 22.9061C6.45096 22.9047 5.2832 21.7361 5.2832 20.2948C5.2832 18.8526 6.45231 17.6835 7.89448 17.6835H9.10293C11.5409 11.8436 17.3061 7.73926 24.0299 7.73926C30.7537 7.73926 36.5189 11.8436 38.9569 17.6835H40.3029C41.7451 17.6835 42.9142 18.8526 42.9142 20.2948C42.9142 21.737 41.7451 22.9061 40.3029 22.9061H40.1678C40.1881 23.2374 40.1983 23.5713 40.1983 23.9077V41.7079Z" fill="#5D6D85"/><path fill-rule="evenodd" clip-rule="evenodd" d="M40.1982 41.7082C35.9291 45.6154 30.2426 47.9993 23.9993 47.9993C17.7857 47.9993 12.1235 45.638 7.86133 41.7637V38.3457H19.3292L23.8213 43.3154C24.1393 43.6671 24.6821 43.6945 25.0339 43.3766C25.0553 43.3572 25.0757 43.3368 25.0951 43.3154L29.5872 38.3457H40.1982V41.7082Z" fill="#4A5A62"/></g><path fill-rule="evenodd" clip-rule="evenodd" d="M24 480C37.2548 480 48 469.255 48 456C48 442.745 37.2548 432 24 432C10.7452 432 0 442.745 0 456C0 469.255 10.7452 480 24 480Z" fill="#596C73"/><g opacity="0.4"><path fill-rule="evenodd" clip-rule="evenodd" d="M23.5421 432.004C25.2155 432.954 26.5513 434.4 27.3709 436.123C28.6614 438.592 29.7022 439.868 30.4931 439.951C31.1318 440.019 31.8378 439.961 32.6112 439.779C32.8002 439.735 32.9893 439.709 33.1766 439.702C33.6219 439.619 34.0866 439.598 34.5601 439.647C37.1929 439.924 39.1029 442.283 38.8261 444.915C38.5494 447.548 36.1908 449.458 33.5581 449.181C31.045 448.917 29.1905 446.756 29.2677 444.27L27.3993 444.074C25.762 447.586 22.029 449.84 17.9597 449.412C12.8317 448.873 9.11156 444.279 9.65053 439.151C9.76229 438.088 10.0484 437.085 10.4774 436.169C14.2107 433.618 18.7011 432.094 23.5421 432.004Z" fill="#4A5A62"/><path fill-rule="evenodd" clip-rule="evenodd" d="M40.1983 473.708C35.9292 477.615 30.2427 479.999 23.9993 479.999C17.7857 479.999 12.1236 477.638 7.86146 473.764V455.908C7.86146 455.571 7.87173 455.237 7.89198 454.906C6.45096 454.905 5.2832 453.736 5.2832 452.295C5.2832 450.853 6.45231 449.684 7.89448 449.684H9.10293C11.5409 443.844 17.3061 439.739 24.0299 439.739C30.7537 439.739 36.5189 443.844 38.9569 449.684H40.3029C41.7451 449.684 42.9142 450.853 42.9142 452.295C42.9142 453.737 41.7451 454.906 40.3029 454.906H40.1678C40.1881 455.237 40.1983 455.571 40.1983 455.908V473.708Z" fill="#5D6D85"/><path fill-rule="evenodd" clip-rule="evenodd" d="M40.1982 473.708C35.9291 477.615 30.2426 479.999 23.9993 479.999C17.7857 479.999 12.1235 477.638 7.86133 473.764V470.346H19.3292L23.8213 475.315C24.1393 475.667 24.6821 475.695 25.0339 475.377C25.0553 475.357 25.0757 475.337 25.0951 475.315L29.5872 470.346H40.1982V473.708Z" fill="#4A5A62"/></g><rect x="76" y="18" width="52" height="12" rx="6" fill="#3F515B"/><rect x="76" y="90" width="82" height="12" rx="6" fill="#3F515B"/><rect x="76" y="162" width="42" height="12" rx="6" fill="#3F515B"/><rect x="76" y="234" width="112" height="12" rx="6" fill="#3F515B"/><rect x="76" y="306" width="62" height="12" rx="6" fill="#3F515B"/><rect x="76" y="378" width="132" height="12" rx="6" fill="#3F515B"/><rect x="76" y="450" width="52" height="12" rx="6" fill="#3F515B"/></svg>