<svg width="100" height="83" viewBox="0 0 100 83" fill="none" xmlns="http://www.w3.org/2000/svg"><rect x="7" y="55" width="85" height="28" rx="4" fill="#253438"/><path d="M76.0329 68.0678C76.3129 66.8528 76.7927 65.6684 77.4778 64.5639C80.1339 60.2818 85.2155 58.2669 90.0056 59.4901C91.0026 59.7447 91.4725 60.8969 90.9337 61.7657L85.7189 70.1723C87.9561 69.0629 90.6367 69.2833 92.6238 70.7744C93.0927 71.1263 93.0787 71.8332 92.596 72.1705L84.5627 77.785C84.5688 78.2333 84.4301 78.6546 84.1874 79.0002H76.4891C76.4414 78.8907 76.4027 78.776 76.3742 78.6571L67.4499 68.7548C66.9635 68.2151 67.1432 67.3606 67.8048 67.0673C70.5152 65.8653 73.6747 66.2723 76.0329 68.0678Z" fill="#5F7888"/><path d="M83.8243 74.5002C83.9458 72.3497 84.8319 70.2373 86.4572 68.5436C89.4696 65.4043 94.272 64.4842 98.3133 66.1876C99.1544 66.5422 99.3903 67.5591 98.7791 68.196L88.4141 78.998H80.5612L73.5768 71.7756C73.1405 71.3244 73.3016 70.6101 73.8951 70.3648C76.7463 69.1865 80.1513 69.8578 82.3018 72.0817C82.9987 72.8023 83.5077 73.6278 83.8243 74.5002Z" fill="#5F7888"/><path d="M19.498 43.3007C19.498 27.5282 32.2842 14.7421 48.0567 14.7421C63.8293 14.7421 76.6154 27.5282 76.6154 43.3008V71.8594H19.498V43.3007Z" fill="#37464F"/><rect x="24" y="15" width="3" height="57.1174" fill="#2A3E4A"/><rect x="39" y="15" width="3" height="57.1174" fill="#2A3E4A"/><rect x="54" y="15" width="3" height="57.1174" fill="#2A3E4A"/><rect x="69" y="15" width="3" height="57.1174" fill="#2A3E4A"/><path d="M13.3101 57.7445C13.3101 55.9634 14.7539 54.5195 16.5351 54.5195H25.435C27.2161 54.5195 28.66 55.9634 28.66 57.7445V60.9695C28.66 62.7506 27.2161 64.1945 25.435 64.1945H16.5351C14.7539 64.1945 13.3101 62.7506 13.3101 60.9695V57.7445Z" fill="#2A3E4A"/><path d="M13.3101 36.3266C13.3101 34.5454 14.7539 33.1016 16.5351 33.1016H25.435C27.2161 33.1016 28.66 34.5454 28.66 36.3266V39.5516C28.66 41.3327 27.2161 42.7765 25.435 42.7765H16.5351C14.7539 42.7765 13.3101 41.3327 13.3101 39.5516V36.3266Z" fill="#2A3E4A"/><path d="M67.4561 57.7445C67.4561 55.9634 68.8999 54.5195 70.681 54.5195H78.581C80.3621 54.5195 81.806 55.9634 81.806 57.7445V60.9695C81.806 62.7506 80.3621 64.1945 78.581 64.1945H70.681C68.8999 64.1945 67.4561 62.7506 67.4561 60.9695V57.7445Z" fill="#2A3E4A"/><path d="M67.4561 36.3266C67.4561 34.5454 68.8999 33.1016 70.681 33.1016H78.581C80.3621 33.1016 81.806 34.5454 81.806 36.3266V39.5516C81.806 41.3327 80.3621 42.7765 78.581 42.7765H70.681C68.8999 42.7765 67.4561 41.3327 67.4561 39.5516V36.3266Z" fill="#2A3E4A"/><path fill-rule="evenodd" clip-rule="evenodd" d="M48.0562 6.58398C27.7772 6.58398 11.3379 23.0233 11.3379 43.3023V70.6695C11.3379 75.2707 15.0679 79.0006 19.669 79.0006H76.4434C81.0445 79.0006 84.7745 75.2707 84.7745 70.6695V43.3023C84.7745 23.0233 68.3352 6.58398 48.0562 6.58398ZM48.0567 14.7421C32.2842 14.7421 19.498 27.5282 19.498 43.3007V71.8594H76.6154V43.3008C76.6154 27.5282 63.8293 14.7421 48.0567 14.7421Z" fill="#4F6471"/><path d="M48.0562 0C27.7772 0 11.3379 16.4394 11.3379 36.7183V43.3023C11.3379 23.0233 27.7772 6.58398 48.0562 6.58398C68.3352 6.58398 84.7745 23.0233 84.7745 43.3023V36.7183C84.7745 16.4393 68.3352 0 48.0562 0Z" fill="#5F7888"/><path d="M52.129 0.223328L48.6809 6.58919C48.4731 6.58572 48.2648 6.58398 48.0562 6.58398C27.7772 6.58398 11.3379 23.0233 11.3379 43.3023V36.7183C11.3379 16.4394 27.7772 0 48.0562 0C49.4328 0 50.7917 0.0757564 52.129 0.223328Z" fill="#6F8B9D"/><path fill-rule="evenodd" clip-rule="evenodd" d="M42.3145 30.6927C43.2231 29.9064 44.3176 29.6035 45.3088 29.6035H45.5872L45.7323 29.6156C46.4751 29.6775 47.6226 29.9218 48.5787 30.8561C49.2285 31.4911 49.5637 32.2195 49.7218 32.8886C51.6668 32.7519 53.5066 32.563 55.2199 32.3006L55.4833 32.2602H55.9357C56.9268 32.2602 58.0388 32.574 58.9507 33.4115C59.8409 34.2291 60.2311 35.2606 60.357 36.142L60.3921 36.3882V36.8223C60.3921 37.8171 60.0742 38.9634 59.1822 39.8933C58.9454 40.1402 58.6932 40.3458 58.4341 40.5164C58.9681 40.8996 59.4635 41.3333 59.9142 41.8196C61.6894 43.7351 62.491 46.1664 62.491 48.6985C62.491 55.521 56.4946 59.8038 49.61 60.06L49.545 60.0624H49.4274C47.7057 60.0624 46.3461 59.1918 45.5731 57.9616C45.5472 57.9526 45.5213 57.9432 45.4955 57.9337C44.0703 58.6033 42.666 58.8935 41.244 58.8935C39.3196 58.8935 37.4464 58.1687 36.0783 56.6737C34.7287 55.1989 34.1309 53.2655 34.1309 51.2755C34.1309 47.5387 36.0404 44.3851 38.7168 42.1393C37.8634 42.0266 36.8506 41.6743 36.0215 40.7955C35.0418 39.757 34.8216 38.5149 34.8216 37.6465C34.8216 36.6507 35.1382 35.4958 36.0187 34.5603C36.9256 33.5967 38.1274 33.1901 39.2515 33.1901H40.633C40.7147 33.1901 40.7964 33.1901 40.878 33.1901C41.055 32.2824 41.5157 31.384 42.3145 30.6927Z" fill="#4F6471"/><path fill-rule="evenodd" clip-rule="evenodd" d="M45.3088 32.6035C44.9167 32.6035 44.5554 32.7208 44.2776 32.9612C43.9988 33.2025 43.8404 33.5367 43.802 33.9013L43.8016 33.9055C43.7342 34.6019 43.6857 35.3885 43.6559 36.1729C42.6307 36.1901 41.6242 36.1901 40.633 36.1901H39.2515C38.8404 36.1901 38.4694 36.3336 38.2033 36.6164C37.9408 36.8952 37.8216 37.2652 37.8216 37.6465C37.8216 38.0438 37.9214 38.4376 38.2037 38.7368C38.4876 39.0378 38.8831 39.1658 39.312 39.1823L39.3216 39.1826H39.3312C40.7218 39.1826 42.1741 39.1618 43.5205 39.1386C43.499 40.0095 43.4804 40.8998 43.4804 41.791V41.8001C43.4804 42.0751 43.4804 42.3475 43.49 42.6202C39.8186 44.3556 37.1309 47.5832 37.1309 51.2755C37.1309 52.6757 37.5465 53.8343 38.2915 54.6484C39.0391 55.4654 40.081 55.8935 41.244 55.8935C42.6356 55.8935 44.0781 55.5052 45.7418 54.3146C45.7674 54.3706 45.7929 54.4245 45.818 54.4747L45.822 54.4827L45.8263 54.4905C46.0701 54.9375 46.5007 55.2027 47.0091 55.2027C47.2667 55.2027 47.5252 55.1204 47.7374 55.0295L47.757 55.0211L47.7758 55.0111C47.8474 54.9728 47.915 54.9313 47.9781 54.8868C47.9024 55.0732 47.864 55.2802 47.864 55.4999V55.5648L47.8646 55.5767C47.9028 56.379 48.5012 57.0624 49.4274 57.0624H49.4892L49.4985 57.0621C55.378 56.8433 59.491 53.3622 59.491 48.6985C59.491 46.8111 58.9039 45.143 57.7138 43.8588C56.6215 42.6801 55.0544 41.8605 53.0588 41.4686C53.0972 41.2911 53.1327 41.1141 53.1611 40.9434L53.1679 40.9025V40.7018C53.1679 40.3512 53.0408 40.0265 52.7916 39.7829C52.5586 39.5552 52.2499 39.4279 51.9158 39.3861C51.7811 39.3512 51.6616 39.3515 51.6127 39.3516L51.6053 39.3516C51.2843 39.3516 50.9716 39.4323 50.716 39.6254C50.4557 39.8221 50.297 40.1038 50.237 40.4236L50.2353 40.4336C50.1996 40.6483 50.1508 40.903 50.089 41.1885C48.6291 41.2157 47.4147 41.3895 46.4464 41.6052V41.5253C46.4464 40.6827 46.4651 39.8581 46.4868 39.0317C49.9569 38.8954 53.1851 38.6591 56.0281 38.275C56.4111 38.2249 56.7612 38.0835 57.0172 37.8166C57.2784 37.5443 57.3921 37.1918 57.3921 36.822V36.6014L57.3871 36.5663C57.335 36.2012 57.1882 35.866 56.9215 35.6211C56.6517 35.3734 56.305 35.2602 55.9357 35.2602H55.7117L55.6741 35.266C52.9102 35.6893 49.8803 35.9252 46.6914 36.0616C46.7342 35.3744 46.7801 34.7388 46.8423 34.138L46.8449 34.1123V33.9537C46.8449 33.6135 46.7533 33.2669 46.4819 33.0016C46.22 32.7458 45.8625 32.6369 45.4832 32.6052L45.4624 32.6035H45.3088ZM49.2687 54.0174C48.9996 54.0309 48.7355 54.1051 48.5078 54.2499C48.5849 54.0709 48.6249 53.8749 48.6249 53.6666C48.6249 53.3916 48.5483 53.1319 48.4426 52.9183C48.3176 52.6501 48.2196 52.4116 48.1246 52.179C49.8611 50.2631 51.4765 47.2646 52.3665 44.1865C53.6155 44.4173 54.5473 44.9208 55.1811 45.602C55.8829 46.3562 56.2593 47.3707 56.2593 48.5922C56.2593 50.045 55.6461 51.3265 54.4823 52.2842C53.3101 53.2489 51.5555 53.9018 49.2687 54.0174ZM47.0554 48.8569C46.759 47.5048 46.5692 45.9878 46.5104 44.3722C47.1514 44.1674 48.1548 43.9556 49.4488 43.8994C48.8735 45.7619 48.0112 47.4819 47.0554 48.8569ZM40.15 51.1427C40.15 49.3342 41.3193 47.2124 43.668 45.7127C43.8293 47.7684 44.1751 49.76 44.6792 51.4042C43.4075 52.461 42.2869 52.8212 41.5097 52.8212C41.0783 52.8212 40.7583 52.6825 40.5415 52.4437C40.3198 52.1996 40.15 51.789 40.15 51.1427Z" fill="#2A3E4A"/><path d="M70.6161 7.74585L68.6495 12.8982C72.7571 15.6858 76.2701 19.2839 78.9585 23.4628L80.3284 19.1899C77.905 14.7375 74.5871 10.8424 70.6161 7.74585Z" fill="#6F8B9D"/><path d="M17.9301 68.5931C17.6336 67.3067 17.1256 66.0526 16.4002 64.8831C13.5879 60.3492 8.20739 58.2158 3.13548 59.5109C2.07986 59.7804 1.58231 61.0005 2.15287 61.9203L7.67437 70.8214C5.30559 69.6468 2.46733 69.8802 0.363314 71.459C-0.133203 71.8316 -0.118318 72.5801 0.39271 72.9372L8.89856 78.882C8.89802 78.9215 8.89855 78.9609 8.90011 79H18.2946L27.018 69.3206C27.533 68.7492 27.3427 67.8444 26.6423 67.5338C23.7724 66.2611 20.427 66.692 17.9301 68.5931Z" fill="#5F7888"/></svg>