<svg width="67px" height="46px" viewBox="0 0 67 46" version="1.1" xmlns="http://www.w3.org/2000/svg" xmlns:xlink="http://www.w3.org/1999/xlink"><g id="Page-1" stroke="none" stroke-width="1" fill="none" fill-rule="evenodd"><g id="job-opportunities" fill-rule="nonzero"><path d="M9.25,0 L57.75,0 C60.6494949,0 63,2.35050506 63,5.25 L63,39 C63,41.7614237 60.7614237,44 58,44 L9,44 C6.23857625,44 4,41.7614237 4,39 L4,5.25 C4,2.35050506 6.35050506,0 9.25,0 Z" id="Rectangle" fill="#AAC0D8"/><rect id="Rectangle-19" fill="#5C5B5B" x="7" y="3" width="53" height="39" rx="2.51971949"/><rect id="Rectangle-19" fill="#131F22" x="11" y="6" width="45" height="32" rx="1.25985974"/><path d="M56,36.7401403 C56,37.4359416 55.4359416,38 54.7401403,38 L12.2598597,38 C11.5640584,38 11,37.4359416 11,36.7401403 L11,7.25985974 C11,6.56405842 11.5640584,6 12.2598597,6 L12.2598597,6" id="Path" fill="#172529"/><path d="M0.419302391,41 L66.5806976,41 C66.8122719,41 67,41.1652773 67,41.3691572 L67,44.2911392 C67,45.2349168 66.1309903,46 65.0590129,46 L1.94098712,46 C0.869009536,46 0,45.2349168 0,44.2911392 L0,41.3691572 C0,41.1652773 0.187728075,41 0.419302391,41 Z" id="Rectangle-19-Copy" fill="#AAC0D8"/><g id="Group" transform="translate(20.000000, 11.500000)" fill="#78C800"><path d="M11.5,6 L15.5,6 C16.3284271,6 17,6.67157288 17,7.5 L17,19.5 C17,20.3284271 16.3284271,21 15.5,21 L11.5,21 C10.6715729,21 10,20.3284271 10,19.5 L10,7.5 C10,6.67157288 10.6715729,6 11.5,6 Z" id="Rectangle-Copy-15"/><path d="M21.5,0 L25.5,0 C26.3284271,0 27,0.671572875 27,1.5 L27,19.5 C27,20.3284271 26.3284271,21 25.5,21 L21.5,21 C20.6715729,21 20,20.3284271 20,19.5 L20,1.5 C20,0.671572875 20.6715729,0 21.5,0 Z" id="Rectangle-Copy-16"/><path d="M1.5,12 L5.5,12 C6.32842712,12 7,12.6715729 7,13.5 L7,19.5 C7,20.3284271 6.32842712,21 5.5,21 L1.5,21 C0.671572875,21 0,20.3284271 0,19.5 L0,13.5 C0,12.6715729 0.671572875,12 1.5,12 Z" id="Rectangle-Copy-17"/></g></g></g></svg>