<svg width="1080" height="1080" viewBox="0 0 1080 1080" fill="none" xmlns="http://www.w3.org/2000/svg"><path d="M713.086 435.232C747.345 443.975 768.332 478.497 760.324 512.935L688.801 820.52C682.091 849.374 653.39 867.436 624.474 861.001L388.688 808.53C352.842 800.552 332.508 762.535 345.772 728.291L469.301 409.369C476.613 390.492 496.876 380.053 516.492 385.059L713.086 435.232Z" fill="#1A2628"/><path d="M386.871 477.226C415.782 477.226 439.218 500.663 439.218 529.573C439.218 558.483 415.782 581.92 386.871 581.92C357.961 581.92 334.524 558.483 334.524 529.573C334.524 500.663 357.961 477.226 386.871 477.226Z" fill="#2C3D46"/><path d="M569.205 259.625C597.238 259.625 619.964 282.349 619.964 310.382C619.964 338.414 597.238 361.14 569.205 361.14C541.173 361.14 518.447 338.414 518.447 310.382C518.447 282.349 541.173 259.625 569.205 259.625Z" fill="#1F2E35"/><path d="M456.045 463.214L715.809 517.708C737.321 522.22 751.104 543.32 746.591 564.831C742.079 586.343 720.979 600.124 699.467 595.611L439.701 541.118C418.189 536.605 404.409 515.506 408.921 493.994C413.434 472.482 434.533 458.701 456.045 463.214Z" fill="#2C3D46"/><path fill-rule="evenodd" clip-rule="evenodd" d="M659.091 578.528C662.367 560.352 679.757 548.274 697.933 551.551L798.063 569.601C816.238 572.877 828.316 590.267 825.04 608.443C821.764 626.618 804.373 638.696 786.198 635.42L686.068 617.37C667.893 614.094 655.814 596.703 659.091 578.528Z" fill="#2C3D46"/><path fill-rule="evenodd" clip-rule="evenodd" d="M759.27 596.31C762.695 578.162 780.182 566.226 798.331 569.65L808.401 571.55C826.549 574.974 838.485 592.462 835.061 610.61C831.637 628.758 814.149 640.694 796.001 637.27L785.931 635.37C767.782 631.946 755.846 614.458 759.27 596.31Z" fill="#3F515B"/><path d="M352.822 597.306C362.16 579.52 454.021 375.764 464.331 352.242C474.64 328.72 507.979 307.039 539.143 311.896L670.34 332.342C704.386 337.646 729.569 366.846 729.814 401.302L730.297 469.187L656.115 754.28C647.932 785.733 616.46 805.187 584.667 798.448L433.332 766.368C415.467 762.581 402.615 753.898 391.888 734.729C381.16 715.56 364.102 681.246 354.391 661.923C344.68 642.6 343.483 615.092 352.822 597.306Z" fill="#3F515B"/><path fill-rule="evenodd" clip-rule="evenodd" d="M708.416 553.277L675.802 678.62L359.554 583.313C371.497 557.82 395.775 504.448 418.055 455.182C513.503 458.151 648.172 484.713 676.274 510.261C690.022 522.76 699.799 533.966 708.416 553.277Z" fill="#2C3D46"/><path fill-rule="evenodd" clip-rule="evenodd" d="M381.095 536.561C366.899 567.635 355.764 591.702 352.822 597.306C343.483 615.092 344.68 642.6 354.391 661.923C355.546 664.222 356.806 666.734 358.146 669.406C368.072 689.197 382.437 717.841 391.888 734.729C402.615 753.898 415.467 762.581 433.332 766.368L584.667 798.448C616.46 805.187 647.932 785.733 656.115 754.28L682.494 652.902C682.493 652.895 682.493 652.889 682.493 652.883C679.08 597.76 634.43 576.115 606.785 567.938C579.14 559.76 504.28 543.8 439.665 532.957C413.078 528.496 395.828 526.099 381.095 536.561Z" fill="#24353D"/><path fill-rule="evenodd" clip-rule="evenodd" d="M687.145 337.15C712.359 347.916 729.611 372.812 729.814 401.302L730.296 469.188L726.427 484.059C726.271 483.989 726.128 483.919 725.999 483.852C717.84 479.58 714.23 475.21 712.537 466.653C712.378 465.846 712.251 465.286 712.146 464.824C711.839 463.47 711.722 462.952 711.526 459.537C710.24 437.02 703.4 426 696.805 421.685C674.397 407.027 665.071 382.277 677.06 358.336L687.145 337.15Z" fill="#2E3F48"/><path fill-rule="evenodd" clip-rule="evenodd" d="M328.258 709.474C339.469 703.79 353.166 708.27 358.85 719.482C360.185 722.114 363.054 726.956 366.678 731.559C370.646 736.597 373.693 739 374.914 739.598C386.203 745.128 390.871 758.762 385.341 770.05C379.811 781.338 366.178 786.007 354.889 780.477C344.397 775.337 336.22 766.457 330.916 759.722C325.269 752.552 320.819 745.132 318.251 740.067C312.566 728.856 317.047 715.159 328.258 709.474Z" fill="#1F2E35"/><path fill-rule="evenodd" clip-rule="evenodd" d="M669.349 755.782C679.083 763.736 680.526 778.075 672.572 787.808C668.98 792.204 663.044 798.498 655.993 804.294C649.371 809.736 639.483 816.66 628.134 819.435C615.923 822.419 603.605 814.94 600.62 802.73C597.635 790.519 605.114 778.201 617.325 775.216C618.645 774.894 622.135 773.199 627.09 769.127C631.616 765.407 635.455 761.291 637.324 759.004C645.277 749.271 659.616 747.828 669.349 755.782Z" fill="#1F2E35"/><path d="M573.256 396.138C568.635 402.037 559.741 403.183 553.977 398.667C548.214 394.15 547.762 385.682 552.383 379.783C557.005 373.883 572.504 372.348 574.083 373.585C575.661 374.822 577.879 390.238 573.256 396.138Z" fill="#2C3D46"/><path fill-rule="evenodd" clip-rule="evenodd" d="M573.416 351.877C575.167 353.035 575.647 355.393 574.489 357.143C568.893 365.602 560.685 371.973 549.504 374.383C538.417 376.772 524.79 375.185 508.382 368.544C506.436 367.756 505.498 365.541 506.285 363.596C507.072 361.65 509.288 360.712 511.233 361.499C526.745 367.778 538.768 368.922 547.903 366.953C556.946 365.005 563.534 359.929 568.151 352.95C569.308 351.2 571.666 350.719 573.416 351.877Z" fill="#2C3D46"/><path fill-rule="evenodd" clip-rule="evenodd" d="M588.554 356.622C590.644 356.431 592.492 357.971 592.683 360.061C593.426 368.202 596.61 375.277 603.02 380.499C609.503 385.78 619.7 389.504 635.08 390.01C637.178 390.079 638.822 391.836 638.753 393.933C638.684 396.031 636.927 397.675 634.83 397.606C618.421 397.066 606.409 393.063 598.22 386.391C589.959 379.661 586.009 370.558 585.115 360.752C584.924 358.662 586.464 356.813 588.554 356.622Z" fill="#2C3D46"/><path fill-rule="evenodd" clip-rule="evenodd" d="M522.805 475.815C525.283 479.203 524.546 483.958 521.159 486.437C515.767 490.381 507.053 497.053 498.55 504.162C489.912 511.384 481.989 518.649 477.8 523.856C475.169 527.127 470.385 527.645 467.114 525.014C463.844 522.383 463.326 517.599 465.957 514.328C471.18 507.836 480.149 499.734 488.801 492.5C497.589 485.153 506.566 478.28 512.184 474.169C515.571 471.691 520.326 472.428 522.805 475.815Z" fill="#4A5A62"/><path fill-rule="evenodd" clip-rule="evenodd" d="M570.125 483.355C572.839 486.557 572.443 491.353 569.241 494.066C564.145 498.384 555.929 505.66 547.955 513.358C539.854 521.178 532.47 528.99 528.662 534.483C526.271 537.933 521.537 538.791 518.087 536.4C514.637 534.009 513.779 529.274 516.17 525.824C520.916 518.976 529.284 510.254 537.399 502.422C545.64 494.466 554.103 486.97 559.414 482.47C562.616 479.756 567.412 480.153 570.125 483.355Z" fill="#4A5A62"/><path d="M732.252 460.132C745.092 465.743 751.29 479.928 746.095 491.816C740.901 503.705 726.282 508.797 713.442 503.186C700.602 497.575 694.404 483.39 699.598 471.502C704.793 459.613 719.412 454.521 732.252 460.132Z" fill="#3F515B"/><path fill-rule="evenodd" clip-rule="evenodd" d="M357.23 511.38C360.654 493.232 378.142 481.296 396.29 484.72L406.36 486.62C424.508 490.044 436.444 507.532 433.02 525.68C429.596 543.829 412.108 555.765 393.96 552.341L383.89 550.441C365.742 547.016 353.806 529.528 357.23 511.38Z" fill="#3F515B"/><path d="M513.068 400.512C509.272 406.742 502.058 408.243 497.856 405.682C493.654 403.121 493.264 397.694 497.061 391.464C500.857 385.234 507.971 384.031 512.173 386.592C515.626 388.696 516.865 394.283 513.068 400.512Z" fill="#2C3D46"/></svg>