<svg width="100" height="83" viewBox="0 0 100 83" fill="none" xmlns="http://www.w3.org/2000/svg"><rect x="7" y="55" width="85" height="28" rx="4" fill="#253438"/><path d="M76.0329 68.0678C76.3129 66.8528 76.7927 65.6684 77.4778 64.5639C80.1339 60.2818 85.2155 58.2669 90.0056 59.4901C91.0026 59.7447 91.4725 60.8969 90.9337 61.7657L85.7189 70.1723C87.9561 69.0629 90.6367 69.2833 92.6238 70.7744C93.0927 71.1263 93.0787 71.8332 92.596 72.1705L84.5627 77.785C84.5688 78.2333 84.4301 78.6546 84.1874 79.0002H76.4891C76.4414 78.8907 76.4027 78.776 76.3742 78.6571L67.4499 68.7548C66.9635 68.2151 67.1432 67.3606 67.8048 67.0673C70.5152 65.8653 73.6747 66.2723 76.0329 68.0678Z" fill="#5F7888"/><path d="M83.8243 74.5002C83.9458 72.3497 84.8319 70.2373 86.4572 68.5436C89.4696 65.4043 94.272 64.4842 98.3133 66.1876C99.1544 66.5422 99.3903 67.5591 98.7791 68.196L88.4141 78.998H80.5612L73.5768 71.7756C73.1405 71.3244 73.3016 70.6101 73.8951 70.3648C76.7463 69.1865 80.1513 69.8578 82.3018 72.0817C82.9987 72.8023 83.5077 73.6278 83.8243 74.5002Z" fill="#5F7888"/><path d="M19.498 43.3007C19.498 27.5282 32.2842 14.7421 48.0567 14.7421C63.8293 14.7421 76.6154 27.5282 76.6154 43.3008V71.8594H19.498V43.3007Z" fill="#37464F"/><rect x="24" y="15" width="3" height="57.1174" fill="#2A3E4A"/><rect x="39" y="15" width="3" height="57.1174" fill="#2A3E4A"/><rect x="54" y="15" width="3" height="57.1174" fill="#2A3E4A"/><rect x="69" y="15" width="3" height="57.1174" fill="#2A3E4A"/><path d="M13.3101 57.7445C13.3101 55.9634 14.7539 54.5195 16.5351 54.5195H25.435C27.2161 54.5195 28.66 55.9634 28.66 57.7445V60.9695C28.66 62.7506 27.2161 64.1945 25.435 64.1945H16.5351C14.7539 64.1945 13.3101 62.7506 13.3101 60.9695V57.7445Z" fill="#2A3E4A"/><path d="M13.3101 36.3266C13.3101 34.5454 14.7539 33.1016 16.5351 33.1016H25.435C27.2161 33.1016 28.66 34.5454 28.66 36.3266V39.5516C28.66 41.3327 27.2161 42.7765 25.435 42.7765H16.5351C14.7539 42.7765 13.3101 41.3327 13.3101 39.5516V36.3266Z" fill="#2A3E4A"/><path d="M67.4561 57.7445C67.4561 55.9634 68.8999 54.5195 70.681 54.5195H78.581C80.3621 54.5195 81.806 55.9634 81.806 57.7445V60.9695C81.806 62.7506 80.3621 64.1945 78.581 64.1945H70.681C68.8999 64.1945 67.4561 62.7506 67.4561 60.9695V57.7445Z" fill="#2A3E4A"/><path d="M67.4561 36.3266C67.4561 34.5454 68.8999 33.1016 70.681 33.1016H78.581C80.3621 33.1016 81.806 34.5454 81.806 36.3266V39.5516C81.806 41.3327 80.3621 42.7765 78.581 42.7765H70.681C68.8999 42.7765 67.4561 41.3327 67.4561 39.5516V36.3266Z" fill="#2A3E4A"/><path fill-rule="evenodd" clip-rule="evenodd" d="M48.0562 6.58398C27.7772 6.58398 11.3379 23.0233 11.3379 43.3023V70.6695C11.3379 75.2707 15.0679 79.0006 19.669 79.0006H76.4434C81.0445 79.0006 84.7745 75.2707 84.7745 70.6695V43.3023C84.7745 23.0233 68.3352 6.58398 48.0562 6.58398ZM48.0567 14.7421C32.2842 14.7421 19.498 27.5282 19.498 43.3007V71.8594H76.6154V43.3008C76.6154 27.5282 63.8293 14.7421 48.0567 14.7421Z" fill="#4F6471"/><path d="M48.0562 0C27.7772 0 11.3379 16.4394 11.3379 36.7183V43.3023C11.3379 23.0233 27.7772 6.58398 48.0562 6.58398C68.3352 6.58398 84.7745 23.0233 84.7745 43.3023V36.7183C84.7745 16.4393 68.3352 0 48.0562 0Z" fill="#5F7888"/><path d="M52.129 0.223328L48.6809 6.58919C48.4731 6.58572 48.2648 6.58398 48.0562 6.58398C27.7772 6.58398 11.3379 23.0233 11.3379 43.3023V36.7183C11.3379 16.4394 27.7772 0 48.0562 0C49.4328 0 50.7917 0.0757564 52.129 0.223328Z" fill="#6F8B9D"/><path d="M34.3763 42.7985C33.4695 41.8918 32.9315 40.6897 32.9315 39.3402C32.9315 39.3402 32.9304 39.2362 32.9315 39.1695C32.9615 37.311 33.8687 36.1886 34.375 35.7104C36.0212 34.1557 37.1505 34.2195 40.0015 34.2664C39.964 32.813 41.4017 31.4448 41.4017 31.4448C42.3084 30.538 43.5105 30 44.86 30H45.3151C46.6473 30 47.8359 30.5243 48.7385 31.4102C49.5402 32.1798 50.0447 33.1689 50.1809 34.2664H56.0381C57.3876 34.2664 58.5896 34.8044 59.4964 35.7112C60.4032 36.618 60.9412 37.82 60.9412 39.1695V40.4779C60.9412 43.4333 60.8838 45.9214 60.7647 47.9255C60.6473 49.9015 60.4673 51.6138 60.2084 53.0243C59.9637 54.4582 59.5326 55.9246 58.702 57.1163L58.6884 57.1359L58.6745 57.1552C57.9945 58.1013 57.0681 58.9843 55.8271 59.4902C54.7599 59.9497 53.6068 60.086 52.5396 60.086C51.3427 60.086 49.8246 60.0016 48.0203 59.8464L48.0173 59.8461C46.7067 59.7321 45.5734 59.1263 44.7394 58.1881L44.6758 58.1165L44.6165 58.0413C44.3033 57.6446 44.0509 57.2092 43.8688 56.7443C43.2182 57.4675 42.5138 58.1594 41.7576 58.8203L41.7286 58.8456L41.699 58.8702C40.6753 59.7233 39.4182 60.0966 38.1309 59.9893C36.836 59.8814 35.6761 59.3014 34.8129 58.3303L34.8043 58.3207L34.6259 58.1168C33.7243 57.1299 33.2812 55.8544 33.3989 54.5004C33.5084 53.2418 34.0704 52.0963 35.0375 51.243L35.0495 51.2324L35.0616 51.222C36.431 50.0372 37.4304 48.727 38.1124 47.2904C38.4886 46.4981 38.826 45.4911 39.1031 44.2433H37.8346C36.4851 44.2433 35.283 43.7053 34.3763 42.7985Z" fill="#4F6471"/><path d="M37.834 40.9615C37.3979 40.9615 37.0187 40.8003 36.6963 40.4779C36.3739 40.1556 36.2128 39.7763 36.2128 39.3402V39.1695C36.2128 38.7334 36.3739 38.3542 36.6963 38.0318C37.0187 37.7095 37.3979 37.5483 37.834 37.5483H42.9253C43.077 37.5483 43.1528 37.4725 43.1528 37.3208C43.2097 35.7848 43.2382 34.979 43.2382 34.9031C43.2382 34.467 43.3994 34.0877 43.7217 33.7654C44.0441 33.443 44.4233 33.2819 44.8594 33.2819H45.3145C45.7506 33.2819 46.1299 33.443 46.4522 33.7654C46.7746 34.0688 46.9358 34.4385 46.9358 34.8747C46.9358 34.9695 46.9073 35.7848 46.8504 37.3208C46.8504 37.4725 46.9263 37.5483 47.078 37.5483H56.0375C56.4736 37.5483 56.8529 37.7095 57.1752 38.0318C57.4976 38.3542 57.6588 38.7334 57.6588 39.1695V40.4779C57.6588 43.3981 57.6019 45.8157 57.4881 47.7309C57.3743 49.646 57.2037 51.2199 56.9761 52.4524C56.7675 53.6849 56.4452 54.6141 56.0091 55.2398C55.5729 55.8466 55.0894 56.2543 54.5585 56.4629C54.0465 56.6904 53.3733 56.8042 52.539 56.8042C51.4772 56.8042 50.0645 56.7283 48.301 56.5766C47.8649 56.5387 47.4951 56.3491 47.1917 56.0078C46.9073 55.6475 46.7841 55.2493 46.822 54.8132L46.8504 54.5572C46.8884 54.1211 47.078 53.7608 47.4193 53.4764C47.7606 53.1919 48.1493 53.0687 48.5855 53.1066C49.9697 53.2014 50.9083 53.2488 51.4013 53.2488C52.0081 53.2488 52.4537 53.0307 52.7381 52.5946C53.0415 52.1395 53.2691 51.1346 53.4208 49.5797C53.5914 48.0058 53.6767 45.5882 53.6767 42.3267V41.189C53.6767 41.0373 53.5914 40.9615 53.4208 40.9615H46.8504C46.7177 40.9615 46.6324 41.0468 46.5944 41.2174C46.2152 44.8581 45.4757 47.8352 44.3759 50.1485C43.2951 52.4429 41.7023 54.5098 39.5975 56.3491C39.2562 56.6335 38.858 56.7568 38.4029 56.7188C37.9478 56.6809 37.5685 56.4913 37.2652 56.15L37.0661 55.9224C36.7627 55.6001 36.6299 55.2209 36.6679 54.7847C36.7058 54.3486 36.8859 53.9883 37.2083 53.7039C38.8959 52.2438 40.1853 50.5752 41.0765 48.6979C41.9677 46.8207 42.5745 44.3177 42.8969 41.189C42.8969 41.0373 42.821 40.9615 42.6693 40.9615H37.834Z" fill="#2A3E4A"/><path d="M70.6161 7.74585L68.6495 12.8982C72.7571 15.6858 76.2701 19.2839 78.9585 23.4628L80.3284 19.1899C77.905 14.7375 74.5871 10.8424 70.6161 7.74585Z" fill="#6F8B9D"/><path d="M17.9301 68.5931C17.6336 67.3067 17.1256 66.0526 16.4002 64.8831C13.5879 60.3492 8.20739 58.2158 3.13548 59.5109C2.07986 59.7804 1.58231 61.0005 2.15287 61.9203L7.67437 70.8214C5.30559 69.6468 2.46733 69.8802 0.363314 71.459C-0.133203 71.8316 -0.118318 72.5801 0.39271 72.9372L8.89856 78.882C8.89802 78.9215 8.89855 78.9609 8.90011 79H18.2946L27.018 69.3206C27.533 68.7492 27.3427 67.8444 26.6423 67.5338C23.7724 66.2611 20.427 66.692 17.9301 68.5931Z" fill="#5F7888"/></svg>