<svg width="276" height="182" viewBox="0 0 276 182" version="1.1" xmlns="http://www.w3.org/2000/svg"><title>laptop-schools</title><g stroke="none" stroke-width="1" fill="none" fill-rule="evenodd"><g transform="translate(0 -22)"><rect fill="#5C5B5B" fill-rule="nonzero" x="22.18" y="22.173" width="231.191" height="170.614" rx="10.919"/><rect fill="#131F22" fill-rule="nonzero" x="38.322" y="36.455" width="197.083" height="142.049" rx="5.459"/><g transform="translate(200 53)" fill="#93d333" fill-rule="nonzero"><rect x="4" y="7" width="5" height="7" rx="2"/><path d="M7.268.922l5.365 6.438A1 1 0 0 1 11.865 9H1.135a1 1 0 0 1-.768-1.64L5.732.922a1 1 0 0 1 1.536 0z"/></g><g transform="matrix(1 0 0 -1 200 110)" fill="#ee5555" fill-rule="nonzero"><rect x="4" y="7" width="5" height="7" rx="2"/><path d="M7.268.922l5.365 6.438A1 1 0 0 1 11.865 9H1.135a1 1 0 0 1-.768-1.64L5.732.922a1 1 0 0 1 1.536 0z"/></g><g transform="translate(200 140)" fill="#93d333" fill-rule="nonzero"><rect x="4" y="7" width="5" height="7" rx="2"/><path d="M7.268.922l5.365 6.438A1 1 0 0 1 11.865 9H1.135a1 1 0 0 1-.768-1.64L5.732.922a1 1 0 0 1 1.536 0z"/></g><g><g fill-rule="nonzero" transform="translate(60 51)"><path d="M13.052 0a7.584 7.584 0 0 1 7.217 5.255l4.478 13.874a3.425 3.425 0 0 1-3.26 4.476H4.418A3.425 3.425 0 0 1 1.168 19.1l4.617-13.86A7.659 7.659 0 0 1 13.052 0z" fill="#2D2D2D"/><ellipse fill="#8B4824" cx="21.609" cy="12.029" rx="2.891" ry="2.995"/><ellipse fill="#8B4824" cx="4.297" cy="12.029" rx="2.891" ry="2.995"/><path d="M12.953 1.749a7.453 7.453 0 0 1 7.453 7.453v4.91a7.453 7.453 0 1 1-14.906 0v-4.91a7.453 7.453 0 0 1 7.453-7.453z" fill="#A56644"/><path d="M15.113 14.744c-1.187-.142-2.052-.316-2.587-.518-.534-.202-1.268-.633-2.194-1.291l-.271-.193-.244.697a2.935 2.935 0 0 0 1.731 3.714 2.803 2.803 0 0 0 3.614-1.63l.024-.065.237-.677-.31-.037z" stroke="#FFF" stroke-width=".5" fill="#FFF" stroke-linecap="round" stroke-linejoin="round"/><path d="M17.326 1.401l-1.18 2.722a8.154 8.154 0 0 1-7.481 4.911h-4.29L5.639 5.25A7.683 7.683 0 0 1 12.926 0c1.617 0 3.144.51 4.4 1.401z" fill="#2D2D2D"/></g><g transform="translate(61.71 88.258)"><ellipse fill="#CD7C60" fill-rule="nonzero" transform="matrix(-1 0 0 1 4.781 0)" cx="2.391" cy="16.466" rx="2.391" ry="2.477"/><path d="M10.961 7.286a7.734 7.734 0 0 0-7.734 7.734v4.057a7.734 7.734 0 1 0 15.469 0V15.02a7.734 7.734 0 0 0-7.735-7.734z" fill="#DB8E73" fill-rule="nonzero"/><path fill="#B4654A" fill-rule="nonzero" d="M12.227 17.486h-2.25v1.166h2.25z"/><rect fill="#FFF" fill-rule="nonzero" transform="matrix(-1 0 0 1 16.579 0)" x="6.321" y="13.114" width="3.938" height="6.12" rx="1.969"/><rect fill="#4B4B4B" fill-rule="nonzero" transform="matrix(-1 0 0 1 17.141 0)" x="7.727" y="14.571" width="1.688" height="3.206" rx=".844"/><rect fill="#FFF" fill-rule="nonzero" x="11.946" y="13.114" width="3.938" height="6.12" rx="1.969"/><rect fill="#4B4B4B" fill-rule="nonzero" x="12.789" y="14.571" width="1.688" height="3.206" rx=".844"/><ellipse fill="#DB8E73" fill-rule="nonzero" transform="matrix(-1 0 0 1 15.454 0)" cx="7.727" cy="19.817" rx="3.094" ry="3.206"/><ellipse fill="#DB8E73" fill-rule="nonzero" transform="matrix(-1 0 0 1 28.954 0)" cx="14.477" cy="19.817" rx="3.094" ry="3.206"/><path d="M11.805 18.827v-3.266a.844.844 0 0 0-1.688 0v3.266a.844.844 0 1 0 1.688 0z" fill="#B4654A" fill-rule="nonzero"/><path d="M10.58 20.108h.763c.644 0 1.165-.521 1.165-1.164v-.002c0-.644-.521-1.165-1.165-1.165h-.764c-.643 0-1.165.521-1.165 1.165v.002c0 .643.522 1.164 1.165 1.164z" fill="#B4654A" fill-rule="nonzero"/><path d="M6.237 7.275c3.646-2.654 8.689-2.368 12.181.778 3.493 3.146 4.468 8.28 2.439 12.391a.585.585 0 0 1-.926.17L6.203 8.25c-.297-.268-.28-.745.034-.974z" fill="#FFD900" fill-rule="nonzero"/><path d="M11.168 21.066c-.826-.103-1.427-.227-1.797-.366-.368-.139-.88-.434-1.526-.886l-.27-.188-.183.52a2.128 2.128 0 0 0 1.257 2.696 2.045 2.045 0 0 0 2.635-1.193l.016-.043.176-.502-.308-.038z" stroke="#FFF" stroke-width=".5" fill="#FFF" fill-rule="nonzero" stroke-linecap="round" stroke-linejoin="round"/><path d="M7.259 12.378c-1.94-.483-3.329-2.279-3.329-4.364S5.32 4.133 7.26 3.651a.267.267 0 0 1 .327.266v8.195c0 .177-.16.307-.327.266z" fill="#FFD900" fill-rule="nonzero"/><ellipse fill="#CD7C60" fill-rule="nonzero" transform="matrix(-1 0 0 1 6.202 0)" cx="3.101" cy="16.466" rx="2.391" ry="2.477"/><path d="M10.961 7.286a7.734 7.734 0 0 0-7.734 7.734v4.64a7.734 7.734 0 0 0 15.469 0v-4.64a7.734 7.734 0 0 0-7.735-7.734z" fill="#DB8E73" fill-rule="nonzero"/><ellipse fill="#DB8E73" fill-rule="nonzero" transform="matrix(-1 0 0 1 15.454 0)" cx="7.727" cy="19.817" rx="3.094" ry="3.206"/><ellipse fill="#DB8E73" fill-rule="nonzero" transform="matrix(-1 0 0 1 28.954 0)" cx="14.477" cy="19.817" rx="3.094" ry="3.206"/><path d="M8.43 21.476a3.567 3.567 0 0 0 5.17 0" stroke="#B4654A" stroke-width="1.456" stroke-linecap="round"/><path d="M5.421 6.472c3.889-2.846 9.247-2.57 12.942.759 3.695 3.328 4.705 8.787 2.526 13.173a.623.623 0 0 1-.984.187L5.38 7.508a.673.673 0 0 1 .041-1.036z" fill="#FFD900" fill-rule="nonzero"/></g><g fill-rule="nonzero"><g transform="translate(61 134.258)"><ellipse fill="#A0563C" cx="20.734" cy="14.069" rx="2.891" ry="2.995"/><ellipse fill="#A0563C" cx="2.891" cy="14.069" rx="2.891" ry="2.995"/><path d="M5.986 0h11.653a2.33 2.33 0 0 1 2.33 2.33v8.453H3.656V2.33A2.33 2.33 0 0 1 5.986 0z" fill="#3D3D3D"/><path d="M16.474 6.12H7.151a3.494 3.494 0 0 0-3.495 3.494v6.275a8.008 8.008 0 0 0 8.008 8.008h.297a8.008 8.008 0 0 0 8.008-8.008V9.614a3.494 3.494 0 0 0-3.495-3.494z" fill="#C6775C"/></g><path d="M75.11 151.424c-1.187-.141-2.052-.315-2.587-.518-.534-.202-1.268-.633-2.194-1.29l-.27-.193-.244.696a2.935 2.935 0 0 0 1.73 3.714 2.803 2.803 0 0 0 3.614-1.629l.024-.066.237-.677-.31-.037z" stroke="#FFF" stroke-width=".5" fill="#FFF" stroke-linecap="round" stroke-linejoin="round"/></g></g><path d="M1.82 187.61h271.91a1.82 1.82 0 0 1 1.82 1.821v6.374c0 4.526-3.666 8.195-8.19 8.195H8.19C3.667 204 0 200.33 0 195.805v-6.374a1.82 1.82 0 0 1 1.82-1.821z" fill="#C1C9CB" fill-rule="nonzero"/><g transform="translate(105 52)" stroke="#FFC800" stroke-width="2"><path d="M4.838 15.481l11.975-8.296 11.974 8.996L40.762 1.5l11.974 10.7L64.711 5"/><circle fill="#131F22" fill-rule="nonzero" cx="15.5" cy="8.5" r="2.5"/><circle fill="#131F22" fill-rule="nonzero" cx="2.5" cy="15.5" r="2.5"/><circle fill="#131F22" fill-rule="nonzero" cx="27.5" cy="16.5" r="2.5"/><circle fill="#131F22" fill-rule="nonzero" cx="40.5" cy="2.5" r="2.5"/><circle fill="#131F22" fill-rule="nonzero" cx="52.5" cy="12.5" r="2.5"/><circle fill="#131F22" fill-rule="nonzero" cx="65.5" cy="4.5" r="2.5"/></g><g transform="translate(105 135)" stroke="#FFC800" stroke-width="2"><path d="M4.838 15.481l11.975-8.296 11.974 8.996L40.762 1.5l11.974 10.7L64.711 5"/><circle fill="#131F22" fill-rule="nonzero" cx="15.5" cy="8.5" r="2.5"/><circle fill="#131F22" fill-rule="nonzero" cx="2.5" cy="15.5" r="2.5"/><circle fill="#131F22" fill-rule="nonzero" cx="27.5" cy="16.5" r="2.5"/><circle fill="#131F22" fill-rule="nonzero" cx="40.5" cy="2.5" r="2.5"/><circle fill="#131F22" fill-rule="nonzero" cx="52.5" cy="12.5" r="2.5"/><circle fill="#131F22" fill-rule="nonzero" cx="65.5" cy="4.5" r="2.5"/></g><g transform="translate(105 94)" stroke="#FFC800" stroke-width="2"><path d="M4.838 4.481l11.975 2.704 11.974 3.996L40.762 6.5l11.974 5.7L64.711 15"/><circle fill="#131F22" fill-rule="nonzero" cx="15.5" cy="6.5" r="2.5"/><circle fill="#131F22" fill-rule="nonzero" cx="2.5" cy="2.5" r="2.5"/><circle fill="#131F22" fill-rule="nonzero" cx="27.5" cy="11.5" r="2.5"/><circle fill="#131F22" fill-rule="nonzero" cx="40.5" cy="6.5" r="2.5"/><circle fill="#131F22" fill-rule="nonzero" cx="52.5" cy="12.5" r="2.5"/><circle fill="#131F22" fill-rule="nonzero" cx="65.5" cy="15.5" r="2.5"/></g></g></g></svg>