<svg width="276" height="182" viewBox="0 0 276 182" version="1.1" xmlns="http://www.w3.org/2000/svg"><title>laptop-features</title><g stroke="none" stroke-width="1" fill="none" fill-rule="evenodd"><g transform="translate(0 -45)"><g><g><g><rect fill="#5C5B5B" fill-rule="nonzero" x="22.18" y="45.173" width="231.191" height="170.614" rx="10.919"/><rect fill="#131F22" fill-rule="nonzero" x="38.322" y="59.455" width="197.083" height="142.049" rx="5.459"/><g><g transform="translate(38.411 82.331)"><path d="M0 86.792h197.506v26.969a5.46 5.46 0 0 1-5.46 5.46H5.46A5.46 5.46 0 0 1 0 113.76v-26.97z" fill="#79B933" fill-rule="nonzero"/><path d="M42.147 102.82l3.748 3.707a.7.7 0 0 0 .985 0l7.155-7.08" stroke="#131F22" stroke-width="3.149" stroke-linecap="round"/><rect fill="#37464F" fill-rule="nonzero" x="39.986" y="0" width="123.537" height="7.567" rx="3.783"/><rect fill="#79B933" fill-rule="nonzero" x="39.986" y="0" width="44.309" height="7.567" rx="3.783"/></g></g><path d="M1.82 210.61h271.91a1.82 1.82 0 0 1 1.82 1.821v6.374c0 4.526-3.666 8.195-8.19 8.195H8.19C3.667 227 0 223.33 0 218.805v-6.374a1.82 1.82 0 0 1 1.82-1.821z" fill="#C1C9CB" fill-rule="nonzero"/></g></g><rect fill="#131F22" fill-rule="nonzero" opacity=".4" x="101.586" y="181.6" width="65.923" height="3.243" rx="1.621"/><rect fill="#131F22" fill-rule="nonzero" opacity=".4" x="101.586" y="188.086" width="34.582" height="3.243" rx="1.621"/></g><rect stroke="#37464F" stroke-width="1.8" x="79.251" y="111.698" width="31.522" height="34.232" rx="5.4"/><rect stroke="#37464F" stroke-width="1.8" fill="#37464F" fill-rule="nonzero" x="124.28" y="111.698" width="31.522" height="34.232" rx="5.4"/><rect stroke="#37464F" stroke-width="1.8" x="169.309" y="111.698" width="31.522" height="34.232" rx="5.4"/></g></g></svg>