<svg width="541" height="491" viewBox="0 0 541 491" fill="none" xmlns="http://www.w3.org/2000/svg"><path d="M236.664 260.744L260.405 266.889L233.568 490.292L151.741 469.112L236.664 260.744Z" fill="url(#paint0_linear_1928_317263)"/><path d="M286.22 250.767L282.625 226.508L527.749 159.854L540.14 243.465L286.22 250.767Z" fill="url(#paint1_linear_1928_317263)"/><path d="M264.76 228.698L244.096 241.905L82.9703 45.5202L154.189 3.63109e-06L264.76 228.698Z" fill="url(#paint2_linear_1928_317263)"/><path d="M276.128 217.928L260.708 209.167L341.28 23.4497L394.425 53.647L276.128 217.928Z" fill="url(#paint3_linear_1928_317263)"/><path d="M227.535 224.887L221.464 232.378L50.4985 109.025L71.4215 83.2041L227.535 224.887Z" fill="url(#paint4_linear_1928_317263)"/><path d="M236.857 248.999L231.654 236.821L55.9637 256.757L31.4782 354.351L236.857 248.999Z" fill="url(#paint5_linear_1928_317263)"/><path d="M189.051 251.842C189.031 250.53 190.078 249.449 191.39 249.429L192.828 249.406C200.193 249.291 206.256 255.168 206.371 262.532L206.381 263.163C206.402 264.476 205.355 265.556 204.042 265.577L202.604 265.599C195.24 265.715 189.176 259.838 189.061 252.473L189.051 251.842Z" fill="#FFD600"/><path d="M308.189 216.892C307.46 215.801 305.984 215.507 304.893 216.236L303.697 217.035C297.572 221.125 295.923 229.407 300.014 235.531L300.364 236.056C301.093 237.148 302.569 237.442 303.661 236.713L304.857 235.914C310.982 231.823 312.631 223.542 308.54 217.417L308.189 216.892Z" fill="#FFB800"/><path d="M194.13 277.551C193.309 276.527 193.473 275.031 194.496 274.209L195.618 273.309C201.362 268.699 209.756 269.618 214.366 275.362L214.761 275.854C215.583 276.878 215.419 278.374 214.395 279.196L213.273 280.096C207.529 284.706 199.136 283.787 194.525 278.043L194.13 277.551Z" fill="#FFD600"/><path d="M319.016 241.67C319.169 240.367 318.236 239.186 316.933 239.033L315.504 238.865C308.189 238.007 301.563 243.241 300.705 250.557L300.631 251.183C300.479 252.487 301.411 253.668 302.715 253.821L304.144 253.988C311.459 254.847 318.084 249.612 318.943 242.297L319.016 241.67Z" fill="#FFB800"/><path d="M211.47 297.733C210.162 297.622 209.192 296.472 209.303 295.164L209.425 293.731C210.048 286.392 216.503 280.948 223.842 281.572L224.471 281.625C225.779 281.736 226.749 282.886 226.638 284.194L226.516 285.627C225.893 292.966 219.438 298.41 212.099 297.787L211.47 297.733Z" fill="#FFD600"/><path d="M314.268 268.198C315.317 267.41 315.529 265.92 314.741 264.87L313.877 263.721C309.453 257.832 301.093 256.644 295.204 261.068L294.7 261.447C293.65 262.236 293.438 263.726 294.227 264.775L295.091 265.925C299.515 271.814 307.875 273.001 313.763 268.577L314.268 268.198Z" fill="#FFB800"/><path d="M201.45 225.135C198.598 215.205 207.243 205.672 217.502 206.889C227.068 208.023 237.149 208.683 241.992 207.291C246.834 205.9 255.028 199.99 262.533 193.951C270.582 187.474 282.969 190.965 285.822 200.895L293.725 228.401C300.418 251.7 286.957 276.013 263.659 282.707C240.36 289.401 216.047 275.94 209.353 252.641L201.45 225.135Z" fill="#FFB800"/><path fill-rule="evenodd" clip-rule="evenodd" d="M285.382 199.604L287.477 206.897C294.862 232.599 280.012 259.421 254.31 266.806C239.043 271.192 223.381 267.733 211.632 258.816C210.732 256.846 209.967 254.785 209.351 252.641L201.448 225.135C198.596 215.205 207.241 205.672 217.5 206.889C227.066 208.023 237.147 208.683 241.99 207.291C246.832 205.9 255.026 199.99 262.531 193.951C270.221 187.763 281.87 190.674 285.382 199.604Z" fill="#FFD600"/><circle cx="215.642" cy="220.409" r="8.6726" transform="rotate(-16.0295 215.642 220.409)" fill="#FFF500"/><path d="M251.727 213.234C257.949 210.185 261.196 207.682 265.348 203.536" stroke="#FFF500" stroke-width="11.5952" stroke-linecap="round"/><rect x="257.406" y="279.215" width="9.33357" height="20.1427" transform="rotate(-16.0295 257.406 279.215)" fill="#FFB800"/><path d="M254.886 294.082C260.047 292.19 260.281 288.935 259.769 287.45L268.167 291.349L258.766 299.202C255.21 298.034 249.855 295.926 254.886 294.082Z" fill="#FFB800"/><path d="M252.045 284.313C257.539 284.13 259.352 285.928 259.793 287.465L264.823 279.697L253.126 279.558C250.733 282.435 247.101 284.478 252.045 284.313Z" fill="#FFB800"/><path d="M273.689 278.425C268.936 281.186 268.353 283.672 268.795 285.209L260.409 281.295L269.81 273.442C273.366 274.61 277.967 275.94 273.689 278.425Z" fill="#FFD600"/><path d="M273.689 278.425C268.936 281.186 268.353 283.672 268.795 285.209L260.409 281.295L269.81 273.442C273.366 274.61 277.967 275.94 273.689 278.425Z" fill="#FFB800"/><path d="M276.449 287.645C271.026 288.544 268.965 286.275 268.611 284.745L263.716 292.463L275.852 294.129C278.246 291.251 281.918 286.738 276.449 287.645Z" fill="#FFB800"/><path d="M204.621 263.181C206.339 268.558 212.707 280.093 224.435 283.212" stroke="#FFD600" stroke-width="3.57049" stroke-linecap="round"/><path d="M302.043 235.192C303.442 240.661 304.167 253.816 295.883 262.686" stroke="#FFB800" stroke-width="3.57049" stroke-linecap="round"/><path d="M320.675 289.108C320.465 288.953 320.557 288.599 320.815 288.563C322.035 288.392 324.414 287.96 325.873 287.037C327.48 286.021 329.065 283.689 329.808 282.496C329.95 282.267 330.327 282.342 330.371 282.607C330.603 283.989 331.175 286.736 332.255 288.273C333.274 289.725 335.281 290.987 336.323 291.579C336.547 291.706 336.508 292.065 336.26 292.137C335.05 292.49 332.599 293.292 331.071 294.385C329.619 295.423 328.032 297.258 327.347 298.088C327.202 298.264 326.912 298.207 326.845 297.988C326.52 296.93 325.717 294.519 324.719 292.995C323.719 291.467 321.702 289.868 320.675 289.108Z" fill="#FFD600"/><path d="M182.962 203.706C183.115 203.495 182.921 203.183 182.664 203.227C181.474 203.426 179.152 203.715 177.533 203.287C175.751 202.816 173.607 201.128 172.56 200.232C172.356 200.057 172.018 200.242 172.055 200.508C172.245 201.869 172.512 204.571 171.961 206.307C171.442 207.947 169.959 209.698 169.161 210.559C168.985 210.749 169.131 211.079 169.389 211.073C170.625 211.047 173.122 211.078 174.853 211.643C176.5 212.18 178.503 213.413 179.389 213.987C179.581 214.111 179.841 213.969 179.839 213.741C179.831 212.654 179.873 210.191 180.352 208.489C180.831 206.785 182.226 204.72 182.962 203.706Z" fill="#FFD600"/><path d="M421.593 411.675L367.7 353.913C364.811 350.817 359.763 351.441 357.73 355.145C347.964 372.945 350.728 395.428 364.966 410.689C379.205 425.95 401.376 430.193 419.714 421.579C423.53 419.786 424.482 414.771 421.593 411.675Z" fill="#58CC02"/><path d="M295.019 444.009L304.902 365.63C305.432 361.429 309.89 358.98 313.707 360.793C332.045 369.508 342.964 389.354 340.353 410.062C337.742 430.77 322.249 447.188 302.34 450.939C298.196 451.719 294.489 448.21 295.019 444.009Z" fill="#4CB200"/><path d="M323.183 347.744C326.01 347.744 347.629 332.111 367.918 332.111C404.172 332.111 392.032 378.011 392.032 387.49C392.032 389.818 396.356 396.304 396.356 414.098C396.356 440.707 369.581 457.503 348.627 457.503C327.673 457.503 297.24 446.527 293.913 394.142C290.587 337.599 318.693 347.744 323.183 347.744Z" fill="#58CC02"/><path fill-rule="evenodd" clip-rule="evenodd" d="M313.93 347.101C308.003 350.023 306.366 356.267 309.629 356.267C312.282 356.267 319.842 350.77 323.825 347.605C324.875 347.25 326.751 346.245 329.251 344.907C334.369 342.166 342.1 338.026 350.697 335.203C350.702 335.217 350.706 335.232 350.711 335.247C351.672 338.464 351.256 341.814 349.696 344.522C355.891 348.904 359.936 356.124 359.936 364.29V371.441C359.936 384.805 349.102 395.638 335.739 395.638C324.524 395.638 315.09 388.008 312.347 377.656L310.045 380.256C309.49 378.177 307.484 376.631 303.891 387.075C300.652 396.494 295.816 396.227 293.922 394.254C293.92 394.217 293.917 394.18 293.915 394.142C291.613 355.005 304.369 347.818 313.93 347.101Z" fill="#89E219"/><path d="M352.119 366.15C352.119 356.766 344.512 349.158 335.127 349.158C325.742 349.158 318.134 356.766 318.134 366.15V371.08C318.134 380.465 325.742 388.073 335.127 388.073C344.512 388.073 352.119 380.465 352.119 371.08V366.15Z" fill="white"/><path fill-rule="evenodd" clip-rule="evenodd" d="M318.133 366.003V367.979C318.133 374.382 323.095 379.573 329.215 379.573C335.336 379.573 340.297 374.382 340.297 367.979V360.791C340.297 355.292 336.638 350.687 331.728 349.497C324.017 351.061 318.202 357.847 318.133 366.003Z" fill="#535353"/><path d="M302.646 375.982C303.727 368.69 304.475 359.302 300.983 359.302C297.407 359.302 296.077 373.971 295.828 375.982C295.578 377.994 294.331 390.316 297.158 390.484C299.985 390.651 301.565 383.275 302.646 375.982Z" fill="white"/><path fill-rule="evenodd" clip-rule="evenodd" d="M301.637 381.798C302.02 379.955 302.351 377.966 302.645 375.982C303.725 368.69 304.474 359.302 300.982 359.302C297.905 359.302 296.491 370.159 295.997 374.473L295.767 377.863C295.615 380.11 297.313 382.055 299.56 382.207C300.303 382.257 301.014 382.105 301.637 381.798Z" fill="#535353"/><path d="M314.162 392.916V380.6L304.287 381.325C303.423 384.451 301.694 391.147 301.694 392.916C301.694 395.127 302.19 400.084 308.138 400.084C312.896 400.084 314.137 395.305 314.162 392.916Z" fill="#F49000"/><path d="M311.019 390.44L312.817 380.486L305.05 380.96C304.352 383.487 303.355 388.986 303.165 390.44C302.932 392.212 302.55 395.337 305.834 395.337C309.117 395.337 310.636 392.439 311.019 390.44Z" fill="#A65A00"/><path d="M299.079 382.184C300.211 378.299 304.05 375.558 307.475 375.558C312.52 375.558 314.432 378.626 314.855 380.483C314.91 380.725 314.802 380.97 314.584 381.088C312.124 382.422 305.211 383.396 300.229 383.563C299.466 383.588 298.865 382.918 299.079 382.184Z" fill="#FFC200"/><path d="M325.342 412.323L314.089 414.392C313.486 414.503 313.161 415.14 313.448 415.651C314.826 418.102 317.763 419.43 320.736 418.883C323.709 418.337 325.979 416.052 326.391 413.271C326.476 412.692 325.946 412.212 325.342 412.323Z" fill="#8EE000"/><path d="M308.119 415.37L299.847 416.068C299.404 416.106 299.138 416.698 299.321 417.238C300.205 419.833 302.275 421.502 304.46 421.318C306.645 421.133 308.403 419.141 308.835 416.435C308.925 415.872 308.562 415.332 308.119 415.37Z" fill="#8EE000"/><path d="M317.755 425.411L308.532 426.628C308.038 426.694 307.762 427.303 307.988 427.832C309.071 430.372 311.446 431.912 313.883 431.59C316.32 431.268 318.211 429.166 318.594 426.432C318.674 425.863 318.249 425.346 317.755 425.411Z" fill="#8EE000"/><path fill-rule="evenodd" clip-rule="evenodd" d="M311.715 386.592L311.021 390.439C310.638 392.439 309.119 395.337 305.835 395.337C304.292 395.337 303.558 394.646 303.238 393.731C303.498 389.721 306.832 386.55 310.907 386.55C311.18 386.55 311.45 386.564 311.715 386.592Z" fill="#FEB7FF"/><path fill-rule="evenodd" clip-rule="evenodd" d="M324.865 352.606C327.318 353.078 329.184 355.463 329.184 358.334C329.184 361.544 326.851 364.147 323.974 364.147C321.763 364.147 319.874 362.611 319.117 360.443C320.238 357.301 322.257 354.585 324.865 352.606Z" fill="white"/><path fill-rule="evenodd" clip-rule="evenodd" d="M297.084 367.248C297.284 368.292 297.754 369.02 298.368 369.084C299.32 369.183 300.26 367.647 300.468 365.653C300.675 363.659 300.071 361.963 299.119 361.864C298.925 361.843 298.731 361.891 298.544 361.997C297.948 363.448 297.467 365.33 297.084 367.248Z" fill="white"/><path d="M329.447 422.446C330.523 423.892 333.479 427.249 336.695 429.111" stroke="#F49000" stroke-width="16.7965" stroke-linecap="round"/><path d="M376.992 479.27C378.059 477.817 380.401 474.006 381.237 470.385" stroke="#F49000" stroke-width="16.7965" stroke-linecap="round"/><path fill-rule="evenodd" clip-rule="evenodd" d="M394.734 425.675C394.118 426.838 393.446 427.967 392.724 429.06C388.451 427.713 383.941 425.734 379.879 422.886C379.014 422.28 378.805 421.087 379.411 420.222C380.018 419.358 381.211 419.148 382.075 419.755C386.051 422.543 390.54 424.43 394.734 425.675Z" fill="#4CB200"/><path d="M332.665 370.191C332.281 370.904 331.594 371.652 330.725 372.062" stroke="white" stroke-width="6.81839" stroke-linecap="round"/><path fill-rule="evenodd" clip-rule="evenodd" d="M310.281 375.932C310.636 376.444 310.711 377.128 310.416 377.726C309.984 378.604 308.923 378.965 308.046 378.533C307.588 378.308 306.216 377.868 304.967 378.079C304.127 378.221 303.326 377.747 303.026 376.986C304.416 376.078 305.986 375.559 307.477 375.559C308.547 375.559 309.477 375.697 310.281 375.932Z" fill="#FFDE00"/><ellipse cx="269.472" cy="296.783" rx="26.6296" ry="7.36196" transform="rotate(-15.3846 269.472 296.783)" fill="#FFB800"/><rect x="238.483" y="310.464" width="67.0182" height="7.45898" transform="rotate(-15.3846 238.483 310.464)" fill="#FFD600"/><ellipse cx="270.823" cy="301.695" rx="33.5091" ry="8.125" transform="rotate(-15.3846 270.823 301.695)" fill="#FFD600"/><ellipse cx="272.947" cy="309.408" rx="33.5091" ry="8.125" transform="rotate(-15.3846 272.947 309.408)" fill="#FFB800"/><path fill-rule="evenodd" clip-rule="evenodd" d="M254.389 306.874C254.869 306.666 255.115 306.127 254.949 305.63L253.332 300.796C253.147 300.243 252.529 299.964 251.995 300.199C249.513 301.292 247.324 302.408 245.506 303.502C245.111 303.74 244.941 304.221 245.087 304.657L246.673 309.399C246.877 310.01 247.598 310.272 248.156 309.951C249.942 308.927 252.04 307.89 254.389 306.874Z" fill="#FFF500"/><path fill-rule="evenodd" clip-rule="evenodd" d="M258.254 304.151C258.435 304.692 259.032 304.972 259.566 304.771C260.729 304.333 261.934 303.904 263.177 303.485C263.703 303.308 263.989 302.74 263.813 302.213L262.173 297.309C261.998 296.786 261.433 296.503 260.912 296.681C259.633 297.116 258.395 297.563 257.203 298.018C256.705 298.208 256.45 298.757 256.618 299.262L258.254 304.151Z" fill="#FFF500"/><defs><linearGradient id="paint0_linear_1928_317263" x1="248.535" y1="263.817" x2="192.654" y2="479.702" gradientUnits="userSpaceOnUse"><stop stop-color="#53594D"/><stop offset="1" stop-color="#FFF8D4" stop-opacity="0"/></linearGradient><linearGradient id="paint1_linear_1928_317263" x1="284.422" y1="238.637" x2="533.944" y2="201.66" gradientUnits="userSpaceOnUse"><stop stop-color="#53594D"/><stop offset="1" stop-color="#FFF8D4" stop-opacity="0"/></linearGradient><linearGradient id="paint2_linear_1928_317263" x1="254.428" y1="235.302" x2="118.58" y2="22.7601" gradientUnits="userSpaceOnUse"><stop stop-color="#53594D"/><stop offset="1" stop-color="#FFF8D4" stop-opacity="0"/></linearGradient><linearGradient id="paint3_linear_1928_317263" x1="268.418" y1="213.548" x2="367.853" y2="38.5484" gradientUnits="userSpaceOnUse"><stop stop-color="#53594D"/><stop offset="1" stop-color="#FFF8D4" stop-opacity="0"/></linearGradient><linearGradient id="paint4_linear_1928_317263" x1="224.5" y1="228.632" x2="60.96" y2="96.1146" gradientUnits="userSpaceOnUse"><stop stop-color="#53594D"/><stop offset="1" stop-color="#FFF8D4" stop-opacity="0"/></linearGradient><linearGradient id="paint5_linear_1928_317263" x1="227.482" y1="227.054" x2="82" y2="295.5" gradientUnits="userSpaceOnUse"><stop stop-color="#53594D"/><stop offset="1" stop-color="#FFF8D4" stop-opacity="0"/></linearGradient></defs></svg>