<svg width="23" height="31" viewBox="0 0 23 31" fill="none" xmlns="http://www.w3.org/2000/svg"><path fill-rule="evenodd" clip-rule="evenodd" d="M14.6912 2.05819C14.4784 -0.0342516 11.7918 -0.754097 10.5613 0.951613L0.433712 14.9904C-0.502946 16.2888 0.150053 18.123 1.69648 18.5373L7.45777 20.0811L8.30883 28.4498C8.52162 30.5423 11.2082 31.2621 12.4387 29.5564L22.5663 15.5176C23.5029 14.2192 22.8499 12.385 21.3035 11.9707L15.5422 10.427L14.6912 2.05819Z" fill="#37464F"/><path d="M20.7717 13.3801C21.2956 13.5215 21.3462 14.245 20.8471 14.4579L16.843 16.1664C16.4814 16.3206 16.0757 16.0725 16.0483 15.6804L15.8495 12.8374C15.822 12.4453 16.1893 12.1431 16.5688 12.2456L20.7717 13.3801Z" fill="#52656D"/><path opacity="0.5" d="M3.36795 15.3806C2.84403 15.522 2.79345 16.2454 3.29259 16.4584L7.29669 18.1669C7.65821 18.3211 8.06397 18.073 8.09139 17.6809L8.29019 14.8379C8.31761 14.4458 7.95033 14.1436 7.57086 14.246L3.36795 15.3806Z" fill="#202F36"/></svg>