<svg width="1080" height="1080" viewBox="0 0 1080 1080" fill="none" xmlns="http://www.w3.org/2000/svg"><path d="M649.445 798.08C649.445 847.337 598.162 887.264 534.901 887.264C471.64 887.264 420.356 847.337 420.356 798.08C420.356 748.823 471.64 708.895 534.901 708.895C598.162 708.895 649.445 748.823 649.445 798.08Z" fill="#1A2628"/><path d="M506.151 771.566C508.609 761.201 519.004 754.79 529.37 757.247C539.736 759.704 546.148 770.101 543.69 780.466L536.31 811.591C533.852 821.956 523.456 828.368 513.09 825.911C502.724 823.454 496.313 813.056 498.771 802.691L506.151 771.566Z" fill="#1F2E35"/><path d="M563.368 756.905C554.627 750.816 542.604 752.966 536.515 761.707C530.426 770.448 532.576 782.472 541.317 788.561L567.339 806.686C576.08 812.775 588.103 810.625 594.192 801.884C600.281 793.143 598.131 781.119 589.39 775.03L563.368 756.905Z" fill="#1F2E35"/><path d="M502.333 592.637L566 601.001C566 601.001 566.06 650.669 566.09 675.502C566.119 699.5 566.177 747.495 566.177 747.495C566.177 765.149 551.866 779.459 534.212 779.459C516.558 779.459 502.246 765.149 502.246 747.495C502.246 747.495 502.246 701.001 502.246 676.427C502.246 651.853 502.333 592.637 502.333 592.637Z" fill="#2C3D46"/><path d="M634.893 609.467C634.893 647.599 629.797 659 622.495 659C611.45 659 606.501 634.275 605.501 610.275C604.501 586.275 612.774 566.543 622.495 562.658C629.061 560.034 634.893 585.483 634.893 609.467Z" fill="#1F2E35"/><path d="M646 554L605.501 568.918L611.456 609.467L662 590.852L646 554Z" fill="#3F515B"/><path d="M571 525C586 524 597 536 600 547C603 558 605.501 568.918 605.501 568.918L622.495 562.658C622.495 562.658 615 579.148 615 608C615 647.115 615.495 659 622.495 659C617.495 659 607.786 659.994 585 604C560.657 544.179 569.478 527.304 570.837 525.229C570.94 525.072 571 525 571 525Z" fill="#1F2E35"/><path fill-rule="evenodd" clip-rule="evenodd" d="M664 592.852C665.105 592.852 666 593.747 666 594.852V609.186L695.477 648.533C696.019 649.257 696.008 650.255 695.45 650.967C694.891 651.679 693.925 651.927 693.092 651.573L645.473 631.283C644.878 631.029 644.443 630.503 644.304 629.871C644.165 629.239 644.341 628.579 644.775 628.1L662 609.081V594.852C662 593.747 662.896 592.852 664 592.852ZM663.854 612.992L649.625 628.704L687.814 644.975L663.854 612.992Z" fill="#1F2E35"/><path d="M645.587 625.905L651.12 621.086L652.817 623.521C658.227 630.284 667.518 632.546 675.432 629.029L679.539 627.267L695.72 646.292C699.787 651.283 702.034 656.179 702.121 663.94C702.35 684.332 699.995 734.782 699.995 734.782C686.916 734.782 649.822 716.76 638.662 709.94L641.534 633.714C641.837 630.65 643.237 627.812 645.587 625.905Z" fill="#1F2E35"/><path d="M641.534 633.715L635.071 701.928L629.235 763.524C629.087 765.083 629.888 766.576 631.275 767.302C636.3 769.934 649.094 775.351 664.027 771.817C665.775 771.403 666.975 769.789 666.937 767.993L665.704 709.439L665 676L641.534 633.715Z" fill="#1F2E35"/><path d="M662 688L658.082 734.238L652.223 803.368C652.085 804.991 652.986 806.524 654.463 807.211C673.823 816.221 694.102 814.006 701.832 812.661C703.707 812.335 705.055 810.681 705.014 808.778L703.713 747.996L702 668L662 688Z" fill="#1F2E35"/><path d="M685 580.182C685 595.87 672.282 608.588 656.593 608.588C640.905 608.588 628.187 595.87 628.187 580.182C628.187 564.493 640.905 551.775 656.593 551.775C672.282 551.775 685 564.493 685 580.182Z" fill="#3F515B"/><path d="M502.333 592.635L517.477 491.158L580.708 500.595L566 600.999C560.073 606.346 548.478 611.38 530.812 608.743C514.593 606.322 506.184 599.021 502.333 592.635Z" fill="#1F2E35"/><path d="M375 547C375 573 379 601.001 389 601.001C399 601.001 409 526.001 397 497.001C375 488.001 375 547 375 547Z" fill="#1F2E35"/><path d="M365 467L435 532L416 568L344 502L365 467Z" fill="#3F515B"/><path d="M397.43 497.113C397.43 497.113 406 582 389 601C389 601 414 605 438 591C462 577 480 555 515 555C515 555 534 522 515 522C496 522 437 529 437 529L397.43 497.113Z" fill="#1F2E35"/><path fill-rule="evenodd" clip-rule="evenodd" d="M346.568 525.68L307.613 551.355L386.408 576.144L346.568 525.68ZM345 521.923V508H349V522.306L397.592 583.856L298.387 552.645L345 521.923Z" fill="#1F2E35"/><path d="M295.572 553.924L315.868 541.074C315.868 541.074 323 551.999 344 557.999C365 563.999 377.204 558.028 377.204 558.028L410.356 592.877C411.432 594.266 412.112 595.92 412.323 597.664L434.339 779.538C434.694 782.471 432.31 785.04 429.361 784.852C404.43 783.265 383.385 769.707 376.992 765.176C375.737 764.287 375 762.848 375 761.31V665.999C361.921 665.999 349.094 662.39 337.934 655.57L337 654.999L340.15 747.002C340.237 749.55 338.292 751.709 335.75 751.905C307.304 754.097 287.184 737.008 281.58 731.603C280.575 730.633 280.045 729.28 280.131 727.886L290.871 561.66C291.068 558.464 292.827 555.571 295.572 553.924Z" fill="#1F2E35"/><path d="M375 488.331C375 504.019 362.282 516.737 346.593 516.737C330.905 516.737 318.187 504.019 318.187 488.331C318.187 472.642 330.905 459.924 346.593 459.924C362.282 459.924 375 472.642 375 488.331Z" fill="#3F515B"/><path d="M593 449.999C650 449.999 700.687 485.633 697 525.999C695.753 539.648 709.133 539.999 716 525.999C724.274 509.131 757 442.999 732 317.999C702.917 172.582 536 449.999 593 449.999Z" fill="#2C3D46"/><path d="M735.504 404.177C735.504 417.164 724.976 427.693 711.988 427.693C699.001 427.693 688.472 417.164 688.472 404.177C688.472 391.189 699.001 380.662 711.988 380.662C724.976 380.662 735.504 391.189 735.504 404.177Z" fill="#3F515B"/><path d="M714.281 425.809C714.281 404.157 711.027 365.022 709.4 348.162L665.031 308.674L492 280C459.906 306.917 427.212 370.436 427.212 425.809C427.212 495.025 498.646 534.957 573.63 534.957C683.222 534.957 714.281 455.98 714.281 425.809Z" fill="#3F515B"/><path d="M483.291 385.516C478.014 382.405 459.225 370.496 446.581 362.302C442.922 359.931 438.009 361.354 436.286 365.36C433.803 371.132 430.683 378.627 426.913 387.899C419.759 405.497 428.905 420.052 447.069 436.409C456.457 444.863 467.527 450.095 476.179 453.208C482.546 455.499 489.387 451.831 491.531 445.414C492.661 442.032 493.783 438.389 494.598 435.034C501.423 406.925 491.266 390.218 483.291 385.516Z" fill="#4A5A62"/><path d="M557.976 415.513C563.918 417.001 585.66 421.706 600.418 424.744C604.689 425.623 607.189 430.085 605.605 434.148C603.323 440.002 600.284 447.53 596.461 456.781C589.205 474.338 572.475 478.285 548.056 477.187C535.434 476.619 523.878 472.576 515.53 468.721C509.387 465.884 507.089 458.47 510.065 452.394C511.634 449.192 513.392 445.809 515.166 442.848C530.034 418.035 548.995 413.265 557.976 415.513Z" fill="#4A5A62"/><path d="M487.405 429.914C484.925 437.288 476.936 441.256 469.562 438.776C462.188 436.296 458.22 428.307 460.7 420.933C463.18 413.559 471.169 409.591 478.543 412.071C485.917 414.551 489.885 422.54 487.405 429.914Z" fill="#131F24"/><path d="M547.689 455.815C544.426 462.878 536.055 465.959 528.992 462.696C521.929 459.433 518.849 451.062 522.112 443.999C525.375 436.936 533.746 433.856 540.809 437.119C547.872 440.382 550.952 448.752 547.689 455.815Z" fill="#131F24"/><path fill-rule="evenodd" clip-rule="evenodd" d="M516.098 441.328C530.817 417.84 549.182 413.312 557.976 415.513C563.918 417.001 585.66 421.706 600.418 424.744C604.689 425.623 607.189 430.085 605.605 434.148C603.323 440.002 600.284 447.53 596.461 456.781C595.855 458.247 595.184 459.617 594.447 460.898C580.681 459.644 558.741 455.549 533.168 447.29C527.633 445.502 521.927 443.519 516.098 441.328Z" fill="#2C3D46"/><path fill-rule="evenodd" clip-rule="evenodd" d="M495.127 432.725C472.136 422.48 448.136 409.003 425.646 391.56C425.99 390.354 426.411 389.134 426.913 387.899C430.683 378.627 433.803 371.132 436.286 365.36C438.009 361.354 442.922 359.931 446.581 362.302C459.225 370.496 478.014 382.405 483.291 385.516C491.046 390.088 500.863 406.009 495.127 432.725Z" fill="#2C3D46"/><path d="M503.127 472.212C503.272 479.572 493.37 483.309 486.687 480.222C480.004 477.135 476.094 468.983 480.427 463.032C483.444 458.888 490.508 453.083 495.884 448.823C498.5 446.75 500.332 448.632 500.654 450.514C502 458.375 503 465.75 503.127 472.212Z" fill="#2C3D46"/><path fill-rule="evenodd" clip-rule="evenodd" d="M503.378 507.936C500.974 498.49 492.223 494.024 483.572 494.411C481.972 494.482 480.617 493.243 480.545 491.643C480.474 490.043 481.713 488.688 483.313 488.617C493.889 488.144 505.732 493.672 508.999 506.505C509.394 508.057 508.456 509.636 506.904 510.031C505.352 510.426 503.773 509.488 503.378 507.936Z" fill="#2C3D46"/><path d="M465.708 542.714C461.295 507.41 449.83 379.09 502 291C502 291 558.33 169.567 502 202C403 259 378 414 400 483C413.104 524.098 442.681 541.938 457.77 548.594C461.811 550.377 466.256 547.097 465.708 542.714Z" fill="#2C3D46"/><path d="M570.746 428.967C668.296 451.101 746 386 732 318C718 250 689.576 200.67 620 183C557 167 501.106 198.494 474.053 222.247C463.003 231.949 462.088 264.806 471.009 301.675C483.929 355.07 517.477 416.88 570.746 428.967Z" fill="#2C3D46"/></svg>