<svg width="1080" height="1080" viewBox="0 0 1080 1080" fill="none" xmlns="http://www.w3.org/2000/svg"><path d="M641.545 896.149C641.545 945.313 590.358 985.168 527.215 985.168C464.072 985.168 412.885 945.313 412.885 896.149C412.885 846.985 464.072 807.13 527.215 807.13C590.358 807.13 641.545 846.985 641.545 896.149Z" fill="#1A2628"/><path d="M511.805 856.362C521.787 852.571 532.952 857.59 536.743 867.572V867.572C540.534 877.553 535.515 888.719 525.534 892.51L495.561 903.893C485.58 907.684 474.415 902.666 470.623 892.684V892.684C466.832 882.702 471.851 871.537 481.833 867.746L511.805 856.362Z" fill="#1F2E35"/><path d="M560.839 882.987C561.765 872.35 553.892 862.976 543.255 862.051V862.051C532.617 861.125 523.244 868.998 522.318 879.635L519.563 911.3C518.637 921.938 526.51 931.311 537.147 932.237V932.237C547.785 933.162 557.158 925.29 558.084 914.652L560.839 882.987Z" fill="#1F2E35"/><path d="M461.487 784.243C461.487 770.294 488.029 672.572 496.553 633.049L510.503 681.871C514.765 722.428 510.387 818.729 496.748 818.729C479.698 818.729 461.487 801.68 461.487 784.243Z" fill="#1F2E35"/><path d="M496.941 602.051C496.941 583.219 512.208 567.953 531.04 567.953V567.953C549.872 567.953 565.138 583.219 565.138 602.051V847.714C565.138 866.546 549.872 881.813 531.04 881.813V881.813C512.208 881.813 496.941 866.546 496.941 847.714V602.051Z" fill="#2C3D46"/><path d="M602.845 835.506C602.845 826.702 583.706 728.133 568.838 676.989C564.846 663.256 554.741 667.048 551.59 667.652C544.991 668.917 544.28 669.527 541.244 698.037C535.416 752.756 535.118 832.733 536.392 842.286C538.329 856.817 551.116 863.017 569.328 863.017C587.539 863.017 602.845 847.517 602.845 835.506Z" fill="#1F2E35"/><path fill-rule="evenodd" clip-rule="evenodd" d="M565.138 698.803C540.697 717.048 513.857 706.611 496.941 694.123V602.048C496.941 583.216 512.208 567.949 531.04 567.949C549.872 567.949 565.138 583.216 565.138 602.048V698.803Z" fill="#1F2E35"/><path d="M688.113 448.262C688.113 533.893 618.695 603.311 533.063 603.311C447.432 603.311 378.014 533.893 378.014 448.262C378.014 362.631 447.432 293.213 533.063 293.213C618.695 293.213 688.113 362.631 688.113 448.262Z" fill="#2C3D46"/><path d="M529.013 640.523C453.18 640.523 407.675 600.34 394.402 582.838L384.888 446.113L432.812 412.637H603.366L680.891 480.999L664.329 567.334C650.821 590.004 604.846 640.523 529.013 640.523Z" fill="#3F515B"/><path d="M438.62 546.216C438.62 515.065 418.417 497.176 408.315 492.125L401.796 503.401V543.397C404.086 547.802 410.429 554.674 422.058 561.721C434.655 569.356 438.62 558.726 438.62 546.216Z" fill="#4A5A62"/><path d="M481.394 588.761C445.979 580.48 448.27 565.856 448.27 558.103C448.27 533.436 463.775 524.274 473.818 525.155C481.853 525.86 509.233 531.322 521.919 533.965V565.504C521.919 580.48 509.726 595.386 481.394 588.761Z" fill="#4A5A62"/><path d="M448.06 583.692C446.735 589.866 441.028 593.878 435.311 592.651C429.595 591.425 426.034 585.426 427.358 579.251C428.683 573.077 438.281 562.765 441.57 563.47C444.64 564.129 449.384 577.517 448.06 583.692Z" fill="#2C3D46"/><path d="M476.53 558.175C476.53 565.506 472.037 571.448 466.494 571.448C460.952 571.448 456.458 565.506 456.458 558.175C456.458 550.845 460.952 544.902 466.494 544.902C472.037 544.902 476.53 550.845 476.53 558.175Z" fill="#131F24"/><path d="M434.975 539.33C434.975 546.66 430.433 552.603 424.831 552.603C419.229 552.603 414.688 546.66 414.688 539.33C414.688 531.999 419.229 526.057 424.831 526.057C430.433 526.057 434.975 531.999 434.975 539.33Z" fill="#131F24"/><path fill-rule="evenodd" clip-rule="evenodd" d="M521.698 568.978C495.292 569.861 464.284 559.832 448.486 553.212C450.387 532.218 464.47 524.335 473.82 525.155C481.854 525.86 509.235 531.322 521.92 533.965V565.504C521.92 566.665 521.847 567.827 521.698 568.978Z" fill="#2C3D46"/><path fill-rule="evenodd" clip-rule="evenodd" d="M438.495 549.297C438.58 548.092 438.62 546.851 438.62 545.591C438.62 514.44 418.417 496.551 408.315 491.5L401.796 502.776V523.923C413.445 536.805 429.26 545.499 438.495 549.297Z" fill="#2C3D46"/><path d="M365.871 555.458C365.871 508.238 372.807 466.326 379.57 425.922L430.167 386.593L522.844 360.869L682.784 409.503C692.042 442.968 708.18 526.14 708.18 551.864C708.18 609.831 694.944 636.859 682.963 651.659C673.378 663.499 661.859 656.488 661.859 647.188L660.45 522.966L652.522 478.213C630.146 495.979 585.233 528.233 530.609 528.233C443.923 528.233 427.431 472.395 420.842 437.713C407.803 472.776 407.836 522.114 407.836 569.157C407.836 577.863 408.373 585.469 408.876 593.088C410.704 610.243 412.852 619.619 410.957 627.249C409.615 632.653 407.836 638.867 400.553 638.867C382.581 638.867 365.871 579.42 365.871 555.458Z" fill="#2C3D46"/><path d="M674.546 503.056C674.546 517.166 663.108 528.604 648.998 528.604C634.888 528.604 623.45 517.166 623.45 503.056C623.45 488.946 634.888 477.508 648.998 477.508C663.108 477.508 674.546 488.946 674.546 503.056Z" fill="#3F515B"/><path fill-rule="evenodd" clip-rule="evenodd" d="M453.121 605.27C462.258 591.924 476.487 593.255 482.483 595.6C484.114 596.238 484.92 598.077 484.282 599.708C483.644 601.34 481.805 602.145 480.173 601.507C475.775 599.788 465.215 598.833 458.355 608.853C457.366 610.298 455.392 610.668 453.947 609.678C452.501 608.689 452.132 606.715 453.121 605.27Z" fill="#2C3D46"/></svg>