<svg width="20" height="20" viewBox="0 0 20 20" fill="none" xmlns="http://www.w3.org/2000/svg"><path fill-rule="evenodd" clip-rule="evenodd" d="M4 7.2186C4 6.51399 4.36874 5.86077 4.972 5.4967L8.81633 3.17665C9.45541 2.79096 10.2555 2.79095 10.8946 3.17662L14.7392 5.49671C15.3425 5.86077 15.7112 6.514 15.7112 7.21862V12.9579C15.7112 13.6625 15.3425 14.3157 14.7392 14.6798L10.8946 16.9999C10.2555 17.3856 9.45541 17.3856 8.81633 16.9999L4.972 14.6798C4.36874 14.3158 4 13.6625 4 12.9579V7.2186Z" fill="#131F22"/><path fill-rule="evenodd" clip-rule="evenodd" d="M8.89552 4.39051C9.32278 4.12807 9.8724 4.43549 9.8724 4.93691V6.81621C9.8724 7.04063 9.75507 7.24872 9.56305 7.36488L7.81313 8.42345C7.59576 8.55494 7.32127 8.54572 7.11322 8.39993L5.69651 7.40716C5.31863 7.14236 5.33571 6.57712 5.72888 6.33561L8.89552 4.39051Z" fill="#49C0F8"/></svg>