<svg width="94" height="98" viewBox="0 0 94 98" fill="none" xmlns="http://www.w3.org/2000/svg"><path d="M111.711 62.3081C110.11 89.821 86.8667 111.191 59.7952 110.04C32.7237 108.889 12.0756 85.6528 13.6763 58.1399C15.2771 30.6271 38.5205 9.25657 65.592 10.4076C92.6635 11.5586 113.312 34.7953 111.711 62.3081Z" fill="#FF9600"/><ellipse opacity="0.4" rx="15.8287" ry="18.0033" transform="matrix(1.05289 0.0447663 -0.0547374 0.940805 47.0149 42.579)" fill="white"/><path fill-rule="evenodd" clip-rule="evenodd" d="M83.2022 36.8193C82.1205 34.9389 79.7271 34.3314 77.8564 35.4623C75.9856 36.5932 75.3459 39.0343 76.4276 40.9147V40.9147C77.0814 42.0514 75.8955 43.3424 74.5185 42.9928L56.4686 38.4109C49.5199 36.647 42.3814 40.9624 40.5241 48.0497L39.3478 52.5382C38.7899 54.6675 40.0299 56.8233 42.1175 57.3532C44.2052 57.8832 46.3499 56.5866 46.9079 54.4574L48.0842 49.9688C48.8254 47.1401 51.6746 45.4177 54.4479 46.1217L72.6833 50.7508C74.0442 51.0962 74.3268 52.706 73.1514 53.4166V53.4166C71.2806 54.5475 70.6409 56.9887 71.7225 58.869C72.8042 60.7494 75.1975 61.357 77.0683 60.2261L88.0215 53.6046C88.9842 53.0958 89.7437 52.1913 90.0439 51.0458C90.1427 50.6687 90.1851 50.2907 90.1764 49.921C90.1627 49.2743 89.9928 48.6246 89.6512 48.0307L83.2022 36.8193ZM52.9676 62.6565C54.0492 64.5369 53.4095 66.978 51.5388 68.1089V68.1089C50.3587 68.8223 50.6425 70.4385 52.0087 70.7853L70.2407 75.4135C73.014 76.1175 75.8632 74.3951 76.6044 71.5665L77.7807 67.0779C78.3387 64.9486 80.4834 63.6521 82.571 64.182C84.6587 64.712 85.8987 66.8677 85.3407 68.997L84.1645 73.4856C82.3072 80.5728 75.1686 84.8883 68.22 83.1244L50.1641 78.5409C48.7925 78.1927 47.6113 79.4786 48.2626 80.6109V80.6109C49.3442 82.4913 48.7045 84.9324 46.8337 86.0633C44.963 87.1942 42.5696 86.5867 41.488 84.7063L35.1044 73.6087C34.5518 72.7181 34.3536 71.6002 34.6447 70.4894C34.7866 69.9481 35.031 69.4606 35.3509 69.0433C35.6496 68.6526 36.024 68.3107 36.4677 68.0424L47.6218 61.2995C49.4926 60.1686 51.886 60.7762 52.9676 62.6565Z" fill="#131f22"/></svg>