<svg width="27" height="24" viewBox="0 0 27 24" fill="none" xmlns="http://www.w3.org/2000/svg"><mask id="path-1-outside-1_375_1544" maskUnits="userSpaceOnUse" x="0" y="0" width="27" height="24" fill="black"><rect fill="white" width="27" height="24"/><path fill-rule="evenodd" clip-rule="evenodd" d="M22.7008 12.4727L15.3529 4.02301C15.2446 3.89847 15.1256 3.78307 14.9972 3.67806C13.7438 2.65316 11.8709 2.8076 10.814 4.02301L3.46612 12.4727C3.1651 12.8188 3 13.2571 3 13.7099C3 14.7698 3.88607 15.629 4.9791 15.629H7.64414V19.0807C7.64414 20.1406 8.53021 20.9998 9.62324 20.9998H16.5437C17.6367 20.9998 18.5228 20.1406 18.5228 19.0807V15.629H21.1879C21.6548 15.629 22.1067 15.4689 22.4637 15.177C23.2993 14.4937 23.4055 13.283 22.7008 12.4727Z"/></mask><path fill-rule="evenodd" clip-rule="evenodd" d="M22.7008 12.4727L15.3529 4.02301C15.2446 3.89847 15.1256 3.78307 14.9972 3.67806C13.7438 2.65316 11.8709 2.8076 10.814 4.02301L3.46612 12.4727C3.1651 12.8188 3 13.2571 3 13.7099C3 14.7698 3.88607 15.629 4.9791 15.629H7.64414V19.0807C7.64414 20.1406 8.53021 20.9998 9.62324 20.9998H16.5437C17.6367 20.9998 18.5228 20.1406 18.5228 19.0807V15.629H21.1879C21.6548 15.629 22.1067 15.4689 22.4637 15.177C23.2993 14.4937 23.4055 13.283 22.7008 12.4727Z" fill="#62B900"/><path d="M15.3529 4.02301L17.6167 2.05442L17.6167 2.05441L15.3529 4.02301ZM22.7008 12.4727L20.4371 14.4413L20.4371 14.4413L22.7008 12.4727ZM14.9972 3.67806L13.0982 6.00048L13.0982 6.00048L14.9972 3.67806ZM10.814 4.02301L8.55024 2.05442L8.55024 2.05442L10.814 4.02301ZM3.46612 12.4727L1.20235 10.5041L1.20235 10.5041L3.46612 12.4727ZM7.64414 15.629H10.6441V12.629H7.64414V15.629ZM18.5228 15.629V12.629H15.5228V15.629H18.5228ZM22.4637 15.177L24.3627 17.4994L24.3627 17.4994L22.4637 15.177ZM13.0892 5.99159L20.4371 14.4413L24.9646 10.5041L17.6167 2.05442L13.0892 5.99159ZM13.0982 6.00048C13.0959 5.99864 13.0928 5.99577 13.0892 5.9916L17.6167 2.05441C17.3965 1.80117 17.1554 1.56751 16.8963 1.35564L13.0982 6.00048ZM13.0778 5.99159C13.076 5.99369 13.0731 5.99648 13.0697 5.99911C13.0664 6.00163 13.064 6.00293 13.0631 6.00335C13.0624 6.00371 13.0634 6.00313 13.0663 6.00233C13.0693 6.00151 13.0735 6.00068 13.0785 6.00027C13.0835 5.99985 13.0883 5.99994 13.0924 6.00037C13.0965 6.00079 13.0991 6.00146 13.1003 6.00181C13.1014 6.00213 13.1011 6.00214 13.0999 6.00153C13.0986 6.00082 13.0979 6.00022 13.0982 6.00048L16.8963 1.35564C14.3985 -0.686755 10.6804 -0.395093 8.55024 2.05442L13.0778 5.99159ZM5.72989 14.4413L13.0778 5.99159L8.55024 2.05442L1.20235 10.5041L5.72989 14.4413ZM6 13.7099C6 13.9909 5.89679 14.2494 5.72989 14.4413L1.20235 10.5041C0.433416 11.3883 0 12.5232 0 13.7099H6ZM4.9791 12.629C5.45524 12.629 6 13.0266 6 13.7099H0C0 16.513 2.31691 18.629 4.9791 18.629V12.629ZM7.64414 12.629H4.9791V18.629H7.64414V12.629ZM10.6441 19.0807V15.629H4.64414V19.0807H10.6441ZM9.62324 17.9998C10.0994 17.9998 10.6441 18.3974 10.6441 19.0807H4.64414C4.64414 21.8838 6.96105 23.9998 9.62324 23.9998V17.9998ZM16.5437 17.9998H9.62324V23.9998H16.5437V17.9998ZM15.5228 19.0807C15.5228 18.3974 16.0675 17.9998 16.5437 17.9998V23.9998C19.2059 23.9998 21.5228 21.8838 21.5228 19.0807H15.5228ZM15.5228 15.629V19.0807H21.5228V15.629H15.5228ZM21.1879 12.629H18.5228V18.629H21.1879V12.629ZM20.5646 12.8546C20.7509 12.7023 20.9721 12.629 21.1879 12.629V18.629C22.3375 18.629 23.4625 18.2355 24.3627 17.4994L20.5646 12.8546ZM20.4371 14.4413C20.021 13.9628 20.1019 13.2329 20.5646 12.8546L24.3627 17.4994C26.4966 15.7545 26.7899 12.6031 24.9646 10.5041L20.4371 14.4413Z" fill="#131F22" mask="url(#path-1-outside-1_375_1544)"/></svg>