<svg width="1080" height="1080" viewBox="0 0 1080 1080" fill="none" xmlns="http://www.w3.org/2000/svg"><path d="M359.789 370.324C356.308 358.445 351.996 351.361 342.508 353.733C339.502 354.484 333.594 358.8 335.365 366.406C336.828 372.694 344.971 381.481 360.992 387.679C362.355 388.206 363.725 387.101 363.475 385.661C362.947 382.629 361.872 377.429 359.789 370.324Z" fill="#4A5A62"/><path d="M364.296 370.324C367.778 358.445 371.168 350.9 380.656 353.272C383.662 354.024 390.492 358.8 388.721 366.407C387.258 372.694 379.115 381.481 363.094 387.679C361.731 388.206 360.36 387.101 360.611 385.661C361.139 382.629 362.214 377.429 364.296 370.324Z" fill="#4A5A62"/><path d="M508.95 212.305C505.468 200.427 501.156 193.343 491.668 195.715C488.662 196.466 482.754 200.782 484.525 208.388C485.988 214.676 494.131 223.463 510.152 229.661C511.515 230.188 512.886 229.083 512.635 227.643C512.107 224.611 511.032 219.41 508.95 212.305Z" fill="#4A5A62"/><path d="M513.457 212.306C516.938 200.427 520.328 192.882 529.816 195.254C532.823 196.006 539.652 200.782 537.881 208.389C536.418 214.676 528.275 223.463 512.254 229.661C510.891 230.188 509.521 229.083 509.771 227.643C510.299 224.611 511.374 219.411 513.457 212.306Z" fill="#4A5A62"/><path d="M454.23 597.027C575.548 597.027 804.278 466.25 804.278 669.435C804.278 811.009 608.561 917.873 475.017 917.873C319.427 917.873 234.564 862.522 234.564 768.062C234.564 673.602 332.912 597.027 454.23 597.027Z" fill="#1A2628"/>
<path fill-rule="evenodd" clip-rule="evenodd" d="M460.931 216.448C461.136 215.217 462.3 214.385 463.531 214.591L463.16 216.82C463.531 214.591 463.533 214.591 463.534 214.591L463.537 214.592L463.543 214.593L463.56 214.596L463.609 214.604C463.648 214.612 463.7 214.622 463.764 214.635C463.892 214.661 464.069 214.699 464.288 214.753C464.726 214.861 465.337 215.03 466.072 215.285C467.539 215.793 469.52 216.649 471.617 218.047C475.85 220.869 480.485 225.863 482.32 234.426C482.581 235.647 481.804 236.848 480.583 237.11C479.363 237.371 478.161 236.594 477.9 235.373C476.345 228.117 472.505 224.071 469.11 221.808C467.393 220.664 465.773 219.965 464.591 219.556C464.002 219.351 463.527 219.22 463.21 219.143C463.052 219.104 462.934 219.078 462.861 219.064C462.825 219.056 462.801 219.052 462.788 219.049L462.779 219.048C461.553 218.838 460.726 217.677 460.931 216.448Z" fill="#1F2E35"/><path fill-rule="evenodd" clip-rule="evenodd" d="M551.865 251.85C551.865 250.602 552.877 249.59 554.125 249.59H559.21C560.458 249.59 561.47 250.602 561.47 251.85C561.47 253.098 560.458 254.11 559.21 254.11H554.125C552.877 254.11 551.865 253.098 551.865 251.85Z" fill="#1F2E35"/><path d="M530.395 276.145H491.975C478.869 276.145 468.245 265.52 468.245 252.415C468.245 239.309 478.869 228.685 491.975 228.685H530.395C543.501 228.685 554.125 239.309 554.125 252.415C554.125 265.52 543.501 276.145 530.395 276.145Z" fill="#4A5A62"/><path d="M512.966 228.685H508.438C508.446 228.81 508.453 228.947 508.461 229.097C508.512 230.044 508.581 231.495 508.649 233.494C508.787 237.492 508.924 243.681 508.924 252.415C508.924 261.148 508.787 267.337 508.649 271.335C508.581 273.334 508.512 274.785 508.461 275.732C508.453 275.882 508.446 276.02 508.438 276.145H512.966C512.969 276.09 512.972 276.033 512.975 275.975C513.027 274.997 513.097 273.517 513.167 271.49C513.306 267.437 513.444 261.196 513.444 252.415C513.444 243.633 513.306 237.392 513.167 233.339C513.097 231.312 513.027 229.832 512.975 228.854C512.972 228.796 512.969 228.739 512.966 228.685Z" fill="#1F2E35"/><path d="M528.786 276.145H524.259C524.266 276.02 524.274 275.882 524.282 275.732C524.333 274.785 524.401 273.334 524.47 271.335C524.607 267.337 524.745 261.148 524.745 252.415C524.745 243.681 524.607 237.492 524.47 233.494C524.401 231.495 524.333 230.044 524.282 229.097C524.274 228.947 524.266 228.81 524.259 228.685H528.786C528.789 228.739 528.792 228.796 528.795 228.854C528.848 229.832 528.917 231.312 528.987 233.339C529.126 237.392 529.265 243.633 529.265 252.415C529.265 261.196 529.126 267.437 528.987 271.49C528.917 273.517 528.848 274.997 528.795 275.975C528.792 276.033 528.789 276.09 528.786 276.145Z" fill="#1F2E35"/><path fill-rule="evenodd" clip-rule="evenodd" d="M412.279 374.083C412.074 372.852 410.91 372.02 409.679 372.225L410.05 374.455C409.679 372.225 409.677 372.226 409.676 372.226L409.673 372.226L409.667 372.227L409.65 372.23L409.601 372.239C409.562 372.246 409.51 372.256 409.446 372.269C409.318 372.296 409.141 372.334 408.922 372.388C408.484 372.496 407.873 372.665 407.138 372.92C405.671 373.428 403.69 374.284 401.593 375.682C397.36 378.504 392.725 383.497 390.89 392.061C390.629 393.282 391.406 394.483 392.627 394.745C393.847 395.006 395.049 394.229 395.31 393.008C396.865 385.752 400.705 381.706 404.1 379.443C405.817 378.298 407.437 377.6 408.619 377.19C409.208 376.986 409.683 376.855 410 376.777C410.158 376.739 410.276 376.713 410.349 376.698C410.385 376.691 410.409 376.686 410.422 376.684L410.43 376.682C411.657 376.473 412.484 375.311 412.279 374.083Z" fill="#1F2E35"/><path fill-rule="evenodd" clip-rule="evenodd" d="M321.345 409.485C321.345 408.236 320.333 407.225 319.085 407.225H314C312.752 407.225 311.74 408.236 311.74 409.485C311.74 410.733 312.752 411.745 314 411.745H319.085C320.333 411.745 321.345 410.733 321.345 409.485Z" fill="#1F2E35"/><path d="M342.815 433.779H381.235C394.341 433.779 404.965 423.155 404.965 410.049C404.965 396.944 394.341 386.319 381.235 386.319H342.815C329.709 386.319 319.085 396.944 319.085 410.049C319.085 423.155 329.709 433.779 342.815 433.779Z" fill="#4A5A62"/><path d="M344.423 433.779C344.42 433.724 344.417 433.668 344.414 433.609C344.361 432.632 344.292 431.152 344.222 429.125C344.083 425.071 343.944 418.83 343.944 410.049C343.944 401.268 344.083 395.027 344.222 390.974C344.292 388.947 344.361 387.467 344.414 386.489C344.417 386.431 344.42 386.374 344.423 386.319H348.95C348.943 386.444 348.935 386.582 348.927 386.732C348.876 387.679 348.808 389.13 348.739 391.129C348.602 395.126 348.464 401.315 348.464 410.049C348.464 418.783 348.602 424.972 348.739 428.97C348.808 430.969 348.876 432.42 348.927 433.366C348.935 433.517 348.943 433.654 348.95 433.779H344.423Z" fill="#1F2E35"/><path d="M364.77 433.779H360.243C360.24 433.724 360.237 433.668 360.234 433.609C360.182 432.632 360.112 431.152 360.042 429.125C359.903 425.071 359.765 418.83 359.765 410.049C359.765 401.268 359.903 395.027 360.042 390.974C360.112 388.947 360.182 387.467 360.234 386.489C360.237 386.431 360.24 386.374 360.243 386.319H364.77C364.763 386.444 364.756 386.582 364.748 386.732C364.697 387.679 364.628 389.13 364.56 391.129C364.422 395.126 364.285 401.315 364.285 410.049C364.285 418.783 364.422 424.972 364.56 428.97C364.628 430.969 364.697 432.42 364.748 433.366C364.756 433.517 364.763 433.654 364.77 433.779Z" fill="#1F2E35"/><path d="M543.39 359.968C581.152 359.968 611.763 390.579 611.763 428.341C611.763 466.102 581.152 496.714 543.39 496.714C505.629 496.714 475.018 466.102 475.018 428.341C475.018 390.579 505.629 359.968 543.39 359.968Z" fill="#1F2E35"/><path d="M579.908 415.148C579.908 415.148 556.848 334.891 628.8 319.097C679.288 308.014 707.61 338.801 715.614 369.051C722.513 395.124 735.895 404.175 753.789 412.069C774.723 421.305 796.274 437.93 793.81 466.253C791.347 494.575 774.108 506.888 747.632 511.814C721.156 516.74 579.908 415.148 579.908 415.148Z" fill="#1F2E35"/><path fill-rule="evenodd" clip-rule="evenodd" d="M741.34 578.487C757.564 578.753 770.501 592.121 770.235 608.345L769.054 680.394C768.853 692.683 761.022 703.549 749.428 707.627L651.97 741.912C636.663 747.296 619.89 739.253 614.505 723.946C609.12 708.64 617.164 691.866 632.47 686.481L710.637 658.984L711.483 607.382C711.749 591.158 725.116 578.222 741.34 578.487Z" fill="#4A5A62"/><path d="M791.757 572.255C791.757 594.641 773.609 612.789 751.223 612.789C728.836 612.789 710.688 594.641 710.688 572.255C710.688 549.869 728.836 531.721 751.223 531.721C773.609 531.721 791.757 549.869 791.757 572.255Z" fill="#364750"/><path d="M504.969 817.979C431.52 817.979 378.812 781.019 353.55 727.579C324.17 665.429 338.13 581.219 410.05 560.339C445.08 550.169 489.14 527.206 504.805 479.919C528.7 407.789 602.15 378.409 674.47 391.969C748.077 405.771 771.532 472.362 764.87 545.649C759.22 607.799 734.36 666.559 673.34 732.099C618.882 790.591 552.43 817.979 504.969 817.979Z" fill="#364750"/><path d="M633.907 388.873C576.29 390.964 524.208 421.347 504.805 479.92C502.316 487.431 499.111 494.329 495.34 500.659C498.497 500.95 501.822 501.265 504.97 501.58C516.27 502.71 532.09 502.71 541.13 488.02C550.17 473.33 554.69 458.64 554.69 458.64C554.69 458.64 561.53 459.502 567.12 460.9C594.24 467.68 617.97 449.6 624.75 427C628.738 413.709 631.943 398.855 633.907 388.873Z" fill="#1F2E35"/><path d="M353.55 727.578C378.812 781.018 431.52 817.978 504.969 817.978C552.43 817.978 618.882 790.59 673.34 732.098C680.503 724.404 687.168 716.803 693.363 709.279C663.223 626.327 580.809 557.826 475.147 525.38C455.649 543.39 431.203 554.196 410.05 560.338C338.13 581.218 324.17 665.428 353.55 727.578Z" fill="#4A5A62"/><path d="M353.55 727.578C378.812 781.018 431.52 817.978 504.969 817.978C535.338 817.978 573.483 806.764 611.286 783.363C611.162 683.225 561.834 586.392 461.613 536.272C445.027 547.93 426.538 555.551 410.05 560.338C338.13 581.218 324.17 665.428 353.55 727.578Z" fill="#1F2E35"/><path d="M639.44 603.277L630.4 678.987H699.33L639.44 603.277Z" fill="#364750"/><path d="M353.55 727.578C378.812 781.018 431.52 817.978 504.969 817.978C527.554 817.978 554.439 811.776 582.286 798.972C587.796 697.385 538.4 600.217 438.592 549.587C428.906 554.174 419.172 557.69 410.05 560.338C338.13 581.218 324.17 665.428 353.55 727.578Z" fill="#2C3D46"/><path d="M552.43 678.987L584.228 660.606C584.228 660.606 582.702 656.504 578.42 648.477C573.136 638.573 570.603 635.389 570.603 635.389L540 651.867L552.43 678.987Z" fill="#2C3D46"/><path d="M580.417 782.008L610.739 767.435C610.739 767.435 611.44 764.368 610.842 756.045C610.244 747.721 608.583 743.474 608.583 743.474L579.55 755.828L580.417 782.008Z" fill="#2C3D46"/><path d="M717.77 499.608L752.558 515.815C752.558 515.815 743.957 538.795 724.851 529.976C704.841 520.741 717.77 499.608 717.77 499.608Z" fill="#4A5A62"/><path d="M648.81 467.48L699.116 490.917C699.116 490.917 685.197 510.272 661.74 499.608C639.556 489.521 648.81 467.48 648.81 467.48Z" fill="#4A5A62"/><path d="M742.149 508.901C742.149 515.634 736.693 521.092 729.96 521.092C723.227 521.092 717.77 515.634 717.77 508.901C717.77 502.169 723.227 496.712 729.96 496.712C736.693 496.712 742.149 502.169 742.149 508.901Z" fill="#1F2E35"/><path d="M659.948 472.67L681.711 482.808C680.326 488.021 675.576 491.861 669.928 491.861C663.195 491.861 657.738 486.404 657.738 479.671C657.738 477.066 658.556 474.651 659.948 472.67Z" fill="#1F2E35"/><path d="M586.189 528.054C586.571 512.456 599.525 500.122 615.123 500.504C629.289 500.851 645.626 502.673 659.128 504.643C671.98 506.519 684.852 508.903 691.265 510.911C708.015 516.153 719.317 527.63 725.845 538.883L725.846 538.884C729.443 545.086 733.212 554.774 736.258 563.569C739.54 573.045 742.875 584.111 745.272 594.329C748.836 609.519 739.412 624.722 724.223 628.286C709.033 631.85 693.83 622.426 690.266 607.236C688.396 599.265 685.65 590.089 682.87 582.061C681.489 578.074 680.164 574.559 679.016 571.77C678.443 570.379 677.952 569.262 677.555 568.414C672.982 558.639 638.526 545.343 613.27 536.73C608.199 539.41 601.382 542.634 592.455 546.498C588.389 541.469 586.019 535.025 586.189 528.054Z" fill="#1F2E35"/><path d="M702.799 506.336C712.004 506.336 719.466 513.797 719.466 523.002C719.466 532.207 712.004 539.669 702.799 539.669C693.594 539.669 686.133 532.207 686.133 523.002C686.133 513.797 693.594 506.336 702.799 506.336Z" fill="#364750"/><path fill-rule="evenodd" clip-rule="evenodd" d="M683.839 445.133C679.672 443.81 675.391 443.763 672.202 444.704C664.72 446.912 656.865 442.636 654.657 435.154C652.45 427.672 656.725 419.817 664.207 417.609C673.538 414.856 683.624 415.425 692.386 418.207C701.089 420.97 709.898 426.383 715.499 434.869C719.797 441.379 718.002 450.141 711.492 454.438C704.981 458.736 696.219 456.942 691.922 450.431C690.75 448.655 688.066 446.475 683.839 445.133Z" fill="#1F2E35"/><path fill-rule="evenodd" clip-rule="evenodd" d="M713.442 480.428C718.193 474.241 727.06 473.077 733.248 477.828C742.36 484.825 753.121 488.69 765.089 488.69C772.89 488.69 779.214 495.014 779.214 502.815C779.214 510.616 772.89 516.94 765.089 516.94C746.683 516.94 729.917 510.887 716.043 500.234C709.855 495.483 708.691 486.616 713.442 480.428Z" fill="#1F2E35"/><path d="M594.994 624.986C594.994 624.986 613.84 630.127 620.238 646.289C626.636 662.451 615.063 666.034 611.044 665.528C602.94 664.509 598.134 654.105 599.357 647.183C600.683 639.675 594.994 624.986 594.994 624.986Z" fill="#1F2E35"/><path d="M679.391 550.477C695.665 566.751 703.597 594.045 699.223 616.925C697.295 627.01 692.976 636.238 685.927 643.287C669.261 659.953 647.608 628.496 652.839 615.591C647.202 624.659 629.311 634.219 612.48 617.388C597.938 602.846 607.252 587.159 619.732 578.85C604.065 579.071 590.094 577.845 579.8 561.669C575.263 554.54 578.279 547.351 585.815 541.646C604.575 527.443 651.355 522.44 679.391 550.477Z" fill="#2B3B44"/><path fill-rule="evenodd" clip-rule="evenodd" d="M661.334 572.865C662.378 573.805 662.463 575.415 661.523 576.459C632.014 609.244 576.594 650.893 501.782 650.59C500.377 650.584 499.242 649.44 499.248 648.035C499.254 646.629 500.398 645.495 501.803 645.5C574.644 645.796 628.787 605.221 657.74 573.054C658.68 572.01 660.289 571.925 661.334 572.865Z" fill="#1F2E35"/><path d="M681.14 621.596C678.514 618.81 676.196 616.352 675.543 610.661C674.298 599.812 675.024 591.308 675.543 589.307C672.653 596.273 662.539 609.047 647.924 605.562C633.309 602.076 622.765 591.743 624.099 574.402C625.166 560.529 635.904 552.852 640.573 550.554C632.885 552.28 613.587 556.516 601.977 547.887C596.142 543.55 590.6 541.964 585.853 541.617C604.638 527.436 651.374 522.459 679.391 550.477C695.665 566.751 703.597 594.045 699.223 616.926C697.653 625.138 694.497 632.782 689.574 639.144C687.876 628.743 684.286 624.935 681.14 621.596Z" fill="#364750"/><path d="M425.477 555.164C465.636 572.254 498.361 616.683 514.061 643.345C521.257 655.565 540.095 672.58 563.933 662.432C587.223 652.517 584.559 628.288 578.71 616.683C567.011 593.472 522.897 537.056 484.724 519.201C466.761 510.799 448.019 500.594 441.009 506.886C425.326 520.96 421.305 539.997 425.477 555.164Z" fill="#4A5A62"/><path d="M535.828 561.069C535.828 561.069 528.439 514.244 500.733 496.712C473.026 479.18 448.398 498.883 441.009 506.887C433.62 514.89 446.549 546.292 466.868 543.214C487.186 540.136 535.828 561.069 535.828 561.069Z" fill="#4A5A62"/><path fill-rule="evenodd" clip-rule="evenodd" d="M490.138 521.685C490.865 520.671 492.278 520.439 493.292 521.166L491.974 523.002C493.292 521.166 493.292 521.167 493.292 521.167L493.32 521.187L493.397 521.243C493.465 521.292 493.563 521.363 493.693 521.458C493.951 521.647 494.33 521.927 494.821 522.294C495.802 523.028 497.227 524.111 499.015 525.514C502.591 528.32 507.62 532.406 513.447 537.543C525.093 547.809 539.975 562.308 552.828 579.191C553.584 580.184 553.392 581.602 552.399 582.358C551.406 583.114 549.988 582.922 549.232 581.929C536.621 565.365 521.975 551.085 510.459 540.934C504.705 535.862 499.744 531.831 496.225 529.07C494.466 527.69 493.068 526.628 492.113 525.913C491.635 525.556 491.268 525.285 491.022 525.105C490.899 525.014 490.806 524.947 490.744 524.902L490.676 524.853L490.656 524.839" fill="#364750"/><path d="M551.498 577.4C530.373 585.486 512.354 604.708 500.265 622.146C505.724 629.805 510.364 637.068 514.061 643.345C521.256 655.565 540.095 672.581 563.933 662.432C587.222 652.517 584.559 628.288 578.71 616.683C574.022 607.382 564.128 592.748 551.498 577.4Z" fill="#364750"/><path d="M390.155 818.176C385.332 804.835 370.607 797.93 357.266 802.753L310.066 819.863C296.725 824.686 289.82 839.41 294.642 852.751V852.752C299.465 866.093 314.19 872.998 327.531 868.175L374.731 851.065C388.072 846.242 394.977 831.517 390.155 818.176Z" fill="#1F2E35"/><path d="M376.882 721.706C364.995 713.963 349.082 717.321 341.34 729.208L313.973 771.3C306.231 783.187 309.589 799.099 321.475 806.842C333.362 814.585 349.274 811.227 357.017 799.34L384.384 757.248C392.126 745.361 388.768 729.448 376.882 721.706Z" fill="#1F2E35"/><path d="M559.954 441.449C570.973 441.449 579.908 450.383 579.908 461.403C579.908 472.423 570.973 481.357 559.954 481.357C548.934 481.357 540 472.423 540 461.403C540 450.383 548.934 441.449 559.954 441.449Z" fill="#364750"/><circle cx="382.847" cy="410.049" r="4.65381" fill="#1F2E35"/><circle cx="489.026" cy="252.415" r="4.65381" fill="#1F2E35"/><path d="M631.506 393.665L635.519 378.819C635.519 378.819 589.085 376.425 563.296 388.449C525.215 406.205 495.889 472.307 495.889 472.307L505.518 485.147C509.798 484.879 521.487 483.863 535.611 454.653C549.734 425.443 605.56 399.55 631.506 393.665Z" fill="#1F2E35"/></svg>