<svg width="37" height="36" viewBox="0 0 37 36" fill="none" xmlns="http://www.w3.org/2000/svg"><path d="M24.6833 10.7609L21.752 4.23637C20.4862 1.41887 16.486 1.41885 15.2201 4.23636L12.2889 10.7609L5.15624 11.5078C2.06638 11.8314 0.826649 15.667 3.14262 17.7378L8.45077 22.484L6.96465 29.4358C6.31749 32.4631 9.55743 34.8294 12.2443 33.2919L18.3496 29.7981C18.4342 29.7497 18.538 29.7497 18.6226 29.7981L24.7279 33.2919C27.4147 34.8294 30.6547 32.4631 30.0075 29.4358L28.5214 22.484L33.8296 17.7378C36.1455 15.667 34.9058 11.8314 31.8159 11.5078L24.6833 10.7609Z" stroke="#FFC800" stroke-width="3.30563"/></svg>