<svg width="123" height="82" viewBox="0 0 123 82" xmlns="http://www.w3.org/2000/svg"><title>Sleeping Duo NEW</title><g fill="none" fill-rule="evenodd"><path d="M22.658 21.908c1.662 0 2.74 1.066 2.74 2.612 0 1.54-1.073 2.58-2.74 2.58H12.066c-1.784 0-2.964-1.157-2.964-2.74 0-1.176.354-1.956 1.59-3.736l7.515-11.092h-6.013c-1.645 0-2.74-1.05-2.74-2.58 0-1.535 1.1-2.612 2.74-2.612h10.24c1.806 0 2.964 1.147 2.964 2.74 0 1.108-.32 1.881-1.462 3.544l-7.643 11.284h6.365z" fill="#E3E3E3" fill-rule="nonzero"/><path d="M56.913 40.27l.463-.758a3.055 3.055 0 0 1 3.878-1.185l.817.374a4.05 4.05 0 0 1 2.187 2.496l1.97 6.433a4.05 4.05 0 0 1-2.69 5.06l-.014.005a4.05 4.05 0 0 1-5.055-2.688l-1.972-6.439a4.05 4.05 0 0 1 .416-3.297z" fill="#FFC200"/><rect fill="#F49000" x="57.916" y="38.8" width="8.117" height="16.2" rx="4.058"/><path d="M77.745 64h9.348a5.4 5.4 0 0 1 1.144.123l24.34 5.277a2.731 2.731 0 0 1-.578 5.4H77.745a5.4 5.4 0 0 1 0-10.8zM46.203 64h-9.348a5.4 5.4 0 0 0-1.144.123L11.371 69.4a2.731 2.731 0 0 0 .579 5.4h34.253a5.4 5.4 0 0 0 0-10.8z" fill="#72BF00"/><path d="M61.974 42.4c15.69 0 28.409 12.719 28.409 28.409V74.8H33.565v-3.991c0-15.69 12.72-28.409 28.409-28.409z" fill="#78C800"/><path d="M46.765 46.81a28.233 28.233 0 0 1 11.052-4.108 8.098 8.098 0 0 1-7.1 4.198h-2.739c-.412 0-.817-.03-1.213-.09zM50.7 51.4h9.02c-.54 2.075-2.355 3.6-4.51 3.6s-3.97-1.525-4.51-3.6zM57.916 58.6h9.018c-.54 2.075-2.354 3.6-4.51 3.6-2.154 0-3.969-1.525-4.508-3.6zM65.13 51.4h9.02c-.54 2.075-2.355 3.6-4.51 3.6s-3.97-1.525-4.51-3.6z" fill="#8EE000"/><rect fill="#253438" x="2" y="74.8" width="120.85" height="7.2" rx="3.6"/><rect fill="#F49000" x="29.056" y="68.5" width="19.841" height="10.8" rx="5.4"/><rect fill="#F49000" x="74.149" y="68.5" width="19.841" height="10.8" rx="5.4"/><path d="M40.137 34.837c1.41 0 2.36.94 2.36 2.268 0 1.326-.95 2.245-2.36 2.245h-7.613c-1.496 0-2.521-1.005-2.521-2.36 0-.947.282-1.568 1.21-2.905l4.988-7.362h-3.585c-1.394 0-2.36-.926-2.36-2.245 0-1.321.967-2.268 2.36-2.268h7.36c1.513 0 2.521.998 2.521 2.36 0 .89-.258 1.514-1.118 2.767l-5.08 7.5h3.838z" fill="#E3E3E3" fill-rule="nonzero"/><path d="M66.13 42.702c4.02.59 7.765 2.02 11.053 4.108-.396.06-.801.09-1.213.09h-2.74a8.098 8.098 0 0 1-7.1-4.198z" fill="#8EE000"/></g></svg>