<svg width="60" height="60" viewBox="0 0 60 60" fill="none" xmlns="http://www.w3.org/2000/svg"><rect x="10" y="10" width="40" height="40" rx="10.8639" fill="#49C0F8"/><path fill-rule="evenodd" clip-rule="evenodd" d="M34.9038 22.8073C35.1483 22.3123 35.7457 22.1103 36.2381 22.3561C39.0047 23.737 40.9158 26.5813 40.9158 29.8782C40.9158 33.1839 38.9945 36.0345 36.216 37.4113C35.7229 37.6557 35.1261 37.4519 34.883 36.9562C34.6399 36.4605 34.8426 35.8606 35.3357 35.6162C37.4722 34.5575 38.9249 32.3801 38.9249 29.8782C38.9249 27.383 37.4799 25.2105 35.3527 24.1486C34.8603 23.9029 34.6593 23.3023 34.9038 22.8073ZM32.794 26.5588C33.0385 26.0638 33.6359 25.8617 34.1283 26.1075C35.5104 26.7974 36.4721 28.2225 36.4721 29.8808C36.4721 31.5435 35.5053 32.9717 34.1172 33.6595C33.6241 33.9039 33.0273 33.7001 32.7842 33.2044C32.5412 32.7087 32.7439 32.1087 33.237 31.8644C33.983 31.4947 34.4812 30.7397 34.4812 29.8808C34.4812 29.0241 33.9857 28.2708 33.2429 27.9001C32.7505 27.6543 32.5495 27.0538 32.794 26.5588ZM22.6616 34.0855H24.0338L28.6423 37.3318C29.3472 37.8284 30.3191 37.3242 30.3191 36.4619V23.5375C30.3191 22.6752 29.3472 22.1711 28.6423 22.6676L24.0298 25.9168C23.9948 25.9414 23.9616 25.9679 23.9303 25.9962H22.6616C21.2357 25.9962 20.0797 27.1521 20.0797 28.5781V31.5036C20.0797 32.9295 21.2357 34.0855 22.6616 34.0855Z" fill="#131F22"/></svg>