<svg width="124" height="124" viewBox="0 0 124 124" version="1.1" xmlns="http://www.w3.org/2000/svg"><title>course_page_launched_inactive</title><g stroke="none" stroke-width="1" fill="none" fill-rule="evenodd"><g><g transform="translate(8 15)"><path d="M1.594 72.363L29.49 22.009c1.495-2.7 5.184-3.155 7.285-.9 10.094 10.832 12.143 27.197 4.773 40.5-7.37 13.304-22.326 20.237-36.857 17.412-3.024-.588-4.593-3.96-3.097-6.658zM107.263 72.363L79.367 22.009c-1.495-2.7-5.184-3.155-7.285-.9-10.094 10.832-12.143 27.197-4.773 40.5 7.37 13.304 22.326 20.237 36.856 17.412 3.025-.588 4.593-3.96 3.098-6.658z" fill="#202F36" fill-rule="nonzero"/><path d="M34.928 91.015a4.946 4.946 0 0 1 4.946-4.946h7.744a4.946 4.946 0 0 1 0 9.892h-7.744a4.946 4.946 0 0 1-4.946-4.946zM56.307 91.015a4.946 4.946 0 0 1 4.946-4.946h7.744a4.946 4.946 0 1 1 0 9.892h-7.744a4.946 4.946 0 0 1-4.946-4.946z" fill="#202F36"/><path d="M33.843 1.003c10.053 4.253 16.939 6.38 20.657 6.38 3.694 0 10.47-2.099 20.33-6.296 6.54-2.784 14.098.26 16.882 6.8a12.87 12.87 0 0 1 1.028 5.042v39.865c0 21.203-17.188 38.391-38.39 38.391-21.203 0-38.391-17.188-38.391-38.39V12.856c0-7.108 5.762-12.87 12.87-12.87 1.722 0 3.427.345 5.014 1.016z" fill="#202F36"/><path d="M36.086 7.03l11.621 12.617c.61.676.383 1.749-.448 2.118-3.993 1.774-8.757.773-11.763-2.56-3.005-3.334-3.504-8.17-1.32-11.95.455-.788 1.3-.901 1.91-.225z" fill="#202F36" fill-rule="nonzero"/><path d="M46.163 18.019c4.216 4.27 11.65 4.27 16.345 0 4.695-4.27-.706 24.865-.706 24.79 0-.036-2.51-.046-7.53-.03-1.345.003-3.769.013-7.271.03-3.369-19.373-3.648-27.637-.838-24.79z" fill="#202F36"/><path d="M29.699 10.03l11.375 12.616c.61.677.383 1.749-.448 2.118-3.993 1.774-8.758.773-11.763-2.56-3.005-3.333-3.504-8.17-1.32-11.95a1.34 1.34 0 0 1 2.156-.224z" fill="#202F36" fill-rule="nonzero"/><path d="M35.023 13.542h.413c8.367 0 15.15 6.783 15.15 15.15v7.92c0 8.367-6.783 15.15-15.15 15.15h-.413c-8.367 0-15.15-6.783-15.15-15.15v-7.92c0-8.367 6.783-15.15 15.15-15.15z" fill="#202F36"/><path d="M72.494 7.02L61.119 19.637a1.337 1.337 0 0 0 .448 2.118c3.993 1.774 8.757.773 11.763-2.56 3.005-3.334 3.504-8.17 1.32-11.95a1.34 1.34 0 0 0-2.156-.225z" fill="#202F36" fill-rule="nonzero"/><path d="M79.118 10.03L67.743 22.646a1.337 1.337 0 0 0 .448 2.118c3.993 1.774 8.758.773 11.763-2.56 3.005-3.333 3.504-8.17 1.32-11.95a1.34 1.34 0 0 0-2.156-.224z" fill="#202F36" fill-rule="nonzero"/><path d="M73.267 13.542h.417c8.366 0 15.148 6.782 15.148 15.149v7.923c0 8.366-6.782 15.148-15.148 15.148h-.355c-8.32 0-15.082-6.71-15.147-15.03l-.063-7.922c-.065-8.366 6.663-15.201 15.029-15.267h.12z" fill="#202F36"/><path d="M35.831 18.96c5.82 0 10.54 4.718 10.54 10.538v6.308c0 5.82-4.72 10.539-10.54 10.539-5.82 0-10.538-4.718-10.538-10.539v-6.308c0-5.82 4.718-10.539 10.538-10.539zM72.867 18.96c5.82 0 10.54 4.718 10.54 10.538v6.308c0 5.82-4.72 10.539-10.54 10.539-5.82 0-10.538-4.718-10.538-10.539v-6.308c0-5.82 4.718-10.539 10.538-10.539z" fill="#52656d"/><path d="M37.488 24.978a4.968 4.968 0 0 1 4.968 4.968v5.412a4.968 4.968 0 1 1-9.936 0v-5.412a4.968 4.968 0 0 1 4.968-4.968z" fill="#202F36"/><path d="M54.46 36.715a5.379 5.379 0 0 1 5.378 5.379v1.71a5.379 5.379 0 0 1-10.758 0v-1.71a5.379 5.379 0 0 1 5.38-5.38z" fill="#52656d"/><path d="M46.972 44.433c.638-3.294 3.798-5.718 7.528-5.718 3.493 0 6.6 2.482 7.227 5.718v.3c0 .235-.076.323-.302.301L54.5 46.238h-.301l-6.926-1.204c-.225.022-.3-.066-.3-.3v-.301z" fill="#202F36" fill-rule="nonzero"/><path d="M46.972 42.433c.638-3.294 3.798-5.718 7.528-5.718 3.493 0 6.6 2.482 7.227 5.718v.3c0 .235-.076.323-.302.301L54.5 44.238h-.301l-6.926-1.204c-.225.022-.3-.066-.3-.3v-.301z" fill="#52656d" fill-rule="nonzero"/><path d="M71.211 24.978a4.968 4.968 0 0 1 4.969 4.968v5.412a4.968 4.968 0 1 1-9.936 0v-5.412a4.968 4.968 0 0 1 4.967-4.968z" fill="#202F36"/><path d="M41.111 64.104l9.663-.004c.518 0 .885.478.724.944-.769 2.238-3.005 3.784-5.557 3.785-2.553.001-4.788-1.543-5.555-3.781-.16-.466.207-.944.725-.944zM57.973 64.104l9.663-.004c.517 0 .884.478.724.944-.769 2.238-3.005 3.784-5.558 3.785-2.552.001-4.787-1.543-5.554-3.781-.16-.466.207-.944.725-.944zM49.542 72.23l9.663-.004c.517 0 .884.477.724.943-.769 2.238-3.005 3.785-5.557 3.786-2.553 0-4.788-1.544-5.555-3.782-.16-.466.207-.944.725-.944z" fill="#52656d" fill-rule="nonzero"/><ellipse fill="#52656d" cx="33.338" cy="27.901" rx="3.227" ry="3.224"/><ellipse fill="#52656d" cx="66.459" cy="27.901" rx="3.227" ry="3.224"/></g></g></g></svg>