<svg width="1080" height="1080" viewBox="0 0 1080 1080" fill="none" xmlns="http://www.w3.org/2000/svg"><path d="M506.393 722.119C579.632 722.119 639.004 768.347 639.004 825.372C639.004 882.397 579.632 928.625 506.393 928.625C433.154 928.625 373.782 882.397 373.782 825.372C373.782 768.347 433.154 722.119 506.393 722.119Z" fill="#1A2628"/><path fill-rule="evenodd" clip-rule="evenodd" d="M512.197 774.135C517.92 763.416 531.248 759.367 541.966 765.09L577.941 784.298C588.659 790.02 592.709 803.348 586.986 814.066C581.263 824.785 567.935 828.834 557.217 823.112L521.242 803.903C510.524 798.181 506.474 784.853 512.197 774.135ZM486.498 793.073C498.648 793.073 508.498 802.922 508.498 815.073V856.329C508.498 868.479 498.648 878.329 486.498 878.329C474.348 878.329 464.498 868.479 464.498 856.329V815.073C464.498 802.922 474.348 793.073 486.498 793.073Z" fill="#1F2E35"/><path d="M569.525 359.153C606.135 376.345 649.745 360.603 666.945 323.991L681.855 292.235C699.045 255.623 683.305 212.007 646.695 194.815L611.185 178.14C574.575 160.948 530.955 176.69 513.765 213.302L498.845 245.059C481.655 281.67 497.395 325.287 534.015 342.479L569.525 359.153ZM532.905 316.418C577.095 308.736 606.705 266.678 599.015 222.48L592.354 184.143C584.674 139.945 542.615 110.343 498.415 118.026L455.545 125.477C411.345 133.16 381.747 175.218 389.43 219.416L396.094 257.753C403.774 301.951 445.835 331.552 490.035 323.87L532.905 316.418Z" fill="#1F2E35"/><path fill-rule="evenodd" clip-rule="evenodd" d="M495.453 560.812C504.49 546.925 523.074 542.994 536.961 552.031L605.433 596.591C619.319 605.628 623.251 624.212 614.214 638.099C605.176 651.986 586.593 655.917 572.706 646.88L504.234 602.32C490.347 593.283 486.416 574.699 495.453 560.812Z" fill="#2C3D46"/><path d="M654.048 632.84C654.869 653.287 638.961 670.527 618.514 671.348C598.068 672.17 580.827 656.261 580.006 635.814C579.185 615.368 595.094 598.127 615.54 597.306C635.987 596.485 653.227 612.394 654.048 632.84Z" fill="#2C3D46"/><path fill-rule="evenodd" clip-rule="evenodd" d="M868.865 736.693C868.595 736.852 868.275 737.04 867.909 737.254C866.603 738.019 864.7 739.129 862.3 740.514C857.501 743.282 850.714 747.15 842.759 751.553C826.868 760.346 806.229 771.317 787.419 779.911L787.418 779.911C769.722 787.993 747.907 795.245 729.768 800.664C724.861 798.74 720.082 796.649 715.481 794.401C717.905 793.717 720.447 792.986 723.082 792.214C741.793 786.73 764.953 779.178 783.264 770.815C801.73 762.379 822.109 751.551 837.917 742.803C845.811 738.435 852.544 734.597 857.303 731.852C859.419 730.631 861.144 729.627 862.405 728.889C864.766 731.444 866.924 734.05 868.865 736.693Z" fill="#364750"/>
<path fill-rule="evenodd" clip-rule="evenodd" d="M839.871 811.675C835.432 809.692 830.271 807.289 824.636 804.494C806.562 795.525 783.431 782.416 763.629 765.962L763.628 765.961C744.068 749.703 723.134 729.538 707.135 713.491C699.125 705.457 692.331 698.434 687.538 693.417C686.622 692.458 685.778 691.572 685.014 690.767C688.095 689.203 691.4 687.83 694.894 686.641C699.641 691.608 706.336 698.527 714.217 706.431C730.139 722.401 750.816 742.309 770.02 758.271C788.982 774.027 811.348 786.737 829.081 795.536C837.926 799.925 845.573 803.318 850.999 805.611C851.87 805.979 852.684 806.319 853.436 806.629C849.3 808.667 844.751 810.343 839.871 811.675Z" fill="#364750"/><path fill-rule="evenodd" clip-rule="evenodd" d="M877.742 782.199C875.12 780.849 872.153 779.282 868.895 777.503C855.731 770.312 837.785 759.622 818.639 745.615C816.95 744.379 815.243 743.115 813.526 741.812C793.746 726.806 773.395 707.22 758.056 691.473C754.435 687.756 751.086 684.245 748.081 681.049C753.15 681.376 758.274 681.904 763.404 682.625C764.001 683.243 764.606 683.866 765.219 684.496C780.436 700.117 800.381 719.288 819.57 733.845C821.228 735.103 822.886 736.332 824.543 737.544C843.257 751.235 860.814 761.694 873.689 768.727C876.075 770.03 878.299 771.215 880.339 772.281C879.952 775.646 879.098 778.962 877.742 782.199Z" fill="#364750"/><path fill-rule="evenodd" clip-rule="evenodd" d="M751.77 807.947C739.759 800.225 727.807 792.27 718.214 785.325L718.214 785.325C702.126 773.674 684.89 757.956 671.754 745.245C667.74 741.362 664.096 737.746 660.968 734.594C660.114 729.671 660.081 724.844 660.906 720.232C661.484 720.832 662.117 721.486 662.799 722.188C666.691 726.192 672.209 731.771 678.707 738.059C691.741 750.67 708.573 765.995 724.079 777.225L660.999 719.729C660.999 719.729 660.999 719.729 660.999 719.729L724.079 777.225C739.53 788.412 761.402 802.391 779.666 813.722C770.371 812.414 760.98 810.469 751.77 807.947Z" fill="#364750"/><path fill-rule="evenodd" clip-rule="evenodd" d="M661.401 736.784C664.28 735.754 667.436 734.618 670.78 733.403C685.423 728.082 703.592 721.273 717.892 715.259C732.132 709.269 750.407 700.314 765.195 692.814C770.527 690.11 775.391 687.603 779.428 685.504C784.305 686.572 789.141 687.809 793.894 689.207C793.87 689.22 793.846 689.233 793.822 689.246C792.534 689.928 790.664 690.915 788.331 692.137C783.666 694.581 777.144 697.967 769.718 701.733C754.898 709.249 736.357 718.34 721.77 724.477L721.77 724.477C707.233 730.59 688.873 737.468 674.195 742.802C670.722 744.064 667.452 745.241 664.481 746.303C663.129 743.119 662.1 739.935 661.401 736.784Z" fill="#364750"/><path fill-rule="evenodd" clip-rule="evenodd" d="M836.972 708.181C836.916 708.222 836.86 708.261 836.803 708.3L836.802 708.301L836.588 708.446C836.449 708.54 836.244 708.679 835.976 708.859C835.439 709.22 834.652 709.748 833.643 710.419C831.624 711.763 828.715 713.683 825.146 715.997C818.01 720.621 808.218 726.826 797.607 733.136C785.488 740.344 772.196 747.752 760.534 753.097C757.328 754.567 754.077 755.945 750.779 757.222C737.391 762.407 720.649 767.181 705.628 771.001C698.829 772.73 692.35 774.272 686.651 775.575C683.565 772.869 680.736 770.08 678.171 767.232C685.08 765.705 693.82 763.685 703.163 761.309C718.064 757.52 734.345 752.863 747.168 747.897C750.27 746.696 753.336 745.396 756.368 744.006C767.553 738.88 780.491 731.681 792.495 724.541C802.963 718.316 812.642 712.183 819.707 707.605C822.799 705.601 825.387 703.897 827.319 702.615C830.498 704.3 833.575 706.068 836.538 707.91C836.538 707.91 836.538 707.91 836.538 707.91C836.683 708 836.827 708.09 836.972 708.181Z" fill="#364750"/><path fill-rule="evenodd" clip-rule="evenodd" d="M880.581 768.229C878.875 769.436 877.042 770.706 875.089 772.024C861.853 780.956 843.034 792.166 820.733 801.227C808.377 806.25 795.598 810.59 783.6 814.239C776.106 813.327 768.524 811.992 761 810.268C777.672 805.842 797.891 799.717 816.967 791.963L816.968 791.962C838.457 783.232 856.658 772.398 869.495 763.735C873.137 761.277 876.343 758.997 879.063 756.994C880.081 760.756 880.602 764.515 880.581 768.229Z" fill="#364750"/><path fill-rule="evenodd" clip-rule="evenodd" d="M585.83 610.96C589.956 605.426 597.788 604.284 603.323 608.411L665.091 654.469C670.625 658.596 671.766 666.428 667.639 671.962C663.513 677.497 655.681 678.638 650.146 674.511L588.378 628.453C582.844 624.326 581.703 616.494 585.83 610.96Z" fill="#1F2E35"/><path fill-rule="evenodd" clip-rule="evenodd" d="M651.908 682.063C647.207 663.502 669.744 656.725 680.124 659.102C690.504 661.478 724.331 669.789 724.331 669.789C728.355 670.77 730.823 674.827 729.842 678.852C728.861 682.876 724.803 685.343 720.779 684.362L677.01 673.987C672.196 672.813 665.821 676.126 666.794 679.629L672.566 703.185C673.661 707.18 671.311 711.306 667.317 712.402C663.322 713.497 659.196 711.147 658.1 707.153L651.908 682.063Z" fill="#2C3D46"/><path fill-rule="evenodd" clip-rule="evenodd" d="M708.467 690.704C686.257 695.427 672.489 705.683 668.747 719.279C665.411 731.401 669.437 746.781 683.357 761.993C697.224 777.146 720.442 791.465 753.362 800.526C783.391 808.791 811.554 810.183 833.017 805.479C854.602 800.748 867.873 790.337 871.776 776.155C875.532 762.507 869.599 746.623 854.061 731.334C838.668 716.188 814.92 702.865 786.753 695.113C758.519 687.342 730.373 686.046 708.467 690.704ZM705.347 676.032C730.062 670.777 760.684 672.38 790.734 680.651C820.851 688.94 847.02 703.361 864.582 720.642C881.997 737.78 892.054 759.007 886.238 780.135C880.245 801.909 860.558 814.798 836.229 820.131C811.779 825.49 781.071 823.71 749.381 814.988C714.449 805.373 688.506 789.84 672.291 772.119C656.129 754.457 649.154 733.939 654.285 715.298C660.232 693.69 680.937 681.222 705.347 676.032Z" fill="#2C3D46"/><path fill-rule="evenodd" clip-rule="evenodd" d="M618.496 597.619C625.88 598.656 631.024 605.482 629.987 612.865C629.627 615.431 628.586 619.802 627.746 623.325C627.411 624.731 627.109 626.002 626.894 626.969C625.28 634.248 618.071 638.84 610.792 637.226C603.513 635.612 598.92 628.402 600.535 621.123C601.06 618.754 601.558 616.686 601.985 614.914C602.597 612.374 603.063 610.443 603.25 609.11C604.287 601.727 611.113 596.582 618.496 597.619Z" fill="#2C3D46"/><path fill-rule="evenodd" clip-rule="evenodd" d="M604.693 607.179C605.997 607.634 606.684 609.06 606.229 610.364C604.37 615.683 602.945 621.285 603.406 625.778C603.631 627.967 604.291 629.747 605.44 631.112C606.576 632.461 608.369 633.616 611.255 634.253C614.169 634.896 616.221 634.624 617.731 633.953C619.255 633.276 620.499 632.071 621.573 630.37C622.66 628.649 623.505 626.524 624.254 624.174C624.727 622.688 625.124 621.245 625.523 619.794C625.771 618.891 626.02 617.984 626.29 617.061C626.677 615.736 628.065 614.975 629.39 615.362C630.716 615.749 631.476 617.137 631.09 618.462C630.866 619.227 630.634 620.069 630.392 620.948C629.968 622.486 629.512 624.139 629.018 625.691C628.221 628.193 627.223 630.787 625.801 633.039C624.368 635.309 622.441 637.331 619.762 638.522C617.071 639.718 613.891 639.955 610.177 639.136C606.435 638.31 603.591 636.677 601.616 634.333C599.654 632.004 598.73 629.185 598.432 626.289C597.849 620.611 599.628 614.098 601.509 608.715C601.964 607.411 603.39 606.724 604.693 607.179Z" fill="#1F2E35"/><path d="M808.066 723.558C820.148 741.843 813.474 765.479 793.158 776.353C772.842 787.227 746.579 781.22 734.497 762.936C722.415 744.651 729.089 721.015 749.405 710.141C769.721 699.267 795.984 705.274 808.066 723.558Z" fill="#3C4D56"/><path fill-rule="evenodd" clip-rule="evenodd" d="M732.023 727.902C735.917 725.848 740.325 724.886 744.831 724.983C755.539 725.214 766.736 731.368 773.308 742.504C779.283 752.63 785.338 760.046 792.843 762.981C796.957 764.591 801.838 764.963 807.861 763.257C805.967 766.067 803.658 768.681 800.956 771.016C797.221 771.093 793.724 770.457 790.424 769.166C780.657 765.346 773.632 756.119 767.588 745.879C762.142 736.65 753.013 731.802 744.688 731.622C738.306 731.485 732.363 734.058 728.662 739.7C729.084 735.634 730.219 731.648 732.023 727.902Z" fill="#4A5A62"/><path fill-rule="evenodd" clip-rule="evenodd" d="M472.2 739C501.195 739 524.7 762.505 524.7 791.5V794.03C524.7 823.025 501.195 846.53 472.2 846.53C443.205 846.53 419.7 823.025 419.7 794.03V791.5C419.7 762.505 443.205 739 472.2 739Z" fill="#3C4D56"/><path fill-rule="evenodd" clip-rule="evenodd" d="M480.982 752.529C480.982 724.225 503.927 701.279 532.232 701.279H539.562C567.867 701.279 590.812 724.225 590.812 752.529C590.812 780.834 567.867 803.779 539.562 803.779H532.232C503.927 803.779 480.982 780.834 480.982 752.529Z" fill="#3C4D56"/><path fill-rule="evenodd" clip-rule="evenodd" d="M472.7 582.871C500.038 582.871 522.2 605.033 522.2 632.371V775.003C522.2 802.341 500.038 824.503 472.7 824.503C445.362 824.503 423.2 802.341 423.2 775.003V632.371C423.2 605.033 445.362 582.871 472.7 582.871Z" fill="#364750"/><path fill-rule="evenodd" clip-rule="evenodd" d="M532.685 582.801C560.852 582.801 583.685 605.634 583.685 633.801V735.439C583.685 763.605 560.852 786.439 532.685 786.439C504.519 786.439 481.685 763.605 481.685 735.439V633.801C481.685 605.634 504.519 582.801 532.685 582.801Z" fill="#364750"/><path d="M569.713 595.538C569.713 622.514 539.333 644.383 501.843 644.383C464.363 644.383 433.973 622.514 433.973 595.538C433.973 568.562 464.363 529.531 501.843 529.531C539.333 529.531 569.713 568.562 569.713 595.538Z" fill="#1F2E35"/><path fill-rule="evenodd" clip-rule="evenodd" d="M490.343 650.698V620.631H505.843V650.698H490.343Z" fill="#364750"/><path fill-rule="evenodd" clip-rule="evenodd" d="M547.093 632.975V606.854H557.093V632.975H547.093Z" fill="#364750"/><path fill-rule="evenodd" clip-rule="evenodd" d="M539.165 675.525C540.46 676.692 540.565 678.687 539.398 679.983C534.001 685.977 525.722 689.572 517.668 689.967C515.927 690.052 514.446 688.71 514.361 686.969C514.275 685.229 515.617 683.748 517.358 683.663C523.904 683.342 530.545 680.383 534.708 675.759C535.874 674.464 537.869 674.359 539.165 675.525Z" fill="#1F2E35"/><path fill-rule="evenodd" clip-rule="evenodd" d="M528.823 786.295C526.441 786.116 524.103 785.774 521.823 785.28V685.93C521.823 683.997 523.39 682.43 525.323 682.43C527.256 682.43 528.823 683.997 528.823 685.93V786.295Z" fill="#1F2E35"/><path d="M577.263 573.449C577.263 603.424 543.493 627.724 501.843 627.724C460.193 627.724 426.423 603.424 426.423 573.449C426.423 543.474 460.193 500.104 501.843 500.104C543.493 500.104 577.263 543.474 577.263 573.449Z" fill="#3C4D56"/><path d="M345.27 304.6L501.007 239.468L659.853 309.553L650.448 400.659L649.391 467.815C649.001 492.542 634.936 515.013 612.857 526.162L527.942 569.05C507.759 579.245 483.778 578.491 464.275 567.051L389.273 523.054C368.586 510.919 356.03 488.591 356.408 464.612L357.003 426.768L345.27 304.6Z" fill="#2C3D46"/><path d="M358.828 483.467C357.145 477.412 356.308 471.07 356.41 464.607L357.006 426.763L351.474 369.16L447.276 413.115C429.938 439.478 389.238 488.288 358.828 483.467Z" fill="#1F2E35"/><path d="M582.996 427.792C583.26 411.012 597.239 393.436 612.687 390.466C625.437 388.015 634.785 396.522 634.566 410.382L634.239 431.156C633.975 447.935 619.997 465.513 604.558 468.481C591.798 470.934 582.451 462.425 582.669 448.565L582.996 427.792ZM516.348 453.175C516.611 436.46 530.558 420.914 547.204 418.767C563.278 416.695 575.893 427.91 575.639 444.044L575.34 463.045C575.077 479.759 561.13 495.305 544.484 497.452C528.42 499.524 515.795 488.309 516.049 472.175L516.348 453.175Z" fill="#4A5A62"/><path fill-rule="evenodd" clip-rule="evenodd" d="M618.401 461.751C614.193 465.134 609.449 467.541 604.558 468.481C602.419 468.892 600.376 468.995 598.458 468.817C596.043 466.719 594.625 463.345 594.692 459.146L594.865 448.147C594.996 439.816 601.994 431.11 609.646 429.762C615.834 428.672 620.329 432.851 620.223 439.59L619.974 455.394C619.94 457.545 619.366 459.726 618.401 461.751ZM538.315 475.708L538.698 465.344C539.008 456.94 544.596 451.56 544.596 451.56C546.897 449.589 549.709 448.233 552.715 447.846C560.082 446.899 565.829 452.132 565.552 459.558L565.084 472.163C564.806 479.624 558.558 486.464 551.152 487.419C543.776 488.371 538.038 483.133 538.315 475.708Z" fill="#1F2E35"/><path d="M605.25 437.407C605.174 442.27 601.725 446.871 597.548 447.684C593.372 448.497 590.048 445.216 590.125 440.353C590.201 435.491 593.649 430.89 597.826 430.076C602.002 429.263 605.327 432.545 605.25 437.407ZM549.996 455.018C549.919 459.881 545.915 463.761 541.053 463.685C536.19 463.608 532.311 459.604 532.387 454.741C532.464 449.879 536.467 445.999 541.33 446.076C546.192 446.152 550.073 450.156 549.996 455.018Z" fill="#4A5A62"/><path d="M585.913 504.763C584.484 501.032 580.592 486.789 574.397 484.652C556.732 478.558 523.248 474.473 508.954 481.321L529.387 511.157C537.459 524.683 590.574 515.891 585.913 504.763Z" fill="#2C3D46"/><path d="M577.648 480.745C578.366 475.157 581.433 466.48 581.725 466.389C581.986 466.306 589.305 471.736 591.97 474.405C594.634 477.075 596.93 479.649 596.93 479.649L576.96 488.286C576.96 488.286 576.93 486.332 577.648 480.745Z" fill="#1F2E35"/><path fill-rule="evenodd" clip-rule="evenodd" d="M603.541 480.888C605.659 486.287 602.999 492.38 597.601 494.498L589.122 497.825C583.723 499.943 577.63 497.284 575.512 491.885C573.394 486.487 576.053 480.394 581.451 478.276L589.931 474.949C595.329 472.831 601.422 475.49 603.541 480.888Z" fill="#1F2E35"/><path fill-rule="evenodd" clip-rule="evenodd" d="M557.276 503.873C558.313 502.454 560.303 502.143 561.723 503.18C568.615 508.213 579.098 509.979 588.523 507.965C590.241 507.598 591.932 508.694 592.3 510.412C592.667 512.131 591.571 513.822 589.853 514.189C579.001 516.508 566.587 514.612 557.97 508.319C556.55 507.283 556.24 505.292 557.276 503.873Z" fill="#1F2E35"/><path d="M357.358 426.224L346.149 309.517L379.131 290.081L490.502 243.506L512.449 243.851L641.886 300.96L644.204 302.359L658.523 325.416L650.806 400.151L650.803 400.303L650.581 400.473C635.153 394.494 621.424 389.872 607.645 385.235C597.408 381.791 587.141 378.337 576.143 374.311C542.427 405.58 466.386 472.302 449.415 465.324C429.322 457.064 403.712 446.081 381.159 436.411C372.632 432.756 364.545 429.287 357.358 426.224Z" fill="#3C4D56"/><path d="M433.061 392.911L347.508 353.824L334.858 289.892L492.878 217.594L681.231 264.616L657.007 339.633L486.841 395.857C469.187 401.691 449.971 400.639 433.061 392.911Z" fill="#1F2E35"/><path d="M533.713 343.58C534.535 359.353 554.709 372.594 578.784 373.155L578.37 365.1C577.558 349.327 557.374 336.086 533.3 335.525L533.713 343.58ZM569.139 364.564L571.229 371.57C592.886 362.984 607.123 344.903 603.028 331.185L600.938 324.179C579.28 332.765 565.044 350.846 569.139 364.564Z" fill="#3C4D56"/><path d="M490.565 329.295C475.259 368.272 431.242 387.457 392.268 372.144L358.459 358.862C319.481 343.55 300.297 299.539 315.609 260.563L330.461 222.758C345.774 183.781 389.784 164.596 428.759 179.909L462.574 193.191C501.548 208.503 520.727 252.514 505.422 291.49L490.565 329.295Z" fill="#1F2E35"/><path d="M396.278 432.485C410.492 432.709 421.832 444.412 421.608 458.625C421.384 472.838 409.681 484.179 395.468 483.955C381.255 483.731 369.915 472.028 370.138 457.815C370.362 443.602 382.065 432.261 396.278 432.485Z" fill="#2C3D46"/><path fill-rule="evenodd" clip-rule="evenodd" d="M460.21 562.547C471.309 575.218 470.034 594.487 457.363 605.586L442.742 618.393L455.416 637.515C464.722 651.556 460.884 670.482 446.843 679.788C432.802 689.094 413.876 685.256 404.57 671.215L377.166 629.868C368.73 617.14 371.007 600.136 382.493 590.075L417.171 559.7C429.842 548.601 449.111 549.876 460.21 562.547Z" fill="#2C3D46"/><path fill-rule="evenodd" clip-rule="evenodd" d="M448.141 635.33C460.574 641.336 465.784 656.283 459.778 668.716L446.21 696.804C440.205 709.236 425.258 714.446 412.825 708.441C400.392 702.435 395.182 687.488 401.188 675.056L414.756 646.968C420.762 634.535 435.709 629.325 448.141 635.33Z" fill="#2C3D46"/></svg>