<svg width="1080" height="1080" viewBox="0 0 1080 1080" fill="none" xmlns="http://www.w3.org/2000/svg"><path d="M840.54 931.33C840.54 990.5 778.93 1038.46 702.94 1038.46C627.5 1038.46 551 987 567.57 912.07C531.37 943.55 478.78 963.36 420.25 963.36C311.07 963.36 222.56 894.44 222.56 809.43C222.56 724.42 311.07 655.5 420.25 655.5C560.5 655.5 644 758 610.21 852.19C634.67 834.8 667.22 824.2 702.94 824.2C778.93 824.2 840.54 872.16 840.54 931.33Z" fill="#1A2628"/><path d="M550.88 848.101H497.73C481.65 853.911 463.19 857.641 443.41 858.671L409.36 888.191C390.84 899.751 378.45 893.361 369.79 879.651L352.52 842.331C344.06 838.281 336.52 833.581 330.11 828.371L285.56 816.991C268.76 813.041 262.93 798.671 274.18 788.491L306.22 761.691V701.821H557.85L557.53 790.281L573.43 826.101C578.8 840.291 568.75 848.101 550.88 848.101ZM328.242 737.353V779.96V737.353ZM344.259 774.065V798.672V774.065ZM557.848 701.818C557.848 660.953 501.52 627.826 432.036 627.826C362.552 627.826 306.225 660.953 306.225 701.818C306.225 742.683 362.552 775.81 432.036 775.81C501.52 775.81 557.848 742.683 557.848 701.818ZM523.58 701.818C523.58 672.084 482.594 647.98 432.036 647.98C381.478 647.98 340.493 672.084 340.493 701.818C340.493 731.552 381.478 755.656 432.036 755.656C482.594 755.656 523.58 731.552 523.58 701.818Z" fill="#2C3D46"/><path fill-rule="evenodd" clip-rule="evenodd" d="M328.242 732.354C331.004 732.354 333.242 734.592 333.242 737.354V779.961C333.242 782.722 331.004 784.961 328.242 784.961C325.481 784.961 323.242 782.722 323.242 779.961V737.354C323.242 734.592 325.481 732.354 328.242 732.354ZM344.259 769.066C347.021 769.066 349.259 771.304 349.259 774.066V798.673C349.259 801.434 347.021 803.673 344.259 803.673C341.498 803.673 339.259 801.434 339.259 798.673V774.066C339.259 771.304 341.498 769.066 344.259 769.066Z" fill="#2C3D46"/><path d="M557.848 701.818C557.848 660.953 501.52 627.826 432.036 627.826C362.552 627.826 306.225 660.953 306.225 701.818C306.225 742.683 362.552 775.81 432.036 775.81C501.52 775.81 557.848 742.683 557.848 701.818ZM523.58 701.818C523.58 672.084 482.594 647.98 432.036 647.98C381.478 647.98 340.493 672.084 340.493 701.818C340.493 731.552 381.478 755.656 432.036 755.656C482.594 755.656 523.58 731.552 523.58 701.818Z" fill="#3C4D56"/><path fill-rule="evenodd" clip-rule="evenodd" d="M341.3 646.481C364.693 632.723 396.781 624.326 432.036 624.326C467.291 624.326 499.38 632.723 522.773 646.481C546.085 660.191 561.348 679.638 561.348 701.818C561.348 723.998 546.085 743.445 522.773 757.155C499.38 770.913 467.291 779.31 432.036 779.31C396.781 779.31 364.693 770.913 341.3 757.155C317.988 743.445 302.725 723.998 302.725 701.818C302.725 679.638 317.988 660.191 341.3 646.481ZM344.848 652.515C322.626 665.584 309.725 683.133 309.725 701.818C309.725 720.503 322.626 738.052 344.848 751.122C366.99 764.143 397.807 772.31 432.036 772.31C466.265 772.31 497.083 764.143 519.224 751.122C541.447 738.052 554.348 720.503 554.348 701.818C554.348 683.133 541.447 665.584 519.224 652.515C497.083 639.493 466.265 631.326 432.036 631.326C397.807 631.326 366.99 639.493 344.848 652.515ZM365.531 660.732C382.723 650.621 406.244 644.48 432.036 644.48C457.828 644.48 481.35 650.621 498.542 660.732C515.653 670.795 527.08 685.204 527.08 701.818C527.08 718.433 515.653 732.841 498.542 742.904C481.35 753.015 457.828 759.156 432.036 759.156C406.244 759.156 382.723 753.015 365.531 742.904C348.42 732.841 336.993 718.432 336.993 701.818C336.993 685.204 348.42 670.795 365.531 660.732ZM369.08 666.766C353.058 676.188 343.993 688.698 343.993 701.818C343.993 714.938 353.058 727.448 369.08 736.87C385.02 746.245 407.27 752.156 432.036 752.156C456.802 752.156 479.053 746.245 494.993 736.87C511.014 727.448 520.08 714.938 520.08 701.818C520.08 688.699 511.014 676.188 494.993 666.766C479.053 657.391 456.802 651.48 432.036 651.48C407.27 651.48 385.02 657.391 369.08 666.766Z" fill="#364750"/><path d="M773.26 965.981L661.795 878.921C649.995 869.704 647.9 852.667 657.117 840.867L659.158 838.254C668.375 826.454 685.412 824.359 697.212 833.576L808.677 920.636C819.251 928.895 821.128 944.162 812.869 954.736L807.361 961.789C799.102 972.363 783.834 974.24 773.26 965.981Z" fill="#2C3D46"/><path fill-rule="evenodd" clip-rule="evenodd" d="M712.639 903.26C714.339 901.083 717.481 900.696 719.657 902.395L782.702 951.607C784.879 953.306 785.266 956.448 783.567 958.625C781.868 960.802 778.726 961.189 776.549 959.49L713.504 910.278C711.327 908.578 710.94 905.436 712.639 903.26ZM758.484 917.954C760.184 915.777 763.326 915.39 765.502 917.089L800.64 944.517C802.817 946.216 803.204 949.358 801.505 951.535C799.806 953.712 796.664 954.099 794.487 952.4L759.349 924.972C757.172 923.272 756.785 920.13 758.484 917.954Z" fill="#2C3D46"/><path d="M639.891 963.981L751.356 876.921C763.156 867.704 765.251 850.667 756.034 838.867L753.993 836.254C744.776 824.454 727.739 822.359 715.939 831.576L604.474 918.636C593.9 926.895 592.023 942.162 600.282 952.736L605.79 959.789C614.049 970.363 629.317 972.24 639.891 963.981Z" fill="#2C3D46"/><path fill-rule="evenodd" clip-rule="evenodd" d="M605.927 959.964C607.613 960.846 609.73 960.723 611.327 959.476L645.813 932.557C647.99 930.858 648.377 927.716 646.678 925.539C644.978 923.362 641.836 922.975 639.66 924.674L605.174 951.593C603.575 952.841 602.942 954.867 603.391 956.717L605.79 959.789C605.836 959.848 605.881 959.906 605.927 959.964ZM596.094 944.565C597.841 946.443 600.766 946.704 602.827 945.096L614.678 935.846C616.854 934.147 617.242 931.005 615.543 928.828C613.844 926.651 610.702 926.264 608.525 927.963L596.674 937.213C595.996 937.742 595.492 938.41 595.17 939.146C595.271 940.969 595.577 942.787 596.094 944.565Z" fill="#2C3D46"/><path d="M678.489 991.675L678.529 850.24C678.533 835.267 690.675 823.133 705.648 823.137L708.963 823.138C723.936 823.142 736.071 835.283 736.067 850.256L736.026 991.692C736.022 1005.11 725.142 1015.98 711.725 1015.98L702.776 1015.98C689.359 1015.97 678.485 1005.09 678.489 991.675Z" fill="#2C3D46"/><path fill-rule="evenodd" clip-rule="evenodd" d="M690.63 905.295C693.391 905.295 695.63 907.533 695.63 910.295V990.273C695.63 993.034 693.391 995.273 690.63 995.273C687.868 995.273 685.63 993.034 685.63 990.273V910.295C685.63 907.533 687.868 905.295 690.63 905.295ZM707.256 950.475C710.017 950.475 712.256 952.713 712.256 955.475V1000.05C712.256 1002.81 710.017 1005.05 707.256 1005.05C704.494 1005.05 702.256 1002.81 702.256 1000.05V955.475C702.256 952.713 704.494 950.475 707.256 950.475Z" fill="#2C3D46"/><path d="M678.487 998.091L678.488 995.19C678.492 982.089 689.116 971.471 702.217 971.475L712.31 971.478C725.411 971.482 736.029 982.106 736.025 995.207L736.024 998.108C736.02 1011.21 725.396 1021.83 712.295 1021.82L702.202 1021.82C689.101 1021.82 678.483 1011.19 678.487 998.091Z" fill="#3C4D56"/><path fill-rule="evenodd" clip-rule="evenodd" d="M702.314 987.299C702.235 987.302 702.156 987.305 702.077 987.308L702.005 987.31L701.932 987.31C696.537 987.276 692.307 992.072 692.816 997.652L692.823 997.731L692.827 997.81C692.958 1000.68 693.705 1002.46 694.613 1003.62C695.527 1004.79 696.845 1005.64 698.651 1006.23C702.435 1007.47 707.39 1007.29 712.647 1007.11C712.726 1007.1 712.804 1007.1 712.883 1007.1L712.956 1007.1L713.028 1007.1C718.424 1007.13 722.654 1002.33 722.145 996.756L722.138 996.677L722.134 996.598C722.002 993.726 721.255 991.947 720.347 990.785C719.433 989.615 718.115 988.764 716.309 988.174C712.525 986.94 707.57 987.114 702.314 987.299ZM729.123 996.2C728.93 992.251 727.841 989.005 725.863 986.474C723.878 983.934 721.235 982.418 718.48 981.52C713.481 979.888 707.409 980.109 702.625 980.284C702.38 980.292 702.138 980.301 701.899 980.31C692.112 980.293 685.034 988.897 685.838 998.207C686.031 1002.16 687.12 1005.4 689.098 1007.93C691.083 1010.47 693.725 1011.99 696.48 1012.89C701.48 1014.52 707.552 1014.3 712.335 1014.12C712.581 1014.11 712.823 1014.11 713.061 1014.1C722.848 1014.11 729.928 1005.51 729.123 996.2Z" fill="#364750"/><path d="M803.557 842.912C804.156 896.792 763.796 939.232 707.481 939.232C641.965 939.232 575.288 870.113 631.338 783.067C632.117 781.532 691.59 704.603 692.508 703.144C699.674 693.554 714.76 693.499 721.925 703.147L752.326 743.067C757.355 737.396 769.149 726.425 777.691 726.835C787.663 726.633 796.248 734.535 797.231 746.181C798.846 755.718 803.124 794.428 803.557 842.912Z" fill="#364750"/><path d="M748.329 859.237C747.409 913.378 667.02 913.394 666.102 859.235C664.856 838.365 691.492 813.958 702.369 798.512C705.842 795.837 710.826 796.481 713.502 799.953L739.133 833.203C744.836 840.404 748.35 849.338 748.329 859.237Z" fill="#3C4D56"/><path fill-rule="evenodd" clip-rule="evenodd" d="M470.841 537.581C460.963 524.388 442.271 521.628 428.998 531.438C415.673 541.285 412.854 560.07 422.702 573.395L446.828 555.564C422.702 573.395 422.71 573.405 422.718 573.416L422.735 573.44L422.773 573.49L422.861 573.608C422.925 573.694 423.002 573.795 423.089 573.91C423.265 574.141 423.486 574.428 423.753 574.768C424.286 575.447 425.004 576.338 425.9 577.405C427.689 579.533 430.212 582.387 433.433 585.661C439.821 592.155 449.237 600.595 461.39 608.295C485.907 623.829 523.052 637.064 567.572 622.965C583.367 617.963 592.116 601.103 587.114 585.308C582.112 569.513 565.252 560.763 549.457 565.765C526.709 572.969 508.012 566.805 493.502 557.612C486.142 552.949 480.249 547.694 476.207 543.585C474.212 541.557 472.74 539.881 471.836 538.806C471.387 538.271 471.084 537.892 470.934 537.701C470.889 537.643 470.858 537.603 470.841 537.581Z" fill="#2C3D46"/><path d="M603.096 582.512C608.886 603.181 596.824 624.629 576.155 630.419C555.486 636.209 534.037 624.147 528.247 603.478C522.457 582.809 534.519 561.36 555.188 555.57C575.857 549.78 597.306 561.843 603.096 582.512Z" fill="#2C3D46"/><path fill-rule="evenodd" clip-rule="evenodd" d="M635.88 569.398C634.874 569.421 633.604 569.64 631.051 570.759L631.005 570.779L524.246 615.844C520.43 617.455 516.03 615.667 514.419 611.851C512.809 608.035 514.596 603.636 518.412 602.025L625.08 556.999C628.683 555.424 631.932 554.484 635.539 554.402C638.932 554.325 642.165 555.04 645.382 555.795C645.382 555.795 645.382 555.795 645.382 555.795L665.297 560.47C668.5 561.222 670.363 561.501 671.944 561.461C673.356 561.425 674.921 561.121 677.313 560.058C677.318 560.056 677.323 560.054 677.328 560.051L685.052 556.57C688.828 554.868 693.269 556.549 694.972 560.325C696.674 564.102 694.992 568.543 691.216 570.245L683.444 573.748L683.428 573.755C679.612 575.454 676.096 576.361 672.323 576.456C668.717 576.547 665.291 575.877 661.869 575.073C661.869 575.073 661.869 575.073 661.869 575.073L641.954 570.398C638.607 569.612 637.115 569.37 635.88 569.398Z" fill="#364750"/><path fill-rule="evenodd" clip-rule="evenodd" d="M574.106 582.441C574.698 578.341 578.501 575.498 582.6 576.09L626.837 582.476C630.937 583.067 633.781 586.871 633.189 590.97C632.597 595.07 628.794 597.914 624.694 597.322L580.457 590.936C576.358 590.344 573.514 586.541 574.106 582.441Z" fill="#364750"/><path d="M567.347 569.633C571.12 578.298 575.802 590.558 564.666 595.217C553.12 600.048 546.87 588.548 543.16 577.648" fill="#2C3D46"/><path fill-rule="evenodd" clip-rule="evenodd" d="M566.552 566.862C568.136 566.378 569.813 567.27 570.297 568.855C571.403 572.475 572.881 576.906 574.243 580.995C575.89 585.934 574.743 589.972 572.524 592.908C570.423 595.689 567.482 597.349 565.511 598.155C561.247 599.899 554.558 600.186 548.666 594.294C546.768 592.396 545.002 589.18 543.628 586.374C542.506 584.085 541.497 581.747 540.773 580.071C540.578 579.62 540.404 579.217 540.254 578.875C539.588 577.358 540.277 575.588 541.794 574.922C543.311 574.255 545.081 574.945 545.747 576.462C545.918 576.851 546.108 577.291 546.315 577.769C547.037 579.442 547.966 581.591 549.016 583.735C550.415 586.591 551.804 588.947 552.908 590.051C556.787 593.929 560.785 593.606 563.239 592.602C564.626 592.034 566.51 590.915 567.737 589.291C568.846 587.823 569.531 585.831 568.551 582.892L568.542 582.864C567.189 578.805 565.689 574.307 564.559 570.608C564.075 569.023 564.967 567.346 566.552 566.862Z" fill="#1F2E35"/><path d="M694.342 576.155L681.912 551.86C679.303 546.761 681.045 540.513 685.915 537.497L721.614 515.398C726.528 512.356 732.859 512.923 737.154 516.789L751.553 529.748C753.733 531.71 755.039 534.461 755.181 537.39L756.019 554.611C756.299 560.343 752.785 565.58 747.376 567.497L707.807 581.513C702.61 583.354 696.853 581.063 694.342 576.155Z" fill="#4A5A62"/><path fill-rule="evenodd" clip-rule="evenodd" d="M689.755 567.19L694.342 576.155C696.853 581.063 702.61 583.354 707.807 581.513L716.516 578.429L729.512 573.825L747.376 567.497C747.615 567.412 747.851 567.321 748.083 567.223C745.351 562.135 739.481 558.616 732.68 558.616C729.799 558.616 727.084 559.248 724.705 560.363C720.981 556.54 715.463 554.119 709.305 554.119C699.999 554.119 692.154 559.648 689.755 567.19Z" fill="#3C4D56"/><path d="M746.03 542.199L742.922 535.217C742.096 533.361 742.93 531.186 744.786 530.36L753.334 526.556C753.334 526.556 760.125 523.126 763.221 530.32C766.317 537.514 759.434 540.26 759.434 540.26L750.886 544.064C749.03 544.89 746.856 544.055 746.03 542.199Z" fill="#364750"/><path fill-rule="evenodd" clip-rule="evenodd" d="M386.874 592.836C403.258 570.951 434.28 566.491 456.165 582.875L547.665 651.375C569.55 667.759 574.009 698.782 557.626 720.666C545.669 736.638 525.916 743.328 507.607 739.41C506.131 747.071 502.817 754.494 497.591 761C480.47 782.314 449.314 785.713 428 768.592L336.5 695.092C315.187 677.972 311.788 646.815 328.909 625.501C341.291 610.086 361.017 604.042 379.05 608.355C380.673 602.909 383.269 597.651 386.874 592.836Z" fill="#364750"/><path fill-rule="evenodd" clip-rule="evenodd" d="M537.715 771.246C538.162 758.827 548.592 749.123 561.01 749.57L591.145 750.655C603.563 751.102 613.267 761.532 612.82 773.95C612.373 786.368 601.944 796.073 589.525 795.626L559.391 794.541C546.973 794.094 537.268 783.664 537.715 771.246Z" fill="#1F2E35"/><path d="M518.001 692.561L524.989 690.291C551.888 681.551 580.778 696.272 589.518 723.169L592.035 731.17C599 752.502 579.037 770.458 552.139 779.197L545.15 781.468C518.253 790.208 494.5 785.502 487.64 765.09L485.122 757.09C476.382 730.192 491.103 701.301 518.001 692.561Z" fill="#3C4D56"/><path d="M507.03 651.238C469.463 663.444 470.317 696.814 474.334 709.178C478.351 721.541 485.023 742.881 486.723 748.112C488.422 753.343 503.212 773.783 542.206 761.113C576.444 749.988 584 727 580.311 716.163C573.867 697.229 571.103 688.25 568.631 680.642C565.386 670.655 544.597 639.032 507.03 651.238Z" fill="#364750"/><path fill-rule="evenodd" clip-rule="evenodd" d="M464.627 656.537C465.62 655.105 467.586 654.749 469.019 655.743L489.524 669.966C495.387 673.84 502.728 679.085 508.503 687.354C514.332 695.701 518.43 706.924 518.185 722.549C518.062 730.416 517.181 743.425 516.326 756.069C516.195 758.003 516.065 759.929 515.938 761.827C515.821 763.566 514.317 764.881 512.578 764.765C510.839 764.649 509.523 763.144 509.64 761.405C509.768 759.494 509.898 757.562 510.029 755.627C510.887 742.946 511.753 730.137 511.874 722.451C512.099 708.076 508.356 698.167 503.328 690.968C498.256 683.706 491.74 678.995 486.015 675.213L485.985 675.194L465.421 660.929C463.989 659.936 463.633 657.969 464.627 656.537Z" fill="#1F2E35"/><path fill-rule="evenodd" clip-rule="evenodd" d="M452.439 793.407C463.26 787.298 476.985 791.118 483.094 801.939L500.594 832.939C506.702 843.76 502.882 857.485 492.061 863.594C481.24 869.702 467.515 865.882 461.407 855.061L443.907 824.061C437.798 813.24 441.618 799.515 452.439 793.407Z" fill="#1F2E35"/><path d="M410.792 746.677C424.365 721.755 520 732.001 510.017 781.928C502.023 821.909 459.318 831.589 433.659 817.795C408 804.001 397 772.001 410.792 746.677Z" fill="#3C4D56"/><path d="M458.5 697C416.5 697 408 713.533 408 734.5C408 758.5 411 808 461 808C511 808 511.5 759 511.5 738C511.5 726 500.5 697 458.5 697Z" fill="#364750"/><path d="M473.86 591.48C473.86 618.456 443.48 640.325 405.99 640.325C368.51 640.325 338.12 618.456 338.12 591.48C338.12 564.504 368.51 525.473 405.99 525.473C443.48 525.473 473.86 564.504 473.86 591.48Z" fill="#1F2E35"/><path fill-rule="evenodd" clip-rule="evenodd" d="M394.25 657.164L394.75 613.664L409.749 613.836L409.249 657.336L394.25 657.164Z" fill="#364750"/><path fill-rule="evenodd" clip-rule="evenodd" d="M451.25 642.725L451.5 594.975L461.5 595.027L461.25 642.777L451.25 642.725Z" fill="#364750"/><path d="M481.41 569.388C481.41 599.363 447.64 623.663 405.99 623.663C364.34 623.663 330.57 599.363 330.57 569.388C330.57 539.413 364.34 496.043 405.99 496.043C447.64 496.043 481.41 539.413 481.41 569.388Z" fill="#3C4D56"/><path fill-rule="evenodd" clip-rule="evenodd" d="M362.71 555.976C379.292 560.233 389.284 577.128 385.026 593.711L356.526 704.711C352.268 721.294 335.374 731.285 318.791 727.028C302.208 722.77 292.216 705.875 296.474 689.292L324.974 578.292C329.232 561.709 346.127 551.718 362.71 555.976Z" fill="#2C3D46"/><path fill-rule="evenodd" clip-rule="evenodd" d="M349.604 701.331C351.078 714.782 341.37 726.88 327.919 728.354L309.669 730.354C296.219 731.828 284.12 722.12 282.646 708.669C281.172 695.219 290.881 683.12 304.331 681.646L322.581 679.646C336.032 678.172 348.13 687.881 349.604 701.331Z" fill="#2C3D46"/><path d="M537.23 302.062L552.76 394.305V461.47C552.76 486.2 539.05 508.89 517.15 520.385L432.92 564.604C412.9 575.115 388.91 574.74 369.23 563.608L293.544 520.797C272.669 508.99 259.763 486.862 259.763 462.88L266.263 425.531L537.23 302.062Z" fill="#2C3D46"/><path d="M477.714 451.986C479.297 459.215 477.748 466.437 474.443 473.433C471.137 480.43 467.294 484.217 459.903 488.337C452.512 492.456 443.872 493.374 436.479 491.087C429.086 488.799 423.899 483.633 421.009 477.068L477.714 451.986Z" fill="#4A5A62"/><path fill-rule="evenodd" clip-rule="evenodd" d="M452.236 491.377C454.868 490.715 457.454 489.702 459.903 488.337C467.294 484.217 471.137 480.431 474.443 473.434C477.748 466.437 479.297 459.215 477.714 451.986L451.5 463.581V486.001C451.5 488.05 451.76 489.839 452.236 491.377Z" fill="#1F2E35"/><path d="M536.18 426.109C536.963 438.78 528.354 452.543 518.546 458.166C512.038 461.897 504.243 463.995 497.464 461.437C490.684 458.88 488.864 454.894 485.974 448.329L536.18 426.109Z" fill="#4A5A62"/><path fill-rule="evenodd" clip-rule="evenodd" d="M510.648 461.56C513.383 460.78 516.059 459.592 518.546 458.166C528.354 452.544 536.963 438.78 536.18 426.109L510.5 437.475V459.001C510.5 459.904 510.551 460.757 510.648 461.56Z" fill="#1F2E35"/><path d="M517.5 463C494 471 496 491 496 491C496 491 478.5 483 451 493C423.5 503 423.5 515.5 423.5 515.5L500.5 509.5L538.5 469C538.5 469 541 455 517.5 463ZM404.77 484.808C404.77 484.808 455.718 462.469 481.192 451.299C503.168 441.663 547.12 422.392 547.12 422.392C547.12 422.392 557 309.5 476.73 396.689C373 386 404.77 484.808 404.77 484.808Z" fill="#2C3D46"/><path d="M495.45 468.965C490.95 464.81 485.34 461.024 485.08 461.111C484.79 461.207 482.13 469.033 481.23 475.529C478.62 478.418 477.708 482.638 479.22 486.513C481.35 491.972 487.51 494.667 492.96 492.532L501.29 489.278C506.75 487.144 509.444 480.988 507.31 475.53C505.42 470.696 500.37 468.029 495.45 468.965Z" fill="#1F2E35"/><path fill-rule="evenodd" clip-rule="evenodd" d="M521.96 413.108C506.704 410.525 496.421 419.55 493.347 424.085C492.03 426.029 489.388 426.536 487.445 425.219C485.502 423.902 484.994 421.26 486.311 419.317C490.673 412.88 503.931 401.434 523.38 404.728C525.694 405.12 527.252 407.314 526.86 409.628C526.469 411.942 524.275 413.5 521.96 413.108ZM420.871 442.581C433.75 426.506 452.642 425.11 460.759 426.464C463.074 426.85 464.638 429.04 464.251 431.356C463.865 433.671 461.675 435.235 459.36 434.848C453.25 433.829 437.886 434.938 427.505 447.895C426.037 449.727 423.363 450.023 421.531 448.555C419.699 447.087 419.404 444.413 420.871 442.581ZM461.985 503.743C463.326 501.816 465.975 501.341 467.901 502.681C472.623 505.966 481.203 509.285 493.377 503.168C495.475 502.115 498.029 502.961 499.083 505.058C500.137 507.156 499.29 509.71 497.193 510.764C481.768 518.513 469.868 514.404 463.047 509.659C461.12 508.318 460.645 505.67 461.985 503.743Z" fill="#1F2E35"/><path d="M260 417.501C260 417.501 260 451.001 260 456.001C260 461.001 259.75 478.001 263 482.001C270.25 482.501 278.25 480.501 284.5 476.501C277 474.501 272.75 463.751 273.75 452.001C274.896 438.54 288.5 432.001 288.5 432.001L260 417.501ZM406.5 113.001C393.5 115.001 378.5 117.501 349 122.001C319.5 126.501 294.5 159.001 293.5 173.501C257 176.001 239 201.001 233 214.001C227 227.001 215 260.001 213 270.001C211 280.001 206.63 289.14 216 313.501C226 339.501 252 354.001 252 354.001C252 354.001 348.5 419.001 385.5 400.501C422.5 382.001 538.5 346.501 551.5 338.001C564.5 329.501 572 309.501 585 279.001C600 226.001 564.851 197.803 553.5 192.001C542.25 186.251 528.25 179.501 519.75 176.001C513.13 173.275 499 165.501 489 165.501C465.5 113.001 419.5 111.001 406.5 113.001ZM501.75 319.501C494.5 321.751 476.75 332.251 471.5 344.001C471.5 344.001 456.25 329.751 434.25 331.251C432.75 360.001 463 365.001 463 365.001C463 365.001 401 388.001 388.5 391.501C376 395.001 357 398.001 344 392.501C331 387.001 251 353.001 251 353.001L260 426.501C260 426.501 269.808 430.411 283.296 435.753C297.75 423.501 320.5 433.001 324.124 451.823C337.671 457.11 349.757 461.76 356 464.001C387 459.251 477 370.001 477 370.001L553 395.501L558 332.001C558 332.001 511 349.501 489.5 356.501C497 352.001 512 332.251 501.75 319.501Z" fill="#1F2E35"/><path d="M501.75 319.5C494.5 321.75 476.75 332.25 471.5 344C471.5 344 456.25 329.75 434.25 331.25C432.75 360 463 365 463 365C463 365 401 388 388.5 391.5C376 395 357 398 344 392.5C331 387 251 353 251 353L260 426.5C260 426.5 269.808 430.41 283.296 435.752C297.75 423.5 320.5 433 324.124 451.822C337.671 457.109 349.757 461.759 356 464C387 459.25 477 370 477 370L553 395.5L558 332C558 332 511 349.5 489.5 356.5C497 352 512 332.25 501.75 319.5Z" fill="#3C4D56"/></svg>