<svg width="1080" height="1080" viewBox="0 0 1080 1080" fill="none" xmlns="http://www.w3.org/2000/svg"><path d="M658.169 639.389C658.169 702.05 587.974 752.847 501.383 752.847C414.793 752.847 344.598 702.05 344.598 639.389C344.598 576.729 414.793 525.932 501.383 525.932C587.974 525.932 658.169 576.729 658.169 639.389Z" fill="#1A2628"/><path d="M368.89 416.335C356.799 394.292 335.727 424.813 334.531 440.077C332.215 469.646 342.693 499.156 364.82 523.898C374.585 534.816 390.165 537.856 404.306 540.66C408.656 541.523 368.89 416.335 368.89 416.335Z" fill="#2C3D46"/><path d="M355.384 618.832C370.975 622.025 389.12 625.635 401.45 628.856C417.339 633.005 415.443 645.525 413.784 654.66C410.704 671.618 402.351 675.229 384.615 672.515C366.32 669.716 358.436 667.911 346.227 664.87C331.955 661.316 321.956 650.716 324.043 637.526C326.535 621.775 341.64 616.016 355.384 618.832Z" fill="#3C4D56"/><path d="M429.971 431.443C420.024 476.157 392.826 508.15 369.224 502.899C345.621 497.649 334.55 457.144 344.497 412.429C354.444 367.714 381.642 335.721 405.245 340.972C428.847 346.223 439.918 386.728 429.971 431.443Z" fill="#22333A"/><path d="M424 302.183C403.773 319.599 389.872 342.06 380.592 363.445L393.069 365.929C393.069 365.929 406.912 338.372 435.915 315.689L424 302.183Z" fill="#131F24"/><path d="M577.061 297.205C497.72 268.362 445.485 302.816 417.591 332.462L403.791 323.624C435.19 282.978 489.284 253.295 579.658 283.42L577.061 297.205Z" fill="#131F24"/><path d="M447.983 434.149C437.292 482.209 408.841 516.768 384.438 511.339C360.034 505.91 348.917 462.549 359.608 414.489C370.299 366.429 398.75 331.87 423.153 337.299C447.557 342.728 458.674 386.089 447.983 434.149Z" fill="#131F24"/><path d="M494.579 302.114C523.79 304.971 537.78 329.442 572.359 338.463C610.619 348.444 628.085 328.482 664.681 341.79C691.131 351.408 721.24 387.535 712.922 444.925C704.907 500.229 695.934 621.444 593.152 676.979C490.017 732.706 401.261 661.802 377.733 622.917C356 587 362.761 526.474 368.583 499.423C374.405 472.372 366.92 409.16 396.863 357.592C426.805 306.025 465.368 299.257 494.579 302.114Z" fill="#2C3D46"/><path d="M526.884 683.994C535.231 676.899 547.906 668.247 557.391 662.899C568.171 656.82 585.078 650.906 594.559 665.345C602.965 678.147 597.427 693.1 585.388 702.964C576.341 710.377 566.774 717.785 558.07 722.866C543.844 731.172 530.163 734.586 519.919 720.736C509.675 706.887 513.975 694.965 526.884 683.994Z" fill="#3C4D56"/><path d="M463.461 588.206C470.766 600.383 527 655 587.232 598.392C621 562 601.467 500.093 590.913 491.196C602.278 464.813 592.141 455.321 584.825 461.971C578.743 467.499 562.231 477.788 562.231 477.788C568.757 467.075 569.978 456.564 569.446 448.926C568.471 434.898 559.966 430.508 547.46 443.495C534.953 456.483 488.152 489.333 459.771 478.75C459.771 478.75 431.549 467.575 426.031 416.532C426.031 416.532 426.031 401.357 416.834 400.897C407.637 400.438 396.601 419.751 397.061 434.466C388.389 421.224 396.112 412.805 392.134 410.293C387.083 407.103 381.515 418.119 378.942 433.754C378.942 433.754 375.537 443.111 372.265 456.19C370.679 473.26 370.054 485.963 367.991 502.913C366.813 512.587 365.296 520.544 366.08 528.116C367.639 543.18 371.878 555.537 382.54 564.471C394.462 574.459 404.751 575.626 426.248 568.461C447.745 561.295 463.461 588.206 463.461 588.206Z" fill="#3C4D56"/><path d="M570.853 591.058C577.683 580.894 580.52 553.875 580.52 540.343C580.52 512.048 554.281 500.488 525.21 500.488C486.599 500.488 476.353 534.289 476.353 563.36C476.353 578.372 475.137 584.996 486.003 596.063C509.059 584.113 542.757 583.883 570.853 591.058Z" fill="#4A5A62"/><path fill-rule="evenodd" clip-rule="evenodd" d="M524.415 586.499C528.836 581.076 530.617 574.892 530.617 560.921C530.617 540.866 527.92 532.838 517.653 529.311C514.28 528.153 509.767 527.853 507.281 528.448C510.615 533.88 511.284 539.917 507.986 544.289C502.678 551.325 495.144 551.546 487.525 547.585C485.707 551.532 485.647 560.483 485.647 566.039C485.647 575.378 485.981 578.798 488.884 583.763C490.889 587.194 493.082 589.686 495.958 591.828C504.681 588.82 514.38 587.101 524.415 586.499Z" fill="#131F24"/><path d="M408.593 561.433C415.653 558.265 419.639 537.936 420.794 511.532C422.239 478.513 415.062 468.274 404.023 459.995C399.3 456.453 389.356 455.12 384.471 459.209C377.073 465.404 375.025 487.121 375.025 504.754C375.025 509.327 375.465 519.791 376.037 523.984C387.339 533.599 398.303 545.745 408.593 561.433Z" fill="#4A5A62"/><path fill-rule="evenodd" clip-rule="evenodd" d="M401.403 551.174C403.622 549.862 405.335 547.763 406.264 544.855C407.978 539.491 408.532 530.444 408.534 522.75C408.538 510.046 407.306 499.719 403.966 495.709C400.625 491.699 392.853 487.93 389.272 494.351C395.798 494.351 398.294 498.757 397.175 503.735C395.863 509.571 391.865 510.402 386.309 509.168V530.638C386.309 531.925 386.385 532.91 386.507 533.754C391.576 538.93 396.552 544.704 401.403 551.174Z" fill="#131F24"/><path d="M734.468 531.187C719.718 586.762 680.905 624.686 647.776 615.894C636.064 612.786 626.631 604.256 619.981 592.07C607.818 569.786 604.961 535.275 614.497 499.346C623.695 464.689 642.252 436.896 662.952 423.017C675.445 414.639 688.719 411.331 701.189 414.64C734.318 423.432 749.217 475.612 734.468 531.187Z" fill="#131F24"/><path d="M576.491 297.015C663.491 328.643 680.7 376.784 680.7 446.705L723.139 440.643C721.522 410.33 697.914 322.838 579.088 283.229" fill="#131F24"/><path d="M730.566 531.402C716.259 574.947 684.073 603.484 658.675 595.14C649.949 592.273 643.159 585.425 638.586 575.903C629.849 557.714 629.201 529.768 638.593 501.184C647.442 474.249 663.132 453.056 679.826 442.783C690.12 436.446 700.796 434.263 710.484 437.446C735.882 445.79 744.873 487.856 730.566 531.402Z" fill="#22333A"/><path d="M690.453 437.793C711.216 430.919 721.314 427.211 734.374 423.596C750.656 419.087 760.667 419.694 765.825 429.099C771.732 439.872 762.487 457.92 745.802 472.179C754.599 471.876 766.431 473.696 759.15 488.562C751.869 503.427 735.205 513.385 735.205 513.385L690.453 437.793Z" fill="#22333A"/><path d="M720.792 528.19C711.326 557.005 691.163 576.261 675.758 571.199C660.352 566.137 655.539 538.676 665.005 509.862C674.472 481.047 694.635 461.791 710.04 466.853C725.445 471.914 730.259 499.375 720.792 528.19Z" fill="#3C4D56"/><path d="M614.278 634.832C620.825 641.027 641.11 651.386 675.506 631.735C715.445 608.916 720.97 555.37 717.122 540.458C713.274 525.546 696.854 523.096 684.893 540.458C669.981 562.104 639.195 588.08 617.549 596.739C595.903 605.398 607.731 628.638 614.278 634.832Z" fill="#2C3D46"/><path d="M422.506 589.517C423.001 600 434.856 608.89 444.5 607.403C453.265 606.052 463.5 598 464.447 584.497L422.506 589.517Z" fill="#3C4D56"/><path d="M464.447 584.497C460.436 567.448 446.317 551.478 425.924 556.158C405.532 560.838 410.289 584.146 416.64 599.189C446.214 599.451 464.447 584.497 464.447 584.497Z" fill="#41535C"/><path fill-rule="evenodd" clip-rule="evenodd" d="M436.868 562.245C441.206 563.388 445.922 565.934 448.34 570.28C449.666 572.664 448.809 575.672 446.425 576.999C444.041 578.325 441.033 577.468 439.706 575.083C439.102 573.998 437.307 572.578 434.351 571.799C431.47 571.04 428.639 571.212 426.857 572.007C424.365 573.118 421.444 571.999 420.333 569.508C419.222 567.016 420.341 564.095 422.832 562.984C427.207 561.033 432.454 561.082 436.868 562.245Z" fill="#4A5A62"/><path d="M387.522 602.092C402.658 615.078 423.511 626.515 427.548 628.533C431.584 630.551 413.757 640.305 399.294 629.878C384.831 619.451 387.522 602.092 387.522 602.092Z" fill="#3C4D56"/><path d="M460.083 641.705C476.228 649.778 503.136 655.832 511.882 657.177C511.091 663.754 501.368 670.88 481.523 665.499C459.996 656.754 460.083 641.705 460.083 641.705Z" fill="#3C4D56"/><path d="M422.388 649.788C437.524 658.87 461.068 668.624 465.441 670.306C469.813 671.988 454.212 683.684 435.713 672.921C417.213 662.158 422.388 649.788 422.388 649.788Z" fill="#3C4D56"/><path d="M302.02 175.042C310.809 172.855 323.946 168.891 323.946 164.729C323.946 160.687 319.525 150.488 316.397 143.778C314.737 140.219 310.6 138.56 306.944 139.995L277.711 151.464C274.113 152.876 272.308 156.909 273.653 160.533L293.58 214.203C293.151 214.18 292.717 214.167 292.282 214.167C279.205 214.167 268.605 224.767 268.605 237.844C268.605 250.92 279.205 261.521 292.282 261.521C305.359 261.521 315.96 250.92 315.96 237.844C315.96 233.731 314.91 229.864 313.066 226.495L297.143 184.359C295.653 180.418 297.931 176.059 302.02 175.042Z" fill="#22333A"/></svg>