<svg width="1080" height="1080" viewBox="0 0 1080 1080" fill="none" xmlns="http://www.w3.org/2000/svg"><path d="M792.946 723.22C802.001 819.519 701.3 906.866 568.024 918.312C434.748 929.753 319.366 860.963 310.311 764.667C301.256 668.365 401.957 581.019 535.233 569.575C668.509 558.13 783.891 626.92 792.946 723.22Z" fill="#1A2628"/><path d="M733.307 753.831L626.496 874.158C624.415 876.496 616.836 879.522 613.752 878.703L391.222 818.778L379.501 815.178C374.778 813.116 373.367 808.719 369.786 805.193C369.445 802.431 370.587 799.495 373.432 797.709L436.716 757.864L536.955 694.736C538.907 693.512 541.318 693.134 543.574 693.714L729.165 741.09C735.011 742.581 737.229 749.412 733.307 753.831Z" fill="#2C3D46"/><path d="M353.578 777.423C353.578 799.894 371.904 818.111 394.511 818.111C417.118 818.111 435.444 799.894 435.444 777.423C435.444 754.952 417.118 736.736 394.511 736.736C371.904 736.736 353.578 754.952 353.578 777.423Z" fill="#2C3D46"/><path d="M714.761 753.575C718.259 749.515 716.968 742.768 716.968 737.41V695.125L614.224 799.526L400.103 754.001C383.449 749.969 367.411 762.581 367.411 779.714C367.411 779.723 367.411 779.724 367.411 779.733C367.411 791.692 375.448 802.168 387.002 805.28L612.294 861.27C615.594 862.09 619.074 860.979 621.288 858.399L714.761 753.575Z" fill="#4A5962"/><path d="M597.591 805.639L396.441 751.838L364.765 749.829L451.008 651.994L708.465 698.64L617.341 802.01C610.933 808.801 606.623 808.008 597.591 805.639Z" fill="#2C3D46"/><path d="M749.268 700.065C749.268 721.42 731.121 738.736 708.751 738.736C707.168 738.736 705.612 738.648 704.074 738.48C699.806 738.013 695.735 736.911 691.974 735.271C687.413 733.296 683.296 730.519 679.837 727.142C672.653 720.168 668.234 710.61 668.234 700.065C668.234 678.719 686.372 661.403 708.751 661.403C724.204 661.403 737.648 669.664 744.476 681.814C747.535 687.245 749.268 693.461 749.268 700.065Z" fill="#3C4D56"/><path d="M473.277 797.111L357.129 669.348C352.554 664.315 355.164 656.217 361.817 654.803L523.408 620.467L725.868 735.19L490.762 802.139C484.452 803.906 477.685 801.96 473.277 797.111Z" fill="#3C4D56"/><path d="M372.401 665.602C369.786 662.803 368.258 659.167 368.083 655.346L365.828 606.893L488.244 728.914L488.253 732.311L699.345 675.563C716.321 671.015 733.068 683.618 733.372 701.193V701.681C733.372 713.815 725.252 724.504 712.538 728.085L495.338 787.283C491.058 788.449 486.484 787.156 483.448 783.921L372.401 665.602Z" fill="#4A5962"/><path d="M480.214 729.954L361.466 612.261C356.367 607.208 359.129 598.504 366.208 597.314L568.849 544.789L731.698 668.199L708.056 673.167L497.181 734.301C491.155 736.029 484.666 734.367 480.214 729.954Z" fill="#3C4D56"/><path d="M735.024 586.921C734.738 619.63 719.573 634.821 694.763 632.969C669.953 631.118 644.895 612.924 645.181 580.216C645.466 547.507 662.542 525.445 687.352 527.297C706.79 539.526 731.685 555.849 735.024 586.921Z" fill="#2C3D46"/><path d="M518.503 333.34C545.705 333.34 566.852 307.967 610.362 307.967C703.212 307.967 701.005 390.882 701.005 491.577C701.005 521.937 695.444 693.471 540.094 693.471C365.527 693.471 378.038 481.334 378.244 394.412C378.244 334.704 433.688 322.856 459.499 322.856C485.299 322.856 500.793 333.34 518.503 333.34Z" fill="#2C3D46"/><path fill-rule="evenodd" clip-rule="evenodd" d="M442.304 604.958C443.29 603.991 444.873 604.006 445.84 604.992C456.133 615.482 461.185 620.494 466.328 624.714C470.776 628.365 475.298 631.432 483.401 636.926C484.685 637.797 486.06 638.729 487.539 639.734C488.681 640.51 488.977 642.065 488.201 643.207C487.424 644.349 485.87 644.645 484.728 643.869C483.258 642.87 481.887 641.941 480.6 641.068C472.532 635.598 467.793 632.386 463.156 628.579C457.767 624.156 452.523 618.942 442.271 608.494C441.304 607.508 441.319 605.925 442.304 604.958Z" fill="#131F24"/><path d="M682.978 430.03C686.852 439.666 686.021 454.745 681.577 464.078C691.423 467.967 693.868 490.536 693.868 505.507C693.868 514.169 693.418 534.322 689.158 558.705C679.798 589.889 659.994 600.259 650.448 601.823C615.466 607.991 611.99 580.317 609.54 578.799L576.66 581.394C568.65 595.731 543.42 624.404 506.58 624.404C460.54 624.404 437.33 592.064 434.429 549.406C430.873 497.115 440.04 493.097 453.96 482.218C450.16 460.46 459.02 451.099 461.8 449.328C464.59 447.557 473.19 455.653 484.07 467.038C480.78 451.858 481.28 433.136 491.91 433.136C493.21 433.136 497.18 437.03 503.06 442.789C521.16 460.538 555.166 491.674 586.906 485.444C605.136 481.867 630.518 470.129 637.488 445.806C641.928 430.302 645.488 417.891 649.948 417.891C658.868 417.891 664.998 435.096 666.768 443.951C667.838 441.809 668.758 438.885 669.688 435.953C671.498 430.225 673.308 424.469 676.258 424.469C678.838 424.469 681.148 427.08 682.978 430.03Z" fill="#3C4D56"/><path d="M583.617 573.645C595.319 573.645 604.806 583.471 604.806 595.591C604.806 607.711 595.319 617.536 583.617 617.536C571.915 617.536 562.428 607.711 562.428 595.591C562.428 583.471 571.915 573.645 583.617 573.645Z" fill="#3C4D56"/><path d="M614.6 587.657C614.914 578.734 607.604 570.992 593.376 568.649C576.148 565.812 562.312 581.728 561.202 588.468C563.968 601.011 587.889 606.893 599.222 608.778C600.615 609.182 602.556 608.861 603.778 606.893C607.768 601.679 614.391 593.728 614.6 587.657Z" fill="#41535C"/><path fill-rule="evenodd" clip-rule="evenodd" d="M588.261 585.774C586.687 585.936 585.468 586.419 585.091 586.616C581.619 588.434 577.331 587.093 575.514 583.621C573.696 580.149 575.037 575.861 578.509 574.043C581.911 572.262 590.479 569.574 598.763 573.703C602.27 575.451 603.696 579.712 601.948 583.219C600.2 586.727 595.939 588.153 592.432 586.405C591.217 585.799 589.781 585.617 588.261 585.774Z" fill="#4A5A62"/><path d="M457.5 535.345C457.5 518.9 472.628 495.118 503.686 495.118C540.105 495.118 551.74 521.936 551.74 535.345V555.585C551.74 591.638 525.676 602.011 503.686 602.011C466.457 602.011 457.39 571.06 457.5 555.585V535.345Z" fill="#4A5962"/><path d="M618.111 523.401C618.111 495.109 630.014 482.723 651.908 479.356C663.316 477.601 679.798 485.119 679.798 511.237C679.798 521.467 679.351 530.329 678.431 537.993C673.403 579.874 655.061 586.818 639.202 586.818C624.675 586.818 618.111 571.702 618.111 559.537V523.401Z" fill="#4A5962"/><path d="M506.231 544.674C516.333 544.674 524.522 536.485 524.522 526.383C524.522 524.672 524.287 523.016 523.848 521.445C524.916 521.332 526.047 521.273 527.24 521.273C538.99 521.273 547.6 533.313 547.6 546.683V565.293C547.6 570.393 545.25 586.323 527.24 586.323C509.25 586.323 505.44 569.663 505.44 565.293V555.243C505.27 554.243 505.15 553.073 505.09 551.743C504.968 549.157 504.999 546.797 505.156 544.643C505.512 544.663 505.87 544.674 506.231 544.674Z" fill="#131F24"/><path d="M626.731 533.628C633.778 531.558 638.652 524.774 638.043 517.163C637.898 515.346 637.452 513.626 636.757 512.047C638.769 510.805 641.096 509.978 643.772 509.764C654.872 508.875 660.094 517.01 660.894 527.008C661.694 537.006 663.323 573.223 643.3 574.826C627.557 576.086 627.4 564.075 627.315 557.364C627.311 556.4 627.3 555.546 627.245 554.856C627.095 552.975 627.059 550.804 627.023 548.593C626.986 546.292 626.947 543.946 626.778 541.833C626.584 538.784 626.588 536.058 626.731 533.628Z" fill="#131F24"/><path d="M608.625 629.291C608.625 629.291 623.446 583.402 681.331 564.509C681.331 564.509 703.724 558.904 704.447 572.123C705.72 582.075 632.386 643.175 632.386 643.175L608.625 629.291Z" fill="#4A5962"/><path d="M614.897 630.887C614.897 630.887 573.534 587.768 512.662 589.275C512.662 589.275 477.72 590.13 474.28 609.992C476.401 619.798 597.131 651.905 597.131 651.905L614.897 630.887Z" fill="#4A5962"/><path d="M617.246 727.881L688.471 670.202C689.526 669.399 690.249 668.235 690.498 666.933L708.559 572.747C709.493 567.873 703.893 564.441 699.974 567.486L623.308 627.061L617.246 727.881Z" fill="#131F24"/><path d="M480.322 599.906L597.945 630.558L588.544 732.072L467.9 705.769C465.222 705.186 463.411 702.682 463.695 699.956L473.614 604.556C473.955 601.279 477.134 599.076 480.322 599.906Z" fill="#131F24"/><path d="M597.161 630.735L587.654 731.899C587.621 735.71 590.693 737.763 594.504 737.796L611.471 735.815C615.282 735.849 618.399 732.785 618.432 728.974L628.52 633.444L597.161 630.735Z" fill="#131F24"/><path d="M597.485 630.605L597.438 635.969C597.405 639.78 600.477 641.833 604.288 641.866L621.255 639.885C625.065 639.918 628.183 636.855 628.217 633.045L625.09 625.282L597.485 630.605Z" fill="#4A5962"/><path d="M425.374 589.557C443.152 616.944 485.133 644.802 485.133 644.802C503.3 654.446 490.736 676.916 475.025 678.614C355.914 690.315 360.855 566.624 398.314 554.534C398.314 554.534 407.956 560.141 425.374 589.557Z" fill="#2C3D46"/><path d="M725.903 618.747C723.696 622.119 719.352 627.392 712.316 630.499C702.415 634.513 692.102 635.317 687.37 629.071C684.726 624.896 687.945 618.826 693.453 610.697L716.61 578.38L725.903 618.747Z" fill="#2C3D46"/></svg>