<svg width="1080" height="1080" viewBox="0 0 1080 1080" fill="none" xmlns="http://www.w3.org/2000/svg"><path d="M538.154 502.74C641.115 502.74 724.581 567.728 724.581 647.894C724.581 728.06 641.115 793.048 538.154 793.048C435.193 793.048 351.727 728.06 351.727 647.894C351.727 567.728 435.193 502.74 538.154 502.74Z" fill="#1A2628"/><path fill-rule="evenodd" clip-rule="evenodd" d="M498.458 671.85C510.414 681.216 512.514 698.501 503.149 710.457L491.399 725.457C482.033 737.414 464.748 739.514 452.792 730.148C440.835 720.782 438.735 703.497 448.101 691.541L459.851 676.541C469.217 664.585 486.502 662.485 498.458 671.85ZM585.149 672.938C596.988 663.424 614.298 665.309 623.811 677.148L635.061 691.148C644.575 702.988 642.69 720.297 630.85 729.811C619.011 739.324 601.702 737.439 592.188 725.6L580.938 711.6C571.425 699.761 573.31 682.451 585.149 672.938Z" fill="#3C4D56"/><path d="M622.045 609.411C621 639.5 661.771 686.741 661.771 686.741C668.82 695.054 681.274 696.078 689.587 689.029C694.992 684.446 697.294 677.58 696.321 671.051C723.754 663.41 742.046 642.218 746.374 618.072C753.862 576.3 728.685 550.747 701.402 541.8C688.144 537.452 618.714 578.929 622.045 609.411Z" fill="#2C3D46"/><path d="M386.807 536.335C348.739 568.283 335.232 621.747 349.281 674.102C354.206 694.63 364.269 720.087 384.82 740.488C388.721 744.36 403 749.5 413.104 740.384C421.305 732.985 418.278 721.804 413.001 712.1C379.5 650.5 443.538 598.112 443.538 598.112C452.479 590.608 430.879 499.347 386.807 536.335Z" fill="#2C3D46"/><path d="M508.136 343.554C522.459 350.103 537.641 354.949 558.232 356.733C578.822 358.517 594.61 356.355 609.846 352.367C623.754 348.726 637.057 345.244 652.721 346.601C705.237 351.151 716.965 411.522 714.614 430.821L702.669 568.678C691.013 703.201 578.457 730.045 526.161 726.871C474.097 721.003 367.835 675.199 379.491 540.676L391.435 402.82C392.439 383.405 414.376 325.95 466.892 330.5C482.556 331.857 495.061 337.575 508.136 343.554Z" fill="#2C3D46"/><path d="M536.122 692.96C536.333 690.596 547.351 691.496 557.843 690.483C565.171 689.775 570.884 688.502 576.274 687.072C586.498 687.982 571.183 704.238 554.838 702.782C539.314 701.4 535.885 695.617 536.122 692.96ZM505.493 690.233C505.702 687.886 494.445 686.956 484.38 684.113C477.225 682.092 471.576 677.747 467.014 677.341C456.79 676.431 468.99 695.137 485.335 696.593C500.86 697.976 505.256 692.89 505.493 690.233ZM506.081 706.475C501 705.118 498.465 706.287 498.204 709.214C497.77 714.09 509.977 717.743 518.748 718.524C527.52 719.305 539.552 716.336 539.856 712.923C540.099 710.193 537.796 709.088 536.184 709.156C527.628 709.519 510.616 707.686 506.081 706.475Z" fill="#3C4D56"/><path d="M636.36 441.85C627.253 441.304 604.145 505.801 539.682 503.309C493.972 501.542 482.25 434.765 467.831 433.9C454.676 433.111 456.677 452.657 456.893 459.651C452.29 455.375 445.796 447.919 440.579 445.912C435.363 443.905 428 460.751 431.982 470.728C426.508 475.224 400.325 482.539 397.92 522.635C393.042 603.967 423.555 621.798 458.592 623.899C486.622 625.58 498.867 607.79 502.975 598.558L554.961 604.89C558.097 614.683 579.892 634.596 613.994 636.641C670.408 640.025 689.217 582.506 691.751 540.259C693.778 506.462 671.172 487.233 665.676 482.206C671 471.251 664.057 456.274 660.136 456.039C656.215 455.804 650.968 460.755 644.95 465.853C645.754 452.445 645.468 442.396 636.36 441.85Z" fill="#3C4D56"/><path fill-rule="evenodd" clip-rule="evenodd" d="M527.917 587.465C523.038 589.909 518.424 591.128 512.379 594.364C485.455 608.775 449.643 627.945 428.793 624.225C416.153 621.969 392.275 588.765 371.912 543.988C357.932 513.248 351.83 488.282 349.379 475.651C348.46 470.919 352.166 466.771 356.983 466.964C367.389 467.38 384.57 468.387 396.733 470.723C431.913 477.477 459.359 490.595 489.825 508.912C504.734 517.877 526.194 532.639 530.243 535.437C535.209 533.936 572.177 522.787 589.798 518.139C624.669 508.939 662.148 506.75 698.16 510.306C710.61 511.536 727.52 515.529 737.705 518.139C742.42 519.346 744.777 524.507 742.49 528.901C736.386 540.629 724.094 563.126 701.492 589.343C668.569 627.531 640.313 655.659 623.762 653.801C600.831 651.227 540.978 599.454 530.8 587.465C530.169 586.722 528.47 587.981 527.917 587.465Z" fill="#131F24"/><path fill-rule="evenodd" clip-rule="evenodd" d="M380.03 560.883L473.549 499.502C478.918 502.464 484.322 505.603 489.825 508.912C492.809 510.706 496.056 512.732 499.373 514.849L393.135 584.578C388.786 577.395 384.374 569.439 380.03 560.883Z" fill="#2C3D46"/><path fill-rule="evenodd" clip-rule="evenodd" d="M409.984 608.897L525.07 531.886C527.506 533.548 529.323 534.8 530.243 535.436C535.21 533.935 572.177 522.786 589.798 518.138C605.787 513.92 622.324 511.176 639.016 509.783L513.581 593.719C513.183 593.933 512.782 594.147 512.379 594.363L512.379 594.363C485.455 608.775 449.643 627.944 428.793 624.224C423.915 623.353 417.362 617.873 409.984 608.897Z" fill="#2C3D46"/><path d="M524.033 587.76C538.528 587.76 550.278 599.51 550.278 614.005C550.278 622.173 546.547 629.469 540.697 634.282C536.165 638.011 530.36 640.25 524.033 640.25C518.458 640.25 513.29 638.512 509.039 635.548C502.238 630.806 497.788 622.925 497.788 614.005C497.788 599.51 509.538 587.76 524.033 587.76Z" fill="#3C4D56"/><path d="M407.502 762.623L385.083 697.68H504.029L479.44 762.865C478.687 764.859 477.54 766.698 475.934 768.1C457.474 784.214 429.204 783.796 411.164 768.244C409.441 766.759 408.244 764.773 407.502 762.623Z" fill="#131F24"/><path fill-rule="evenodd" clip-rule="evenodd" d="M484.655 749.038L482.19 755.573C478.638 756.917 475.18 757.762 472.117 758.153C465.044 759.057 459.123 757.98 454.064 756.067C449.622 754.388 446.387 752.418 443.646 750.408C444.049 751.945 444.545 753.668 445.032 755.361C445.172 755.849 445.312 756.335 445.449 756.813C445.848 758.21 446.236 759.72 446.496 761.107C446.74 762.411 446.931 763.895 446.757 765.105C446.662 765.761 446.406 766.999 445.24 767.791C444.301 768.428 443.206 768.427 442.735 768.426L442.691 768.426C438.845 768.426 434.461 767.565 430.258 766.166C425.079 764.442 419.713 761.776 414.569 758.427C410.385 755.704 406.423 752.54 402.833 749.097L398.613 736.873C403.475 743.329 409.969 749.467 417.297 754.237C422.14 757.39 427.123 759.852 431.837 761.422C435.327 762.584 438.808 763.286 441.787 763.407C441.75 763.038 441.685 762.579 441.581 762.028C441.361 760.855 441.019 759.51 440.641 758.187C440.512 757.734 440.377 757.266 440.24 756.79C439.625 754.652 438.959 752.339 438.494 750.43C438.09 748.77 437.858 747.411 437.888 746.379C437.903 745.885 437.98 745.142 438.394 744.447C438.92 743.565 439.822 743.037 440.826 743.001C441.61 742.972 442.249 743.251 442.586 743.42C442.971 743.613 443.325 743.853 443.612 744.061C443.959 744.313 444.395 744.664 444.763 744.96C444.941 745.104 445.104 745.235 445.232 745.336C448.034 747.526 451.167 749.627 455.831 751.39C460.218 753.048 465.314 753.981 471.483 753.193C475.337 752.701 480.02 751.363 484.655 749.038Z" fill="#4A5A62"/><path d="M507.559 683.631C507.559 713.561 478.999 737.811 443.759 737.811C408.529 737.811 379.969 713.561 379.969 683.631C379.969 681.941 380.059 680.281 380.239 678.631C383.209 651.051 410.509 629.451 443.759 629.451C477.009 629.451 504.319 651.051 507.289 678.631C507.469 680.281 507.559 681.941 507.559 683.631ZM505.155 668.85C507.265 675.186 507.265 682.076 505.155 688.412C497.581 711.157 472.961 727.811 443.759 727.811C414.556 727.811 389.943 711.156 382.372 688.41C380.263 682.075 380.263 675.187 382.372 668.852C389.944 646.112 414.557 629.451 443.759 629.451C472.96 629.451 497.581 646.111 505.155 668.85ZM495.472 679.24C495.472 658.11 472.32 640.98 443.761 640.98C415.202 640.98 392.05 658.11 392.05 679.24C392.05 700.37 415.202 717.5 443.761 717.5C472.32 717.5 495.472 700.37 495.472 679.24Z" fill="#3C4D56"/><path d="M505.154 668.85C507.264 675.186 507.264 682.076 505.154 688.412C497.58 711.157 472.96 727.811 443.758 727.811C414.555 727.811 389.942 711.156 382.371 688.41C380.262 682.075 380.262 675.187 382.371 668.852C389.943 646.112 414.556 629.451 443.758 629.451C472.959 629.451 497.58 646.111 505.154 668.85Z" fill="#41535C"/><path fill-rule="evenodd" clip-rule="evenodd" d="M405.708 650.177C415.538 642.904 429 638.48 443.76 638.48C458.521 638.48 471.982 642.904 481.812 650.177C491.642 657.45 497.971 667.697 497.971 679.24C497.971 690.784 491.642 701.031 481.812 708.304C471.982 715.577 458.521 720 443.76 720C429 720 415.538 715.577 405.708 708.304C395.879 701.031 389.549 690.784 389.549 679.24C389.549 667.697 395.879 657.45 405.708 650.177ZM408.682 654.196C399.796 660.771 394.549 669.654 394.549 679.24C394.549 688.827 399.796 697.71 408.682 704.285C417.568 710.859 429.962 715 443.76 715C457.559 715 469.953 710.859 478.838 704.285C487.725 697.71 492.971 688.827 492.971 679.24C492.971 669.654 487.725 660.771 478.838 654.196C469.953 647.622 457.559 643.48 443.76 643.48C429.962 643.48 417.568 647.622 408.682 654.196Z" fill="#3C4D56"/><path fill-rule="evenodd" clip-rule="evenodd" d="M506.974 614.212C510.676 613.1 514.58 615.199 515.692 618.902C516.804 622.604 514.705 626.507 511.002 627.62L509.305 621.971C511.002 627.62 511.003 627.62 511.002 627.62L510.683 627.716C510.475 627.778 510.168 627.87 509.772 627.988C508.98 628.225 507.833 628.568 506.408 628.992C503.559 629.839 499.6 631.011 495.155 632.312C486.288 634.908 475.418 638.036 467.603 640.106C465.089 640.771 463.942 641.487 463.196 642.2C462.382 642.978 461.45 644.323 460.314 647.258C459.158 650.244 458.024 654.228 456.464 659.946C456.267 660.667 456.065 661.412 455.856 662.18C454.439 667.39 452.724 673.699 450.468 681.245C449.36 684.949 445.46 687.054 441.756 685.947C438.052 684.839 435.947 680.939 437.055 677.235C439.257 669.867 440.927 663.728 442.343 658.519C442.553 657.746 442.758 656.994 442.958 656.261C444.476 650.697 445.794 645.987 447.258 642.204C448.742 638.371 450.596 634.875 453.526 632.076C456.525 629.212 460.081 627.615 464.019 626.572C471.643 624.553 482.361 621.47 491.222 618.876C495.643 617.582 499.583 616.416 502.417 615.572C503.834 615.151 504.975 614.81 505.76 614.576C506.153 614.458 506.457 614.367 506.663 614.305L506.974 614.212C506.974 614.212 506.974 614.212 508.466 619.177L506.974 614.212Z" fill="#2C3D46"/><path d="M553.158 611.954C554.254 602.06 541.454 587.771 525.197 585.971C506.231 583.871 497.082 597.081 496.195 605.091C495.66 609.921 506.662 631.698 514.672 632.585C522.683 633.472 552.871 614.546 553.158 611.954Z" fill="#41535C"/><path fill-rule="evenodd" clip-rule="evenodd" d="M521.429 606.173C519.854 606.04 518.571 606.289 518.175 606.41C514.427 607.556 510.46 605.447 509.314 601.699C508.168 597.952 510.277 593.985 514.025 592.839C517.701 591.715 526.621 590.668 533.991 596.266C537.112 598.636 537.72 603.087 535.35 606.208C532.979 609.329 528.528 609.938 525.407 607.567C524.327 606.747 522.951 606.302 521.429 606.173Z" fill="#4A5A62"/></svg>