<svg width="1080" height="1080" viewBox="0 0 1080 1080" fill="none" xmlns="http://www.w3.org/2000/svg"><path d="M542.058 490.992C645.019 490.992 728.485 555.98 728.485 636.146C728.485 716.312 645.019 781.3 542.058 781.3C439.097 781.3 355.631 716.312 355.631 636.146C355.631 555.98 439.097 490.992 542.058 490.992Z" fill="#1A2628"/><path d="M551.732 483.846C551.732 483.846 574.931 528.258 609.044 592.776C643.157 657.294 654.349 717.197 654.349 717.197C660.76 729.384 677.144 731.811 686.705 721.991C732.64 674.809 738.256 607.113 706.653 547.048C675.051 486.981 631.09 443.484 566.132 454.511C552.612 456.806 545.321 471.66 551.732 483.846Z" fill="#2C3D46"/><path d="M521.832 483.846C521.832 483.846 492.622 539.99 464.667 592.488C436.712 644.986 402.207 711.193 402.207 711.193C395.795 723.379 377.264 727.513 369.851 715.985C339.024 668.049 338.305 604.106 369.91 544.042C401.514 483.977 442.477 443.481 507.434 454.511C520.954 456.806 528.244 471.66 521.832 483.846Z" fill="#2C3D46"/><path d="M485.446 325.254C500.281 330.542 515.824 334.059 536.492 334.059C557.159 334.059 572.702 330.542 587.537 325.254C601.079 320.426 614.031 315.809 629.754 315.809C682.467 315.809 699.362 374.942 698.686 394.372V532.745C698.686 667.772 588.867 704.232 536.492 705.584C484.116 704.232 374.297 667.772 374.297 532.745V394.372C373.621 374.942 390.516 315.809 443.229 315.809C458.952 315.809 471.904 320.426 485.446 325.254Z" fill="#2C3D46"/><path d="M624.556 410.348C615.433 410.348 586.268 481.827 539.89 481.827C494.146 481.827 470.298 412.502 455.853 412.502C442.674 412.502 445.842 431.893 446.476 438.862C441.625 434.869 434.697 427.815 429.369 426.124C424.042 424.433 420.372 435.818 420.372 441.773C420.372 444.181 420.626 445.328 422.273 451.41C417.078 456.226 391.38 465.096 391.38 505.264C391.38 586.742 434.21 605.749 469.31 605.749C497.39 605.749 513.53 586.826 517.078 577.365H560.038C563.755 586.953 579.729 606.129 613.892 606.129C670.407 606.129 685.739 547.587 685.739 505.264C685.739 471.406 662.022 453.565 656.235 448.876C656.826 447.862 658.009 447.906 658.009 439.999C658.009 430.116 653.067 423.088 649.139 423.088C645.211 423.088 640.269 428.345 634.567 433.794C634.567 420.362 633.68 410.348 624.556 410.348Z" fill="#3C4D56"/><path d="M505.012 528.442C505.012 497.678 482 471.656 450.226 471.656C426.848 471.656 413.374 483.819 413.374 503.882C413.374 517.547 413.374 513.753 413.374 523.724C413.374 546.495 426.505 581.711 463.49 585.837C493.868 589.226 505.012 562.212 505.012 549.565V528.442ZM571.246 528.442C571.246 497.678 594.257 471.656 626.032 471.656C649.41 471.656 662.884 483.819 662.884 503.882C662.884 517.547 662.884 513.753 662.884 523.724C662.884 546.495 649.753 581.711 612.768 585.837C582.39 589.226 571.246 562.212 571.246 549.565V528.442Z" fill="#4A5A62"/><path d="M493.776 538.149C492.616 516.186 486.501 500.498 470.251 500.918C452.209 501.384 449.529 511.098 450.583 532.221C451.485 550.299 458.501 563.196 474.987 562.895C487.795 562.661 494.806 557.645 493.776 538.149ZM580.835 536.064C580.668 515.748 588.845 501.182 604.421 501.374C619.031 501.554 624.493 507.471 623.951 528.677C623.337 552.707 614.961 563.044 599.212 562.856C584.25 562.677 580.981 553.823 580.835 536.064Z" fill="#131F24"/><path d="M463.177 497.533C466.498 500.025 468.646 503.995 468.646 508.467C468.646 516.012 462.529 522.129 454.984 522.129C450.926 522.129 447.282 520.36 444.78 517.551C442.629 515.137 460.894 495.82 463.177 497.533ZM590.026 497.736C594.513 499.976 597.594 504.611 597.594 509.967C597.594 517.512 591.477 523.629 583.932 523.629C579.263 523.629 578.391 522.412 575.927 518.838C574.409 516.637 588.192 496.82 590.026 497.736Z" fill="#4A5A62"/><path fill-rule="evenodd" clip-rule="evenodd" d="M537.851 553.258C551.244 553.258 562.101 564.115 562.101 577.508V578.539C562.101 591.932 551.244 602.789 537.851 602.789C524.458 602.789 513.601 591.932 513.601 578.539V577.508C513.601 564.115 524.458 553.258 537.851 553.258Z" fill="#3C4D56"/><path d="M569.272 574.735C569.272 564.78 553.983 552.098 537.627 552.098C518.545 552.098 506.93 566.676 506.93 574.735C506.93 579.595 529.568 595.476 537.627 595.476C545.687 595.476 569.272 577.343 569.272 574.735Z" fill="#41535C"/><path fill-rule="evenodd" clip-rule="evenodd" d="M537.08 571.902C535.504 572.033 534.28 572.491 533.909 572.677C530.404 574.43 526.142 573.009 524.389 569.504C522.636 565.998 524.057 561.736 527.562 559.983C530.999 558.265 539.622 555.749 547.82 560.045C551.291 561.864 552.631 566.152 550.812 569.623C548.993 573.095 544.705 574.435 541.234 572.616C540.032 571.986 538.601 571.776 537.08 571.902Z" fill="#4A5A62"/><path d="M738.573 716.037C750.988 703.106 770.771 686.387 752.599 668.365L736.053 653.55C744.618 614.989 737.642 607.208 699.023 604.865C683.931 568.363 673.754 565.975 640.769 586.215C607.466 564.959 597.774 568.875 582.353 604.352C542.889 606.05 537.185 614.812 544.906 652.716C513.547 676.739 513.895 687.197 541.974 713.809C530.07 751.49 536.338 759.838 574.618 765.542C586.462 803.236 596.405 806.462 631.023 789.202C662.349 813.252 672.338 810.225 690.794 776.228C740.3 778.709 733.607 761.947 732.342 721.562L738.573 716.037Z" fill="#41535C"/><path fill-rule="evenodd" clip-rule="evenodd" d="M589.682 641.346C589.821 637.206 593.29 633.963 597.429 634.102L612.141 634.595C614.129 634.662 616.009 635.516 617.368 636.969C618.727 638.421 619.452 640.355 619.386 642.343L617.818 689.053C617.679 693.193 614.211 696.436 610.071 696.297L595.359 695.804C593.371 695.737 591.491 694.884 590.132 693.431C588.774 691.978 588.048 690.045 588.115 688.057L589.682 641.346ZM663.331 636.353C666.513 633.702 671.242 634.132 673.893 637.315L703.806 673.225C706.457 676.408 706.026 681.136 702.844 683.788L691.534 693.21C690.006 694.483 688.034 695.097 686.053 694.917C684.072 694.736 682.244 693.776 680.971 692.248L651.057 656.337C649.784 654.809 649.17 652.837 649.35 650.856C649.531 648.875 650.491 647.047 652.019 645.774L663.331 636.353ZM610.015 737.03C609.243 732.961 611.915 729.036 615.985 728.263L661.902 719.549C663.857 719.178 665.878 719.598 667.522 720.718C669.166 721.838 670.298 723.565 670.669 725.519L673.414 739.981C674.186 744.051 671.513 747.976 667.444 748.748L621.526 757.463C619.572 757.834 617.551 757.413 615.906 756.293C614.262 755.174 613.13 753.447 612.759 751.493L610.015 737.03Z" fill="#4A5A62"/><path d="M343.009 656.009C340.536 638.254 334.316 613.11 359.603 609.169L381.694 606.872C397.368 570.614 407.582 568.402 440.238 589.15C473.867 568.434 483.511 572.468 498.361 608.206C537.801 610.517 543.356 619.373 535.043 657.152C566.013 681.671 565.496 692.112 537.015 718.287C548.328 756.135 541.913 764.402 503.564 769.492C491.11 806.994 481.137 810.081 446.785 792.254C415.087 815.842 405.141 812.623 387.222 778.342C347.743 779.453 341.428 771.143 346.415 732.783C304.86 705.761 320.109 696.11 344.816 664.139L343.009 656.009Z" fill="#3C4D56"/><path fill-rule="evenodd" clip-rule="evenodd" d="M452.672 631.588C454.319 632.703 455.455 634.427 455.831 636.381L458.611 650.837C459.393 654.905 456.729 658.836 452.662 659.618L406.765 668.443C404.812 668.819 402.789 668.403 401.142 667.288C399.496 666.172 398.359 664.448 397.984 662.494L395.204 648.038C394.422 643.97 397.086 640.039 401.153 639.257L447.05 630.432C449.003 630.056 451.026 630.472 452.672 631.588ZM486.03 668.861C488.546 665.571 493.253 664.943 496.543 667.458L508.238 676.399C509.818 677.607 510.854 679.393 511.117 681.365C511.38 683.337 510.849 685.332 509.641 686.912L481.254 724.042C480.045 725.622 478.259 726.657 476.287 726.921C474.316 727.184 472.32 726.653 470.74 725.444L459.046 716.503C455.756 713.987 455.128 709.281 457.644 705.99L486.03 668.861ZM393.65 700.709C396.826 698.051 401.556 698.47 404.215 701.646L434.215 737.485C435.492 739.01 436.111 740.98 435.935 742.961C435.759 744.943 434.804 746.773 433.278 748.05L421.99 757.499C418.814 760.157 414.084 759.738 411.425 756.562L381.425 720.723C380.148 719.198 379.53 717.228 379.706 715.247C379.881 713.265 380.837 711.435 382.362 710.158L393.65 700.709Z" fill="#41535C"/></svg>