<svg width="1080" height="1080" viewBox="0 0 1080 1080" fill="none" xmlns="http://www.w3.org/2000/svg"><path d="M540.564 567.07C627.409 559.266 702.596 606.171 708.496 671.835C714.396 737.499 648.777 797.056 561.932 804.86C475.087 812.664 399.901 765.759 394.001 700.095C388.101 634.431 453.719 574.874 540.564 567.07Z" fill="#1A2628"/><path d="M377.931 683.077L398.381 426.995C399.477 413.269 413.581 404.587 426.236 409.849C487.037 435.137 525.416 497.782 520.013 565.438C514.611 633.095 466.771 688.937 402.718 704.374C389.387 707.587 376.835 696.803 377.931 683.077Z" fill="#2C3D46"/><path d="M657.722 401.115L719.937 623.01C723.273 634.904 714.092 646.587 701.808 646.082C642.787 643.655 591.052 602.828 574.616 544.204C558.178 485.579 581.126 423.737 630.253 390.876C640.478 384.037 654.387 389.221 657.722 401.115Z" fill="#2C3D46"/><path fill-rule="evenodd" clip-rule="evenodd" d="M509.362 651.86C513.81 638.945 527.799 631.991 540.779 636.241L653.779 673.241C666.901 677.538 674.055 691.658 669.759 704.779C665.462 717.901 651.342 725.055 638.221 720.759L548.62 691.421L530.638 743.64C526.142 756.695 511.915 763.633 498.86 759.138C485.805 754.642 478.867 740.415 483.362 727.36L509.362 651.86Z" fill="#3C4D56"/><path d="M500.712 379.178C485.764 379.373 472.127 371.436 438.986 373.723C391.5 377 382.201 419.75 382.571 448.136C382.571 448.136 383.834 517.42 388.417 576.21C393 635 449.276 739.586 555.388 735.043C661.5 730.5 712.5 649.5 707.811 501.471C703.511 365.711 635.074 343.612 595.515 344.127C555.956 344.642 515.66 378.983 500.712 379.178Z" fill="#2C3D46"/><path d="M562.064 696.776C567.513 696.273 587.555 693.981 595.481 692.708C600.087 692.033 600.299 694.704 599.945 696.027C599.497 697.703 592.433 707.766 574.995 707.935C557.555 708.104 556.615 697.279 562.064 696.776ZM627.962 684.872C628.04 682.297 644.343 674.453 658.58 665.39C660.705 664.037 662.443 665.471 661.371 669.54C657.543 684.068 644.326 688.483 639.898 689.231C635.809 689.922 627.868 687.987 627.962 684.872ZM598.383 709.841C594.632 711.084 599.301 716.533 605.984 717.11C624.48 718.708 632.447 704.594 633.054 702.146C633.419 700.671 634.205 697.064 631.789 697.885C625.414 700.053 615.712 704.101 598.383 709.841Z" fill="#3C4D56"/><path d="M518.651 492.809C518.967 489.199 520.014 475.497 528.89 476.274C537.614 477.037 566.055 526.397 617.802 530.924C657.364 534.385 656.999 446.5 673.272 443.002C682.982 440.914 686.362 459.709 687.792 467.615C690.115 461.856 695.555 450.257 698.737 449.929C714.14 451.276 717.574 519.237 715.059 548.393C712.633 576.529 704 622 674.54 625.627C658.354 627.62 652.718 618.878 652.718 618.878L612.088 620.798C603.157 639.721 576.499 668.5 531.022 663.752C470.348 657.418 463.495 610.588 464.018 578.279C464.501 548.501 478.001 531.5 489.438 525.574L490.714 510.983C491.543 501.506 495.853 490.363 501.268 490.837C505.601 491.216 514.097 501.556 518.304 507.179C518.314 503.592 518.399 495.697 518.651 492.809Z" fill="#3C4D56"/><path d="M493 578.439C494.5 565 498.933 537.978 544.295 536.75C572 536 595 558.767 595 576.942C595 581.75 595 595.249 595 600.414C595 621.041 576.018 643.43 543.467 643.43C511 643.43 500.432 623.995 496.5 616.073C491.5 605.999 491.5 591.88 493 578.439ZM656.25 551.939C656.25 524.071 665 507.499 680.898 500.249C694.754 493.93 699.75 509.767 699.75 527.941C699.75 532.749 699.75 539.249 699.75 544.414C699.75 565.041 693.75 594.999 677.773 601.929C660.184 609.558 656.25 596 656.25 586.574C656.25 577.147 656.25 551.939 656.25 551.939Z" fill="#4A5A62"/><path d="M539.523 580.416C539.523 556.512 546.749 546.75 563.641 548.621C587.718 551.288 585.184 575.325 585.184 584.801C585.184 607.066 576.284 615.484 562.583 614.806C541.249 613.75 539.523 597.5 539.523 580.416ZM661.904 553.916C661.904 530.012 666.863 520.871 674.938 520.871C686.001 520.871 684.411 537.575 684.411 547.051C684.411 569.316 676.89 576.306 670.977 576.306C665.064 576.306 661.904 570.003 661.904 553.916Z" fill="#131F24"/><path d="M534.342 578.75C550.25 579.25 557 573.5 558.838 561.058C559.616 555.792 558.25 545 551.037 544.397C538.904 543.25 520.682 578.321 534.342 578.75ZM661.302 543.815C665.213 543.815 668.384 538.275 668.384 531.44C668.384 527.527 667.344 524.038 665.722 521.77C662.25 521 657.391 543.815 661.302 543.815Z" fill="#4A5A62"/><path d="M631 607.454C642.299 608.443 650.656 618.403 649.668 629.702C648.679 641.001 638.719 649.359 627.42 648.37C616.121 647.382 607.764 637.421 608.752 626.122C609.741 614.824 619.701 606.466 631 607.454Z" fill="#3C4D56"/><path d="M657.169 618.347C658.038 608.419 647.001 599.75 633.085 600.499C615.595 601.44 606.922 617.472 606.317 624.392C605.862 629.588 634.224 634.836 646.927 636.708C648.419 636.928 651.447 637.149 652.394 635.974C656 631.5 656.565 625.257 657.169 618.347Z" fill="#41535C"/><path fill-rule="evenodd" clip-rule="evenodd" d="M632.379 612.437C632.378 612.437 632.377 612.437 632.379 612.437C629.695 613.086 626.993 611.436 626.344 608.751C625.695 606.067 627.345 603.365 630.029 602.717C631.967 602.248 634.619 602.273 637.09 602.608C639.65 602.955 642.713 603.729 645.4 605.252C647.802 606.614 648.645 609.666 647.283 612.068C645.921 614.47 642.869 615.313 640.467 613.951C639.249 613.261 637.532 612.76 635.745 612.517C634.883 612.4 634.09 612.355 633.445 612.361C633.125 612.363 632.863 612.378 632.664 612.398C632.482 612.416 632.392 612.434 632.379 612.437Z" fill="#4A5A62"/></svg>