<svg width="1080" height="1080" viewBox="0 0 1080 1080" fill="none" xmlns="http://www.w3.org/2000/svg"><path d="M726.281 622.253C726.281 701.469 643.805 765.686 542.066 765.686C440.327 765.686 357.851 701.469 357.851 622.253C357.851 543.037 440.327 478.82 542.066 478.82C643.805 478.82 726.281 543.037 726.281 622.253Z" fill="#1A2628"/><path d="M461.81 651.115C471.028 639.378 488.016 637.336 499.753 646.555V646.555C511.49 655.773 513.531 672.761 504.313 684.498L492.962 698.949C483.744 710.686 466.756 712.728 455.019 703.51V703.51C443.282 694.291 441.241 677.304 450.459 665.567L461.81 651.115Z" fill="#37444A"/><path d="M619.907 651.115C610.689 639.378 593.701 637.336 581.964 646.555V646.555C570.227 655.773 568.186 672.761 577.404 684.498L588.755 698.949C597.973 710.686 614.961 712.728 626.698 703.51V703.51C638.435 694.291 640.476 677.304 631.258 665.567L619.907 651.115Z" fill="#37444A"/><path d="M489.375 324.947C504.034 330.172 519.392 333.647 539.815 333.647C560.237 333.647 575.596 330.172 590.254 324.947C603.636 320.176 616.434 315.614 631.97 315.614C684.059 315.614 700.754 374.046 700.086 393.245V529.976C700.086 663.402 591.569 699.43 539.815 700.765C488.06 699.43 379.544 663.402 379.544 529.976V393.245C378.876 374.046 395.571 315.614 447.659 315.614C463.195 315.614 475.993 320.176 489.375 324.947Z" fill="#2C3D46"/><path d="M331.925 593.93C331.925 581.242 367.091 516.346 384.675 481.93L414.425 590.93C410.258 601.013 395.475 621.18 369.675 621.18C337.425 621.18 331.925 603.305 331.925 593.93Z" fill="#2C3D46"/><path d="M747.706 593.93C747.706 581.242 712.539 516.346 694.956 481.93L665.206 590.93C669.373 601.013 684.156 621.18 709.956 621.18C742.206 621.18 747.706 603.305 747.706 593.93Z" fill="#2C3D46"/><path d="M625.835 428.793C616.82 428.793 588.001 499.424 542.173 499.424C496.972 499.424 473.406 430.922 459.132 430.922C446.11 430.922 449.24 450.082 449.867 456.969C445.074 453.023 438.227 446.053 432.963 444.382C427.699 442.711 424.073 453.961 424.073 459.846C424.073 462.225 424.323 463.358 425.951 469.368C420.817 474.126 395.425 482.891 395.425 522.583C395.425 603.095 437.746 621.876 472.43 621.876C500.177 621.876 516.126 603.178 519.632 593.829H562.082C565.755 603.303 581.54 622.252 615.297 622.252C671.141 622.252 686.292 564.404 686.292 522.583C686.292 489.127 662.856 471.497 657.138 466.864C657.722 465.862 658.891 465.906 658.891 458.093C658.891 448.326 654.008 441.382 650.126 441.382C646.244 441.382 641.361 446.576 635.727 451.961C635.727 438.688 634.85 428.793 625.835 428.793Z" fill="#3C4D56"/><path d="M525.665 668.255C525.665 664.271 497.555 658.939 486.662 658.939C476.52 658.939 490.167 676.281 506.383 676.281C521.783 676.281 525.665 670.891 525.665 668.255Z" fill="#3C4D56"/><path d="M556.051 668.255C556.051 664.271 584.161 658.939 595.054 658.939C605.196 658.939 591.548 676.281 575.333 676.281C559.932 676.281 556.051 670.891 556.051 668.255Z" fill="#3C4D56"/><path d="M527.668 684.188C522.548 683.298 520.155 684.67 520.155 687.574C520.155 692.411 532.489 694.937 541.191 694.937C549.893 694.937 561.475 690.96 561.475 687.574C561.475 684.866 559.112 683.98 557.531 684.188C549.142 685.296 532.238 684.983 527.668 684.188Z" fill="#3C4D56"/><path d="M565.198 598.867C565.198 612.113 554.46 622.851 541.214 622.851C527.968 622.851 517.229 612.113 517.229 598.867C517.229 585.621 527.968 574.883 541.214 574.883C554.46 574.883 565.198 585.621 565.198 598.867Z" fill="#3C4D56"/><path d="M572.658 594.412C572.658 584.574 557.55 572.043 541.388 572.043C522.533 572.043 511.056 586.448 511.056 594.412C511.056 599.214 533.425 614.907 541.388 614.907C549.352 614.907 572.658 596.988 572.658 594.412Z" fill="#41535C"/><path fill-rule="evenodd" clip-rule="evenodd" d="M540.498 591.949C538.94 592.078 537.732 592.531 537.366 592.714C533.902 594.446 529.69 593.042 527.958 589.578C526.226 586.114 527.63 581.902 531.094 580.171C534.491 578.472 543.01 575.988 551.11 580.231C554.54 582.028 555.865 586.265 554.068 589.696C552.271 593.126 548.033 594.45 544.603 592.654C543.416 592.032 542.002 591.824 540.498 591.949Z" fill="#4A5A62"/><path d="M508.134 547.262C508.134 516.862 485.395 491.148 453.998 491.148C430.897 491.148 417.583 503.167 417.583 522.993C417.583 536.496 417.583 532.746 417.583 542.599C417.583 565.101 430.559 599.898 467.105 603.976C497.122 607.325 508.134 580.631 508.134 568.134V547.262Z" fill="#4A5A62"/><path d="M497.354 560.6C497.354 534.524 487.9 524.553 472.507 524.553C451.418 524.553 454.448 542.774 454.448 553.111C454.448 577.399 468.787 585.024 480.059 585.024C491.331 585.024 497.354 578.149 497.354 560.6Z" fill="#131F24"/><path d="M469.809 533.898C469.809 541.354 463.764 547.398 456.309 547.398C448.853 547.398 442.809 541.354 442.809 533.898C442.809 526.443 448.853 520.398 456.309 520.398C463.764 520.398 469.809 526.443 469.809 533.898Z" fill="#4A5A62"/><path d="M573.583 547.262C573.583 516.862 596.321 491.148 627.719 491.148C650.82 491.148 664.134 503.167 664.134 522.993C664.134 536.496 664.134 532.746 664.134 542.599C664.134 565.101 651.158 599.898 614.612 603.976C584.594 607.325 573.583 580.631 573.583 568.134V547.262Z" fill="#4A5A62"/><path d="M584.364 560.6C584.364 534.524 593.818 524.553 609.211 524.553C630.3 524.553 627.27 542.774 627.27 553.111C627.27 577.399 612.931 585.024 601.659 585.024C590.387 585.024 584.364 578.149 584.364 560.6Z" fill="#131F24"/><path d="M575.909 533.898C575.909 541.354 581.953 547.398 589.409 547.398C596.865 547.398 602.909 541.354 602.909 533.898C602.909 526.443 596.865 520.398 589.409 520.398C581.953 520.398 575.909 526.443 575.909 533.898Z" fill="#4A5A62"/></svg>