<svg width="1080" height="1080" viewBox="0 0 1080 1080" fill="none" xmlns="http://www.w3.org/2000/svg"><path d="M567.277 527.607C652.104 535.69 716.198 597.379 710.435 665.395C704.672 733.409 631.233 781.993 546.406 773.911C461.579 765.829 397.484 704.138 403.249 636.124C409.011 568.108 482.45 519.524 567.277 527.607Z" fill="#1A2628"/><path d="M367.901 490.061C376.823 494.636 532.624 564.688 532.624 564.688C541.338 568.796 543.491 580.167 536.876 587.144C505.093 620.664 454.461 630.288 411.51 610.036C368.558 589.784 343.97 544.693 349.899 498.982C351.133 489.468 358.979 485.486 367.901 490.061Z" fill="#2C3D46"/><path d="M370.401 387.739L318.843 416.067L318.837 428.326L318.814 476.207L318.809 488.107L370.341 516.483L421.9 488.156L421.905 476.616L421.928 428.015L421.933 416.115L370.401 387.739Z" fill="#364650"/><path d="M370.762 387.129L370.744 424.21L392.789 436.371L422.5 415.505L370.762 387.129Z" fill="#3F515B"/><path d="M422.589 415.505L392.879 436.281L392.864 467.782L422.915 488.587L422.589 415.505Z" fill="#3F515B"/><path d="M348.223 467.581L318.873 488.088L370.701 516.913L370.718 479.832L348.223 467.581Z" fill="#3F515B"/><path d="M370.564 424.03L348.418 436.62L348.223 467.581L370.538 480.012L392.684 467.422L392.879 436.281L370.564 424.03Z" fill="#364650"/><path fill-rule="evenodd" clip-rule="evenodd" d="M370.56 423.412L393.421 435.963L393.223 467.737L370.541 480.631L347.681 467.897L347.88 436.305L370.56 423.412ZM370.569 424.649L348.956 436.935L348.765 467.265L370.535 479.392L392.146 467.107L392.337 436.6L370.569 424.649Z" fill="#364650"/><path fill-rule="evenodd" clip-rule="evenodd" d="M368.648 384.548C369.741 383.948 371.065 383.948 372.157 384.55L423.689 412.926C424.852 413.567 425.575 414.789 425.574 416.117L425.54 488.157C425.539 489.485 424.816 490.707 423.652 491.347L372.094 519.674C371.001 520.274 369.676 520.274 368.584 519.672L317.052 491.297C315.889 490.656 315.167 489.433 315.167 488.105L315.201 416.065C315.202 414.737 315.925 413.515 317.089 412.876L368.648 384.548ZM322.482 418.221L322.45 485.956L370.342 512.328L418.259 486.001L418.291 418.267L370.399 391.895L322.482 418.221Z" fill="#364650"/><path fill-rule="evenodd" clip-rule="evenodd" d="M361.889 385.427C367.191 382.514 373.616 382.517 378.916 385.435L418.606 407.291C424.249 410.398 427.753 416.331 427.75 422.773L427.722 481.503C427.719 487.946 424.21 493.875 418.564 496.977L378.853 518.795C373.551 521.708 367.125 521.705 361.826 518.787L322.136 496.931C316.493 493.824 312.989 487.891 312.992 481.449L313.019 422.719C313.023 416.277 316.532 410.347 322.178 407.245M322.178 407.245L361.889 385.427ZM376.427 389.955C372.675 387.889 368.127 387.887 364.374 389.949L324.663 411.767C320.666 413.963 318.181 418.161 318.179 422.721L318.152 481.452C318.149 486.012 320.63 490.212 324.625 492.411L364.315 514.267C368.066 516.333 372.615 516.335 376.368 514.273L416.079 492.455C420.076 490.259 422.56 486.061 422.563 481.501L422.59 422.77C422.592 418.21 420.112 414.01 416.117 411.811L376.427 389.955Z" fill="#364750"/><path d="M363.505 395.709L329.207 414.356C326.005 416.097 325.75 420.597 328.734 422.689L345.339 434.335C346.887 435.421 348.921 435.521 350.568 434.593L368.25 424.636C369.794 423.767 370.75 422.133 370.751 420.36L370.76 400.025C370.762 396.3 366.778 393.929 363.505 395.709Z" fill="#4A5A62"/><path d="M373.601 479.121L389.802 469.872C391.708 468.784 394.069 468.884 395.876 470.129L410.671 480.325C414.167 482.733 413.908 487.978 410.191 490.03L379.186 507.147C375.378 509.25 370.71 506.493 370.712 502.143L370.72 484.08C370.721 482.03 371.821 480.137 373.601 479.121Z" fill="#2C3D46"/><path d="M679.769 510.138L762.827 669.536C767.279 678.079 762.113 688.436 752.625 689.988C707.038 697.446 660.904 674.473 638.96 632.361C617.016 590.248 624.722 539.47 657.1 506.663C663.839 499.835 675.317 501.594 679.769 510.138Z" fill="#2C3D46"/><path fill-rule="evenodd" clip-rule="evenodd" d="M500.799 664.103C509.444 676.59 506.33 693.721 493.842 702.366L487.342 706.866C474.855 715.511 457.724 712.396 449.079 699.909C440.434 687.422 443.548 670.291 456.036 661.646L462.536 657.146C475.023 648.501 492.154 651.615 500.799 664.103ZM598.563 673.038C612.629 667.308 628.676 674.065 634.407 688.13L637.157 694.88C642.887 708.946 636.13 724.993 622.065 730.723C607.999 736.454 591.952 729.697 586.221 715.632L583.471 708.882C577.741 694.816 584.498 678.769 598.563 673.038Z" fill="#3C4D56"/><path d="M699.597 348.308C726.204 350.868 765.156 370.148 759.233 431.71C752.783 498.75 737.542 731.069 557.551 713.753C397.387 698.344 408.661 520.931 411.673 489.628C421.661 385.808 455.513 296.656 551.246 305.866C596.113 310.182 625.071 348.51 642.027 350.141C660.287 351.898 672.99 345.748 699.597 348.308Z" fill="#2C3D46"/><path d="M519.887 675.752C515.585 676.336 500.428 675.852 494.341 663.692C492.181 660.245 493.371 657.671 495.722 658.309C500.87 660.451 506.499 662.584 511.411 663.678C521.293 665.88 529.795 665.91 530.337 667.481C531.32 670.331 523.859 675.213 519.887 675.752ZM462.45 652.677C456.939 652.677 446.84 647.836 443.015 633.826C441.944 629.902 443.611 628.497 445.677 629.787C449.754 633.368 450.741 634.279 456.103 637.622C465.132 643.307 473.886 646.678 473.952 648.359C474.07 651.371 466.409 653.309 462.45 652.677ZM462.029 660.982C459.714 660.129 460.384 663.633 460.7 665.068C461.226 667.451 468.574 681.291 486.492 680.208C492.966 679.816 497.615 674.663 494.02 673.372C487.144 671.87 480.577 669.86 475.697 667.917C469.717 665.536 465.393 662.224 462.029 660.982Z" fill="#3C4D56"/><path d="M433.209 405.35C436.247 405.642 437.545 411.756 438.841 417.841C439.504 420.955 440.168 424.063 441.058 426.377C443.763 417.423 451.794 400.292 460.99 401.177C465.585 401.619 468.02 414.768 471.062 431.194C475.834 456.963 482.101 490.8 500.544 496.297C532.657 505.869 573.459 472.894 593.881 456.39C600.508 451.035 604.988 447.413 606.33 447.542C617.286 448.596 615.951 467.95 611.054 483.275C623.401 472.616 633.072 465.121 635.766 467.223C638.46 469.325 646.661 479.856 640.59 501.913C653.858 514.51 664.402 530.793 660.161 574.878C655.92 618.963 619.704 647.861 572.228 643.294C534.247 639.64 511.075 607.573 504.237 591.997L462.501 587.981C459.829 589.304 452.032 591.713 442.224 590.769C433.204 589.901 418.044 575.909 411.251 544.947C409.284 519.386 410.814 498.562 411.673 489.631C414.369 461.608 418.805 434.655 425.724 410.415C427.905 407.555 430.547 405.094 433.209 405.35Z" fill="#3C4D56"/><path d="M620.498 574.08C619.093 590.048 605.85 620.981 564.113 616.966C539.462 614.594 511.276 601.088 514.852 563.916L516.86 543.048C518.19 529.223 533.892 502.826 574.716 506.754C609.54 510.104 624.137 536.256 622.506 553.212L620.498 574.08Z" fill="#4A5A62"/><path d="M463.423 552.727C462.306 564.335 451.048 567.875 440.759 566.885C430.469 565.895 413.487 548.728 418.945 491.992C421.572 471.46 432.44 463.145 440.616 463.932C451.466 464.976 468.013 479.228 465.416 506.226L463.423 552.727Z" fill="#4A5A62"/><path d="M414.397 538.548C414.397 538.548 419.586 589.025 490.784 577.925C569.087 665.22 628.825 603.787 628.825 603.787C628.825 603.787 605.68 588.385 566.878 582.509C511.736 574.159 501.52 586.96 483.957 569.347C466.457 564.847 463.384 550.296 440.236 541.717C413.624 531.855 414.397 538.548 414.397 538.548Z" fill="#3C4D56"/><path d="M478.814 573.251C490.935 573.251 500.762 583.428 500.762 595.982C500.762 608.536 490.935 618.713 478.814 618.713C466.693 618.713 456.866 608.536 456.866 595.982C456.866 583.428 466.693 573.251 478.814 573.251Z" fill="#3C4D56"/><path d="M454.441 604.328C455.146 605.648 456.596 606.326 458.082 606.148C470.698 604.638 504.955 598.046 504.955 593.161C504.955 586.085 492.638 566.3 474.556 566.3C459.619 566.3 450.839 572.983 449.66 582.155C448.858 588.395 451.237 598.328 454.441 604.328Z" fill="#41535C"/><path fill-rule="evenodd" clip-rule="evenodd" d="M468.711 585.505C468.698 585.51 468.694 585.511 468.7 585.508C465.223 587.197 461.034 585.748 459.345 582.27C457.656 578.793 459.106 574.604 462.584 572.915C465.876 571.316 470.403 570.952 473.647 570.952C475.459 570.952 477.311 571.067 479.002 571.313C480.521 571.534 482.544 571.945 484.297 572.847C487.735 574.616 489.088 578.836 487.319 582.274C485.579 585.658 481.462 587.022 478.055 585.377C478.049 585.382 477.737 585.277 476.986 585.167C476.071 585.034 474.903 584.952 473.647 584.952C472.392 584.952 471.185 585.034 470.189 585.182C469.243 585.322 468.793 585.477 468.711 585.505Z" fill="#4A5A62"/><path d="M455.518 472.264C456.309 475.26 456.429 478.482 455.745 481.72C453.55 492.101 450.497 511.272 449.865 518.714C448.907 529.995 438.985 538.364 427.704 537.406C424.779 537.157 422.051 536.307 419.63 534.986C417.747 524.179 417.203 510.101 418.945 491.992C421.572 471.46 432.44 463.145 440.616 463.932C445.191 464.372 450.78 467.161 455.518 472.264Z" fill="#131F24"/><path d="M563.765 506.419C566.448 511.306 567.129 517.25 565.206 522.899L551.436 563.353C547.958 573.569 537.157 579.34 526.732 576.551C521.498 575.151 517.259 571.835 514.6 567.539C514.65 566.357 514.733 565.15 514.852 563.917L516.86 543.049C518.064 530.535 531.042 507.723 563.765 506.419Z" fill="#131F24"/></svg>