<svg width="1080" height="1080" viewBox="0 0 1080 1080" fill="none" xmlns="http://www.w3.org/2000/svg"><path d="M549.468 503.816C652.357 503.816 735.895 568.86 735.895 648.97C735.895 729.081 652.357 794.124 549.468 794.124C446.579 794.124 363.041 729.081 363.041 648.97C363.041 568.86 446.579 503.816 549.468 503.816Z" fill="#1A2628"/><path fill-rule="evenodd" clip-rule="evenodd" d="M468.397 676.436C473.021 663.426 487.316 656.627 500.326 661.251L521.576 668.803C534.586 673.427 541.384 687.721 536.761 700.731C532.137 713.741 517.842 720.54 504.832 715.916L483.582 708.364C470.572 703.741 463.774 689.446 468.397 676.436Z" fill="#3C4D56"/><path fill-rule="evenodd" clip-rule="evenodd" d="M708.298 641.256C720.071 648.469 723.769 663.86 716.556 675.634C709.319 687.446 699.704 694.824 692.366 699.157C688.642 701.356 685.298 702.895 682.772 703.921C681.501 704.438 680.413 704.834 679.559 705.125C679.131 705.271 678.76 705.391 678.451 705.488C678.296 705.536 678.157 705.579 678.033 705.616C677.972 705.634 677.914 705.651 677.861 705.667L677.784 705.69L677.73 705.705C677.705 705.712 677.713 705.71 677.713 705.71C664.442 709.522 650.594 701.855 646.782 688.584C643.011 675.459 650.471 661.768 663.475 657.782C663.555 657.754 663.719 657.693 663.954 657.598C664.603 657.334 665.681 656.848 666.941 656.104C669.57 654.551 672.168 652.374 673.92 649.514C681.133 637.741 696.524 634.044 708.298 641.256Z" fill="#3C4D56"/><path d="M310.438 588.557L553.789 506.234C566.833 501.822 580.377 511.353 580.538 525.057C581.311 590.902 538.91 650.897 474.618 672.646C410.324 694.397 340.132 672.493 300.658 619.739C292.442 608.76 297.394 592.97 310.438 588.557Z" fill="#2C3D46"/><path d="M658.36 440.43C683.558 485.771 727.411 557.709 735.073 569.3C742.456 581.997 734.972 592.446 721.287 593.2C655.537 596.818 593.766 557.05 569.258 493.758C558.711 466.524 548.671 391.584 570.954 380.188C600.457 365.101 648.319 422.362 658.36 440.43Z" fill="#2C3D46"/><path d="M508.41 336.662C546.148 324.117 542.675 308.124 570.124 298.004C626.475 277.228 654.328 334.584 659.045 353.444L697.264 486.435C734.559 616.209 639.082 681.583 589.118 697.348C538.407 710.515 422.788 705.807 385.494 576.032L347.275 443.042C341.258 424.555 334.379 371.973 391.827 348.495C425.366 334.788 480.706 345.871 508.41 336.662Z" fill="#2C3D46"/><path d="M593.162 656.055C591.447 652.407 563.407 659.62 553.43 664.309C544.14 668.674 564.103 678.684 578.955 671.705C593.061 665.077 594.297 658.47 593.162 656.055ZM620.992 642.978C619.278 639.329 642.731 622.348 652.708 617.659C661.997 613.295 656.961 635.052 642.109 642.031C628.003 648.659 622.127 645.393 620.992 642.978ZM601.854 669.788C596.782 671.176 595.181 673.463 596.431 676.123C598.513 680.553 612.836 680.514 620.684 676.519C630.7 671.422 635.734 661.441 634.277 658.34C633.111 655.859 630.565 656.064 629.207 656.935C622 661.56 606.382 668.549 601.854 669.788Z" fill="#3C4D56"/><path d="M683.908 439.959L697.264 486.435C702.845 505.854 705.452 523.831 705.685 540.415C700.285 561.473 687.057 579.346 660.95 586.849C628.116 596.285 607.468 582.268 601.247 574.079L574.338 581.401C573.541 591.473 557.857 619.819 530.869 627.575C497.135 637.27 450.721 630.833 428.217 552.524C418.903 520.117 433.085 503.905 440.046 495.948C441.378 494.426 442.445 493.206 443.033 492.232C439.77 486.842 437.379 481.909 436.715 479.595C435.07 473.872 437.281 465.816 442.868 465.97C447.133 466.087 453.154 468.948 458.329 471.407C459.937 472.17 461.462 472.895 462.828 473.487C462.628 472.971 462.39 472.384 462.13 471.739C459.096 464.241 452.896 448.915 464.56 445.563C469.554 444.128 478.599 450.585 490.181 458.852C510.792 473.565 539.436 494.013 567.583 485.924C598.462 477.05 606.125 438.4 610.834 414.65C612.922 404.116 614.43 396.513 617.124 395.739C625.893 393.219 629.512 402.598 633.222 415.508C633.671 414.739 634.111 413.975 634.544 413.224C637.948 407.315 640.92 402.156 644.27 401.194C648.045 400.108 654.736 405.499 657.466 414.997C659.301 421.383 658.782 422.603 658.399 423.505C658.326 423.677 658.258 423.837 658.212 424.018C658.447 424.118 658.707 424.227 658.989 424.345C663.542 426.252 674.054 430.655 683.908 439.959Z" fill="#3C4D56"/><path d="M546.935 547.195C538.437 517.628 509.134 498.973 478.596 507.749C456.128 514.206 446.536 529.618 452.077 548.901C455.852 562.034 454.804 558.388 457.558 567.971C463.848 589.857 486.196 620.075 522.881 613.825C553.013 608.693 556.263 579.651 552.769 567.496L546.935 547.195ZM611.053 515.724C603.633 484.87 616.844 455.558 643.751 451.119C663.548 447.853 677.891 458.17 682.731 478.292C686.027 491.996 685.112 488.191 687.516 498.191C693.009 521.028 690.383 558.182 660.058 567.486C635.151 575.129 619.198 549.594 616.148 536.909L611.053 515.724Z" fill="#4A5A62"/><path d="M619.823 465.127C621.687 462.804 623.778 460.708 626.085 458.876C640.328 456.475 644.774 471.835 647.698 481.934C647.944 482.784 648.179 483.597 648.409 484.358C655.721 508.635 646.516 517.995 637.335 521.395C627.897 524.888 617.411 523.505 611.312 500.662C610.473 497.522 609.834 494.599 609.379 491.881C609.427 491.442 609.478 491.006 609.535 490.571C611.141 491.219 613.005 491.521 615.147 491.396C623.259 490.922 628.032 484.461 627.018 476.744C626.354 471.684 623.519 467.383 619.823 465.127Z" fill="#131F24"/><path d="M501.088 545.571C493.969 515.736 484.855 510.891 469.858 515.106C469.665 515.16 469.474 515.216 469.285 515.272C470.901 517.089 472.053 519.36 472.514 521.928C473.849 529.355 468.91 536.456 461.484 537.791C460.062 538.046 458.653 538.072 457.294 537.895C457.871 542.09 458.968 546.932 460.473 552.503C466.847 576.099 478.032 579.267 488.651 576.323C499.644 573.275 504.723 560.801 501.088 545.571Z" fill="#131F24"/><path d="M697.984 501.494C693.299 489.422 628.874 525.469 600.952 564.704C602.396 591.32 710.289 586.958 697.984 501.494ZM574.581 567.562C574.581 567.562 502.83 683.863 449.06 583.415C455.727 580.656 536.806 554.169 574.581 567.562Z" fill="#3C4D56"/><path d="M585.584 558.227C596.592 554.257 609.117 560.515 613.159 571.94C615.938 579.835 626.939 595.788 621.212 597.892C618.748 598.798 614.017 599.555 609.826 600.688C598.529 603.741 578.44 601.797 573.099 586.06C569.203 574.584 574.576 562.198 585.584 558.227Z" fill="#3C4D56"/><path d="M628.842 581.668C630.726 587.293 629.051 594.373 621.487 596.419C614.945 598.174 609.647 593.955 608.648 588.042C607.649 582.128 611.001 576.515 616.915 575.516C622.828 574.517 626.94 575.995 628.842 581.668Z" fill="#2C3D46"/><path fill-rule="evenodd" clip-rule="evenodd" d="M623.309 578.347C621.961 577.706 620.045 577.523 617.331 577.981C612.998 578.713 610.305 582.843 611.113 587.625C611.897 592.265 615.891 595.33 620.836 594.005C623.883 593.18 625.571 591.428 626.397 589.43C627.26 587.345 627.255 584.8 626.472 582.463M623.309 578.347C624.563 578.944 625.683 580.109 626.472 582.463ZM625.457 573.832C628.212 575.143 630.1 577.554 631.213 580.873C632.314 584.161 632.413 587.968 631.018 591.341C629.587 594.8 626.656 597.61 622.14 598.832L622.135 598.833C613.998 601.016 607.397 595.644 606.183 588.458C604.993 581.413 609.005 574.317 616.498 573.051C619.698 572.51 622.795 572.566 625.457 573.832Z" fill="#3C4D56"/><path d="M619.237 557.411C612.07 552.419 603.342 545.667 589.776 550.56C573.355 556.483 569.653 579.564 571.971 585.989C573.571 590.426 606.553 584.123 618.328 580.696C625.69 578.485 630.277 577.006 630.873 575.002C632.447 571.881 625.147 561.399 619.237 557.411Z" fill="#41535C"/><path fill-rule="evenodd" clip-rule="evenodd" d="M595.28 567.856C593.872 568.558 592.911 569.433 592.636 569.741C590.03 572.668 585.545 572.928 582.618 570.322C579.691 567.715 579.431 563.23 582.037 560.303C584.586 557.441 591.644 551.919 600.832 552.866C604.73 553.267 607.565 556.753 607.163 560.651C606.762 564.55 603.276 567.384 599.378 566.983C598.038 566.845 596.639 567.178 595.28 567.856Z" fill="#4A5A62"/></svg>