<svg width="1080" height="1080" viewBox="0 0 1080 1080" fill="none" xmlns="http://www.w3.org/2000/svg"><path d="M548.379 518.473C650.223 518.473 732.784 582.755 732.784 662.053C732.784 741.351 650.223 805.634 548.379 805.634C446.535 805.634 363.973 741.351 363.973 662.053C363.973 582.755 446.535 518.473 548.379 518.473Z" fill="#1A2628"/><path fill-rule="evenodd" clip-rule="evenodd" d="M514.951 676.997C526.689 686.635 528.392 703.963 518.754 715.701L499.254 739.451C489.617 751.19 472.288 752.892 460.55 743.255C448.812 733.617 447.109 716.288 456.746 704.55L476.246 680.8C485.884 669.062 503.213 667.359 514.951 676.997ZM586.025 682.701C598.134 673.533 615.382 675.917 624.55 688.026L637.8 705.526C646.968 717.634 644.584 734.882 632.475 744.05C620.367 753.218 603.119 750.834 593.951 738.726L580.701 721.226C571.533 709.117 573.917 691.869 586.025 682.701Z" fill="#3C4D56"/><path d="M495.633 364.44C510.307 369.671 525.681 373.15 546.125 373.15C566.569 373.15 581.943 369.671 596.617 364.44C610.012 359.665 622.824 355.098 638.376 355.098C690.516 355.098 707.229 413.59 706.561 432.809V569.682C706.561 703.246 597.932 739.309 546.125 740.646C494.317 739.309 385.688 703.246 385.688 569.682V432.809C385.019 413.59 401.732 355.098 453.874 355.098C469.426 355.098 482.238 359.665 495.633 364.44ZM533.965 724.054C528.84 723.164 526.445 724.539 526.445 727.446C526.445 732.285 538.791 734.816 547.502 734.816C556.213 734.816 567.808 730.835 567.808 727.446C567.808 724.732 565.442 723.845 563.859 724.054C555.461 725.163 538.54 724.852 533.965 724.054ZM531.961 708.104C531.961 704.117 503.822 698.777 492.917 698.777C482.764 698.777 496.426 716.139 512.658 716.139C528.075 716.139 531.961 710.742 531.961 708.104ZM562.377 708.104C562.377 704.117 590.516 698.777 601.421 698.777C611.574 698.777 597.912 716.139 581.68 716.139C566.264 716.139 562.377 710.742 562.377 708.104Z" fill="#2C3D46"/><path d="M533.965 724.054C528.84 723.164 526.445 724.539 526.445 727.446C526.445 732.285 538.791 734.816 547.502 734.816C556.213 734.816 567.808 730.835 567.808 727.446C567.808 724.732 565.442 723.845 563.859 724.054C555.461 725.163 538.54 724.852 533.965 724.054ZM531.961 708.104C531.961 704.117 503.822 698.777 492.917 698.777C482.764 698.777 496.426 716.139 512.658 716.139C528.075 716.139 531.961 710.742 531.961 708.104ZM562.377 708.104C562.377 704.117 590.516 698.777 601.421 698.777C611.574 698.777 597.912 716.139 581.68 716.139C566.264 716.139 562.377 710.742 562.377 708.104Z" fill="#3C4D56"/><path d="M666.143 666.82C716.378 674.709 737.013 626.195 735.198 595.218C731.849 547.505 688.213 529.734 688.213 529.734L666.143 666.82ZM678.562 668.939L691.25 675.189Z" fill="#2C3D46"/><path fill-rule="evenodd" clip-rule="evenodd" d="M662.863 661.206C667.134 652.536 677.625 648.97 686.295 653.241L698.983 659.491C707.653 663.762 711.22 674.252 706.949 682.923C702.678 691.593 692.187 695.159 683.517 690.888L670.829 684.638C662.159 680.367 658.592 669.877 662.863 661.206Z" fill="#2C3D46"/><path d="M342.497 509.352C354.202 504.423 427.735 511.658 466.318 514.511L412.348 602.136C375.837 599.78 342.042 578.568 332.02 554.765C319.492 525.011 333.848 512.994 342.497 509.352Z" fill="#2C3D46"/><path d="M632.234 468.395C623.21 468.395 594.361 539.099 548.486 539.099C503.238 539.099 479.648 470.525 465.359 470.525C452.323 470.525 455.457 489.706 456.084 496.6C451.286 492.65 444.432 485.673 439.162 484C433.892 482.327 430.263 493.588 430.263 499.479C430.263 501.86 430.513 502.996 432.143 509.012C427.004 513.775 401.586 522.549 401.586 562.282C401.586 642.876 443.95 661.678 478.67 661.678C506.446 661.678 522.411 642.96 525.921 633.601H568.415C572.091 643.085 587.893 662.053 621.685 662.053C677.588 662.053 692.752 604.146 692.752 562.282C692.752 528.791 669.293 511.143 663.57 506.505C664.153 505.502 665.325 505.546 665.325 497.725C665.325 487.948 660.435 480.997 656.549 480.997C652.664 480.997 647.776 486.196 642.136 491.586C642.136 478.3 641.259 468.395 632.234 468.395Z" fill="#3C4D56"/><path d="M514.411 586.985C514.411 556.554 491.65 530.814 460.22 530.814C437.095 530.814 423.767 542.846 423.767 562.692C423.767 576.208 423.767 572.455 423.767 582.318C423.767 604.842 436.756 639.676 473.34 643.758C503.388 647.11 514.411 620.388 514.411 607.879V586.985ZM579.928 586.985C579.928 556.554 602.689 530.814 634.119 530.814C657.245 530.814 670.573 542.846 670.573 562.692C670.573 576.208 670.573 572.455 670.573 582.318C670.573 604.842 657.584 639.676 620.999 643.758C590.95 647.11 579.928 620.388 579.928 607.879V586.985Z" fill="#4A5A62"/><path d="M483.027 574.286C481.331 554.291 476.471 543.66 461.062 543.66C439.951 543.66 440.558 562.505 440.558 572.853C440.558 597.166 450.545 605.887 461.829 605.887C473.113 605.887 485.265 600.671 483.027 574.286ZM585.144 587.635C585.144 561.532 594.506 548.25 609.896 549.004C627.81 549.881 628.094 569.791 628.094 580.139C628.094 604.452 618.069 614.146 606.458 613.663C595.184 613.194 585.144 605.202 585.144 587.635Z" fill="#131F24"/><path d="M669.075 625.082C675.723 616.702 657.67 651.302 621.879 652.708C586.088 654.114 579.134 627.475 582.253 632.146C588.5 641.501 590.381 649.045 622.876 647.236C655.371 645.427 662 634.001 669.075 625.082ZM521.686 634.982C520.547 646.752 496.594 654.065 468.188 651.315C439.782 648.565 423.715 632.488 424.854 620.718C425.993 608.948 443.548 609.659 471.954 612.409C500.36 615.159 522.825 623.212 521.686 634.982ZM412.397 567.685C412.397 567.685 460.699 578.424 513.208 572.047C571.056 565.022 441.206 515.667 441.206 515.667L412.397 567.685ZM686.467 565.846C686.467 565.846 634.009 581.074 581.5 574.697C523.652 567.672 642.749 509.238 642.749 509.238L686.467 565.846Z" fill="#3C4D56"/><path d="M547.525 614.633C560.785 614.633 571.534 625.382 571.534 638.642C571.534 651.902 560.785 662.651 547.525 662.651C534.265 662.651 523.516 651.902 523.516 638.642C523.516 625.382 534.265 614.633 547.525 614.633Z" fill="#3C4D56"/><path d="M579.002 634.183C579.002 624.335 563.878 611.791 547.7 611.791C528.825 611.791 517.336 626.211 517.336 634.183C517.336 638.989 539.728 654.7 547.7 654.7C555.672 654.7 579.002 636.762 579.002 634.183ZM540.533 626.207C542.859 625.044 548.845 623.415 554.174 626.207Z" fill="#41535C"/><path fill-rule="evenodd" clip-rule="evenodd" d="M546.814 631.794C545.265 631.923 544.064 632.374 543.707 632.553C540.201 634.305 535.939 632.884 534.186 629.379C532.434 625.874 533.854 621.611 537.36 619.859C540.771 618.153 549.328 615.656 557.467 619.92C560.939 621.739 562.278 626.027 560.46 629.499C558.641 632.97 554.352 634.31 550.881 632.491C549.709 631.877 548.309 631.67 546.814 631.794Z" fill="#4A5A62"/><path d="M372.45 484.357V542.068H329.854V484.357H372.45ZM434.185 605.617C434.185 651.475 397.01 688.65 351.152 688.65C305.294 688.65 268.12 651.475 268.12 605.617C268.12 559.759 305.294 522.584 351.152 522.584C397.01 522.584 434.185 559.759 434.185 605.617Z" fill="#4A5A62"/><path fill-rule="evenodd" clip-rule="evenodd" d="M313.69 481.865C313.69 471.648 321.973 463.365 332.19 463.365H371.44C381.657 463.365 389.94 471.648 389.94 481.865C389.94 492.083 381.657 500.365 371.44 500.365H332.19C321.973 500.365 313.69 492.083 313.69 481.865Z" fill="#4A5A62"/><path fill-rule="evenodd" clip-rule="evenodd" d="M325.69 478.615C325.69 473.645 329.719 469.615 334.69 469.615H367.94C372.911 469.615 376.94 473.645 376.94 478.615C376.94 483.586 372.911 487.615 367.94 487.615H334.69C329.719 487.615 325.69 483.586 325.69 478.615Z" fill="#41535C"/><path d="M316.686 529.94L343.844 530.255C353.74 530.37 361.856 522.441 361.971 512.545C362.07 504.055 355.267 497.093 346.777 496.994L332.445 496.827C323.955 496.728 316.993 503.531 316.894 512.021L316.686 529.94Z" fill="#2C3D46"/><path d="M351.297 532C391.778 532 424.595 564.817 424.595 605.298C424.595 645.779 391.778 678.596 351.297 678.596C310.816 678.596 277.999 645.779 277.999 605.298C277.999 564.817 310.816 532 351.297 532Z" fill="#2C3D46"/><path d="M307.487 541.812C292.618 553.352 284.237 567.812 284.237 567.812C284.237 567.812 288.737 568.812 293.737 569.812C296.185 570.302 322.726 570.252 349.649 570.015C356.135 569.958 362.642 569.89 368.841 569.816C389.466 569.57 406.667 569.258 408.237 569.062C412.237 568.562 417.237 567.812 417.237 567.812C417.237 567.812 410.987 548.062 387.737 537.062C364.487 526.062 324.237 528.812 307.487 541.812Z" fill="#4A5A62"/><path d="M413.745 569.289C413.745 569.558 413.713 569.827 413.649 570.096C411.883 577.909 384.585 584.116 351.176 584.116C319.527 584.116 293.362 578.542 289.196 571.318C288.806 570.653 288.607 569.98 288.607 569.289C288.607 567.107 290.59 565.04 294.161 563.172C298.198 561.061 304.262 559.215 311.762 557.772C322.521 555.702 336.237 554.463 351.176 554.463C378.34 554.463 401.465 558.565 410.11 564.305C412.465 565.86 413.745 567.536 413.745 569.289Z" fill="#1F2E35"/><path fill-rule="evenodd" clip-rule="evenodd" d="M312.121 564.874C317.319 567.445 319.449 573.743 316.878 578.941C314.332 584.087 312.729 587.41 311.285 594.969C310.196 600.665 304.696 604.4 299 603.312C293.305 602.224 289.569 596.724 290.658 591.028C292.607 580.825 295.114 575.576 298.054 569.631C300.625 564.433 306.923 562.303 312.121 564.874Z" fill="#4A5A62"/></svg>