<svg width="1080" height="1080" viewBox="0 0 1080 1080" fill="none" xmlns="http://www.w3.org/2000/svg"><path d="M676.987 649.671C671.267 713.335 598.372 758.811 514.173 751.244C429.973 743.678 366.354 685.936 372.074 622.273C377.795 558.609 450.689 513.133 534.889 520.7C619.088 528.266 682.707 586.008 676.987 649.671Z" fill="#1A2628"/><path d="M710.712 496.747C713.476 593.019 637.672 673.303 541.4 676.067C445.128 678.831 364.843 603.027 362.079 506.755C359.86 429.446 404.979 360.421 470.837 337.279C491.52 329.354 511.044 330.468 526.934 335.058C541.752 339.38 559.555 350.141 579.89 353.542C602.167 357.114 647.045 354.743 674.969 390.191C697.947 418.978 709.507 454.76 710.712 496.747Z" fill="#2C3D46"/><path d="M499.319 473.459C505.072 488.863 521.51 516.85 560.781 518.054C595.447 518.992 633.379 508.427 637.256 425.01C637.256 425.01 661.962 408.138 659.525 397.346C657.088 386.554 634.509 387.846 634.509 387.846C634.509 387.846 649.445 372.402 644.552 364.058C639.661 355.715 606.469 360.626 588.107 363.127C550.318 370.858 516.339 373.203 492.637 343.05C481.308 329.807 475.407 315.62 464.879 319.362C455.721 322.618 450.498 345.491 450.498 345.491C450.498 345.491 448.916 329.538 440.736 334.104C434.605 337.526 428.902 357.551 428.902 357.551C428.902 357.551 409.327 380.407 401.758 401.659C392.073 427.88 383.043 459.322 415.774 477.365C444.906 492.763 469.611 463.311 469.611 463.311L499.319 473.459ZM462.85 521.44C468.851 522.937 488.141 527.637 493.535 529.015C500.045 530.678 499.783 536.34 495.925 538.519C492.067 540.698 482.746 545.653 473.921 543.414C466.032 541.413 460.298 533.815 457.253 528.404C454.869 524.166 457.399 520.081 462.85 521.44Z" fill="#3C4D56"/><path d="M577.333 397.867C594.091 399.013 616.901 412.617 617.427 437.339C617.535 442.439 617.085 447.605 616.057 452.67C614.847 458.634 616.53 452.515 616.53 452.515C616.53 452.515 592.698 442.889 560.826 442.521C541.075 442.294 517.799 444.177 517.799 444.177C517.799 444.177 516.894 448.614 519.061 437.68C520.246 431.7 521.928 426.201 524.037 421.206C534.525 396.365 554.134 396.28 577.333 397.867ZM461.705 381.18C478.323 385.345 482.812 392.794 477.459 412.179C475.59 418.947 472.85 425.799 469.566 432.145C464.994 440.838 468.785 432.772 468.785 432.772L468.023 433.029L468.266 433.196L410.888 412.608L411.241 411.376C411.241 411.376 410.448 411.837 411.062 412.893C413.568 405.737 416.682 399.275 420.254 393.646C422.8 389.632 428.861 383.26 432.59 381.125C443.792 374.711 449.104 378.027 461.705 381.18Z" fill="#4A5A62"/><path d="M540.72 442.856C535.326 442.529 530.63 441.109 527.099 439.207C523.774 437.417 521.748 434.053 520.965 429.872C521.853 426.834 522.881 423.945 524.037 421.206C534.525 396.365 554.134 396.28 577.333 397.867C581.175 398.13 585.335 399.047 589.471 400.603C590.642 409.14 586.379 419.313 574.442 429.976C565.527 437.948 556.3 441.609 548.041 442.624C545.55 442.684 543.093 442.764 540.72 442.856Z" fill="#131F24"/><path d="M472.492 426.028C474.486 421.499 476.177 416.819 477.459 412.179C482.812 392.794 478.323 385.346 461.705 381.18C459.669 380.671 457.824 380.157 456.113 379.681C452.079 378.558 448.794 377.644 445.529 377.484C442.722 381.811 440.506 387.345 439.242 394.058C435.281 414.598 444.779 425.06 456.424 428.588C461.351 430.081 467.146 429.157 472.492 426.028Z" fill="#131F24"/><path d="M479.471 396.666C477.236 398.31 474.468 399.272 471.478 399.248C464.129 399.188 458.22 393.191 458.279 385.853C458.295 383.978 458.698 382.197 459.412 380.586C460.15 380.783 460.913 380.982 461.705 381.18C472.879 383.981 478.569 388.266 479.471 396.666Z" fill="#4A5A62"/><path d="M536.746 404.193C543.95 399.008 552.69 397.448 562.436 397.311C562.656 398.285 562.767 399.3 562.759 400.342C562.699 407.68 556.693 413.581 549.344 413.521C543.414 413.473 538.421 409.559 536.746 404.193Z" fill="#4A5A62"/><path d="M629.7 495.409C629.7 495.409 554.724 504.759 500.378 533.349C490.486 538.728 486.643 551.449 497.414 559.973C508.185 568.497 587.138 613.029 592.666 608.491L629.7 495.409ZM379.511 449.043C379.511 449.043 417.996 491.647 435.955 522.689C440.16 530.693 437.292 543.723 426.88 547.497C406.746 554.483 365.477 553.657 362.773 547.537" fill="#2C3D46"/><path fill-rule="evenodd" clip-rule="evenodd" d="M377.098 446.371C378.573 445.038 380.85 445.154 382.182 446.629L379.63 448.935C382.182 446.629 382.183 446.63 382.183 446.63L382.298 446.758C382.373 446.841 382.484 446.965 382.629 447.127C382.919 447.45 383.345 447.927 383.893 448.544C384.988 449.779 386.57 451.574 388.523 453.824C392.43 458.324 397.826 464.648 403.787 471.948C415.673 486.504 429.939 505.101 439.071 520.886C439.095 520.928 439.119 520.971 439.141 521.014C441.744 525.967 442.077 532.233 440.332 537.762C438.566 543.358 434.551 548.545 428.106 550.881C428.091 550.886 428.076 550.892 428.06 550.897C417.429 554.586 401.606 556.131 388.263 556.031C381.557 555.981 375.294 555.515 370.456 554.637C368.052 554.2 365.857 553.637 364.093 552.901C362.553 552.26 360.422 551.123 359.48 548.992C358.676 547.173 359.499 545.047 361.318 544.244C363.026 543.489 365.005 544.169 365.905 545.761C366.009 545.835 366.284 546.014 366.863 546.256C367.953 546.71 369.583 547.16 371.742 547.553C376.032 548.332 381.851 548.783 388.317 548.831C401.308 548.928 416.171 547.395 425.675 544.103C429.631 542.661 432.249 539.451 433.466 535.595C434.698 531.691 434.375 527.47 432.799 524.424C423.971 509.18 410.038 490.987 398.21 476.502C392.305 469.27 386.957 463.003 383.086 458.544C381.151 456.316 379.587 454.54 378.507 453.323C377.967 452.715 377.549 452.246 377.266 451.93C377.125 451.772 377.017 451.653 376.945 451.573L376.84 451.456C376.84 451.456 376.84 451.456 378.401 450.045L376.84 451.456C375.507 449.98 375.622 447.704 377.098 446.371ZM633.272 494.963C633.519 496.936 632.119 498.735 630.146 498.981L630.144 498.981L630.099 498.987L629.945 499.007C629.807 499.024 629.599 499.052 629.324 499.089C628.773 499.163 627.953 499.275 626.887 499.429C624.756 499.737 621.642 500.21 617.732 500.867C609.911 502.18 598.915 504.229 586.231 507.165C560.821 513.046 528.846 522.444 502.077 536.522C497.974 538.761 495.332 542.41 494.694 546.095C494.086 549.611 495.212 553.64 499.648 557.15C502.11 559.098 508.836 563.353 517.891 568.686C526.85 573.963 537.858 580.162 548.702 585.955C559.56 591.754 570.19 597.112 578.414 600.727C582.543 602.542 585.958 603.871 588.448 604.606C589.707 604.978 590.583 605.153 591.124 605.202C591.147 605.204 591.169 605.206 591.189 605.207C592.635 604.555 594.394 604.922 595.449 606.207C596.71 607.743 596.487 610.012 594.95 611.273C594.104 611.968 593.168 612.227 592.491 612.332C591.793 612.441 591.099 612.428 590.484 612.373C589.255 612.264 587.858 611.939 586.408 611.511C583.48 610.646 579.736 609.173 575.517 607.319C567.046 603.594 556.229 598.137 545.31 592.305C534.378 586.466 523.283 580.218 514.237 574.89C505.285 569.618 498.103 565.109 495.18 562.796C488.844 557.782 486.506 551.188 487.6 544.867C488.663 538.722 492.88 533.327 498.659 530.185C498.665 530.182 498.672 530.178 498.678 530.175C498.686 530.171 498.694 530.166 498.702 530.162C526.274 515.658 558.949 506.089 584.607 500.15C597.46 497.175 608.604 495.099 616.54 493.766C620.508 493.099 623.677 492.618 625.858 492.303C626.948 492.146 627.792 492.03 628.366 491.953C628.653 491.914 628.873 491.885 629.022 491.866L629.192 491.844L629.253 491.837C629.254 491.836 629.255 491.836 629.7 495.409L629.255 491.836C631.228 491.59 633.026 492.99 633.272 494.963Z" fill="#1F2E35"/><path d="M506.301 477.236C499.77 488.071 489.861 493.777 477.147 491.949C466.25 490.382 458.439 479.284 458.861 469.814C459.206 462.072 461.616 459.797 461.703 459.599C466.092 449.679 476.367 442.811 488.623 444.923C500.877 447.034 508.434 454.676 511.651 464.229C511.72 464.435 509.394 472.13 506.301 477.236ZM479.198 456.286C477.513 455.73 479.14 452.958 478.544 453.4C479.854 452.215 478.981 453.136 480.658 453.69C482.843 454.411 488.596 454.038 487.208 455.873C485.457 458.188 481.954 457.195 479.198 456.286ZM468.905 457.682C468.957 457.821 471.14 457.528 472.392 457.644C483.6 458.781 507.608 464.68 511.49 465.878C512.336 459.789 506.505 442.051 490.913 439.767C481.088 438.331 470.059 440.719 467.463 443.882C467.157 444.254 463.986 445.896 463.117 448.701C462.112 451.743 461.681 454.4 461.478 455.145C460.796 457.651 460.619 459.373 461.921 460.406C462.86 459.482 468.358 456.621 468.905 457.682ZM475.337 450.602C480.715 449.134 485.713 451.455 487.896 452.37L475.337 450.602Z" fill="#3C4D56"/><path d="M468.905 457.683C468.957 457.821 471.14 457.528 472.392 457.644C483.6 458.781 507.608 464.68 511.49 465.878C512.336 459.789 506.505 442.052 490.913 439.767C481.088 438.331 470.059 440.72 467.463 443.882C467.157 444.254 463.986 445.897 463.117 448.702C462.112 451.743 461.681 454.401 461.478 455.145C460.796 457.651 460.619 459.374 461.921 460.406C462.86 459.482 468.358 456.621 468.905 457.683ZM475.337 450.603C480.715 449.134 485.713 451.456 487.896 452.37L475.337 450.603Z" fill="#41535C"/><path fill-rule="evenodd" clip-rule="evenodd" d="M485.39 458.346C482.842 457.278 479.932 456.065 477.044 456.854C473.591 457.796 470.028 455.762 469.086 452.309C468.143 448.857 470.177 445.294 473.63 444.351C481.012 442.335 487.706 445.23 490.005 446.224C490.156 446.29 490.289 446.347 490.401 446.394C493.701 447.777 495.255 451.575 493.872 454.875C492.488 458.176 488.691 459.73 485.39 458.346Z" fill="#4A5A62"/><path d="M402.498 490.025C417.863 494.731 419.819 515.315 411.476 532.737C407.465 540.527 404.285 552.157 403.394 560.571C400.957 581.139 395.221 599.563 379.203 598.87C359.81 598.032 355.055 573.292 355.677 558.748C356.329 546.093 360.103 531.108 367.038 517.656C374.469 501.625 386.284 485.059 402.498 490.025ZM531.865 531.014C549.643 531.167 557.298 552.211 556.34 571.974C555.016 576.972 554.168 588.003 554.214 593.327C552.703 611.855 547.82 630.595 528.024 631.343C507.394 632.124 501.656 608.365 501.057 592.761C500.419 585.718 501.815 574.756 504.193 568.57C506.619 547.731 514.44 530.878 531.865 531.014Z" fill="#3C4D56"/></svg>
