<svg width="1080" height="1080" viewBox="0 0 1080 1080" fill="none" xmlns="http://www.w3.org/2000/svg"><path d="M540.001 428.875C664.834 428.875 766.031 507.669 766.031 604.865C766.031 702.061 664.834 780.855 540.001 780.855C415.168 780.855 313.971 702.061 313.971 604.865C313.971 507.669 415.168 428.875 540.001 428.875Z" fill="#1A2628"/><path d="M636.425 393.692C628.1 380.081 632.387 362.296 645.998 353.971C659.61 345.646 677.394 349.932 685.719 363.544C694.044 377.155 689.758 394.939 676.146 403.264C662.534 411.589 644.75 407.304 636.425 393.692ZM629.665 420.631C613.888 423.012 599.167 412.151 596.786 396.373C594.406 380.596 605.266 365.875 621.043 363.494C636.82 361.114 651.541 371.975 653.921 387.752C656.302 403.529 645.442 418.25 629.665 420.631ZM664.488 430.585C652.416 420.15 651.09 401.905 661.524 389.834C671.959 377.762 690.204 376.436 702.276 386.87C714.347 397.304 715.673 415.55 705.239 427.621C694.805 439.693 676.559 441.019 664.488 430.585Z" fill="#3C4D56"/><path d="M661.592 420.16L665.224 417.698C675.255 410.901 674.166 395.792 663.263 390.505L659.315 388.59C648.413 383.303 635.875 391.8 636.746 403.886L637.061 408.262C637.933 420.348 651.561 426.958 661.592 420.16Z" fill="#2C3D46"/><path d="M653.067 436.049C648.763 451.414 632.82 460.382 617.456 456.078C602.091 451.775 593.122 435.832 597.425 420.467C601.729 405.102 617.673 396.134 633.038 400.437C648.403 404.741 657.37 420.684 653.067 436.049ZM635.784 432.1C640.346 416.811 656.44 408.113 671.729 412.676C687.019 417.238 695.717 433.331 691.154 448.621C686.592 463.911 670.498 472.608 655.209 468.046C639.919 463.483 631.221 447.39 635.784 432.1Z" fill="#3C4D56"/><path d="M547.682 805.973C537.543 793.652 539.313 775.444 551.633 765.305C563.954 755.167 582.161 756.936 592.3 769.257C602.438 781.577 600.669 799.785 588.348 809.923C576.028 820.062 557.82 818.293 547.682 805.973ZM544.736 833.59C529.444 838.143 513.355 829.436 508.802 814.144C504.248 798.852 512.954 782.763 528.246 778.209C543.539 773.656 559.628 782.362 564.181 797.655C568.734 812.947 560.029 829.036 544.736 833.59ZM580.606 838.6C567.199 829.947 563.347 812.064 572 798.658C580.652 785.252 598.535 781.399 611.942 790.052C625.348 798.705 629.201 816.588 620.548 829.994C611.895 843.4 594.012 847.253 580.606 838.6Z" fill="#3C4D56"/><path d="M576.287 828.679L579.541 825.735C588.529 817.608 585.347 802.798 573.815 799.079L569.639 797.733C558.106 794.014 546.873 804.173 549.418 816.02L550.339 820.31C552.884 832.157 567.3 836.806 576.287 828.679Z" fill="#2C3D46"/><path d="M570.056 845.597C567.933 861.412 553.393 872.511 537.579 870.388C521.765 868.265 510.664 853.725 512.788 837.911C514.911 822.096 529.452 810.997 545.266 813.12C561.08 815.243 572.179 829.783 570.056 845.597ZM552.392 844.093C554.782 828.317 569.508 817.464 585.284 819.854C601.06 822.244 611.913 836.971 609.522 852.746C607.132 868.522 592.406 879.375 576.63 876.985C560.854 874.595 550.002 859.868 552.392 844.093Z" fill="#3C4D56"/><path d="M359.334 735.291C361.884 722.707 391.263 700.522 402.503 650.227L512.964 721.551C490.736 761.304 416.888 775.093 391.299 769.907C359.312 763.424 357.45 744.589 359.334 735.291Z" fill="#2C3D46"/><path d="M704.893 428.273C689.932 433.73 665.911 444.949 622.818 432.217L686.402 539.605C696.779 535.834 729.657 493.719 730.789 467.635C732.204 435.029 713.806 425.022 704.893 428.273Z" fill="#2C3D46"/><path d="M417 684.503C381 655.003 342.5 620.003 323.654 598.579C281.067 523.503 332.999 479.769 380.5 459.503C420 442.65 415.412 445.033 437.5 409.501C474.488 350 542 368.002 580.5 392.502C604.5 407.775 605.881 414.299 654 451.5C773 543.5 717.5 651.365 677.5 690.5C600.845 765.497 515 761.5 417 684.503Z" fill="#2C3D46"/><path d="M621.816 425.557C624.644 427.954 627.769 430.567 631.276 433.444C643.346 444.727 659.647 465.223 643.97 483.352C618.254 508.336 600.639 494.301 589.772 485.643C589.521 485.443 589.274 485.246 589.03 485.052L558.99 505.932C565.01 512.652 575.38 546.842 557.09 568.142C534.22 594.782 500.33 624.642 430.74 583.822C399.586 565.546 398.653 556.491 398.035 550.487C397.981 549.964 397.929 549.463 397.86 548.982C391.43 547.652 390.26 547.352 388.14 546.322C376.28 543.252 367.98 525.312 372.93 521.992C376.711 519.454 383.85 517.543 389.985 515.901C391.899 515.389 393.715 514.903 395.3 514.432C394.776 514.233 394.172 514.013 393.507 513.771C387.959 511.749 378.234 508.205 376.34 502.882C375.63 500.872 376.04 498.622 378.2 496.102C379.12 495.022 380.69 494.032 382.8 493.092C383.95 492.572 385.26 492.062 386.72 491.562C390.318 490.333 394.756 488.96 399.78 487.404C426.973 478.986 471.344 465.25 492.69 440.392C505.29 424.502 508.21 406.622 496.77 392.472C496.84 392.432 495.66 390.942 495.66 390.942C493.01 388.102 494.95 383.502 498.83 383.352C507.01 383.042 513.76 384.512 519.24 386.772C520.5 387.292 521.69 387.852 522.81 388.442L522.08 386.412L520.24 381.312C518.24 376.842 520.51 372.032 525.09 373.272C535.52 376.092 542.91 379.982 548.15 384.002C549.71 383.852 551.22 383.702 552.66 383.532C553.785 382.543 556.755 381.895 560.247 381.626C567.569 384.9 574.399 388.62 580.5 392.502C592.959 400.431 599.322 406.001 609.293 414.73C611.481 416.645 613.842 418.712 616.479 420.989C617.856 422.225 619.302 423.508 620.82 424.842C620.82 424.842 621.178 425.089 621.816 425.557Z" fill="#3C4D56"/><path d="M606.099 555.196C602.747 552.958 582.462 573.62 576.34 582.788C570.64 591.324 592.906 589.583 602.018 575.936C610.673 562.974 608.318 556.678 606.099 555.196Z" fill="#3C4D56"/><path d="M658.454 502.594C655.102 500.356 634.817 521.018 628.695 530.186C622.995 538.722 645.261 536.981 654.373 523.334C663.028 510.372 660.673 504.076 658.454 502.594Z" fill="#3C4D56"/><path d="M655.408 545.734C652.01 543.566 632.159 564.644 626.229 573.937C620.708 582.589 642.932 580.387 651.759 566.554C660.143 553.415 657.657 547.169 655.408 545.734Z" fill="#3C4D56"/><path fill-rule="evenodd" clip-rule="evenodd" d="M607.023 729.813C611.546 715.604 626.732 707.752 640.941 712.276L674.316 722.901C688.525 727.424 696.377 742.61 691.853 756.819C687.33 771.028 672.144 778.88 657.935 774.356L624.56 763.731C610.351 759.208 602.499 744.022 607.023 729.813Z" fill="#3C4D56"/><path fill-rule="evenodd" clip-rule="evenodd" d="M769.027 582.816C783.74 585.24 793.702 599.133 791.278 613.846L785.903 646.471C783.479 661.185 769.587 671.147 754.873 668.723C740.16 666.299 730.198 652.407 732.622 637.693L737.997 605.068C740.421 590.355 754.313 580.392 769.027 582.816Z" fill="#3C4D56"/><path fill-rule="evenodd" clip-rule="evenodd" d="M591.845 411.562C593.691 410.987 595.653 412.017 596.228 413.862C600.668 428.114 599.137 440.854 591.917 449.495C584.136 458.808 570.687 462.269 554.353 458.813C552.462 458.413 551.253 456.556 551.653 454.665C552.053 452.774 553.911 451.565 555.802 451.965C570.591 455.094 580.987 451.659 586.545 445.006C591.758 438.769 593.535 428.752 589.545 415.944C588.97 414.099 590 412.137 591.845 411.562Z" fill="#2C3D46"/><path d="M563.576 477.343C574.058 469.616 589.043 472.154 597.046 483.011C605.049 493.868 603.038 508.932 592.556 516.659C582.074 524.386 567.089 521.848 559.086 510.991C551.083 500.134 553.094 485.07 563.576 477.343Z" fill="#3C4D56"/><path d="M596.351 494.295C596.351 494.295 565.665 519.212 561.932 516.33C556.525 512.155 547.333 489.921 559.344 477.252C569.392 466.653 579.462 466.405 587.167 470.916C590.9 473.102 594.596 475.937 597.388 479.551L596.351 494.295Z" fill="#41535C"/><path fill-rule="evenodd" clip-rule="evenodd" d="M581.086 476.116C582.347 479.826 580.361 483.856 576.651 485.117C575.367 485.554 574.229 486.445 573.272 487.634C572.28 488.866 571.768 490.068 571.646 490.467C570.499 494.214 566.531 496.321 562.783 495.174C559.036 494.026 556.929 490.058 558.077 486.311C559.201 482.64 563.321 474.658 572.084 471.68C575.795 470.419 579.825 472.405 581.086 476.116Z" fill="#4A5A62"/><path fill-rule="evenodd" clip-rule="evenodd" d="M520.841 489.279C522.771 489.173 524.421 490.653 524.527 492.583C525.695 514.008 517.684 530.819 504.005 541.872C490.422 552.848 471.556 557.914 451.256 556.659C449.326 556.54 447.859 554.879 447.978 552.949C448.098 551.02 449.759 549.553 451.688 549.672C470.644 550.845 487.668 546.074 499.606 536.427C511.449 526.857 518.589 512.258 517.537 492.964C517.432 491.034 518.911 489.384 520.841 489.279Z" fill="#2C3D46"/><path d="M251.91 603.317C238.496 594.677 234.626 576.797 243.266 563.383C251.906 549.969 269.785 546.099 283.199 554.739C296.613 563.379 300.484 581.258 291.844 594.672C283.204 608.086 265.324 611.957 251.91 603.317ZM258.041 630.806C244.867 639.808 226.889 636.426 217.887 623.252C208.885 610.078 212.267 592.1 225.441 583.098C238.615 574.096 256.593 577.478 265.595 590.652C274.597 603.826 271.215 621.804 258.041 630.806ZM294.866 624.555C279.459 620.405 270.334 604.551 274.484 589.144C278.634 573.737 294.488 564.611 309.895 568.761C325.302 572.911 334.427 588.766 330.277 604.173C326.127 619.58 310.273 628.705 294.866 624.555Z" fill="#3C4D56"/><path d="M287.619 615.314L289.154 611.177C293.395 599.753 283.679 588.022 271.665 590.061L267.314 590.8C255.3 592.839 249.999 607.119 257.772 616.504L260.587 619.903C268.36 629.288 283.378 626.738 287.619 615.314Z" fill="#2C3D46"/><path d="M285.247 635.701C288.05 651.409 277.589 666.416 261.881 669.219C246.173 672.022 231.166 661.561 228.363 645.853C225.56 630.145 236.021 615.138 251.729 612.335C267.437 609.532 282.444 619.993 285.247 635.701ZM270.796 638.154C268.259 622.401 278.973 607.573 294.726 605.036C310.479 602.499 325.307 613.213 327.844 628.966C330.381 644.719 319.667 659.547 303.914 662.084C288.161 664.621 273.333 653.907 270.796 638.154Z" fill="#3C4D56"/><path d="M736.629 261.895C728.629 253.895 713.462 259.24 704.629 266.895C689.629 279.895 679.629 299.895 679.629 299.895L683.629 335.645C683.629 335.645 696.629 338.895 706.879 337.145C713.286 336.051 726.213 330.759 732.379 323.395C741.379 312.645 732.879 305.395 724.629 304.395C717.118 303.485 710.129 301.895 710.129 301.895C710.129 301.895 719.629 291.645 727.629 284.395C734.521 278.15 744.629 269.895 736.629 261.895Z" fill="#2C3D46"/><path d="M617.041 275.775C623.037 266.181 639.017 267.977 649.346 273.449C666.886 282.741 681.128 299.979 681.128 299.979L685.273 335.713C685.273 335.713 673.337 341.804 662.956 342.404C656.467 342.78 642.681 340.531 635.017 334.743C623.829 326.293 630.48 317.317 638.294 314.487C645.408 311.91 651.86 308.789 651.86 308.789C651.86 308.789 640.298 300.939 630.872 295.674C622.752 291.139 611.046 285.37 617.041 275.775Z" fill="#3C4D56"/></svg>