<svg width="1080" height="1080" viewBox="0 0 1080 1080" fill="none" xmlns="http://www.w3.org/2000/svg"><path d="M530.491 830.65C617.392 830.65 687.839 885.501 687.839 953.163C687.839 1020.83 617.392 1075.68 530.491 1075.68C443.59 1075.68 373.143 1020.83 373.143 953.163C373.143 885.501 443.59 830.65 530.491 830.65Z" fill="#1A2628"/><path d="M383.361 517.174V396.674L422.861 425.174V476.174V547.174C422.861 559.174 420.861 606.174 383.861 606.174C346.121 606.174 335.381 577.401 332.021 561.437C331.271 557.878 334.121 554.691 337.751 554.494C375.921 552.43 383.361 533.014 383.361 517.174ZM678.302 463.174C669.104 458.348 658.674 447.674 658.674 447.674L640.663 445.674L640.512 469.174L642.651 514.674C642.651 526.674 646.456 555.848 673.978 557.174C701.5 558.5 709.5 547.5 716.557 535.937C723.614 524.374 720.532 506.988 712.516 495.494C704.5 484 687.5 468 678.302 463.174Z" fill="#364750"/><path fill-rule="evenodd" clip-rule="evenodd" d="M837.62 558.678C870.115 570.32 887.019 606.101 875.377 638.596L848.827 712.699C842.47 730.44 828.447 744.367 810.662 750.6C792.876 756.834 773.228 754.709 757.186 744.818L655.713 682.25C626.332 664.133 617.2 625.629 635.316 596.247C653.433 566.866 691.937 557.734 721.319 575.85L757.159 597.949L757.701 596.434C769.344 563.939 805.125 547.035 837.62 558.678Z" fill="#2C3D46"/><path fill-rule="evenodd" clip-rule="evenodd" d="M804.81 448.055C814.473 448.264 822.136 456.267 821.927 465.93L820.697 522.67C820.668 523.995 820.493 525.282 820.187 526.517C826.677 530.154 830.358 537.698 828.755 545.366C826.777 554.826 817.504 560.892 808.044 558.915C798.978 557.019 794.341 558.312 792.464 559.238C790.856 560.032 790.11 561.076 789.715 562.496C788.55 566.679 790.907 572.186 794.877 574.089C803.594 578.265 807.274 588.716 803.098 597.432C798.922 606.149 788.471 609.829 779.755 605.653C759.424 595.912 750.599 572.498 755.997 553.11C758.882 542.744 765.853 533.34 776.975 527.852C779.788 526.463 782.753 525.38 785.85 524.588C785.735 523.714 785.685 522.82 785.705 521.912L786.935 465.172C787.145 455.509 795.148 447.846 804.81 448.055Z" fill="#3F515B"/><path d="M883.648 521.442L818.926 496.762C803.005 492.148 787.787 507.651 783.173 523.572L768.997 572.485C764.383 588.406 773.549 605.052 789.47 609.666L852.763 628.01C868.684 632.624 885.33 623.458 889.944 607.537L904.12 558.624C908.734 542.703 899.569 526.056 883.648 521.442Z" fill="#3F515B"/><path fill-rule="evenodd" clip-rule="evenodd" d="M820.214 507.081C822.058 507.66 823.084 509.625 822.506 511.469L818.777 523.351L808.354 557.631C808.022 564.263 812.586 569.792 819.733 571.102C823.574 571.806 826.634 570.999 829.214 569.107C831.892 567.143 834.277 563.832 836.235 559.182L837.197 556.628C837.806 555.01 838.648 552.771 839.581 550.287C839.584 550.279 839.587 550.271 839.59 550.263C839.594 550.251 839.599 550.238 839.604 550.225C841.466 545.269 843.681 539.361 845.125 535.47C845.797 533.658 847.812 532.734 849.624 533.407C851.436 534.079 852.36 536.093 851.687 537.906C850.243 541.798 848.033 547.694 846.175 552.64C845.485 554.732 844.592 557.012 843.786 559.069C843.455 559.912 843.139 560.719 842.857 561.46C841.411 568.749 846.548 576.019 854.185 577.419C861.798 578.815 869.101 573.775 870.497 566.163L870.531 565.974L876.404 546.343C876.958 544.491 878.908 543.439 880.76 543.993C882.612 544.547 883.664 546.497 883.11 548.349L877.345 567.622C875.163 578.927 864.272 586.385 852.923 584.304C845.597 582.962 839.634 577.885 837.026 571.341C835.907 572.628 834.686 573.775 833.354 574.751C829.172 577.819 824.145 579.028 818.471 577.987C810.023 576.439 803.58 570.502 801.814 562.716L789.159 564.172C787.239 564.393 785.503 563.015 785.282 561.095C785.061 559.175 786.439 557.439 788.359 557.218L801.501 555.706C801.551 555.314 801.612 554.92 801.685 554.524L801.723 554.312L810.615 525.98C806.61 526.11 801.939 526.257 797.81 526.384C794.805 526.477 792.086 526.56 790.118 526.619L786.934 526.715C786.934 526.715 786.933 526.715 786.828 523.217C786.723 519.718 786.723 519.718 786.723 519.718L789.906 519.622C791.873 519.563 794.59 519.48 797.594 519.387C802.603 519.233 808.401 519.051 812.836 518.903L815.827 509.373C816.406 507.529 818.37 506.503 820.214 507.081ZM786.828 523.217L786.723 519.718C784.791 519.776 783.272 521.39 783.33 523.322C783.388 525.254 785.002 526.773 786.934 526.715L786.828 523.217Z" fill="#364750"/><path d="M622.426 977.147C609.587 989.723 588.987 989.512 576.408 976.673L546.816 946.466C534.247 933.629 524.79 928.5 524.79 895.448C524.79 877.476 580.728 888.084 593.308 900.922L622.9 931.13C635.479 943.968 635.265 964.571 622.426 977.147Z" fill="#2C3D46"/><path d="M563.561 763.785C584.962 763.785 602.31 781.133 602.31 802.534V895.609C602.31 917.01 585.5 934.359 563.561 934.359C541.622 934.359 524.811 917.01 524.811 895.609V802.534C524.811 781.133 542.16 763.785 563.561 763.785Z" fill="#3F515B"/><path d="M505.561 1018.88C484.161 1018.88 466.811 1001.53 466.811 980.128V937.216C466.811 915.816 484.161 898.467 505.561 898.467C526.961 898.467 544.311 915.816 544.311 937.216V980.128C544.311 1001.53 526.961 1018.88 505.561 1018.88Z" fill="#2C3D46"/><path d="M505.561 792.564C526.962 792.564 544.31 809.912 544.31 831.313V924.389C544.31 945.79 526.962 963.138 505.561 963.138C484.16 963.138 466.811 945.79 466.811 924.389V831.313C466.811 809.912 484.16 792.564 505.561 792.564Z" fill="#3F515B"/><path d="M716.347 710.548C726.218 653.678 681.731 604.164 664.461 586.893C664.461 586.893 370.801 628.095 359.141 671.408C343.951 727.86 365.291 786.51 406.661 827.814C443.261 864.349 629.904 855.845 629.904 855.845C629.904 855.845 690.184 867.789 716.347 710.548Z" fill="#2C3D46"/><path d="M326.498 673.641C314.696 620.771 333.142 591.548 385.838 579.634L594.528 532.451C647.224 520.537 699.51 553.738 711.312 606.608C723.114 659.478 689.964 711.996 637.268 723.91L428.578 771.092C428.578 771.092 348.885 779.394 326.498 673.641Z" fill="#2C3D46"/><path d="M680.074 537.94L412.152 551.415C401.804 551.935 393.415 560.716 393.415 571.026V713.198L703.082 697.623V559.708C703.082 547.047 692.781 537.301 680.074 537.94Z" fill="#2C3D46"/><path fill-rule="evenodd" clip-rule="evenodd" d="M573.524 715.813C570.657 706.181 567.457 697.406 565.662 693.866L577.258 687.988C579.619 692.647 583.091 702.388 585.984 712.104C588.853 721.741 591.512 732.54 591.806 739.203L591.807 739.204C592.47 754.258 588.899 805.631 585.869 831.003L572.961 829.461C575.977 804.203 579.433 753.713 578.819 739.777M573.524 715.813C576.415 725.525 578.604 734.908 578.819 739.776Z" fill="#4A5A62"/><path d="M577.25 673.5L564.25 676L563.5 706.25L592.5 701.75L577.25 673.5Z" fill="#4A5A62"/><path fill-rule="evenodd" clip-rule="evenodd" d="M576.022 667.117C578.809 666.581 581.622 667.915 582.97 670.413L598.22 698.663C599.223 700.521 599.261 702.75 598.322 704.641C597.383 706.533 595.583 707.85 593.497 708.174L564.497 712.674C562.593 712.969 560.657 712.405 559.21 711.134C557.763 709.862 556.954 708.015 557.002 706.089L557.752 675.839C557.828 672.784 560.021 670.194 563.022 669.617L576.022 667.117ZM570.618 681.395L570.191 698.634L582.408 696.739L573.795 680.784L570.618 681.395Z" fill="#4A5A62"/><path d="M695.345 791.151C636.005 826.779 518.07 829.236 465.552 828.899C439.211 828.677 370.621 779.566 370.621 779.566C370.621 779.566 377.381 808.677 398.032 829.923C433.811 862.233 454.692 877.787 477.398 877.785C487.774 877.785 634.907 868.697 657.677 849.072C667.387 840.695 680.852 826.406 695.345 791.151Z" fill="#1F2E35"/><path fill-rule="evenodd" clip-rule="evenodd" d="M414.091 590.559C444.185 606.893 455.341 644.531 439.007 674.626L391.48 762.194L347.03 844.091C330.696 874.186 293.058 885.341 262.963 869.007C232.869 852.673 221.713 815.035 238.047 784.941L330.024 615.476C346.358 585.381 383.996 574.226 414.091 590.559Z" fill="#2E3D46"/><path fill-rule="evenodd" clip-rule="evenodd" d="M243.38 856.647L227.384 841.046L251.822 815.99L267.818 831.591L243.38 856.647ZM280.996 876.09L259.117 876.085L259.125 841.085L287.709 841.091L287.703 865.767L306.019 861.482L313.991 895.562L287.027 901.87L280.996 876.09ZM335.057 845.367C344.251 842.388 354.12 847.427 357.099 856.621L363.003 874.842C365.982 884.036 360.944 893.905 351.749 896.884C342.555 899.863 332.686 894.825 329.707 885.631L323.803 867.41C320.824 858.215 325.862 848.347 335.057 845.367Z" fill="#3F515B"/><path d="M224.955 807.264L242.159 775.812C242.159 775.812 238 808.749 272.769 828.76C306.604 848.234 351.114 835.191 351.114 835.191L353.124 847.702C354.854 858.457 348.746 869.32 340.321 876.229L318.894 893.811C301.718 907.909 276.489 906.017 261.607 889.516L230.562 855.098C218.716 841.965 216.468 822.78 224.955 807.264Z" fill="#3F515B"/><path d="M689.184 363.581V574.971C689.184 592.501 671.974 673.641 550.494 673.641C437.804 673.641 414.794 596.691 414.794 574.971V363.581C414.794 332.341 689.184 359.381 689.184 363.581Z" fill="#3F515B"/><path fill-rule="evenodd" clip-rule="evenodd" d="M385.5 499.25C385.5 484.062 397.812 471.75 413 471.75H414C429.188 471.75 441.5 484.062 441.5 499.25C441.5 514.438 429.188 526.75 414 526.75H413C397.812 526.75 385.5 514.438 385.5 499.25Z" fill="#3F515B"/><path fill-rule="evenodd" clip-rule="evenodd" d="M650 444C650 428.812 662.312 416.5 677.5 416.5H678.5C693.688 416.5 706 428.812 706 444C706 459.188 693.688 471.5 678.5 471.5H677.5C662.312 471.5 650 459.188 650 444Z" fill="#3F515B"/><path d="M498.525 511.787C498.525 493.339 513.481 478.383 531.929 478.383V478.383C550.378 478.383 565.334 493.339 565.334 511.787V530.615C565.334 549.064 550.378 564.02 531.929 564.02V564.02C513.481 564.02 498.525 549.064 498.525 530.615V511.787Z" fill="#4A5A62"/><path d="M586.989 502.321C586.608 487.088 598.392 470.941 614.915 470.941C631.438 470.941 641.861 488.687 641.861 499.621V528.483C641.861 543.246 629.797 555.215 614.915 555.215C600.294 555.215 588.34 543.647 587.977 529.146L586.989 502.321Z" fill="#4A5A62"/><path d="M529.812 506.951C539.191 506.951 543.968 501.125 542.245 490.007C551.133 487.875 560 495.275 560 506.076V517.377C560 524.965 555.314 531.584 548.618 533.445C539.092 536.093 529.839 528.178 529.839 517.377L529.812 506.951ZM606.811 493.139C617.875 493.139 619.5 484.375 618.987 476.647C626.826 475.64 633.931 483.157 633.931 493.139V504.44C633.931 512.028 629.718 518.648 623.697 520.508C615.131 523.156 606.811 515.241 606.811 504.44V493.139Z" fill="#131F24"/><path d="M554.577 559.939C545.049 549.401 525.631 536.734 496.19 538.298C491.213 538.562 487.531 542.849 487.531 547.833V562.608C487.531 567.685 491.334 571.956 496.377 572.542L544.279 578.105C548.619 578.609 552.783 576.238 554.564 572.249L555.796 569.492C557.224 566.293 556.926 562.538 554.577 559.939Z" fill="#3F515B"/><path d="M599.986 555.007C609.514 544.469 628.932 531.802 658.373 533.366C663.35 533.63 667.032 537.917 667.032 542.901V557.677C667.032 562.753 663.229 567.024 658.186 567.61L610.283 573.174C605.944 573.678 601.78 571.307 599.999 567.318L598.767 564.56C597.339 561.361 597.637 557.606 599.986 555.007Z" fill="#3F515B"/><path d="M594.737 556.782C596.347 563.756 591.787 571.956 584.227 573.693C576.677 575.429 568.997 570.044 567.387 563.07C565.787 556.097 574.747 535.075 575.317 534.944C575.887 534.813 593.137 549.809 594.737 556.782Z" fill="#2C3D46"/><path fill-rule="evenodd" clip-rule="evenodd" d="M506.269 562.938C516.609 556.045 536.503 558.066 543.171 568.069C548.73 576.407 555.082 583.307 566.031 583.307C575.361 583.307 590.004 592.294 590.004 604.721C590.004 617.147 579.17 626.979 566.811 626.979C557.394 626.979 546.151 626.742 534.051 622.012C521.137 616.963 508.722 607.716 499.594 594.025C492.449 583.307 494.463 569.305 506.269 562.938Z" fill="#131F24"/><path fill-rule="evenodd" clip-rule="evenodd" d="M562.132 582.994C563.365 583.199 564.662 583.307 566.031 583.307C575.361 583.307 590.003 592.294 590.003 604.721C590.003 617.147 579.17 626.979 566.81 626.979C557.393 626.979 546.151 626.742 534.051 622.012C530.223 620.515 526.438 618.65 522.771 616.409C528.443 598.265 543.714 584.827 562.132 582.994Z" fill="#2C3D46"/><path fill-rule="evenodd" clip-rule="evenodd" d="M574.794 585.349C571.749 584.03 568.677 583.307 566.031 583.307C555.082 583.307 548.73 576.407 543.171 568.069C536.503 558.066 516.609 556.045 506.269 562.938C498.666 567.038 495.124 574.305 495.474 581.822C503.446 584.8 510.791 585.652 513.678 585.945C521.1 586.697 528.104 584.143 533.201 579.473C537.267 585.072 543.605 588.981 551.027 589.733C555.616 590.198 566.069 589.273 574.794 585.349Z" fill="#4A5A62"/><path fill-rule="evenodd" clip-rule="evenodd" d="M689.184 466.335C676.137 462.091 666.688 449.851 666.642 435.383L666.461 379.041C666.439 372.113 668.576 365.683 672.238 360.387C682.902 361.787 689.184 362.946 689.184 363.581V466.335Z" fill="#364750"/><path fill-rule="evenodd" clip-rule="evenodd" d="M442.066 376.771C459.433 376.734 473.541 390.783 473.577 408.15L473.694 463.928C473.73 481.295 459.681 495.403 442.314 495.44C424.948 495.476 410.84 481.427 410.803 464.06L410.686 408.282C410.65 390.915 424.699 376.807 442.066 376.771Z" fill="#364750"/><path d="M538.483 295.643C620.615 295.643 698.004 322.999 698.004 362.713C698.004 365.507 698.141 396.944 698.141 399.492C698.141 436.688 626.663 466.842 538.491 466.842C450.319 466.842 378.636 436.688 378.636 399.492C378.636 398.489 378.639 363.991 378.639 362.999C378.639 324.499 452.689 295.643 538.483 295.643Z" fill="#2C3D46"/><path d="M685.181 356.439C685.181 388.478 632.966 420.637 538.483 420.637C444 420.637 391.791 388.478 391.791 356.439C391.791 319.861 424.398 296.193 472.002 285.401C470.448 280.543 473.28 256.578 481.623 255.505C489.399 254.505 490.592 265.217 498.809 264.486C510.533 263.443 516.519 242.893 546.991 242.435C588.307 241.814 602.232 271.216 607.341 285.204C653.652 295.363 685.181 317.831 685.181 356.439Z" fill="#364750"/><path d="M904.116 360.223C904.116 415.406 859.381 460.141 804.198 460.141C749.015 460.141 704.28 415.406 704.28 360.223C704.28 305.04 749.015 260.305 804.198 260.305C859.381 260.305 904.116 305.04 904.116 360.223Z" fill="#364750"/><path fill-rule="evenodd" clip-rule="evenodd" d="M823.132 262.096C832.872 269.052 840.474 280.06 846.007 293.803C853.608 312.679 857.089 336.236 856.886 359.986C856.684 383.724 852.802 407.405 845.878 426.475C841.095 439.648 834.996 450.262 827.942 457.302C832.122 456.283 836.2 455.001 840.156 453.475C845.013 446.48 849.114 438.073 852.458 428.864C859.698 408.921 863.678 384.433 863.886 360.046C864.094 335.67 860.537 311.147 852.501 291.189C848.671 281.676 843.773 273.091 837.704 266.061C832.999 264.386 828.132 263.055 823.132 262.096ZM784.32 262.281C782.873 264.509 781.466 267.164 780.118 270.239C777.177 276.949 774.648 285.35 772.578 294.953C768.44 314.153 766.215 337.8 766.051 361.531C765.887 385.264 767.786 408.921 771.82 428.146C773.838 437.761 776.37 446.172 779.393 452.896C780.156 454.593 780.942 456.164 781.749 457.608C778.677 456.903 775.658 456.056 772.702 455.075C769.547 447.877 766.986 439.194 764.969 429.584C760.805 409.74 758.884 385.562 759.051 361.483C759.217 337.401 761.472 313.258 765.735 293.478C767.866 283.591 770.517 274.705 773.707 267.429C774.125 266.476 774.554 265.545 774.995 264.639C778.044 263.709 781.155 262.92 784.32 262.281Z" fill="#2C3D46"/></svg>