<svg width="1080" height="1080" viewBox="0 0 1080 1080" fill="none" xmlns="http://www.w3.org/2000/svg"><path d="M735.949 375.573C735.949 375.573 735.954 375.58 735.956 375.587C736.654 378.365 735.888 381.256 731.18 384.133C725.468 387.626 718.031 388.938 715.555 386.049C713.078 383.16 717.735 374.418 722.313 371.233C726.891 368.048 730.629 368.673 733.511 371.555C733.602 371.645 733.686 371.737 733.781 371.834C734.602 372.766 735.622 374.301 735.949 375.573ZM727.668 403.559C722.049 402.387 715.824 399.333 715.789 396.008C715.754 392.683 724.866 389.614 730.412 389.533C735.958 389.453 739.25 393.567 738.777 397.436C738.305 401.304 733.287 404.732 727.668 403.559Z" fill="#3F515B"/><path d="M542.44 726.805C629.341 726.805 699.788 781.656 699.788 849.318C699.788 916.98 629.341 971.831 542.44 971.831C455.539 971.831 385.092 916.98 385.092 849.318C385.092 781.656 455.539 726.805 542.44 726.805Z" fill="#1A2628"/>
<path fill-rule="evenodd" clip-rule="evenodd" d="M544.524 795.062C554.349 780.04 574.491 775.828 589.513 785.652L635.763 815.902C650.784 825.727 654.997 845.869 645.172 860.891C635.347 875.912 615.205 880.125 600.183 870.3L553.933 840.05C538.912 830.225 534.699 810.083 544.524 795.062Z" fill="#2C3D46"/><path fill-rule="evenodd" clip-rule="evenodd" d="M578.25 691.648C598.602 691.648 615.1 708.147 615.1 728.498V791.248C615.1 811.6 598.602 828.098 578.25 828.098C557.898 828.098 541.4 811.6 541.4 791.248V728.498C541.4 708.147 557.898 691.648 578.25 691.648Z" fill="#3F515B"/><path d="M519.405 919.141C497.975 919.141 480.603 901.766 480.603 880.339V837.368C480.603 815.937 497.975 798.566 519.405 798.566C540.835 798.566 558.207 815.937 558.207 837.368V880.339C558.207 901.766 540.835 919.141 519.405 919.141Z" fill="#2C3D46"/><path d="M480.603 731.322C480.603 709.891 497.975 692.52 519.405 692.52C540.835 692.52 558.207 709.891 558.207 731.322V824.522C558.207 845.953 540.835 863.324 519.405 863.324C497.975 863.324 480.603 845.953 480.603 824.522V731.322Z" fill="#3F515B"/><path d="M800.174 643.944L789.102 620.252L707.232 653.29L700.362 666.705C695.783 677.381 701 685.41 710.924 691.436L730.94 702.48C743.281 709.975 772.237 714.642 782.585 704.575L801.119 686.351C810.785 676.946 805.883 656.16 800.174 643.944ZM754.239 515.337C745 486.5 714.5 459 682.789 468.183L644.267 484.576L678.791 582.068L702.699 652.677C702.699 652.677 733.755 661.25 758.123 651.883C782.495 642.52 790.776 623.549 790.776 623.549C790.776 623.549 778.454 586.095 766.221 548.766C757.17 521.148 758.168 527.599 754.239 515.337ZM711.893 682.184L778.511 698.164L711.893 682.184ZM758.333 671.544C758.333 671.544 750.04 684.949 749.214 701.665L758.333 671.544ZM738.375 663.529C738.359 663.538 738.278 663.591 738.224 663.627C738.21 663.637 738.197 663.654 738.198 663.67C738.2 663.699 738.288 663.748 738.261 663.793C738.272 663.819 738.309 663.808 738.35 663.787C738.391 663.766 738.511 663.671 738.511 663.671C738.511 663.671 738.535 663.643 738.49 663.57C738.445 663.497 738.395 663.517 738.375 663.529Z" fill="#3F515B"/><path d="M754.239 515.337C745 486.5 714.5 459 682.789 468.183L644.267 484.576L678.791 582.068L702.699 652.677C702.699 652.677 733.755 661.25 758.123 651.883C782.495 642.52 790.776 623.549 790.776 623.549C790.776 623.549 778.454 586.095 766.221 548.766C757.17 521.148 758.168 527.599 754.239 515.337Z" fill="#2C3D46"/><path fill-rule="evenodd" clip-rule="evenodd" d="M697.306 678.684C699.239 670.629 707.336 665.665 715.391 667.597L782.009 683.577C790.065 685.509 795.029 693.606 793.097 701.662C791.164 709.718 783.067 714.682 775.012 712.749L708.394 696.769C700.338 694.837 695.374 686.74 697.306 678.684Z" fill="#1F2E35"/><path fill-rule="evenodd" clip-rule="evenodd" d="M771.128 679.374C771.127 679.375 771.126 679.377 771.125 679.379C771.108 679.407 771.063 679.483 770.995 679.602C770.857 679.842 770.626 680.257 770.328 680.828C769.731 681.976 768.886 683.719 768.01 685.908C766.222 690.377 764.501 696.223 764.195 702.406C763.787 710.681 756.748 717.057 748.473 716.648C740.199 716.239 733.823 709.2 734.232 700.926C734.752 690.393 737.59 681.179 740.156 674.766C741.457 671.514 742.736 668.861 743.72 666.973C744.213 666.026 744.635 665.263 744.955 664.705C745.115 664.426 745.249 664.197 745.354 664.021C745.406 663.933 745.451 663.858 745.489 663.797L745.539 663.715L745.559 663.682L745.572 663.66C745.574 663.657 745.576 663.653 758.333 671.545L745.576 663.653C749.935 656.608 759.179 654.43 766.224 658.789C773.249 663.134 775.434 672.337 771.128 679.374Z" fill="#3F515B"/><path d="M424.263 530.424V318.745C424.263 287.458 451.468 229.082 553.624 229.082C635.348 229.082 699.029 274.104 699.029 318.745V530.424C699.029 547.975 681.799 629.231 560.147 629.231C447.305 629.231 424.263 552.172 424.263 530.424Z" fill="#2C3D46"/><path d="M729.402 575.205C729.402 526.402 694.812 503.86 677.518 486.566H493.929C453.838 493.379 464.633 531.586 451.729 531.566C408.75 531.498 383.463 527.824 371.788 571.196C356.572 627.727 377.944 686.453 419.373 727.817C456.018 764.401 494.262 794.17 521.442 794.17C564.677 794.17 636.998 769.026 659.794 749.374C669.708 740.827 684.164 718.185 697.337 690.362C714.453 654.209 729.402 609.306 729.402 575.205Z" fill="#2C3D46"/><path fill-rule="evenodd" clip-rule="evenodd" d="M612.457 570.783C614.727 569.17 617.099 569.519 618.285 569.914C620.447 570.635 621.979 572.382 622.518 574.433C622.7 574.879 623.011 575.601 623.455 576.608C624.339 578.614 625.656 581.53 627.284 585.116C628.041 586.782 628.863 588.59 629.736 590.51C632.608 596.826 636.035 604.363 639.523 612.136C644.069 622.269 648.743 632.859 652.452 641.739C656.038 650.326 659.046 658.054 659.86 662.017C660.285 664.09 660.282 666.583 660.158 668.906C660.028 671.366 659.727 674.191 659.325 677.173C658.52 683.144 657.265 690.084 655.966 696.623C654.664 703.179 653.3 709.417 652.264 714.01C651.745 716.308 651.307 718.199 650.999 719.518C650.844 720.177 650.722 720.694 650.638 721.047C650.596 721.224 650.564 721.359 650.542 721.452L650.508 721.592L650.508 721.594C650.508 721.594 650.507 721.596 644.188 720.075L650.507 721.596C649.668 725.086 646.158 727.235 642.668 726.395C639.177 725.555 637.028 722.045 637.868 718.555L637.868 718.554L637.898 718.429C637.919 718.343 637.95 718.213 637.99 718.043C638.071 717.703 638.19 717.2 638.341 716.555C638.643 715.266 639.072 713.409 639.582 711.148C640.603 706.624 641.941 700.502 643.215 694.09C644.493 687.66 645.689 681.021 646.441 675.437C646.818 672.641 647.072 670.195 647.177 668.218C647.289 666.105 647.2 664.996 647.126 664.631M612.457 570.783C610.496 572.176 609.992 574.106 609.855 574.765ZM609.855 574.765C609.589 576.043 609.791 577.103 609.817 577.238ZM609.817 577.238C609.818 577.244 609.819 577.247 609.819 577.25ZM609.819 577.25C609.912 577.779 610.058 578.212 610.097 578.328ZM610.097 578.328C610.098 578.332 610.099 578.335 610.1 578.338ZM610.1 578.338C610.215 578.68 610.359 579.044 610.476 579.331ZM610.476 579.331C610.732 579.958 611.106 580.824 611.56 581.854ZM611.56 581.854C612.477 583.933 613.822 586.91 615.447 590.489ZM615.447 590.489C616.209 592.169 617.035 593.985 617.911 595.911ZM617.911 595.911C620.781 602.223 624.189 609.718 627.662 617.458Z" fill="#4A5A62"/><path d="M647.029 664.329L628.896 620.458L634.709 617.625L651.928 662.198L647.029 664.329Z" fill="#4A5A62"/><path d="M696.599 691.908C637.182 727.583 581.432 738.487 526.142 745.699C496.292 749.592 460.495 724.042 431.597 703.415C410.459 688.325 393.012 675.873 384.282 679.502C393.127 697.145 405.052 713.515 419.373 727.814C456.018 764.398 494.261 794.166 521.442 794.166C564.677 794.166 636.998 769.022 659.795 749.37C669.524 740.982 683.629 719.019 696.599 691.908Z" fill="#1F2E35"/><path d="M424.263 485.424V273.745C424.263 242.458 451.468 184.082 553.624 184.082C635.348 184.082 699.029 229.104 699.029 273.745V485.424C699.029 502.975 681.799 584.231 560.147 584.231C447.305 584.231 424.263 507.172 424.263 485.424Z" fill="#3F515B"/><path fill-rule="evenodd" clip-rule="evenodd" d="M605.188 589.161C604.478 584.312 607.442 579.678 612.142 578.289L622.931 575.099C627.019 573.891 631.419 575.448 633.837 578.959L649.598 601.85C651.366 604.417 651.814 607.671 650.806 610.621C649.798 613.571 647.452 615.869 644.483 616.818L621.873 624.042C619.117 624.923 616.113 624.547 613.659 623.015C611.205 621.483 609.548 618.949 609.129 616.086L605.188 589.161Z" fill="#4A5A62"/><path d="M642.471 408.533C642.471 390.08 657.542 365.137 673.949 365.137C683.87 365.137 686.603 373.79 686.729 378.116V405.289C686.729 424.148 675.284 448.887 658.305 448.887C644.722 448.887 642.344 432.529 642.471 424.35V408.533ZM561.104 415.406C561.104 396.81 576.18 381.734 594.776 381.734C613.372 381.734 628.447 396.81 628.447 415.406V433.148C628.447 451.744 613.372 466.819 594.776 466.819C576.18 466.819 561.104 451.744 561.104 433.148V415.406Z" fill="#4A5A62"/><path d="M647.052 410.978C647.052 399.854 656.137 386.629 666.027 386.629C672.007 386.629 673.656 391.844 673.732 394.452V410.833C673.732 422.201 666.832 435.304 656.597 435.304C648.409 435.304 646.975 425.443 647.052 420.513V410.978ZM591.527 420.738C591.527 413.139 596.688 406.51 604.055 404.647C614.541 401.995 624.722 409.922 624.722 420.738V432.054C624.722 439.653 619.56 446.282 612.193 448.145C601.707 450.797 591.527 442.87 591.527 432.054V420.738Z" fill="#1F2E35"/><path d="M652.365 384.531C655.775 386.343 658.167 390.585 658.167 395.529C658.167 402.121 653.914 407.465 648.667 407.465C646.867 407.465 645.183 406.835 643.748 405.742C643.748 401.631 647.549 389.228 652.365 384.531ZM606.307 408.538C606.307 414.842 601.197 419.954 594.892 419.954C588.587 419.954 583.476 414.843 583.476 408.538C583.476 402.233 588.588 397.123 594.892 397.123C601.196 397.123 606.307 402.234 606.307 408.538Z" fill="#4A5A62"/><path d="M657.379 459.358C658.984 466.341 654.416 474.552 646.853 476.291C639.289 478.03 631.594 472.637 629.989 465.654C628.383 458.671 637.362 437.62 637.933 437.489C638.504 437.358 655.774 452.375 657.379 459.358Z" fill="#2C3D46"/><path d="M561.194 453.725C584.392 451.893 609.777 464.663 619.57 471.276L598.543 468.918L561.151 460.905C550.722 455.818 537.996 455.556 561.194 453.725Z" fill="#3F515B"/><path d="M601.5 484.998C596 476.748 581 474.248 574.288 486.318C570.347 493.406 570.084 513.754 592.042 525.626C614 537.498 633.202 527.766 638.018 520.513C645 509.998 640.968 499.052 623.75 497.998C611.5 497.248 605.356 490.781 601.5 484.998Z" fill="#1F2E35"/><path fill-rule="evenodd" clip-rule="evenodd" d="M620.138 530.517C613.491 519.972 600.769 512.562 590.172 511.085C585.91 510.492 581.189 510.369 576.266 510.817C579.293 516.172 584.279 521.429 592.042 525.626C602.436 531.246 612.212 532.025 620.138 530.517Z" fill="#2C3D46"/><path fill-rule="evenodd" clip-rule="evenodd" d="M613.642 495.688C607.761 493.132 604.107 488.908 601.5 484.998C596 476.748 581 474.248 574.288 486.318C572.927 488.766 572.004 492.796 572.285 497.512C579.694 496.511 586.261 493.517 590.409 489.084C594.217 493.019 603.681 495.518 613.642 495.688Z" fill="#4A5A62"/><path d="M397.04 426.797V306.133L456.594 344.172L458.594 395.334L447.638 394.991L447.594 447.838C447.594 459.854 445.3 520.669 402.291 520.669C369.55 520.669 348.55 490.083 345.632 471.12C345.078 467.521 347.733 464.365 351.37 464.168C389.586 462.1 397.04 442.658 397.04 426.797Z" fill="#364750"/><path fill-rule="evenodd" clip-rule="evenodd" d="M441.348 384.004C456.922 384.004 469.548 396.629 469.548 412.204V413.096C469.548 428.671 456.922 441.297 441.348 441.297C425.774 441.297 413.148 428.671 413.148 413.097V412.204C413.148 396.629 425.774 384.004 441.348 384.004Z" fill="#3F515B"/><path fill-rule="evenodd" clip-rule="evenodd" d="M486.005 300.615C505.334 300.451 521.136 315.988 521.3 335.318L521.802 394.755C521.965 414.084 506.428 429.886 487.098 430.049C467.769 430.212 451.967 414.675 451.804 395.346L451.302 335.909C451.139 316.58 466.676 300.778 486.005 300.615Z" fill="#364750"/><path d="M712.245 308.953C712.245 346.2 640.67 376.395 552.377 376.395C464.084 376.395 392.509 346.2 392.509 308.953C392.509 295.01 392.219 284.955 392.219 273.054C392.219 239.176 453.157 205.262 551.627 205.262C647.658 205.262 712.029 238.627 712.029 272.782C712.029 286.956 712.245 296.274 712.245 308.953Z" fill="#2C3D46"/><path d="M699.274 265.841C699.274 297.924 648.8 330.091 552.454 330.091C456.108 330.091 405.481 297.924 405.481 265.841C405.481 213.856 471.249 187.91 552.377 187.91C633.505 187.91 699.274 210.04 699.274 265.841ZM623.115 210.408C623.115 243.346 596.414 270.047 563.476 270.047C539.988 270.047 519.67 256.468 509.946 236.732C505.937 234.137 502.195 230.982 498.846 227.289C483.288 210.134 480.096 185.665 490.521 166.821C492.69 162.899 498.154 162.447 501.31 165.927L504.742 169.711C511.098 174.759 516.023 172.634 520.104 169.473C530.977 157.957 546.388 150.77 563.476 150.77C596.414 150.77 623.115 177.471 623.115 210.408Z" fill="#364750"/><path d="M281.996 744.77L311.867 669.359L406.013 747.55L412.364 769.408C415.407 779.881 412.656 791.182 405.141 799.085L386.017 819.197C370.683 835.325 345.383 836.555 328.557 821.989L293.463 791.613C280.073 780.023 275.474 761.233 281.996 744.77Z" fill="#3F515B"/><path d="M406.921 805.359C406.921 814.36 399.625 821.656 390.624 821.656C381.623 821.656 374.327 814.36 374.327 805.359C374.327 796.359 381.623 789.062 390.624 789.062C399.625 789.062 406.921 796.359 406.921 805.359Z" fill="#1F2E35"/><path d="M354.517 562.146C367.022 530.012 403.318 514.226 435.35 526.988C441.929 529.849 451.609 542.206 459.334 556.926C468.518 574.425 474.94 595.264 470.114 607.465L439.685 682.199L410.244 756.738C410.244 756.738 370.11 776.683 332.179 759.94C294.247 743.197 295.425 711.909 295.425 711.909L328.717 626.359L354.517 562.146Z" fill="#2C3D46"/><path fill-rule="evenodd" clip-rule="evenodd" d="M781.795 698.532C782.952 696.024 785.922 694.929 788.43 696.086C807.197 704.743 809.949 724.522 808.053 743.58C806.613 758.043 802.316 773.92 798.636 787.518C797.425 791.991 796.281 796.218 795.328 800.067C792.001 813.496 786.117 829.923 778.086 844.954C770.108 859.887 759.726 873.983 747.154 882.113L746.715 882.396L746.227 882.583C719.868 892.682 693.497 890.537 677.188 889.21C674.81 889.017 672.646 888.841 670.727 888.723C657.165 887.888 640.388 893.845 622.726 904.946C605.195 915.965 587.388 931.68 571.933 949.389L571.929 949.394C539.022 987.001 508.042 996.805 481.67 993.885C455.744 991.015 435.458 975.932 423.589 966.371L423.446 966.256L423.313 966.131C411.855 955.429 405.699 940.831 402.365 925.282C399.032 909.738 398.427 892.788 398.423 876.944C398.421 871.863 398.48 866.931 398.537 862.187C398.659 851.901 398.771 842.501 398.237 834.391C397.851 828.517 397.139 823.691 395.971 819.989C394.795 816.26 393.326 814.213 391.815 813.169C389.544 811.599 388.975 808.484 390.546 806.213C392.116 803.941 395.231 803.373 397.502 804.943C401.577 807.76 403.995 812.186 405.508 816.98C407.029 821.8 407.809 827.547 408.216 833.735C408.776 842.243 408.657 852.288 408.533 862.799C408.478 867.453 408.422 872.198 408.423 876.941C408.427 892.65 409.042 908.723 412.143 923.186C415.228 937.577 420.682 949.923 430.008 958.701C441.721 968.124 460.009 981.426 482.77 983.946C505.179 986.427 533.13 978.548 564.401 942.811C580.379 924.503 598.909 908.105 617.405 896.48C635.771 884.936 654.712 877.718 671.342 878.742C673.448 878.871 675.749 879.054 678.219 879.251C694.537 880.549 718.264 882.436 742.155 873.433C752.47 866.593 761.715 854.375 769.266 840.242C776.87 826.011 782.473 810.37 785.621 797.662L790.475 798.864L785.621 797.662C786.681 793.384 787.903 788.866 789.165 784.202C792.796 770.778 796.753 756.148 798.102 742.589C799.936 724.156 796.638 710.885 784.241 705.166C781.734 704.01 780.639 701.039 781.795 698.532Z" fill="#364750"/></svg>