<svg width="1080" height="1080" viewBox="0 0 1080 1080" fill="none" xmlns="http://www.w3.org/2000/svg"><path d="M666.771 1003.39L440.09 1003.4C353.809 1001.41 290.151 921.665 305.062 835.066L380.088 347.806C388.56 281.16 445.256 231.211 512.426 231.211L610.427 237.211C682 244.003 720.304 281.16 728.776 347.806L801.913 835.661C816.423 922.086 752.816 1001.4 666.771 1003.39Z" fill="#1A2628"/><path fill-rule="evenodd" clip-rule="evenodd" d="M648.612 151.571C658.515 158.122 661.233 171.461 654.682 181.364L649.822 188.711C643.271 198.615 629.932 201.332 620.028 194.781C610.125 188.23 607.407 174.891 613.958 164.988L618.818 157.641C625.369 147.737 638.708 145.02 648.612 151.571Z" fill="#2C3D46"/><path fill-rule="evenodd" clip-rule="evenodd" d="M483.12 121.636C493.923 116.709 506.676 121.473 511.603 132.277L515.258 140.292C520.185 151.095 515.421 163.848 504.617 168.775C493.814 173.702 481.061 168.938 476.134 158.134L472.479 150.119C467.552 139.316 472.316 126.563 483.12 121.636Z" fill="#2C3D46"/><path fill-rule="evenodd" clip-rule="evenodd" d="M709.702 540.074C692.227 516.757 659.337 511.031 634.928 527.521C609.758 544.525 603.138 578.715 620.143 603.885L665.717 573.095C620.143 603.885 620.166 603.919 620.19 603.954L620.238 604.025L620.336 604.168C620.402 604.265 620.47 604.364 620.541 604.466C620.681 604.669 620.83 604.881 620.987 605.101C621.301 605.543 621.648 606.019 622.03 606.529C622.795 607.55 623.697 608.704 624.753 609.98C626.866 612.533 629.583 615.563 633.015 618.983C639.888 625.831 649.564 634.174 662.918 643.351C689.61 661.693 730.828 683.255 793.622 703.022C822.596 712.142 853.478 696.048 862.598 667.073C871.719 638.099 855.624 607.218 826.65 598.097C772.486 581.047 741.495 563.878 725.216 552.692C717.085 547.105 712.587 542.985 710.655 541.061C710.209 540.616 709.896 540.284 709.702 540.074Z" fill="#2C3D46"/><path d="M714.339 621.606H323.009C300.889 621.606 285.629 603.656 289.439 583.236L298.739 524.586C305.129 490.286 321.309 469.856 359.389 467.266L518.679 467.326L677.959 467.266C716.049 469.856 732.229 490.286 738.609 524.586L746.419 583.236C749 607.502 736.459 621.606 714.339 621.606Z" fill="#43545C"/><path d="M324.088 492.715C337.107 417.096 402.346 361.938 478.284 361.938H555.778C631.97 361.938 697.356 417.458 710.096 493.389L758.376 781.122C772.497 865.278 710.561 942.518 626.776 944.446L516.057 946.995L406.035 944.464C322.008 942.529 260.018 864.872 274.537 780.537L324.088 492.715Z" fill="#2C3D46"/><path d="M347.969 306.923C354.494 255.597 357.161 245.716 373.741 229.473C388 215.503 410.515 190.935 420.847 182.391C445.501 162.003 452.751 156.752 501.751 169.058C509.298 170.953 606.643 199.391 606.643 199.391C661.001 215.003 679.272 242.03 687.522 306.923L715.178 524.475C719.361 557.377 693.721 586.482 660.554 586.482H374.936C341.769 586.482 316.13 557.377 320.312 524.475L347.969 306.923Z" fill="#2C3D46"/><path d="M588.682 547.454L573.984 531.78C570.73 528.31 571.858 522.613 576.211 520.528C597.129 510.516 622.289 515.027 638.331 532.135C638.459 532.271 638.586 532.409 638.712 532.546C655.882 517.411 680.702 514.989 700.48 526.214C704.679 528.597 705.406 534.359 701.917 537.594L688.805 549.754C688.587 550.02 688.349 550.274 688.089 550.515L687.821 550.763C696.25 555.026 703.556 561.495 708.795 569.756C711.373 573.819 709.225 579.226 704.553 580.432L671.685 588.924C671.437 597.634 669.182 606.308 664.854 614.214C662.435 618.635 656.41 619.394 652.959 615.713L636.596 598.264L619.055 614.529C615.355 617.96 609.4 616.782 607.294 612.204C603.521 603.996 601.877 595.165 602.247 586.438L570.253 575.742C565.677 574.212 563.911 568.669 566.766 564.796C572.494 557.021 580.112 551.129 588.682 547.454Z" fill="#364750"/><path fill-rule="evenodd" clip-rule="evenodd" d="M744.889 869.558C722.78 912.752 679.027 943.244 626.776 944.446L516.057 946.995L406.035 944.464C359.311 943.388 319.401 918.898 295.67 882.867C295.192 868.883 299.202 856.059 310.554 847.455L400.711 781.058C434.5 760.001 477.001 765.001 520.037 781.058L573.767 798.187L725.193 844.455C735.916 847.489 742.233 857.08 744.889 869.558Z" fill="#1F2E35"/><path fill-rule="evenodd" clip-rule="evenodd" d="M643.291 747.335C656.396 761.544 655.5 783.687 641.29 796.792L603.346 831.785C589.136 844.889 566.993 843.993 553.889 829.784C540.784 815.574 541.68 793.431 555.89 780.327L593.834 745.334C608.044 732.229 630.186 733.125 643.291 747.335Z" fill="#1F2E35"/><path fill-rule="evenodd" clip-rule="evenodd" d="M637.778 752.419C648.074 763.584 647.37 780.982 636.205 791.278L598.261 826.271C587.096 836.568 569.699 835.864 559.402 824.699C549.106 813.534 549.81 796.136 560.974 785.84L598.918 750.847C610.083 740.551 627.481 741.254 637.778 752.419Z" fill="#2C3D46"/><path fill-rule="evenodd" clip-rule="evenodd" d="M837.707 920.425C837.513 935.611 825.045 947.765 809.858 947.572L758.848 946.921C743.662 946.727 731.508 934.259 731.701 919.073C731.895 903.886 744.363 891.732 759.55 891.926L810.56 892.576C825.746 892.77 837.9 905.238 837.707 920.425Z" fill="#2C3D46"/><path fill-rule="evenodd" clip-rule="evenodd" d="M583.489 221.944C585.388 222.307 586.632 224.14 586.269 226.039C584.649 234.515 578.456 242.092 569.508 245.653C559.696 249.558 548.955 247.682 541.885 241.339C540.447 240.048 540.327 237.835 541.618 236.396C542.909 234.957 545.121 234.837 546.56 236.128C551.522 240.581 559.413 242.137 566.919 239.15C573.751 236.431 578.243 230.744 579.394 224.724C579.757 222.826 581.59 221.581 583.489 221.944ZM619.205 225.477C621.116 225.187 622.901 226.501 623.191 228.412C624.078 234.256 627.74 239.042 632.999 240.873C638.763 242.881 645.251 240.909 649.635 235.961C650.916 234.514 653.129 234.38 654.575 235.662C656.022 236.943 656.156 239.155 654.875 240.602C648.878 247.372 639.506 250.552 630.698 247.484M619.205 225.477C617.294 225.767 615.98 227.552 616.27 229.463ZM616.27 229.463C617.495 237.53 622.676 244.691 630.698 247.484Z" fill="#131F24"/><path d="M616.282 229.456V229.326L619.081 225.521L619.207 225.48L627.031 238.112L623.23 240.03L616.564 230.258L616.282 229.456Z" fill="#131F24"/><path d="M653.778 288.609L657.254 368.234C658.317 392.566 639.453 413.153 615.12 414.215L602.332 414.774C577.999 415.836 557.413 396.972 556.35 372.639L552.874 293.015C551.811 268.682 570.675 248.096 595.008 247.033L607.796 246.475C632.129 245.413 652.715 264.277 653.778 288.609Z" fill="#3C4D56"/><path fill-rule="evenodd" clip-rule="evenodd" d="M607.779 246.543C634.187 245.55 656.4 266.153 657.394 292.561C657.886 305.645 658.517 322.424 659.026 335.932L659.915 359.558L660.146 364.957C661.275 391.36 640.786 413.679 614.384 414.808C587.981 415.936 565.662 395.448 564.533 369.045L564.297 363.52C564.294 363.439 564.291 363.358 564.287 363.276L612.104 361.476C564.287 363.276 564.287 363.277 564.287 363.276L563.394 339.531C562.885 326.023 562.254 309.244 561.761 296.158C560.768 269.75 581.371 247.537 607.779 246.543Z" fill="#3C4D56"/><path fill-rule="evenodd" clip-rule="evenodd" d="M630.479 346.395C636.002 346.395 640.479 350.872 640.479 356.395V356.475C640.479 361.998 636.002 366.476 630.479 366.476C624.956 366.476 620.479 361.998 620.479 356.476V356.395C620.479 350.872 624.956 346.395 630.479 346.395Z" fill="#1F2E35"/><path d="M613.859 248.151C613.555 241.191 618.879 235.304 625.752 235.004L633.011 234.687C639.882 234.387 645.7 239.787 646.004 246.747C646.308 253.709 640.983 259.595 634.111 259.895L626.852 260.212C619.98 260.512 614.163 255.112 613.859 248.151Z" fill="#1F2E35"/><path d="M565.606 613.391C565.999 632.501 556.749 645.001 535.993 642.081L487.23 632.131C476.957 627.773 468.289 616.097 466.638 604.397C466.638 604.397 464.999 545.5 463.77 511.355C462.621 479.437 559.999 503.501 561.026 518.562C563.199 550.442 565.606 613.391 565.606 613.391Z" fill="#43545C"/><path fill-rule="evenodd" clip-rule="evenodd" d="M453.818 491.39C468.654 460.223 505.947 446.984 537.113 461.821L610.113 496.571C641.28 511.407 654.519 548.699 639.682 579.866C624.846 611.033 587.553 624.271 556.387 609.435L483.387 574.685C452.22 559.849 438.981 522.556 453.818 491.39Z" fill="#1F2E35"/><path fill-rule="evenodd" clip-rule="evenodd" d="M538.752 573.328L464.317 625.051L392.987 522.401L467.422 470.678L538.752 573.328Z" fill="#1F2E35"/><path d="M457.611 410.182C455.482 395.086 465.999 388.001 478.973 391.992L529.737 406.192C547.999 410.251 552.249 418.251 554.078 436.924L457.611 410.182Z" fill="#43545C"/><path d="M304.119 612.776C307.679 578.706 329.999 569.786 332.079 569.026C332.119 569.006 332.149 568.996 332.169 568.986C332.219 568.976 332.239 568.966 332.239 568.966L459.299 502.516L572.449 524.717L705.57 567.005C706.92 567.515 727.509 575.946 731.119 610.576L736.519 575.506L709.829 476.126L560.293 426.831L478.759 413.186C464.939 409.606 446.75 407.127 436.479 413.086L326.299 476.736L318.989 488.526L301.699 571.646L304.119 612.776Z" fill="#43545C"/><path fill-rule="evenodd" clip-rule="evenodd" d="M460.59 494.611C473.646 467.185 506.463 455.535 533.89 468.591L606.89 503.341C634.317 516.397 645.966 549.214 632.911 576.641C619.855 604.068 587.037 615.717 559.61 602.662L486.61 567.912C459.184 554.856 447.534 522.038 460.59 494.611Z" fill="#2C3D46"/><path fill-rule="evenodd" clip-rule="evenodd" d="M545.917 491.761C563.447 516.568 557.547 550.888 532.74 568.418L426.464 643.516C401.657 661.046 367.336 655.146 349.806 630.339C332.277 605.531 338.177 571.211 362.984 553.681L469.26 478.583C494.067 461.054 528.388 466.953 545.917 491.761Z" fill="#2C3D46"/></svg>