<svg width="1080" height="1080" viewBox="0 0 1080 1080" fill="none" xmlns="http://www.w3.org/2000/svg"><path d="M414.994 721.359H658.809C715.829 721.359 762.053 767.583 762.053 824.603V852.859C762.053 909.879 715.829 956.103 658.809 956.103H414.994C357.974 956.103 311.75 909.879 311.75 852.859V824.603C311.75 767.583 357.974 721.359 414.994 721.359Z" fill="#1A2628"/><path fill-rule="evenodd" clip-rule="evenodd" d="M693.483 546.75C721.266 534.471 753.743 547.039 766.022 574.822L715.717 597.056C766.022 574.822 766.031 574.841 766.04 574.862L766.059 574.904L766.099 574.996C766.12 575.043 766.142 575.093 766.165 575.147L766.192 575.208C766.259 575.362 766.336 575.542 766.423 575.746C766.598 576.155 766.811 576.663 767.059 577.265C767.553 578.468 768.186 580.055 768.911 581.982C770.354 585.821 772.2 591.102 774.061 597.465C777.692 609.878 781.83 627.92 782.477 648.196C783.118 668.297 780.423 693.854 767.22 718.453C753.308 744.374 730.111 764.708 698.186 776.322C669.64 786.706 638.081 771.984 627.697 743.438C617.313 714.892 632.036 683.334 660.581 672.949C668.35 670.123 669.823 667.333 670.26 666.505C670.273 666.479 670.286 666.455 670.298 666.433C671.397 664.386 672.793 659.864 672.532 651.703C672.278 643.715 670.522 635.311 668.484 628.343C667.511 625.016 666.579 622.373 665.953 620.709C665.643 619.886 665.418 619.328 665.314 619.074C665.294 619.026 665.279 618.989 665.269 618.964C653.23 591.254 665.808 558.982 693.483 546.75Z" fill="#2C3D46"/><path fill-rule="evenodd" clip-rule="evenodd" d="M406.828 644.955L406.827 644.957ZM406.838 644.942C406.835 644.946 406.832 644.95 406.829 644.954L406.834 644.947C406.818 644.968 406.778 645.02 406.714 645.102C406.587 645.266 406.367 645.551 406.063 645.949C405.455 646.746 404.513 647.99 403.308 649.619C400.891 652.887 397.456 657.641 393.547 663.379C385.524 675.158 376.392 689.79 369.762 703.63C369.143 704.923 368.562 706.174 368.02 707.381C383.691 718.026 393.436 736.489 392.02 756.749C389.902 787.051 363.621 809.898 333.319 807.781C315.626 806.544 295.328 801.196 278.57 786.249C261.109 770.675 254.21 750.718 252.572 733.62C249.725 703.917 261.763 674.464 270.558 656.106C280.583 635.179 293.136 615.398 302.634 601.453C307.486 594.331 311.771 588.396 314.882 584.191C316.442 582.083 317.718 580.395 318.635 579.193C319.094 578.592 319.465 578.111 319.737 577.759C319.873 577.584 319.985 577.44 320.071 577.329L320.181 577.188L320.238 577.115C320.246 577.106 320.252 577.097 363.146 610.738L320.252 577.097C338.998 553.196 373.571 549.016 397.472 567.762C421.36 586.498 425.548 621.042 406.838 644.942ZM340.442 697.996C340.442 697.996 340.461 697.998 340.498 698.004C340.46 697.999 340.442 697.996 340.442 697.996Z" fill="#2C3D46"/><path d="M438.372 879.87L474.303 843.938C485.137 833.104 502.704 833.104 513.538 843.938C524.372 854.772 524.372 872.339 513.538 883.173L477.606 919.104C466.772 929.938 449.206 929.938 438.372 919.104C427.538 908.27 427.538 890.704 438.372 879.87Z" fill="#2C3D46"/><path d="M650.585 879.87L614.653 843.938C603.819 833.104 586.253 833.104 575.419 843.938C564.585 854.772 564.585 872.339 575.419 883.173L611.35 919.104C622.184 929.938 639.751 929.938 650.585 919.104C661.419 908.27 661.419 890.704 650.585 879.87Z" fill="#2C3D46"/><path d="M345.18 451.231C357.811 374.152 424.419 317.57 502.526 317.57H582.234C660.603 317.57 727.353 374.523 739.69 451.915L785.627 740.083C798.825 822.872 735.933 898.275 652.12 900.15L541.388 902.628L431.353 900.166C347.298 898.285 284.345 822.474 297.941 739.505L345.18 451.231Z" fill="#2C3D46"/><path d="M491.555 653.222L476.32 638.071C472.947 634.716 473.875 628.983 478.153 626.748C498.709 616.012 524.01 619.642 540.639 636.179C540.772 636.311 540.904 636.444 541.035 636.577C557.667 620.852 582.387 617.565 602.545 628.093C606.824 630.328 607.752 636.061 604.378 639.416L591.698 652.026C591.49 652.299 591.261 652.562 591.009 652.812L590.75 653.069C599.323 657.035 606.85 663.245 612.374 671.318C615.092 675.289 613.134 680.767 608.507 682.136L575.955 691.77C576.011 700.483 574.06 709.23 570.011 717.283C567.747 721.785 561.754 722.754 558.176 719.196L541.214 702.329L524.252 719.196C520.674 722.754 514.681 721.785 512.417 717.283C508.359 709.212 506.408 700.443 506.473 691.709L474.126 682.136C469.499 680.767 467.541 675.289 470.259 671.318C475.712 663.348 483.118 657.194 491.555 653.222Z" fill="#3C4D56"/><path d="M333.545 428.872C339.621 391.376 371.996 363.824 409.981 363.824H670.251C708.654 363.824 741.255 391.972 746.856 429.964L767.217 568.078H310.989L333.545 428.872Z" fill="#43545C"/><path fill-rule="evenodd" clip-rule="evenodd" d="M632.532 625.55C632.532 625.55 632.532 625.55 632.532 625.55L632.574 625.606L632.703 625.78C632.818 625.934 632.989 626.163 633.21 626.458C633.653 627.047 634.299 627.899 635.103 628.944C636.712 631.037 638.952 633.897 641.478 636.97C646.619 643.225 652.649 649.998 656.929 653.215C658.474 654.377 658.785 656.571 657.624 658.116C656.462 659.661 654.268 659.972 652.723 658.811C647.676 655.017 641.152 647.598 636.07 641.414C633.484 638.268 631.196 635.346 629.554 633.212C628.733 632.144 628.072 631.272 627.616 630.665C627.387 630.361 627.21 630.124 627.089 629.962L626.951 629.776L626.902 629.709C626.901 629.709 626.901 629.708 629.717 627.629L626.902 629.709C625.753 628.154 626.083 625.962 627.637 624.814C629.192 623.665 631.384 623.995 632.532 625.55Z" fill="#1F2E35"/><path d="M317.839 527.672C317.839 527.672 404.988 544.879 544.881 544.879C684.773 544.879 761.553 527.672 761.553 527.672L767.547 564.198C772.293 593.117 752.077 620.119 722.922 623.09C674.044 628.069 600.964 634.389 544.881 634.389C487.878 634.389 408.725 627.86 356.339 622.846C326.588 619.998 305.999 592.238 311.39 562.841L317.839 527.672Z" fill="#43545C"/><path d="M370.928 261.68C379.178 196.786 434.39 148.148 499.806 148.148H581.602C647.018 148.148 702.231 196.787 710.481 261.68L738.137 479.232C742.32 512.134 716.68 541.239 683.513 541.239H397.895C364.728 541.239 339.089 512.134 343.272 479.232L370.928 261.68Z" fill="#2C3D46"/><path d="M391.49 539.01C393.272 529.188 401.825 522.047 411.807 522.047H463.809C476.688 522.047 486.425 533.708 484.126 546.381L454.4 710.266C452.618 720.088 444.065 727.23 434.082 727.23H382.081C369.202 727.23 359.465 715.568 361.764 702.896L391.49 539.01Z" fill="#43545C"/><path d="M468.167 359.212C468.167 343.943 482.672 331.566 500.565 331.566C518.458 331.566 532.964 343.944 532.964 359.213V376.435C532.964 391.704 518.458 404.082 500.565 404.082C482.672 404.082 468.167 391.704 468.167 376.435V359.212Z" fill="#4A5A62"/><path d="M548.89 359.208C548.89 343.939 563.395 331.562 581.288 331.562C599.181 331.562 613.687 343.94 613.687 359.209V376.431C613.687 391.7 599.181 404.078 581.288 404.078C563.395 404.078 548.89 391.7 548.89 376.431V359.208Z" fill="#4A5A62"/><path d="M497.249 365.401C497.249 359.059 503.669 353.918 511.589 353.918C519.509 353.918 525.929 359.059 525.929 365.401V379.86C525.929 386.202 519.509 391.343 511.589 391.343C503.669 391.343 497.249 386.202 497.249 379.86V365.401Z" fill="#131F24"/><path d="M555.931 365.401C555.931 359.059 562.351 353.918 570.271 353.918C578.191 353.918 584.611 359.059 584.611 365.401V379.86C584.611 386.202 578.191 391.343 570.271 391.343C562.351 391.343 555.931 386.202 555.931 379.86V365.401Z" fill="#131F24"/><path d="M430.979 306.984L538.434 310.129C538.434 310.129 542.987 379.884 538.704 379.884C484.073 379.884 430.979 376.443 430.979 376.443V306.984Z" fill="#2C3D46"/><path d="M536.48 308.342L646.429 306.984V376.443C646.429 376.443 542.084 382.513 538.703 379.884C536.291 378.009 536.48 308.342 536.48 308.342Z" fill="#2C3D46"/><path d="M538.664 397.137C564.787 397.137 585.963 418.313 585.963 444.436V517.085C585.963 543.208 564.787 564.384 538.664 564.384C512.541 564.384 491.365 543.208 491.365 517.085V444.436C491.365 418.313 512.541 397.137 538.664 397.137Z" fill="#3C4D56"/><path d="M524.616 452.823C524.616 445.856 530.192 440.207 537.071 440.207H544.337C551.215 440.207 556.792 445.856 556.792 452.823C556.792 459.791 551.215 465.439 544.337 465.439H537.071C530.192 465.439 524.616 459.791 524.616 452.823Z" fill="#1F2E35"/><path d="M672.829 138.12C664.577 146.372 664.577 159.752 672.829 168.004C681.081 176.256 694.461 176.256 702.713 168.004L709.562 161.155C717.814 152.903 717.814 139.523 709.562 131.271C701.309 123.019 687.93 123.019 679.678 131.271L672.829 138.12Z" fill="#2C3D46"/><path d="M371.499 162.014C363.247 153.762 363.247 140.382 371.499 132.13C379.751 123.878 393.13 123.878 401.383 132.13L408.231 138.978C416.483 147.23 416.483 160.61 408.231 168.862C399.979 177.114 386.599 177.114 378.347 168.862L371.499 162.014Z" fill="#2C3D46"/><path fill-rule="evenodd" clip-rule="evenodd" d="M303.927 807.841C303.029 805.303 302.205 802.733 301.455 800.135C304.908 800.909 309.848 801.965 315.825 803.097C327.858 805.376 344.041 807.955 360.719 809.181C377.446 810.41 394.438 810.259 408.185 807.203C422.045 804.122 431.655 798.325 435.267 789.061C435.969 787.261 437.998 786.37 439.799 787.072C441.6 787.774 442.491 789.804 441.789 791.604C436.887 804.176 424.32 810.787 409.704 814.036C394.975 817.31 377.191 817.411 360.206 816.162C343.173 814.911 326.71 812.283 314.523 809.975C310.481 809.209 306.904 808.478 303.927 807.841Z" fill="#1F2E35"/><path d="M511.046 630.074C511.046 630.074 521.325 637.003 521.325 662.675C521.325 688.347 486.058 764.492 486.058 764.492L486.069 764.316C476.661 782.136 451.155 794.915 421.178 794.915C387.529 794.915 359.523 778.817 353.59 757.553C353.59 757.543 353.579 757.532 353.579 757.532C346.194 740.749 322.565 685.37 322.565 663.712C322.565 638.04 332.855 631.111 332.855 631.111L511.046 630.074Z" fill="#4A5A62"/><path d="M421.945 557.094C475.563 557.094 519.096 586.082 519.096 621.786C519.096 657.49 475.563 686.479 421.945 686.479C368.327 686.479 324.794 657.49 324.794 621.786C324.794 586.082 368.327 557.094 421.945 557.094Z" fill="#4A5A62"/><path d="M421.251 566.387C467.875 566.387 505.729 591.594 505.729 622.641C505.729 653.687 467.875 678.895 421.251 678.895C374.627 678.895 336.772 653.687 336.772 622.641C336.772 591.594 374.627 566.387 421.251 566.387Z" fill="#43545C"/><path d="M502.811 630.074C502.811 630.074 512.14 636.363 512.14 659.662C512.14 682.961 481.383 752.069 481.383 752.069L480.148 754.659C471.61 770.832 451.492 783.839 421.257 782.68C390.741 781.51 365.292 765.07 359.907 745.771C359.907 745.762 359.898 747.752 359.898 747.752C353.195 732.52 331.75 680.259 331.75 660.603C331.75 637.304 341.089 631.015 341.089 631.015L502.811 630.074Z" fill="#2C3D46"/><path d="M519.742 675.75C508.96 700.548 472.248 730.747 412.998 724.747C388.832 722.3 376 732.001 355.516 716.394C336.254 701.718 362.742 767.807 410.5 769.248C468.5 770.998 492 751.501 499.25 736.251C504.137 725.527 519.598 679.515 519.742 675.75Z" fill="#4A5A62"/><path d="M421.443 586.273C467.284 586.273 504.444 609.81 504.444 638.845C504.444 667.88 467.284 691.417 421.443 691.417C375.602 691.417 338.441 667.88 338.441 638.845C338.441 609.81 375.602 586.273 421.443 586.273Z" fill="#3c4d56"/><path fill-rule="evenodd" clip-rule="evenodd" d="M318.475 745.309C308.889 799.467 308.896 799.468 308.903 799.469L309.021 799.49L309.201 799.521C309.338 799.545 309.507 799.574 309.708 799.608C310.11 799.676 310.64 799.763 311.293 799.868C312.6 800.077 314.403 800.355 316.665 800.676C321.185 801.319 327.556 802.14 335.485 802.947C351.309 804.556 373.524 806.128 399.749 806.069C430.125 806.001 454.694 781.322 454.626 750.946C454.558 720.571 429.879 696.001 399.503 696.069C377.731 696.118 359.371 694.809 346.618 693.511C340.258 692.865 335.341 692.225 332.146 691.771C330.549 691.544 329.386 691.364 328.693 691.253C328.346 691.197 328.117 691.159 328.01 691.141C327.984 691.137 327.965 691.133 327.954 691.132C298.082 685.904 269.604 705.848 264.316 735.723C259.023 765.634 278.979 794.173 308.889 799.467L318.475 745.309ZM328.047 691.148C328.047 691.148 328.047 691.148 328.047 691.148L328.032 691.145Z" fill="#2C3D46"/><path fill-rule="evenodd" clip-rule="evenodd" d="M371.667 641.824C381.608 641.824 389.667 649.883 389.667 659.824V724.847C389.667 734.788 381.608 742.847 371.667 742.847C361.726 742.847 353.667 734.788 353.667 724.847V659.824C353.667 649.883 361.726 641.824 371.667 641.824Z" fill="#3c4d56"/><path fill-rule="evenodd" clip-rule="evenodd" d="M522.654 685.738C518.141 685.3 514.494 685.255 512.217 685.38C481.887 687.039 455.954 663.797 454.295 633.466C452.636 603.136 475.878 577.203 506.209 575.544C523.148 574.618 543.264 576.604 560.865 580.822C569.759 582.954 579.953 586.11 589.64 590.888C597.861 594.943 613.253 603.754 623.222 620.947M522.654 685.738C526.805 686.142 530.915 686.803 534.485 687.619ZM534.485 687.619C541.782 700.792 552.424 719.769 563.573 735.249C571.559 746.338 582.074 759.073 595.283 769.442C608.539 779.847 628.158 790.666 653 790.666C683.376 790.666 708 766.042 708 735.666C708 708.146 687.787 685.346 661.398 681.303C659.421 679.372 656.53 676.097 652.833 670.964C645.22 660.393 639.127 649.394 632.473 637.381C629.556 632.115 626.531 626.654 623.223 620.948M663.612 683.217C663.612 683.217 663.586 683.202 663.533 683.164C663.585 683.198 663.612 683.217 663.612 683.217Z" fill="#2C3D46"/><path d="M625.001 635.883L623.165 620.944L537.896 649.559L552.534 685.312L625.001 635.883Z" fill="#2C3D46"/><path fill-rule="evenodd" clip-rule="evenodd" d="M776.987 685.883L779.782 703.42C774.892 718.889 766.535 736.695 754.07 752.307C735.621 775.414 708.013 793.877 669.375 792.497C611.834 790.442 567.264 753.447 546.309 706.937C545.515 705.175 546.3 703.102 548.062 702.308C549.825 701.514 551.897 702.299 552.691 704.062C572.736 748.552 615.166 783.557 669.625 785.502C705.547 786.785 731.188 769.747 748.6 747.939C764.97 727.435 773.92 702.856 776.987 685.883Z" fill="#1F2E35"/><path d="M577.458 641.164C577.458 666.483 562.983 671.216 562.333 671.006C562.703 671.826 567.5 712.501 545.51 707.151C538 704.501 539.39 695.941 534.68 687.661C528.25 686.211 519.04 685.011 512.22 685.381C482.199 687.148 451.873 663.851 450.29 633.471C448.914 576.648 500.116 568.076 555.53 579.631C548.038 578.026 544.852 581.031 543.608 585.919C542.333 596.112 547.078 599.75 555.519 605.149C566.482 612.705 577.508 621.749 577.458 641.164Z" fill="#3C4D56"/><path fill-rule="evenodd" clip-rule="evenodd" d="M478.608 676.962C476.015 678.522 473.263 679.978 470.369 681.318C455.684 671.568 447.804 657.089 445.301 641.64C442.481 624.224 446.467 605.559 455.031 590.756C457.713 591.509 460.321 592.349 462.845 593.27C454.538 606.791 450.596 624.291 453.199 640.361C455.584 655.087 463.438 668.594 478.608 676.962Z" fill="#2C3D46"/></svg>