<svg width="1080" height="1080" viewBox="0 0 1080 1080" fill="none" xmlns="http://www.w3.org/2000/svg"><path d="M414.994 721.359H658.809C715.829 721.359 762.053 767.583 762.053 824.603V852.859C762.053 909.879 715.829 956.103 658.809 956.103H414.994C357.974 956.103 311.75 909.879 311.75 852.859V824.603C311.75 767.583 357.974 721.359 414.994 721.359Z" fill="#1A2628"/><path d="M348.464 451.424C361.095 374.345 421.625 317.527 499.732 317.527H579.44C657.809 317.527 722.212 373.484 734.549 450.876L782.833 740.04C796.031 822.829 733.139 898.232 649.326 900.107L538.594 902.585L428.559 900.123C344.504 898.242 281.551 822.431 295.147 739.462L348.464 451.424Z" fill="#2C3D46"/><path d="M492.305 649.972L477.07 634.821C473.697 631.466 474.625 625.733 478.903 623.498C499.459 612.762 524.76 616.392 541.389 632.929C541.522 633.061 541.654 633.194 541.785 633.327C558.417 617.602 583.137 614.315 603.295 624.843C607.574 627.078 608.502 632.811 605.128 636.166L592.448 648.776C592.24 649.049 592.011 649.312 591.759 649.562L591.5 649.819C600.073 653.785 607.6 659.995 613.124 668.068C615.842 672.039 613.884 677.517 609.257 678.886L576.705 688.52C576.761 697.233 574.81 705.98 570.761 714.033C568.497 718.535 562.504 719.504 558.926 715.946L541.964 699.079L525.002 715.946C521.424 719.504 515.431 718.535 513.167 714.033C509.109 705.962 507.158 697.193 507.223 688.459L474.876 678.886C470.249 677.517 468.291 672.039 471.009 668.068C476.462 660.098 483.868 653.944 492.305 649.972Z" fill="#364750"/><path fill-rule="evenodd" clip-rule="evenodd" d="M709.749 133.953C717.989 142.194 717.989 155.553 709.749 163.793L702.249 171.293C694.009 179.533 680.649 179.533 672.409 171.293C664.169 163.053 664.169 149.694 672.409 141.453L679.909 133.953C688.149 125.713 701.509 125.713 709.749 133.953Z" fill="#2C3D46"/><path fill-rule="evenodd" clip-rule="evenodd" d="M408.457 172.36C400.217 180.6 386.858 180.6 378.618 172.36L371.118 164.86C362.877 156.62 362.877 143.26 371.118 135.02C379.358 126.78 392.717 126.78 400.957 135.02L408.457 142.52C416.698 150.76 416.698 164.12 408.457 172.36Z" fill="#2C3D46"/><path d="M333.545 428.872C339.621 391.376 371.996 363.824 409.981 363.824H670.251C708.654 363.824 741.255 391.972 746.856 429.964L767.217 568.078H310.989L333.545 428.872Z" fill="#43545C"/><path d="M371.574 264.485C379.824 199.591 435.036 150.953 500.452 150.953H582.248C647.664 150.953 702.877 199.592 711.127 264.485L738.783 482.037C742.966 514.939 717.326 544.044 684.159 544.044H398.541C365.374 544.044 339.734 514.939 343.917 482.037L371.574 264.485Z" fill="#2C3D46"/><path d="M467.243 362.999C467.243 347.73 481.748 335.352 499.641 335.352C517.534 335.352 532.04 347.73 532.04 362.999V380.221C532.04 395.49 517.534 407.868 499.641 407.868C481.748 407.868 467.243 395.49 467.243 380.221V362.999ZM547.967 362.999C547.967 347.73 562.472 335.352 580.365 335.352C598.258 335.352 612.764 347.73 612.764 362.999V380.221C612.764 395.49 598.258 407.868 580.365 407.868C562.472 407.868 547.967 395.49 547.967 380.221V362.999Z" fill="#4A5A62"/><path d="M495.858 368.921L495.828 383.208C495.828 389.549 502.249 394.69 510.169 394.69C518.089 394.69 524.509 389.549 524.509 383.208V368.748C524.509 362.406 518.089 357.265 510.169 357.265C501.61 357.265 495.858 362.356 495.858 368.921ZM554.108 368.898L554.078 383.185C554.078 389.526 560.499 394.667 568.419 394.667C576.339 394.667 582.759 389.526 582.759 383.185V368.725C582.759 362.383 576.339 357.242 568.419 357.242C559.86 357.242 554.108 362.333 554.108 368.898Z" fill="#131F24"/><path d="M317.839 527.672C317.839 527.672 404.988 544.879 544.881 544.879C684.773 544.879 761.553 527.672 761.553 527.672L767.547 564.198C772.293 593.117 752.077 620.119 722.922 623.09C674.044 628.069 600.964 634.389 544.881 634.389C487.878 634.389 408.725 627.86 356.339 622.846C326.588 619.998 305.999 592.238 311.39 562.841L317.839 527.672Z" fill="#43545C"/><path d="M587.743 327.199C624.328 327.34 632.743 381.367 632.743 381.367C632.743 381.367 600.579 381.999 583.267 381.999C564.079 381.999 538.292 381.713 538.292 381.713C538.292 381.713 536.579 327.001 587.743 327.199ZM498.993 324.391C535.579 324.391 543.743 382.559 543.743 382.559C543.743 382.559 514.329 381.941 497.017 381.941C477.829 381.941 449.792 380.155 449.792 380.155C449.792 380.155 462.407 324.391 498.993 324.391Z" fill="#2C3D46"/><path fill-rule="evenodd" clip-rule="evenodd" d="M540.086 402.688C566.182 402.688 587.336 423.842 587.336 449.938C587.336 449.938 504.764 449.938 492.836 449.938C492.836 423.842 513.991 402.688 540.086 402.688ZM492.836 449.938V523.184C492.836 549.28 513.991 570.434 540.086 570.434C566.182 570.434 587.336 549.28 587.336 523.184V449.938C587.336 449.938 504.764 449.938 492.836 449.938Z" fill="#3C4D56"/><path d="M523.993 456.417C523.993 449.45 529.569 443.801 536.448 443.801H543.714C550.592 443.801 556.169 449.45 556.169 456.417C556.169 463.385 550.592 469.033 543.714 469.033H536.448C529.569 469.033 523.993 463.385 523.993 456.417Z" fill="#1F2E35"/><path fill-rule="evenodd" clip-rule="evenodd" d="M577.809 850.554C588.687 839.955 606.097 840.181 616.696 851.059L645.196 880.309C655.795 891.187 655.569 908.597 644.691 919.196C633.813 929.795 616.403 929.569 605.804 918.691L577.304 889.441C566.705 878.563 566.931 861.153 577.809 850.554Z" fill="#2C3D46"/><path fill-rule="evenodd" clip-rule="evenodd" d="M498.154 854.593C509.562 864.619 510.683 881.995 500.657 893.404L478.907 918.154C468.882 929.562 451.506 930.683 440.097 920.657C428.689 910.632 427.568 893.256 437.593 881.847L459.343 857.097C469.369 845.689 486.745 844.568 498.154 854.593Z" fill="#2C3D46"/><path d="M382.922 625.3C383.52 621.871 384.102 618.499 384.658 615.232C389.674 585.757 396.437 549.677 398.588 538.277C424.272 540.692 455.524 542.884 491.522 544.034C489.787 553.066 482.59 590.782 477.205 623.095C476.71 626.067 476.197 629.096 475.673 632.154C443.955 630.391 411.282 627.817 382.922 625.3Z" fill="#364750"/><path d="M392.777 534.807C394.559 524.985 403.112 517.844 413.094 517.844H465.096C477.975 517.844 487.712 529.505 485.413 542.178C485.413 542.178 476.873 586.258 470.707 623.255C464.541 660.252 455.687 706.063 455.687 706.063C453.905 715.885 445.352 723.027 435.369 723.027H383.368C370.489 723.027 360.752 711.365 363.051 698.693C363.051 698.693 372.118 650.894 378.16 615.392C384.202 579.89 392.777 534.807 392.777 534.807Z" fill="#43545C"/></svg>