<svg width="1080" height="1080" viewBox="0 0 1080 1080" fill="none" xmlns="http://www.w3.org/2000/svg"><path d="M365.662 645.074C404.244 612.399 460.813 612.473 499.311 645.246L615.373 738.984C651.183 769.47 646.554 826.092 606.267 850.356L451.659 943.471C424.13 960.05 389.656 959.906 362.267 943.096L232.228 876.445C192.289 851.933 187.989 795.545 223.749 765.259L365.662 645.074Z" fill="#1A2628"/><path fill-rule="evenodd" clip-rule="evenodd" d="M422.645 818.675C427.389 804.247 442.93 796.396 457.358 801.139C462.21 802.734 465.387 805.326 466.096 805.904C466.113 805.918 466.129 805.931 466.143 805.943C467.318 806.899 468.167 807.752 468.582 808.181C469.444 809.072 470.067 809.838 470.31 810.139C470.871 810.835 471.318 811.455 471.524 811.742C472.004 812.413 472.501 813.147 472.915 813.767C473.789 815.074 474.921 816.812 476.159 818.728C477.958 821.514 480.176 824.979 482.487 828.589C483.374 829.974 484.274 831.381 485.17 832.778C488.446 837.891 491.675 842.912 494.187 846.731C495.457 848.661 496.438 850.125 497.104 851.084C497.153 851.154 497.197 851.218 497.238 851.275C505.726 861.307 506.019 876.285 497.286 886.693C487.523 898.327 470.178 899.845 458.543 890.082C456.614 888.464 455.282 886.878 454.966 886.501C454.955 886.489 454.946 886.477 454.938 886.467C454.404 885.834 453.96 885.257 453.661 884.862C453.051 884.054 452.445 883.199 451.928 882.454C450.863 880.92 449.58 878.999 448.236 876.955C445.521 872.827 442.128 867.55 438.861 862.452C437.923 860.988 436.997 859.541 436.096 858.134C433.813 854.567 431.692 851.254 429.959 848.571C428.743 846.689 427.81 845.26 427.193 844.336C427.163 844.292 427.135 844.25 427.109 844.211C421.652 837.224 419.668 827.73 422.645 818.675Z" fill="#2C3D46"/><path fill-rule="evenodd" clip-rule="evenodd" d="M526.388 770.697C531.132 756.269 546.673 748.418 561.102 753.161C565.953 754.756 569.13 757.348 569.839 757.927C569.856 757.941 569.872 757.954 569.886 757.965C571.061 758.921 571.91 759.775 572.325 760.204C573.187 761.095 573.81 761.86 574.053 762.162C574.614 762.858 575.061 763.478 575.267 763.765C575.747 764.436 576.244 765.17 576.658 765.79C577.532 767.097 578.664 768.834 579.902 770.751C581.701 773.536 583.92 777.002 586.23 780.611C587.117 781.997 588.017 783.403 588.913 784.801C592.189 789.913 595.419 794.935 597.931 798.754C599.2 800.683 600.182 802.147 600.847 803.106C600.896 803.176 600.941 803.24 600.981 803.298C609.469 813.329 609.762 828.307 601.029 838.715C591.267 850.35 573.921 851.867 562.286 842.105C560.357 840.486 559.025 838.9 558.709 838.524C558.699 838.511 558.689 838.5 558.681 838.49C558.148 837.857 557.703 837.28 557.404 836.885C556.794 836.077 556.189 835.222 555.671 834.476C554.606 832.942 553.323 831.021 551.979 828.977C549.264 824.85 545.871 819.573 542.604 814.474C541.667 813.011 540.74 811.564 539.839 810.156C537.556 806.59 535.436 803.277 533.702 800.593C532.487 798.712 531.554 797.282 530.936 796.359C530.907 796.314 530.879 796.273 530.852 796.234C525.395 789.246 523.412 779.752 526.388 770.697Z" fill="#2C3D46"/><path d="M190.74 427.029C191.732 416.207 197.327 406.333 206.101 399.921L426.487 238.854C430.739 235.747 436.516 235.761 440.752 238.89L658.851 400.009C667.467 406.374 672.983 416.091 674.032 426.752L681.404 501.699C682.102 508.799 676.51 514.947 669.375 514.923L195.991 513.293C188.921 513.269 183.392 507.189 184.037 500.149L190.74 427.029Z" fill="#43545C"/><path d="M607.915 814.003L472.356 878.343C431.586 897.693 383.935 895.833 344.795 873.373L246.835 817.143C198.395 789.343 171.555 735.023 178.905 679.653L240.116 218.133C246.316 171.333 277.585 131.663 321.635 114.683L387.405 89.3326C417.275 77.8126 450.366 77.8126 480.236 89.3326L545.655 114.553C589.895 131.603 621.215 171.523 627.245 218.543L685.435 672.123C693.015 731.203 661.735 788.463 607.915 814.003Z" fill="#2C3D46"/><path fill-rule="evenodd" clip-rule="evenodd" d="M599.777 593.26C605.004 593.546 611.971 595.181 614.789 601.814L608.363 604.545L614.789 601.814C614.789 601.814 614.789 601.814 614.789 601.814C616.37 605.534 617.987 609.101 619.572 612.57C619.781 613.028 619.99 613.485 620.199 613.941C621.557 616.911 622.894 619.832 624.112 622.636C626.884 629.017 629.339 635.431 630.251 641.552C631.195 647.884 630.55 654.341 626.678 660.278C622.933 666.021 616.74 670.384 608.453 673.906C582.827 684.796 533.212 697.576 481.567 707.174C429.907 716.775 375.126 723.396 339.133 721.566L339.133 721.565C338.583 721.537 337.451 721.431 336.203 720.832C334.766 720.141 333.025 718.684 332.362 716.215C331.781 714.053 332.361 712.286 332.703 711.48C333.071 710.608 333.536 709.969 333.817 709.612C334.792 708.376 336.2 707.307 337.156 706.61C339.439 704.943 343 702.705 347.443 700.079C356.423 694.772 369.785 687.432 385.741 679.084C423.504 659.328 476.284 633.674 520.858 615.619C543.092 606.613 563.581 599.375 579.243 595.761C587.007 593.97 594.081 592.947 599.777 593.26ZM526.114 628.595C482.108 646.42 429.763 671.853 392.231 691.489L388.986 685.287L392.231 691.489C380.512 697.62 370.286 703.16 362.241 707.706C395.162 706.69 437.731 701.081 479.009 693.41C530.466 683.847 578.828 671.284 602.977 661.021C609.939 658.062 613.319 655.133 614.952 652.631C616.457 650.322 616.994 647.579 616.404 643.616C615.782 639.441 613.986 634.464 611.271 628.214C610.111 625.543 608.836 622.757 607.472 619.775C607.263 619.317 607.052 618.855 606.839 618.389C605.312 615.049 603.702 611.498 602.109 607.768C601.74 607.608 600.854 607.34 599.011 607.239C595.289 607.035 589.736 607.708 582.391 609.403C567.833 612.762 548.169 619.661 526.114 628.595ZM602.332 607.895C602.329 607.896 602.304 607.882 602.264 607.845C602.315 607.875 602.334 607.893 602.332 607.895Z" fill="#1F2E35"/><path d="M388.175 531.028L206.192 438.332C199.371 434.858 191.154 439.107 190.048 446.682L183.722 489.993C182.148 500.769 187.283 511.419 196.694 516.898L351.049 606.754C395.435 632.593 449.798 634.865 495.724 611.873C516.575 601.434 538.514 590.246 556.666 580.53C593.238 560.955 643.666 531.71 668.831 516.991C678.267 511.471 683.315 500.739 681.616 489.941L674.892 447.195C673.679 439.482 665.158 435.322 658.33 439.108C634.843 452.135 586.725 478.413 551.504 494.924C523.217 508.183 484.997 523.7 457.42 534.569C434.911 543.44 409.734 542.009 388.175 531.028Z" fill="#43545C"/><path d="M220.693 444.662C209.852 437.332 209.437 426.507 210.584 422.01L202.195 431.682L199.399 446.698C211.014 449.074 231.534 451.992 220.693 444.662Z" fill="#43545C"/><path d="M645.477 446.381C654.422 435.669 656.734 428.226 655.587 423.729L663.975 433.401L666.771 448.417C655.156 450.792 634.637 453.711 645.477 446.381Z" fill="#43545C"/><path d="M439.138 541.196C438.965 532.549 443.084 524.642 449.543 521.225L501.76 493.598C512.884 487.713 525.337 497.429 525.755 512.318L531.399 713.71C531.626 721.811 528.075 729.36 522.253 733.152L468.58 768.113C457.285 775.471 443.642 765.645 443.327 749.924L439.138 541.196Z" fill="#43545C"/><path fill-rule="evenodd" clip-rule="evenodd" d="M217.902 99.0804C221.438 88.3249 233.024 82.4723 243.779 86.0082C245.617 86.6123 246.958 87.3499 247.338 87.5587C247.918 87.8776 248.378 88.1662 248.651 88.3411C249.202 88.6949 249.665 89.0247 249.94 89.2244C250.525 89.6474 251.117 90.1045 251.604 90.4859C252.617 91.2797 253.823 92.2588 254.962 93.1937C257.259 95.0787 259.697 97.124 260.66 97.9322L260.673 97.9436C269.346 105.221 270.478 118.152 263.2 126.825C255.923 135.498 242.992 136.629 234.319 129.351C233.355 128.543 231.065 126.621 228.953 124.888C227.882 124.009 226.958 123.262 226.313 122.756C226.289 122.737 226.266 122.72 226.244 122.703C218.599 117.767 214.927 108.13 217.902 99.0804Z" fill="#2C3D46"/><path fill-rule="evenodd" clip-rule="evenodd" d="M426.386 17.3238C436.898 13.119 448.829 18.232 453.033 28.7441C453.752 30.54 454.049 32.0418 454.133 32.4667C454.261 33.1157 454.336 33.6542 454.378 33.9753C454.461 34.6249 454.506 35.1915 454.53 35.531C454.581 36.2504 454.612 36.9982 454.633 37.6161C454.676 38.9021 454.701 40.4557 454.717 41.9293C454.75 44.9005 454.75 48.0824 454.75 49.3398V49.3576C454.75 60.6794 445.571 69.8576 434.25 69.8576C422.928 69.8576 413.75 60.6794 413.75 49.3576C413.75 48.0996 413.749 45.11 413.72 42.3774C413.704 40.992 413.683 39.8039 413.656 38.9849C413.655 38.9546 413.654 38.9257 413.653 38.8981C412.519 29.8685 417.541 20.8616 426.386 17.3238Z" fill="#2C3D46"/><path d="M569.875 315.655C593.563 315.655 612.766 334.859 612.766 358.547V451.874C612.766 475.562 593.563 494.765 569.875 494.765C546.187 494.765 526.983 475.562 526.983 451.874V358.547C526.983 334.859 546.187 315.655 569.875 315.655Z" fill="#43545C"/><path d="M547.927 259.669C547.927 242.215 562.177 223.707 578.188 220.367C591.413 217.608 601.276 226.303 601.276 240.72L601.262 264.827C601.262 282.281 587.01 300.789 571 304.129C557.775 306.888 547.912 298.193 547.912 283.776L547.927 259.669Z" fill="#4A5A62"/><path d="M479.996 287.16C479.996 269.774 494.238 253.379 511.517 250.874C528.195 248.456 541.498 259.912 541.498 276.694V296.458C541.498 313.844 527.256 330.239 509.977 332.744C493.299 335.162 479.996 323.707 479.996 306.925V287.16Z" fill="#4A5A62"/><path d="M592.152 289.747C586.587 296.985 579.013 302.457 571 304.128C569.242 304.495 567.544 304.659 565.921 304.635L565.922 295.956C565.923 287.29 573.061 278.12 580.993 276.595C587.41 275.361 592.154 279.632 592.153 286.642L592.152 289.747Z" fill="#131F24"/><path d="M539.277 308.401C534.855 320.179 524.304 329.829 511.925 332.401C511.738 331.467 511.65 330.483 511.672 329.456L511.952 316.341C512.118 308.576 518.502 301.362 526.192 300.247C532.506 299.332 537.734 302.815 539.277 308.401Z" fill="#131F24"/><path d="M460.057 325.608L545.787 289.979L611.093 262.837L611.83 231.444L580.918 183.502L456.817 223.779L460.057 325.608Z" fill="#2C3D46"/><path d="M576.479 364.591C574.394 357.943 578.025 350.885 584.589 348.827L591.522 346.653C598.085 344.595 605.096 348.317 607.181 354.965C609.265 361.613 605.634 368.671 599.07 370.729L592.138 372.903C585.574 374.961 578.563 371.24 576.479 364.591Z" fill="#1F2E35"/><path d="M788.53 904.959C851.317 904.959 902.296 938.688 902.296 980.23C902.296 1021.77 851.317 1055.5 788.53 1055.5C725.742 1055.5 674.763 1021.77 674.763 980.23C674.763 938.688 725.742 904.959 788.53 904.959Z" fill="#2C3E47"/><path d="M900.794 992.479C891.941 1028.2 845.013 1055.5 788.53 1055.5C732.046 1055.5 685.119 1028.2 676.265 992.479C685.119 956.754 732.046 929.458 788.53 929.458C845.013 929.458 891.941 956.754 900.794 992.479Z" fill="#364851"/><path fill-rule="evenodd" clip-rule="evenodd" d="M805.827 953.685C805.87 956.446 803.667 958.719 800.906 958.762C770.899 959.23 752.486 971.434 746.167 988.022C745.184 990.602 742.295 991.897 739.714 990.914C737.134 989.931 735.839 987.042 736.822 984.461C745.113 962.699 768.318 949.269 800.75 948.763C803.511 948.72 805.784 950.923 805.827 953.685Z" fill="#4A5A62"/><path d="M697.522 491.783C730.881 491.783 757.966 518.868 757.966 552.228C757.966 585.587 730.881 612.672 697.522 612.672C664.162 612.672 637.077 585.587 637.077 552.228C637.077 518.868 664.162 491.783 697.522 491.783Z" fill="#2C3D46"/><path fill-rule="evenodd" clip-rule="evenodd" d="M791.886 139.649C794.644 139.51 796.993 141.633 797.131 144.391L792.138 144.643L787.144 144.894C787.005 142.136 789.129 139.788 791.886 139.649ZM792.138 144.643C787.144 144.894 787.144 144.896 787.145 144.901L787.169 145.384C787.185 145.71 787.209 146.196 787.241 146.838C787.304 148.123 787.398 150.031 787.52 152.525C787.762 157.511 788.113 164.838 788.549 174.194C789.422 192.906 790.634 219.738 791.99 252.211C794.704 317.158 797.997 404.66 800.318 494.893C802.638 585.137 803.985 678.065 802.808 753.879C802.219 791.792 801 825.365 798.964 852.157C796.913 879.146 794.066 898.693 790.426 908.932C789.502 911.534 790.861 914.393 793.463 915.318C796.065 916.243 798.924 914.883 799.849 912.281C803.996 900.614 806.893 879.794 808.936 852.914C810.993 825.837 812.217 792.039 812.806 754.035C813.987 678.016 812.636 584.929 810.314 494.636C807.992 404.332 804.696 316.773 801.982 251.793C800.624 219.302 799.412 192.454 798.539 173.728C798.102 164.365 797.75 157.032 797.508 152.039C797.386 149.543 797.292 147.632 797.229 146.344C797.197 145.7 797.173 145.212 797.156 144.885L797.132 144.399C797.132 144.394 797.131 144.391 792.138 144.643Z" fill="#4A5A62"/><path d="M794.857 920.136C823.494 921.636 845.526 946.106 844.025 974.742C842.524 1003.38 818.055 1025.41 789.418 1023.91C760.782 1022.41 738.75 997.94 740.25 969.304C741.751 940.667 766.22 918.635 794.857 920.136Z" fill="#2C3D46"/><path d="M843.678 965.386C837.394 985.599 815.89 999.836 791.179 998.541C765.67 997.204 745.291 979.765 742.082 958.058C748.465 935.124 770.104 918.839 794.857 920.136C820.315 921.47 840.553 940.957 843.678 965.386Z" fill="#4A5A62"/><path d="M812.61 910.011L779.117 908.256L778.628 917.59C778.143 926.839 785.248 934.73 794.497 935.214C803.747 935.699 811.636 928.594 812.121 919.345L812.61 910.011Z" fill="#2C3D46"/><path d="M796.065 896.284C805.332 896.769 812.587 902.277 812.257 908.575C811.927 914.874 804.135 919.593 794.869 919.107C785.602 918.622 778.346 913.114 778.676 906.816C779.006 900.517 786.798 895.798 796.065 896.284Z" fill="#2C3D46"/><path fill-rule="evenodd" clip-rule="evenodd" d="M781.127 1040.71C781.192 1037.95 783.482 1035.76 786.242 1035.83C798.398 1036.11 812.61 1033.08 824.102 1026.12C835.472 1019.24 844.024 1008.66 845.751 993.559C846.065 990.816 848.543 988.846 851.287 989.159C854.03 989.473 856 991.951 855.686 994.695C853.542 1013.45 842.757 1026.52 829.278 1034.68C815.921 1042.76 799.773 1046.14 786.01 1045.82C783.249 1045.76 781.063 1043.47 781.127 1040.71Z" fill="#4A5A62"/><path d="M671.279 666.269L680.592 660.487C710.413 641.974 719.58 602.791 701.067 572.97L698.395 568.666C679.882 538.845 640.698 529.678 610.877 548.191L601.564 553.973C571.743 572.486 562.576 611.669 581.089 641.49L583.761 645.794C602.274 675.615 641.458 684.782 671.279 666.269Z" fill="#43545C"/><path d="M659.532 673.562L668.845 667.78C698.666 649.267 707.833 610.083 689.32 580.262L686.648 575.958C668.135 546.137 628.951 536.971 599.13 555.484L589.817 561.265C559.996 579.778 550.829 618.962 569.342 648.783L572.014 653.087C590.527 682.908 629.711 692.075 659.532 673.562Z" fill="#4A5A62"/><path d="M640.5 681.469L649.813 675.687C679.634 657.174 688.801 617.99 670.288 588.169L667.616 583.866C649.103 554.045 609.919 544.878 580.098 563.391L570.785 569.172C540.964 587.685 531.797 626.869 550.31 656.69L552.982 660.994C571.495 690.815 610.679 699.982 640.5 681.469Z" fill="#43545C"/><path fill-rule="evenodd" clip-rule="evenodd" d="M624.973 520.81C634.501 522.434 640.908 531.475 639.284 541.002L607.024 730.261C605.4 739.789 596.36 746.196 586.832 744.572C577.305 742.948 570.898 733.908 572.522 724.38L604.782 535.121C606.406 525.593 615.446 519.186 624.973 520.81Z" fill="#1F2E35"/><path fill-rule="evenodd" clip-rule="evenodd" d="M797.112 133.087C801.07 136.939 801.156 143.27 797.304 147.228C764.078 181.368 683.067 301.593 632.657 534.38C631.489 539.778 626.165 543.206 620.768 542.037C615.37 540.868 611.942 535.545 613.11 530.147C664.051 294.908 746.384 170.873 782.972 133.279C786.824 129.321 793.155 129.235 797.112 133.087Z" fill="#4A5A62"/><path d="M282.199 638.66C287.475 657.028 311.486 709.841 311.486 709.841C358.382 728.22 547.648 692.14 605.715 667.464C636.213 654.504 650.43 619.275 637.47 588.777C624.51 558.279 589.28 544.063 558.782 557.023C558.782 557.023 363.302 616.087 312.187 584.371C282.548 565.98 276.923 620.292 282.199 638.66Z" fill="#2C3D46"/></svg>