<svg width="1080" height="1080" viewBox="0 0 1080 1080" fill="none" xmlns="http://www.w3.org/2000/svg"><path d="M614.404 612.095C669.632 612.095 714.404 656.867 714.404 712.095V720.976C714.404 776.204 669.632 820.976 614.404 820.976H494.458C439.23 820.976 394.458 776.204 394.458 720.976V712.095C394.458 656.867 439.23 612.095 494.459 612.095H614.404Z" fill="#1A2628"/><path d="M459.717 421.725H643.067C679.794 421.725 709.567 451.498 709.567 488.225V536.801C709.567 573.528 679.794 603.301 643.067 603.301H459.717C422.99 603.301 393.217 573.528 393.217 536.801V488.225C393.217 451.498 422.99 421.725 459.717 421.725Z" fill="#364851"/><path d="M406.848 602.841C373.25 602.841 324.432 596.812 324.432 562.639C324.432 562.639 355.423 562.728 370.951 554.024C386.48 545.32 417.76 525.594 417.76 525.594C425.705 551.343 433.727 602.841 406.848 602.841Z" fill="#364851"/><path fill-rule="evenodd" clip-rule="evenodd" d="M714.197 594.227C719.978 589.696 728.338 590.71 732.869 596.491L748.354 616.251C752.884 622.033 751.87 630.393 746.089 634.924C740.307 639.454 731.947 638.44 727.417 632.659L711.932 612.899C707.401 607.117 708.415 598.757 714.197 594.227Z" fill="#3F515B"/><path fill-rule="evenodd" clip-rule="evenodd" d="M703.4 592.725C703.4 578.454 714.969 566.885 729.24 566.885H770.375C784.646 566.885 796.215 578.454 796.215 592.725C796.215 606.996 784.646 618.565 770.375 618.565H729.24C714.969 618.565 703.4 606.996 703.4 592.725Z" fill="#3F515B"/><path fill-rule="evenodd" clip-rule="evenodd" d="M654.137 509.685C665.843 499.162 683.862 500.121 694.385 511.827L741.695 564.457C752.218 576.163 751.258 594.183 739.553 604.705C727.847 615.228 709.827 614.269 699.304 602.563L651.994 549.933C641.472 538.227 642.431 520.207 654.137 509.685Z" fill="#364851"/><path d="M490.781 283.625H618.081C662.154 283.625 697.881 319.353 697.881 363.425V605.295C697.881 649.368 662.154 685.095 618.081 685.095H490.781C446.709 685.095 410.981 649.368 410.981 605.295V363.425C410.981 319.353 446.709 283.625 490.781 283.625Z" fill="#3F515B"/><path d="M698.832 404.735C712.343 404.735 723.294 415.482 723.294 428.74C723.294 441.998 712.343 452.745 698.832 452.745C685.321 452.745 674.369 441.998 674.369 428.74C674.369 415.482 685.321 404.735 698.832 404.735Z" fill="#3F515B"/><path d="M411.931 404.735C425.442 404.735 436.394 415.482 436.394 428.74C436.394 441.998 425.442 452.745 411.931 452.745C398.42 452.745 387.469 441.998 387.469 428.74C387.469 415.482 398.42 404.735 411.931 404.735Z" fill="#3F515B"/><path d="M665.232 420.566H444.214V473.027C444.214 493.313 429.997 510.28 410.981 514.504V420.566V366.735V363.425C410.981 319.353 446.709 283.625 490.781 283.625H618.081C662.154 283.625 697.881 319.353 697.881 363.425V366.87V420.566V514.371C679.161 509.933 665.232 493.106 665.232 473.027V420.566Z" fill="url(#paint0_linear_105_4491)"/><path d="M507.825 319.268C538.255 319.268 562.925 343.937 562.925 374.368C562.925 404.798 538.255 429.468 507.825 429.468C477.394 429.468 452.725 404.798 452.725 374.368C452.725 343.937 477.394 319.268 507.825 319.268Z" fill="#1F2E35"/><path d="M607.776 336.96C607.776 357.488 587.572 374.13 562.651 374.13C537.729 374.13 517.526 357.488 517.526 336.96C517.526 316.433 537.729 297.893 562.651 297.893C587.572 297.893 607.776 316.433 607.776 336.96Z" fill="#1F2E35"/><path d="M474.15 504.694C474.15 485.533 489.683 470 508.844 470C528.005 470 543.537 485.533 543.537 504.694V516.306C543.537 535.467 528.005 551 508.844 551C489.683 551 474.15 535.467 474.15 516.306V504.694Z" fill="#4A5A62"/><path d="M560.613 504.694C560.613 485.533 576.146 470 595.307 470C614.468 470 630 485.533 630 504.694V516.306C630 535.467 614.468 551 595.307 551C576.146 551 560.613 535.467 560.613 516.306V504.694Z" fill="#4A5A62"/><path d="M504.868 516.074C510.723 515.818 515.391 510.99 515.391 505.072C515.391 502.868 514.744 500.816 513.629 499.094C515.627 498.142 517.864 497.61 520.224 497.61C528.705 497.61 535.58 504.485 535.58 512.966V523.303C535.58 531.784 528.705 538.659 520.224 538.659C511.743 538.659 504.868 531.784 504.868 523.303V516.074Z" fill="#131F24"/><path d="M568.572 516.073C574.427 515.817 579.094 510.989 579.094 505.072C579.094 502.869 578.448 500.817 577.334 499.096C579.332 498.145 581.568 497.612 583.928 497.612C592.409 497.612 599.285 504.487 599.285 512.968V523.306C599.285 531.787 592.409 538.662 583.928 538.662C575.447 538.662 568.572 531.787 568.572 523.306V516.073Z" fill="#131F24"/><path d="M531.499 554C513.499 536.5 486.499 527.5 460.499 532.5L473.999 583.5C500.666 580 549.199 571.209 531.499 554Z" fill="#3F515B"/><path fill-rule="evenodd" clip-rule="evenodd" d="M492.617 544.338C494.342 543.708 496.251 544.596 496.88 546.322C499.315 552.994 504.95 558.835 512.959 563.13C520.949 567.415 531.104 570.04 542.124 570.358C543.959 570.411 545.405 571.942 545.352 573.777C545.299 575.613 543.768 577.058 541.932 577.005C530.022 576.662 518.833 573.825 509.816 568.99C500.816 564.164 493.78 557.226 490.633 548.601C490.004 546.876 490.892 544.967 492.617 544.338Z" fill="#2C3D46"/><path fill-rule="evenodd" clip-rule="evenodd" d="M492.124 544.227C490.675 544.586 489.602 545.894 489.602 547.454C489.602 549.29 491.09 550.779 492.927 550.779C493.165 550.779 493.605 550.767 493.989 550.695C494.05 550.684 494.227 550.65 494.442 550.578C494.539 550.546 494.775 550.464 495.05 550.307C495.053 550.306 495.057 550.304 495.061 550.301C495.208 550.219 496.107 549.711 496.528 548.556C496.798 547.815 496.803 546.981 496.503 546.21C496.234 545.521 495.806 545.091 495.54 544.868C495.056 544.462 494.578 544.301 494.459 544.262L494.456 544.261C494.142 544.155 493.877 544.121 493.814 544.113C493.812 544.112 493.81 544.112 493.809 544.112C493.53 544.076 493.244 544.076 493.125 544.076L493.117 544.076C492.771 544.076 492.437 544.129 492.124 544.227ZM493.194 550.727C493.194 550.727 493.186 550.727 493.173 550.726C493.188 550.726 493.194 550.727 493.194 550.727ZM493 544.127C493 544.127 492.991 544.128 492.973 544.128C492.991 544.127 493 544.126 493 544.127Z" fill="#2C3D46"/><path fill-rule="evenodd" clip-rule="evenodd" d="M542.485 576.751C542.634 576.772 542.786 576.782 542.94 576.782C544.776 576.782 546.265 575.293 546.265 573.457C546.265 573.073 546.219 572.512 545.979 571.916C545.856 571.611 545.077 569.837 542.953 569.738C540.703 569.633 539.794 571.491 539.646 571.835C539.378 572.457 539.33 573.043 539.33 573.431C539.33 575.21 540.728 576.663 542.485 576.751Z" fill="#2C3D46"/><path d="M564.653 549.802C564.653 557.987 558.718 562.872 551.395 562.872C544.072 562.872 538.137 557.987 538.137 549.802C538.137 541.619 549.389 529.86 551.395 529.86C553.399 529.86 564.653 541.619 564.653 549.802Z" fill="#2C3D46"/><path d="M428.201 697.187C415.6 683.078 409.366 664.46 409.366 644.056V523.97C410.96 564.594 428.676 616.506 552.905 616.506C683.625 616.506 698.261 549.056 698.261 517.706V644.056C698.261 649.294 697.756 654.414 696.793 659.37C687.749 668.083 675.655 676.39 668.716 683.006C632.168 695.768 561.579 720.143 547.937 723.856H543.316C528.992 720.848 455.664 704.54 428.201 697.187Z" fill="#364851"/><path d="M698.261 612.095V644.034C698.261 688.107 659.114 723.834 615.041 723.834H487.741C443.669 723.834 409.366 688.107 409.366 644.034V616.616C413.497 643.029 436.988 675.859 553.038 675.859C673.896 675.859 696.112 634.635 698.261 612.095Z" fill="#24353D"/><path d="M529.705 628.618C533.443 628.618 536.473 631.648 536.473 635.386V659.85C536.473 663.587 533.443 666.618 529.705 666.618C525.968 666.618 522.938 663.587 522.938 659.85V635.386C522.938 631.648 525.968 628.618 529.705 628.618Z" fill="#4A5A62"/><path d="M566.637 635.386C566.637 631.647 569.665 628.618 573.405 628.618C577.142 628.618 580.172 631.647 580.172 635.386V659.848C580.172 663.587 577.142 666.618 573.405 666.618C569.665 666.618 566.637 663.587 566.637 659.848V635.386Z" fill="#4A5A62"/><path fill-rule="evenodd" clip-rule="evenodd" d="M707.76 680.812C717.911 686.619 721.432 699.556 715.625 709.707C713.627 713.2 710.301 718.152 706.156 722.901C702.351 727.261 696.055 733.567 687.814 737.1C677.065 741.707 664.616 736.728 660.009 725.979C655.44 715.32 660.298 702.989 670.862 698.291C670.96 698.225 671.185 698.068 671.535 697.776C672.277 697.158 673.207 696.247 674.247 695.054C676.392 692.597 678.127 689.966 678.864 688.677C684.672 678.526 697.609 675.005 707.76 680.812Z" fill="#1F2E35"/><path fill-rule="evenodd" clip-rule="evenodd" d="M392.743 680.826C402.897 675.023 415.832 678.55 421.635 688.704C422.372 689.993 424.105 692.623 426.247 695.08C427.287 696.272 428.215 697.183 428.956 697.801C429.304 698.091 429.529 698.248 429.627 698.314C440.189 703.014 445.044 715.346 440.472 726.005C435.862 736.752 423.412 741.728 412.664 737.118C404.424 733.584 398.132 727.276 394.329 722.915C390.186 718.165 386.862 713.212 384.865 709.718C379.062 699.564 382.589 686.629 392.743 680.826Z" fill="#1F2E35"/><path d="M550.512 642.459C605.38 642.459 649.858 673.6 649.858 712.017C649.858 750.433 605.38 781.574 550.512 781.574C495.644 781.574 451.167 750.433 451.167 712.017C451.167 673.6 495.644 642.459 550.512 642.459Z" fill="#3F515B"/><path d="M547.658 810.904C478.521 810.904 451.167 758.888 451.167 710.802L549.762 681.164C571.705 684.189 622.444 694.35 649.859 710.802C649.859 758.282 616.794 810.904 547.658 810.904Z" fill="#3F515B"/><path d="M568.823 637.62C553.513 637.62 539.485 642.44 528.608 650.443C500.68 654.965 477.807 668.47 466.822 686.272C462.33 693.172 459.776 701.092 459.776 709.514C459.776 709.626 459.776 709.74 459.778 709.852C459.776 709.966 459.776 710.08 459.776 710.196C459.776 744.102 499.825 771.587 549.226 771.587C598.63 771.587 638.678 744.102 638.678 710.196C638.678 701.234 635.88 692.72 630.85 685.044C626.697 658.262 600.509 637.62 568.823 637.62Z" fill="#2C3E47"/><path d="M528.474 650.478C518.395 660.082 508.296 672.888 505.102 690.011C504.612 692.639 502.085 694.371 499.457 693.881C496.83 693.391 495.099 690.864 495.589 688.236C498.12 674.665 504.392 663.519 511.613 654.492C516.968 652.786 522.609 651.435 528.474 650.478Z" fill="#24353D"/><path d="M460.855 700.062C476.099 694.567 491.911 694.008 508.004 700.293C525.243 707.027 543.302 721.809 561.409 747.928C562.931 750.125 565.946 750.672 568.143 749.15C570.339 747.626 570.884 744.613 569.363 742.416C550.57 715.305 531.127 698.935 511.527 691.28C495.779 685.13 480.251 684.731 465.41 688.54C463.346 692.156 461.802 696.018 460.855 700.062Z" fill="#24353D"/><path d="M591.338 727.135C596.933 727.135 601.469 731.67 601.469 737.266V763.275C601.469 768.87 596.933 773.405 591.338 773.405C585.742 773.405 581.207 768.87 581.207 763.275V737.266C581.207 731.67 585.742 727.135 591.338 727.135Z" fill="#2C3E47"/><path d="M578.342 743.612C583.937 743.612 588.473 748.147 588.473 753.743V779.752C588.473 785.347 583.937 789.883 578.342 789.883C572.746 789.883 568.211 785.347 568.211 779.752V753.743C568.211 748.147 572.746 743.612 578.342 743.612Z" fill="#2C3E47"/><path d="M572.963 650.837C575.452 649.717 578.38 650.827 579.499 653.316L584.379 664.157C585.498 666.646 584.388 669.574 581.899 670.694C579.41 671.813 576.482 670.703 575.363 668.214L570.484 657.371C569.365 654.882 570.474 651.956 572.963 650.837Z" fill="#3F515B"/><path d="M616.414 695.336C618.282 697.328 618.181 700.457 616.19 702.325L607.518 710.457C605.527 712.324 602.4 712.225 600.532 710.234C598.664 708.243 598.765 705.114 600.756 703.246L609.428 695.114C611.419 693.246 614.546 693.345 616.414 695.336Z" fill="#24353D"/><path d="M541.081 669.873C542.949 671.864 542.848 674.993 540.857 676.861L532.185 684.993C530.194 686.861 527.067 686.762 525.199 684.771C523.331 682.779 523.432 679.65 525.423 677.782L534.095 669.65C536.086 667.783 539.213 667.882 541.081 669.873Z" fill="#24353D"/><path d="M564.69 695.54C567.292 694.711 570.071 696.15 570.9 698.751L572.515 703.824C573.343 706.425 571.905 709.205 569.304 710.033C566.703 710.861 563.923 709.423 563.094 706.822L561.479 701.749C560.651 699.148 562.089 696.368 564.69 695.54Z" fill="#364851"/><path d="M484.531 721.678C482.663 723.669 482.764 726.798 484.755 728.666L493.427 736.798C495.418 738.666 498.545 738.567 500.413 736.576C502.281 734.585 502.18 731.455 500.189 729.588L491.517 721.456C489.526 719.588 486.399 719.687 484.531 721.678Z" fill="#364851"/><path d="M552.614 747.216C554.482 749.207 554.381 752.337 552.39 754.204L547.044 759.218C545.052 761.086 541.925 760.985 540.057 758.994C538.19 757.003 538.29 753.876 540.281 752.008L545.628 746.994C547.619 745.126 550.747 745.225 552.614 747.216Z" fill="#24353D"/><path d="M373.072 576.394C385.14 566.607 405.175 571.316 417.821 586.91C430.466 602.505 430.934 623.078 418.866 632.866C406.797 642.653 386.763 637.944 374.117 622.35C361.472 606.755 361.004 586.182 373.072 576.394Z" fill="#2C3E47"/><path d="M273.364 476.829C267.722 470.502 268.598 460.721 275.274 455.494C281.778 450.401 291.2 451.672 296.121 458.308L391.322 586.661L379.045 595.378L273.364 476.829Z" fill="#2C3E47"/><path d="M349.705 506.283C369.055 506.283 384.739 521.967 384.739 541.317C384.739 560.666 369.055 576.351 349.705 576.351C330.355 576.351 314.671 560.666 314.671 541.317C314.671 521.967 330.355 506.283 349.705 506.283Z" fill="#3F515B"/><defs><linearGradient id="paint0_linear_105_4491" x1="553.489" y1="322.021" x2="553.785" y2="540.863" gradientUnits="userSpaceOnUse"><stop stop-color="#2C3D46"/><stop offset="1" stop-color="#3F515B"/></linearGradient></defs></svg>
