<svg width="1080" height="1080" viewBox="0 0 1080 1080" fill="none" xmlns="http://www.w3.org/2000/svg"><path d="M432.883 635.146L565.093 720.136C584.773 731.396 586.263 755.866 566.243 768.746L441.033 853.056C417.003 865.076 385.083 863.876 366.543 852.126L233.793 771.686C215.543 758.156 210.873 733.826 232.273 719.586L368.183 635.696C387.183 623.736 413.453 623.836 432.883 635.146Z" fill="#1A2628"/><path d="M853.59 828.939C853.59 772.684 800.76 727.081 735.59 727.081C670.42 727.081 617.59 772.684 617.59 828.939C617.59 885.194 670.42 930.798 735.59 930.798C800.76 930.798 853.59 885.194 853.59 828.939Z" fill="#1A2628"/><path d="M216.81 429.523C161.521 400.691 163.992 320.752 220.956 295.39L304.927 258.004C332.754 245.614 216.81 429.523 216.81 429.523Z" fill="#364851"/><path d="M548.19 284.527L530.913 481.611C530.546 506.762 517.702 530.075 496.628 543.815L401.462 601.972C374.61 619.47 339.635 618.126 314.21 598.61L232.594 540.095C213.666 525.558 206.083 500.543 206.425 476.681L223.653 270.868C224.205 232.265 246.888 202.74 281.865 186.405L327.808 169.253C361.775 159.141 377.721 148.699 404.551 160.93L473.525 192.363C509.9 208.943 548.758 244.555 548.19 284.527Z" fill="#3F515B"/><path d="M533.049 457.243L530.913 481.61C530.546 506.762 517.702 530.074 496.628 543.814L401.462 601.971C374.609 619.47 339.635 618.125 314.21 598.609L232.594 540.095C213.666 525.557 206.083 500.542 206.425 476.681L211.045 421.478L220.303 426.106L367.963 547.706C367.963 547.706 496.621 489.942 533.049 457.243Z" fill="#24353D"/><path d="M207.552 463.22L212.005 410.023C247.654 452.75 328.186 506.446 365.303 507.107C383.371 506.203 490.794 483.857 534.763 437.693L531.566 474.16C496.451 509.123 401.996 560.265 366.253 559.627C331.863 559.017 281.303 537.107 233.303 488.107C232.893 487.691 230.299 485.192 226.652 481.68C221.348 476.571 213.818 469.319 207.552 463.22Z" fill="#364851"/><path fill-rule="evenodd" clip-rule="evenodd" d="M509.636 496.819C503.804 494.643 493.475 491.316 476.283 497.263C473.673 498.165 470.826 496.782 469.923 494.172C469.02 491.562 470.404 488.715 473.014 487.812C493.071 480.875 505.894 484.75 513.131 487.449C515.719 488.414 517.034 491.294 516.068 493.882C515.103 496.469 512.223 497.784 509.636 496.819Z" fill="#4A5A62"/><path fill-rule="evenodd" clip-rule="evenodd" d="M487.829 509.64C482.279 506.822 472.389 502.355 454.638 506.329C451.943 506.933 449.269 505.237 448.666 502.543C448.062 499.848 449.758 497.174 452.453 496.571C473.162 491.934 485.468 497.227 492.356 500.723C494.818 501.973 495.801 504.983 494.551 507.445C493.301 509.907 490.291 510.89 487.829 509.64Z" fill="#4A5A62"/><path d="M548.303 280.107C548.044 241.7 520.628 210.808 484.303 194.107L417.029 161.576C416.735 161.441 416.442 161.308 416.148 161.176C395.303 149.107 370.303 146.107 344.303 158.107L278.303 183.107C243.273 199.322 224.983 226.511 224.303 265.107L218.303 324.107L350.048 404.091C350.937 403.201 351.437 401.996 351.437 400.739L355.437 352.301C355.437 336.78 364.353 322.639 378.358 315.949L525.71 262.248C535.138 257.745 546.148 263.942 546.991 274.357L548.303 280.107Z" fill="url(#paint1_linear_105_4351)"/><path d="M287.322 338.862C299.166 343.94 306.352 357.001 303.371 368.034C300.39 379.067 288.372 383.895 276.528 378.817C264.684 373.739 257.499 360.678 260.48 349.645C263.461 338.612 275.478 333.784 287.322 338.862Z" fill="#3F515B"/><path d="M545.073 641.452L429.373 722.235C424.417 725.695 416.594 725.874 411.9 722.634L402.495 716.143C397.801 712.903 398.014 707.471 402.97 704.011L518.67 623.229C523.626 619.769 531.448 619.589 536.142 622.829L545.548 629.321C550.242 632.561 550.029 637.992 545.073 641.452Z" fill="#3F515B"/><path fill-rule="evenodd" clip-rule="evenodd" d="M472.256 576.555C482.538 571.932 494.613 576.479 499.3 586.712C499.318 586.749 499.363 586.843 499.437 586.989C499.599 587.311 499.892 587.874 500.314 588.611C501.169 590.107 502.483 592.197 504.223 594.414C507.928 599.136 512.32 602.865 516.933 604.398C527.677 607.969 533.493 619.573 529.922 630.317C526.352 641.061 514.747 646.876 504.003 643.306C488.696 638.219 478.185 627.648 471.968 619.724C468.747 615.619 466.345 611.8 464.725 608.968C463.908 607.541 463.274 606.335 462.818 605.429C462.589 604.976 462.404 604.595 462.263 604.297C462.192 604.149 462.132 604.02 462.083 603.913C462.058 603.86 462.036 603.812 462.017 603.77L461.99 603.71L461.972 603.671C461.97 603.665 461.967 603.659 480.318 595.407L461.967 603.659C457.324 593.333 461.93 581.198 472.256 576.555ZM389.524 629.998C398.058 624.872 409.042 626.618 415.565 634.138L446.87 670.223C452.602 676.831 453.51 686.349 449.129 693.921C444.749 701.494 436.046 705.452 427.46 703.777C417.66 701.866 410.007 696.528 404.576 691.47C399.061 686.334 394.675 680.408 391.395 675.275C388.062 670.06 385.504 665.084 383.788 661.453C382.921 659.617 382.245 658.075 381.771 656.954C381.533 656.393 381.345 655.933 381.208 655.592C381.139 655.421 381.083 655.279 381.039 655.169C381.018 655.113 380.999 655.066 380.984 655.026L380.963 654.973L380.951 654.941C380.949 654.936 380.947 654.932 400.08 647.572L380.947 654.932C377.373 645.641 380.99 635.124 389.524 629.998Z" fill="#1F2E35"/><path d="M447.401 782.351L441.712 795.909C438.218 802.296 439.499 810.282 444.904 815.16C451.035 820.694 460.829 825.222 474.703 819.332C481.862 816.292 485.606 808.352 483.624 800.831L480.85 786.186C478.904 775.915 468.553 769.227 458.534 772.21C458.212 772.306 457.888 772.411 457.562 772.527C452.934 774.165 449.301 777.824 447.401 782.351Z" fill="#161E22"/><path d="M462.69 725.726C462.949 722.166 466.046 719.49 469.607 719.749C473.167 720.009 475.843 723.106 475.583 726.666L471.703 779.877C471.444 783.437 468.347 786.113 464.786 785.854C461.226 785.594 458.55 782.497 458.81 778.937L462.69 725.726Z" fill="#161E22"/><path fill-rule="evenodd" clip-rule="evenodd" d="M593.808 479.427C598.05 486.543 595.719 495.75 588.603 499.992L502.618 551.244L484.356 720.641C483.468 728.877 476.071 734.834 467.834 733.946C459.598 733.058 453.641 725.662 454.529 717.425L470.372 570.464L385.603 620.992C378.487 625.233 369.28 622.903 365.038 615.787C360.797 608.671 363.127 599.464 370.243 595.222L573.243 474.222C580.359 469.98 589.566 472.311 593.808 479.427Z" fill="#3F515B"/><path fill-rule="evenodd" clip-rule="evenodd" d="M605.187 467.864C611.16 477.155 608.47 489.53 599.178 495.503L543.178 531.503C533.887 537.476 521.513 534.786 515.54 525.494C509.567 516.203 512.257 503.829 521.548 497.856L577.548 461.856C586.84 455.883 599.214 458.573 605.187 467.864ZM455.187 561.864C461.16 571.155 458.47 583.53 449.178 589.503L393.178 625.503C383.887 631.476 371.513 628.786 365.54 619.494C359.567 610.203 362.257 597.829 371.548 591.856L427.548 555.856C436.84 549.883 449.214 552.573 455.187 561.864Z" fill="#161E22"/><path d="M538.649 521.563C538.899 529.829 532.123 536.741 523.514 537.001C514.905 537.262 507.724 530.772 507.474 522.507C507.224 514.241 513.999 507.33 522.608 507.069C531.217 506.809 538.399 513.297 538.649 521.563Z" fill="#3F515B"/><path d="M631.644 809.096C651.52 794.507 672.057 783.317 686.393 776.789C694.656 773.026 704.406 776.673 708.169 784.937C711.933 793.2 708.285 802.95 700.021 806.714C687.477 812.427 668.937 822.511 651.1 835.604C647.743 838.068 643.759 839.071 639.913 838.726C635.375 838.32 631.026 836.04 628.118 832.078C622.746 824.759 624.324 814.469 631.644 809.096Z" fill="#364851"/><path d="M801.707 798.545C798.247 790.15 802.247 780.54 810.642 777.08C819.037 773.62 828.647 777.62 832.107 786.016C835.335 793.845 837.277 808.218 840.036 822.375C842.736 836.235 846.681 851.613 843.219 866.683C842.424 870.141 840.593 873.091 838.129 875.281C834.287 878.697 828.905 880.265 823.514 879.026C814.663 876.993 811.171 859.321 811.171 859.321L800.924 797.508" fill="#364851"/><path d="M804.88 821.368L802.626 807.775C802.632 804.555 802.976 801.168 803.683 797.615L817.414 800.347C815.69 809.011 816.966 815.281 819.561 819.971C822.219 824.774 826.646 828.607 832.328 831.602C835.562 833.307 839.078 834.673 842.668 835.757C843.55 840.661 844.269 845.672 844.498 850.72C838.2 849.262 831.72 847.107 825.8 843.987C818.497 840.138 811.666 834.617 807.312 826.75C806.364 825.036 805.55 823.242 804.88 821.368Z" fill="#2C3D46"/><path d="M880.687 742.984C902.958 754.514 909.921 785.286 896.239 811.714C882.557 838.142 853.411 850.22 831.14 838.69C808.869 827.16 801.905 796.388 815.587 769.96C829.269 743.532 858.416 731.454 880.687 742.984Z" fill="#364851"/><path d="M831.287 838.766C831.238 838.741 831.189 838.716 831.14 838.69C826.917 836.504 823.245 833.626 820.159 830.217C821.738 827.82 823.198 825.395 824.473 822.983C827.701 816.877 829.423 811.457 829.423 807.106H837.237C837.498 808.542 837.76 810.003 838.026 811.482C838.665 815.05 839.323 818.719 840.035 822.374L840.079 822.599C839.131 824.972 838.031 827.292 836.85 829.527C835.187 832.671 833.295 835.772 831.287 838.766Z" fill="#2C3D46"/><path d="M653.453 798.566C632.313 799.516 614.263 779.856 613.133 754.656C611.993 729.456 628.213 708.256 649.353 707.306C652.653 707.156 655.873 707.506 658.963 708.316C662.773 709.296 666.393 710.946 669.723 713.186C681.013 720.716 688.943 734.786 689.673 751.216C690.803 776.416 674.593 797.616 653.453 798.566Z" fill="#364851"/><path d="M629.945 790.366C628.993 779.842 629.783 767.017 634.178 751.862C640.099 735.581 650.851 721.306 664.886 710.446C666.555 711.226 668.171 712.142 669.723 713.187C681.013 720.717 688.943 734.787 689.673 751.217C690.803 776.417 674.593 797.617 653.453 798.567C644.778 798.957 636.624 795.876 629.945 790.366Z" fill="#2C3D46"/><path d="M724.659 802.902C720.768 794.698 724.263 784.893 732.467 781.002C740.671 777.11 750.477 780.606 754.368 788.81C757.997 796.461 762.908 809.071 766.399 823.066C769.816 836.766 772.328 853.563 769.653 868.793C768.082 877.736 759.558 883.712 750.616 882.141C741.672 880.57 737.268 863.104 737.268 863.104L723.824 801.907" fill="#364851"/><path d="M695.91 784.22C697.202 775.232 705.535 768.995 714.523 770.287C723.511 771.579 729.75 779.914 728.457 788.901C727.252 797.283 720.021 810.162 715.193 823.754C710.466 837.06 707.628 852.789 696.979 864.001C690.726 870.585 680.32 870.853 673.736 864.6C667.152 858.347 673.137 841.357 673.137 841.357L695.764 782.929" fill="#364851"/><path d="M843.963 782.606C843.963 821.576 809.423 874.106 742.443 875.106C708.584 874.886 678.593 860.006 660.153 836.786C660.143 836.766 660.133 836.756 660.133 836.756C647.173 819.856 634.423 782.481 646.053 753.486C660.638 717.123 697.543 690.106 742.443 690.106C798.513 690.106 843.963 731.516 843.963 782.606Z" fill="#364851"/><path d="M649.041 816.451C652.649 814.428 656.364 812.841 660.153 811.786C660.143 811.766 660.133 811.756 660.133 811.756C690.045 802.049 715.084 814.328 741.205 827.138C753.7 833.265 766.442 839.514 780.083 843.536C786.128 844.887 795.547 848.584 806.739 853.628C790.506 866.193 769.03 874.709 742.443 875.105C708.584 874.885 678.593 860.005 660.153 836.785C660.143 836.765 660.134 836.755 660.134 836.755C656.189 831.612 652.265 824.573 649.041 816.451Z" fill="#3F515B"/><path d="M821.19 760.646C821.19 781.684 804.143 798.739 783.114 798.739C762.085 798.739 745.038 781.684 745.038 760.646C745.038 739.609 762.085 722.555 783.114 722.555C804.143 722.555 821.19 739.609 821.19 760.646Z" fill="#4A5A62"/><path d="M815.223 763.399C815.223 773.086 808.381 780.938 799.94 780.938C791.499 780.938 784.656 773.086 784.656 763.399C784.656 753.712 791.499 745.859 799.94 745.859C808.381 745.859 815.223 753.712 815.223 763.399Z" fill="#24353D"/><path d="M674.802 751.527C665.552 769.603 650.944 780.629 642.178 776.143C641.552 775.823 640.971 775.427 640.439 774.969C627.461 763.231 628.143 744.059 634.69 731.265C640.356 720.193 651.704 708.307 671.907 709.697C673.253 709.757 674.517 710.082 675.679 710.677C684.445 715.163 684.052 733.451 674.802 751.527Z" fill="#4A5A62"/><path d="M630.426 745.337C631.044 740.288 632.555 735.437 634.69 731.265C636.73 727.279 639.506 723.187 643.167 719.647C646.989 724.161 647.791 730.846 644.802 736.732C641.364 743.505 635.864 745.226 630.426 745.337Z" fill="#24353D"/><path d="M789.889 752.028C789.889 755.851 786.791 758.95 782.968 758.95C779.145 758.95 776.046 755.851 776.046 752.028C776.046 748.205 779.145 745.107 782.968 745.107C786.791 745.107 789.889 748.205 789.889 752.028Z" fill="4A5A62"/><path d="M425.923 207.937C425.466 233.832 404.209 248.482 378.314 248.025C352.418 247.568 331.691 232.178 332.148 206.283C332.604 180.388 353.904 163.349 379.799 163.806C405.694 164.263 426.38 182.042 425.923 207.937ZM505.167 203.37C504.649 232.763 480.401 256.171 451.007 255.653C421.614 255.135 398.206 230.886 398.725 201.493C399.243 172.1 423.491 148.692 452.885 149.21C482.278 149.728 505.686 173.977 505.167 203.37Z" fill="#1F2E35"/><path d="M433.333 588.603C450.833 578.147 449.944 567.62 440.284 559.777C420.636 543.823 364.703 538.967 353.453 568.366C344.799 590.983 365.83 610.407 390.725 596.944C410.256 586.382 412.771 600.89 433.333 588.603Z" fill="#3F515B"/><path d="M434.589 587.833C434.181 588.09 433.763 588.347 433.333 588.603C431.956 589.426 430.66 590.129 429.434 590.727C429.274 590.532 429.138 590.313 429.028 590.073C426.11 583.662 419.278 580.452 412.382 578.934C409.015 578.192 405.833 577.901 403.484 577.798C402.314 577.747 401.361 577.742 400.709 577.75C400.383 577.755 400.133 577.762 399.969 577.768C399.887 577.77 399.827 577.773 399.789 577.775L399.747 577.777L399.746 577.777C398.092 577.87 396.676 576.605 396.583 574.951C396.489 573.297 397.754 571.88 399.408 571.786L399.578 574.782C399.408 571.786 399.41 571.786 399.41 571.786L399.413 571.786L399.42 571.786L399.441 571.785L399.511 571.781C399.569 571.779 399.651 571.775 399.754 571.771C399.962 571.764 400.259 571.756 400.634 571.751C401.384 571.742 402.451 571.747 403.747 571.804C406.332 571.917 409.875 572.238 413.673 573.074C421.107 574.711 430.365 578.527 434.489 587.588C434.526 587.669 434.559 587.751 434.589 587.833Z" fill="#364851"/><path d="M442.237 581.803C437.39 573.57 431.372 569.133 426.483 566.725C423.805 565.406 421.447 564.688 419.783 564.302C418.951 564.109 418.296 563.999 417.865 563.939C417.65 563.909 417.491 563.892 417.394 563.882C417.346 563.877 417.313 563.874 417.297 563.873L417.286 563.872C415.638 563.762 414.388 562.34 414.492 560.691C414.596 559.037 416.021 557.781 417.675 557.885L417.486 560.879C417.675 557.885 417.678 557.885 417.678 557.885L417.682 557.885L417.691 557.886L417.714 557.888C417.732 557.889 417.753 557.891 417.78 557.893C417.832 557.897 417.901 557.903 417.987 557.911C418.159 557.929 418.396 557.955 418.693 557.997C419.286 558.079 420.119 558.22 421.139 558.457C423.178 558.93 425.981 559.789 429.134 561.342C434.466 563.968 440.746 568.555 445.992 576.491C445.195 578.237 443.96 580.012 442.237 581.803Z" fill="#364851"/><path fill-rule="evenodd" clip-rule="evenodd" d="M273.937 475.108C287.37 461.987 308.896 462.24 322.017 475.673L344.244 498.429C357.365 511.862 357.112 533.389 343.679 546.509C330.246 559.63 308.719 559.377 295.599 545.944L273.372 523.188C260.251 509.755 260.504 488.229 273.937 475.108Z" fill="#364851"/><path d="M353.188 588.521L303.037 553.409C289.079 540.963 287.255 523.914 299.7 509.956C312.145 495.998 335.903 498.191 346.802 508.992C364.686 526.532 387.496 547.905 387.496 547.905" fill="#364851"/><path d="M475.126 354.019C476.881 336.052 493.411 318.434 510.227 316.605C524.118 315.095 533.396 325.037 531.947 339.878L529.775 362.119C528.02 380.086 511.49 397.704 494.674 399.533C480.783 401.044 471.504 391.101 472.953 376.261L475.126 354.019ZM402.05 378.828C402.05 360.846 416.779 343.89 434.651 341.298C451.901 338.797 465.659 350.647 465.659 368.003V388.445C465.659 406.427 450.93 423.383 433.058 425.975C415.809 428.476 402.05 416.627 402.05 399.27V378.828Z" fill="#4A5A62"/><path d="M432.15 395.286L431.588 406.427C431.185 414.411 437.286 420.125 445.231 419.208C453.215 418.285 460.032 411.019 460.435 402.996L461.119 389.445C461.521 381.461 455.42 375.747 447.475 376.664C444.238 377.039 441.192 378.456 438.689 380.544C438.689 380.544 433.1 385.316 432.15 395.286ZM482.278 376.517L481.474 387.643C480.898 395.616 486.873 401.463 494.836 400.718C502.838 399.969 509.812 392.852 510.389 384.84L511.367 371.307C511.943 363.334 505.967 357.489 498.005 358.233C494.76 358.537 491.684 359.888 489.136 361.921C489.136 361.921 483.445 366.571 482.278 376.517Z" fill="#161E22"/><path d="M439.881 386.582C439.527 391.806 435.402 395.781 430.667 395.461C425.932 395.14 422.381 390.645 422.735 385.421C423.089 380.197 427.213 376.22 431.948 376.541C436.683 376.862 440.234 381.358 439.881 386.582ZM494.701 367.31C494.347 372.534 490.223 376.51 485.488 376.19C480.753 375.869 477.201 371.373 477.555 366.149C477.909 360.925 482.034 356.949 486.769 357.27C491.504 357.59 495.054 362.086 494.701 367.31Z" fill="#4A5A62"/><path d="M533.144 378.246C532.202 377.169 531.16 376.337 530.03 375.737C523.745 372.4 514.713 376.235 504.639 385.056C494.837 393.638 489.975 404.775 492.041 412.378C492.48 413.994 493.233 415.45 494.317 416.688L533.144 378.246ZM454.292 428.243C454.529 426.426 454.574 424.75 454.436 423.203C453.437 411.965 442.798 407.527 426.202 405.359C411.416 403.427 397.814 407.406 391.668 416.433C389.966 418.933 388.835 421.819 388.41 425.075" fill="#3F515B"/><path fill-rule="evenodd" clip-rule="evenodd" d="M418.362 431.519C420.274 430.413 422.721 431.066 423.827 432.978C429.119 442.121 437.596 443.549 445.862 442.631C448.057 442.387 450.035 443.969 450.279 446.164C450.523 448.36 448.941 450.338 446.745 450.582C437.011 451.663 424.488 450.091 416.903 436.985C415.797 435.073 416.45 432.626 418.362 431.519Z" fill="#2C3D46"/><path d="M491.035 409.761C493.376 416.996 489.879 422.898 483.841 424.852C477.803 426.806 471.511 424.072 469.169 416.836C466.828 409.601 472.743 396.202 474.397 395.667C476.051 395.132 488.694 402.525 491.035 409.761Z" fill="#2C3D46"/><path d="M529.914 492.818C532.773 491.501 536.21 490.783 539.137 491.248C544.312 492.07 548.64 493.459 552.718 494.768C556.213 495.89 559.524 496.953 563.028 497.551C575.135 499.612 585.843 489.17 583.694 477.083C579.676 454.469 555.494 444.163 533.716 449.632L530.913 481.611C530.858 485.397 530.52 489.142 529.914 492.818Z" fill="#3F515B"/><path d="M578.701 492.628C577.301 491.01 575.523 489.089 573.432 487.104C568.024 481.971 560.205 476.109 551.173 474.339C549.547 474.02 547.97 475.08 547.652 476.706C547.333 478.332 548.393 479.908 550.019 480.227C557.381 481.67 564.185 486.6 569.302 491.456L573.504 496.204C573.504 496.204 573.504 496.204 573.504 496.204L569.302 491.456C571.031 493.097 572.532 494.696 573.756 496.087C575.596 495.214 577.267 494.039 578.701 492.628Z" fill="#364851"/><path d="M583.727 477.272C582.876 476.431 581.948 475.547 580.951 474.642C575.526 469.721 567.814 463.976 559.103 461.411C557.514 460.943 555.846 461.852 555.378 463.442C554.91 465.031 555.819 466.699 557.409 467.167C564.846 469.357 571.758 474.404 576.919 479.086C579.473 481.403 581.542 483.579 582.969 485.171C583.036 485.246 583.101 485.319 583.165 485.391C583.965 482.875 584.202 480.121 583.727 477.272Z" fill="#364851"/><defs><linearGradient id="paint1_linear_105_4351" x1="325.874" y1="261.133" x2="298.79" y2="416.624" gradientUnits="userSpaceOnUse"><stop stop-color="#2C3E47"/><stop offset="0.5" stop-color="#364750"/><stop offset="1" stop-color="#3F515B"/></linearGradient></defs></svg>