<svg width="1080" height="1080" viewBox="0 0 1080 1080" fill="none" xmlns="http://www.w3.org/2000/svg"><path d="M610.873 659.893C649.277 681.875 651.485 736.447 614.984 761.46L468.654 861.735C447.821 876.011 420.279 875.714 399.759 860.991L249.381 753.094C211.486 725.904 217.744 667.77 260.556 649.267L422.03 579.483C439.376 571.987 459.239 573.1 475.639 582.487L610.873 659.893Z" fill="#1A2628"/><path d="M379.657 788.349L384.975 778.969C391.861 766.824 387.597 751.394 375.453 744.508C363.308 737.623 347.878 741.888 340.992 754.033L335.674 763.413C328.789 775.558 333.052 790.988 345.197 797.874C357.342 804.759 372.772 800.494 379.657 788.349Z" fill="#1F2E35"/><path d="M600.758 674.714L582.619 671.279C571.185 669.115 560.159 676.631 557.995 688.065C555.831 699.499 563.345 710.525 574.78 712.689L592.917 716.124C604.351 718.289 615.379 710.772 617.543 699.338C619.707 687.904 612.192 676.878 600.758 674.714Z" fill="#1F2E35"/><path d="M274.188 604.129C216.291 566.978 222.958 480.346 285.858 452.492L347.762 425.079C380.219 410.705 417.896 414.872 446.431 435.988L491.124 469.066C533.483 500.416 543.739 559.515 514.416 603.304L495.681 631.284C465.773 675.949 405.621 688.464 360.382 659.436L274.188 604.129Z" fill="#2C3D46"/><path d="M274.403 430.287C275.081 391.819 298.05 357.252 333.253 341.728L396.256 313.944C422.117 302.538 451.625 302.77 477.306 314.577L545.77 346.056C581.365 362.42 603.909 398.291 603.217 437.463L599.5 648.27C599.065 672.909 586.398 695.717 565.709 709.104L470.973 770.417C445.146 787.131 411.676 786.13 386.898 767.901L300.786 704.559C281.454 690.338 270.215 667.625 270.639 643.63L274.403 430.287Z" fill="#3F515B"/><path d="M487.11 501.618C504.168 498.225 517.996 509.574 517.996 526.966V537.219C517.996 554.611 504.168 571.46 487.11 574.854C470.051 578.247 456.223 566.898 456.223 549.506V539.253C456.223 521.861 470.051 505.012 487.11 501.618Z" fill="#4A5A62"/><path d="M552.861 472.246C567.922 463.55 580.25 470.599 580.392 487.99L580.476 498.242C580.618 515.633 568.523 536.782 553.462 545.478C538.4 554.174 526.073 547.123 525.931 529.733L525.847 519.482C525.704 502.091 537.8 480.942 552.861 472.246Z" fill="#4A5A62"/><path d="M547.98 517.01V528.41C547.98 534.702 542.872 539.81 536.58 539.81C530.289 539.81 525.18 534.702 525.18 528.41V517.01C525.18 510.718 530.289 505.61 536.58 505.61C542.872 505.61 547.98 510.718 547.98 517.01Z" fill="#161E22"/><path d="M478.82 542.28V553.68C478.82 559.972 473.712 565.08 467.42 565.08C461.128 565.08 456.02 559.972 456.02 553.68V542.28C456.02 535.988 461.128 530.88 467.42 530.88C473.712 530.88 478.82 535.988 478.82 542.28Z" fill="#161E22"/><path d="M521.361 517.124L446.915 524.855L455.672 484.741L516.427 469.628L521.361 517.124Z" fill="#3F515B"/><path d="M524.093 469.102L571.323 436.007L589.619 458.236C589.619 458.236 553.739 472.415 527.354 501.356C526.32 486.8 524.093 469.102 524.093 469.102Z" fill="#3F515B"/><path fill-rule="evenodd" clip-rule="evenodd" d="M554.573 474.115C566.754 466.154 579.742 459.161 588.641 455.087L591.014 460.27C582.38 464.222 569.641 471.077 557.691 478.886C545.647 486.758 534.786 495.356 529.547 502.738L524.372 510.027V501.088C524.372 497.493 523.967 494.184 523.542 491.172C523.483 490.746 523.421 490.321 523.36 489.897C523.004 487.435 522.657 485.029 522.657 483.023H528.357C528.357 484.584 528.632 486.504 528.992 489.008C529.054 489.446 529.12 489.901 529.187 490.376C529.338 491.452 529.492 492.596 529.628 493.8C536.014 487.13 545.169 480.261 554.573 474.115Z" fill="#2C3D46"/><path fill-rule="evenodd" clip-rule="evenodd" d="M483.45 525.404C467.349 527.19 451.175 528.983 447.207 529.431L446.239 520.85C450.29 520.392 466.467 518.599 482.55 516.816C498.788 515.015 514.931 513.225 518.405 512.832L519.377 521.413C515.955 521.8 499.74 523.598 483.45 525.404Z" fill="#2C3D46"/><path d="M515.492 563.383C500.936 547.593 462.754 554.334 447.951 557.52L446.1 586.818L491.436 581.268C498.323 579.931 516.725 571.033 515.492 563.383Z" fill="#3F515B"/><path fill-rule="evenodd" clip-rule="evenodd" d="M514.153 586.245C515.483 589.233 516.14 592.472 516.142 595.278C516.143 597.646 514.224 599.567 511.856 599.569C509.488 599.57 507.567 597.652 507.565 595.283C507.564 593.707 507.172 591.653 506.318 589.733C505.461 587.809 504.282 586.33 502.935 585.488C501.71 584.722 500.037 584.277 497.563 584.908C494.952 585.575 491.362 587.479 486.753 591.73C485.012 593.335 482.299 593.226 480.693 591.485C479.088 589.744 479.197 587.031 480.938 585.425C486.145 580.623 490.962 577.742 495.442 576.598C500.059 575.42 504.16 576.139 507.482 578.216C510.683 580.217 512.825 583.262 514.153 586.245Z" fill="#2C3D46"/><path d="M537.688 563.471C539.158 570.776 535.094 576.132 528.997 577.358C522.902 578.585 517.082 575.22 515.611 567.915C514.141 560.609 521.397 548.225 523.067 547.891C524.737 547.555 536.219 556.165 537.688 563.471Z" fill="#2C3D46"/><path d="M424.455 581.407L417.509 505.002C415.966 488.033 425.487 471.988 441.12 465.21L573.964 408.932C583.666 404.726 594.52 411.754 594.655 422.327L594.661 482.831C594.73 488.307 597.747 493.062 602.192 495.595L603.217 437.463C603.908 398.291 581.365 362.421 545.77 346.056L477.306 314.577C451.625 302.77 422.116 302.538 396.255 313.944L333.253 341.728C298.05 357.252 275.081 391.819 274.403 430.287L273.184 499.391L395.925 587.065C403.624 592.564 413.944 592.638 421.721 587.253C423.619 585.94 424.664 583.706 424.455 581.407Z" fill="url(#paint0_linear_105_4584)"/><path d="M324.762 511.141C337.705 511.369 348.016 521.851 347.792 534.553C347.568 547.254 336.894 557.364 323.951 557.136C311.008 556.908 300.697 546.426 300.921 533.724C301.145 521.023 311.819 510.913 324.762 511.141Z" fill="#3F515B"/><path d="M600.322 601.691L599.5 648.27C599.065 672.909 586.398 695.717 565.709 709.104L470.973 770.417C445.146 787.131 411.676 786.13 386.898 767.901L300.786 704.559C281.454 690.338 270.215 667.625 270.639 643.63L271.632 587.333L278.283 588.256L441.922 711.578L600.322 601.691Z" fill="#24353D"/><path d="M271.17 613.519L272.234 553.259C309.011 602.135 403.247 660.281 441.354 660.952C472.158 661.497 565.629 626.133 600.916 567.96L599.673 638.512C559.834 685.144 476.952 723.898 440.256 723.251C404.22 722.616 311.038 671.823 271.17 613.519Z" fill="#2C3D46"/><path d="M530.68 643.736C533.977 643.795 536.603 646.516 536.544 649.813L536.097 675.183C536.038 678.48 533.32 681.107 530.023 681.049C526.727 680.99 524.099 678.271 524.158 674.974L524.606 649.602C524.665 646.305 527.384 643.677 530.68 643.736Z" fill="#4A5A62"/><path d="M561.719 624.223C565.015 624.282 567.641 627.003 567.582 630.3L567.136 655.67C567.077 658.967 564.358 661.594 561.062 661.536C557.765 661.477 555.137 658.758 555.196 655.461L555.645 630.089C555.704 626.792 558.422 624.164 561.719 624.223Z" fill="#4A5A62"/><path d="M426.061 350.705C460.973 351.321 488.774 380.121 488.159 415.033C487.543 449.946 458.743 477.748 423.83 477.133C388.918 476.517 361.117 447.717 361.733 412.805C362.348 377.892 391.148 350.089 426.061 350.705Z" fill="#1F2E35"/><path d="M501.989 316.993C475.425 316.993 453.892 338.526 453.892 365.09C453.892 391.654 475.425 413.188 501.989 413.188C528.553 413.188 550.085 391.654 550.085 365.09C550.085 338.526 528.553 316.993 501.989 316.993Z" fill="#1F2E35"/><path fill-rule="evenodd" clip-rule="evenodd" d="M335.692 331.359C353.884 328.367 371.362 327.866 383.13 328.371C389.913 328.662 395.176 334.396 394.885 341.179C394.594 347.962 388.86 353.225 382.077 352.934C371.779 352.493 356.007 352.934 339.683 355.619C332.983 356.721 326.659 352.184 325.557 345.484C324.456 338.785 328.993 332.461 335.692 331.359Z" fill="#364851"/><path d="M365.688 257.533C377.23 248.307 395.5 251.985 406.5 265.745C417.499 279.505 417.058 298.138 405.515 307.364C393.973 316.591 375.702 312.912 364.703 299.153C353.704 285.393 354.145 266.76 365.688 257.533Z" fill="#364851"/><path d="M364.322 298.664C362.435 296.227 360.903 293.645 359.722 290.994C366.875 282.86 377.633 277.517 388.037 274.054C395.223 271.662 402.523 270.075 408.903 269.102C410.528 271.656 411.795 274.327 412.707 277.037C406.215 277.888 398.362 279.461 390.686 282.017C379.689 285.676 369.775 291.118 364.322 298.664Z" fill="#2C3D46"/><path d="M436.797 388.526C447.122 388.526 455.491 396.898 455.491 407.222C455.491 417.547 447.122 425.916 436.797 425.916C426.473 425.916 418.103 417.547 418.103 407.222C418.103 396.898 426.473 388.526 436.797 388.526Z" fill="#364851"/><path d="M384.761 378.462C395.086 378.462 403.456 386.834 403.456 397.158C403.456 407.483 395.086 415.852 384.761 415.852C374.437 415.852 366.067 407.483 366.067 397.158C366.067 386.834 374.437 378.462 384.761 378.462Z" fill="#364851"/><path d="M430.534 269.005C474.777 269.005 510.643 300.331 510.643 338.975C510.643 377.619 474.777 408.944 430.534 408.944C386.29 408.944 350.424 377.619 350.424 338.975C350.424 300.331 386.29 269.005 430.534 269.005Z" fill="#364851"/><path d="M463.792 402.648C453.662 406.691 442.399 408.944 430.533 408.944C387.476 408.944 352.352 379.275 350.5 342.065C356.726 332.365 370.265 322.216 393.449 329.743C420.483 338.52 449.879 379.207 463.792 402.648Z" fill="#3F515B"/><path d="M514.155 300.094C531.769 300.094 546.05 314.377 546.05 331.992C546.05 349.606 531.769 363.887 514.155 363.887C496.54 363.887 482.259 349.606 482.259 331.992C482.259 314.377 496.54 300.094 514.155 300.094Z" fill="#364851"/><path d="M484.515 335.216C489.316 330.415 497.1 330.415 501.9 335.216C506.378 339.694 513.003 347.342 518.975 356.321C524.823 365.112 530.81 376.311 532.75 387.709C533.888 394.403 529.387 400.751 522.693 401.891C515.999 403.031 509.652 398.528 508.512 391.834C507.427 385.454 503.642 377.662 498.504 369.936C493.49 362.399 487.917 356.004 484.515 352.601C479.715 347.8 479.715 340.017 484.515 335.216Z" fill="#364851"/><path d="M499.067 370.803C498.878 370.514 498.688 370.225 498.497 369.936C493.484 362.399 487.912 356.006 484.509 352.603C483.878 351.972 483.331 351.292 482.867 350.572C483.426 350.792 483.946 351.136 484.385 351.601C497.664 365.715 513.229 365.874 523.202 363.136C524.595 365.553 525.936 368.084 527.16 370.695C519.784 373.026 509.629 374.151 499.067 370.803Z" fill="#2C3D46"/><path d="M368.006 282.068C371.557 282.068 377.93 283.405 380.084 285.09C377.455 297.56 361.115 316.845 351.822 326.123C346.39 321.975 342.987 314.552 342.987 307.087C342.987 293.27 354.189 282.068 368.006 282.068Z" fill="#4A5A62"/><path d="M351.92 287.709C353.02 289.694 352.76 294.292 351.098 299.268C349.032 305.447 345.668 310.431 342.928 309.135C341.944 299.76 346.473 292.084 351.92 287.709Z" fill="#24353D"/><path d="M455.8 296.082C471.522 296.082 484.269 308.829 484.269 324.552C484.269 340.274 471.522 353.021 455.8 353.021C440.077 353.021 427.33 340.274 427.33 324.552C427.33 308.829 440.077 296.082 455.8 296.082Z" fill="#4A5A62"/><path d="M446.343 305.884C450.345 305.884 453.588 309.127 453.588 313.129C453.588 317.13 450.345 320.372 446.343 320.372C442.342 320.372 439.101 317.13 439.101 313.129C439.101 309.127 442.342 305.884 446.343 305.884Z" fill="#4A5A62"/><path d="M465.014 314.324C471.326 314.324 476.443 320.195 476.443 327.438C476.443 334.68 471.326 340.551 465.014 340.551C458.703 340.551 453.586 334.68 453.586 327.438C453.586 320.195 458.703 314.324 465.014 314.324Z" fill="#24353D"/><path fill-rule="evenodd" clip-rule="evenodd" d="M653.939 558.772C657.406 562.525 657.174 568.379 653.421 571.846L435.396 773.275C431.643 776.742 425.79 776.511 422.322 772.757C418.855 769.004 419.086 763.151 422.839 759.683L640.864 558.255C644.618 554.787 650.471 555.019 653.939 558.772Z" fill="#2C3E47"/><path d="M813.589 570.173C855.214 529.711 861.401 461.373 843.02 435.202C822.236 405.61 773.931 394.271 730.373 405.365C686.815 416.459 649.353 440.722 655.652 500.561C673.139 529.034 692.958 535.373 691.934 564.705C690.402 608.514 717.191 662.458 757.624 658.457C803.578 653.911 780.279 602.554 813.589 570.173Z" fill="#4A5A62"/><path fill-rule="evenodd" clip-rule="evenodd" d="M720.673 429.53C699.648 439.135 682.616 453.202 673.68 468.839C664.933 484.147 665.869 497.277 672.298 506.941C679.017 517.041 693.189 525.535 715.073 527.737C736.861 529.929 760.787 525.25 781.729 515.683C802.754 506.078 819.786 492.011 828.722 476.374C837.47 461.066 836.533 447.935 830.104 438.272C823.385 428.172 809.214 419.678 787.33 417.476C765.541 415.283 741.616 419.963 720.673 429.53ZM712.472 411.577C736.121 400.774 763.549 395.246 789.306 397.838C814.967 400.42 835.532 410.797 846.537 427.339C857.833 444.319 857.61 465.603 845.858 486.167C834.295 506.402 813.497 522.87 789.931 533.636C766.282 544.439 738.854 549.967 713.097 547.375C687.435 544.793 666.871 534.416 655.865 517.873C644.569 500.894 644.793 479.61 656.544 459.046C668.107 438.811 688.905 422.343 712.472 411.577Z" fill="#2C3E47"/><path fill-rule="evenodd" clip-rule="evenodd" d="M718.393 420.41C697.368 430.015 680.336 444.082 671.4 459.719C662.652 475.027 663.589 488.157 670.018 497.821C676.737 507.921 690.908 516.415 712.792 518.617C734.581 520.809 758.506 516.13 779.449 506.563C800.474 496.958 817.506 482.891 826.442 467.254C835.189 451.946 834.253 438.815 827.824 429.152C821.105 419.052 806.933 410.558 785.049 408.356C763.261 406.163 739.336 410.843 718.393 420.41ZM710.192 402.457C733.841 391.654 761.268 386.126 787.025 388.718C812.687 391.3 833.251 401.677 844.257 418.219C855.553 435.199 855.33 456.483 843.578 477.047C832.015 497.282 811.217 513.75 787.65 524.516C764.001 535.319 736.574 540.847 710.816 538.255C685.155 535.673 664.59 525.296 653.585 508.753C642.289 491.774 642.512 470.49 654.264 449.926C665.827 429.691 686.625 413.223 710.192 402.457Z" fill="#2C3E47"/><path d="M454.931 704.092C454.598 723.014 469.667 738.624 488.589 738.957C507.511 739.291 523.12 724.222 523.454 705.3C523.789 686.378 508.72 670.768 489.798 670.435C470.875 670.101 455.265 685.17 454.931 704.092Z" fill="#3F515B"/><path d="M624.558 551.434C624.224 570.356 639.293 585.966 658.215 586.3C677.137 586.633 692.747 571.564 693.082 552.642C693.414 533.72 678.345 518.111 659.423 517.777C640.501 517.443 624.893 532.511 624.558 551.434Z" fill="#3F515B"/><defs><linearGradient id="paint0_linear_105_4584" x1="437.4" y1="376.089" x2="437.4" y2="590.481" gradientUnits="userSpaceOnUse"><stop stop-color="#2C3D46"/><stop offset="1" stop-color="#3F515B"/></linearGradient></defs></svg>