<svg width="1080" height="1080" viewBox="0 0 1080 1080" fill="none" xmlns="http://www.w3.org/2000/svg"><path d="M770.175 312.045V864.537C770.175 887.324 751.37 905.793 728.191 905.793H625.673C611.02 905.793 598.11 898.412 590.599 887.221C565.191 899.035 535.727 905.793 504.308 905.793C408.688 905.793 331.166 843.213 331.166 766.027C331.166 688.83 408.688 626.261 504.308 626.261C532.927 626.261 559.92 631.867 583.69 641.792V312.045C583.69 289.258 602.494 270.789 625.673 270.789H728.191C751.37 270.789 770.175 289.258 770.175 312.045Z" fill="#1A2628"/><path fill-rule="evenodd" clip-rule="evenodd" d="M394.535 689.272C408.33 689.843 419.05 701.49 418.479 715.285L416.729 757.535C416.158 771.33 404.511 782.05 390.716 781.479C376.92 780.908 366.2 769.261 366.772 755.466L368.522 713.216C369.093 699.42 380.74 688.7 394.535 689.272Z" fill="#2C3D46"/><path fill-rule="evenodd" clip-rule="evenodd" d="M548.19 767.399C554.197 758.13 566.581 755.485 575.85 761.492L612.42 785.19C621.69 791.197 624.335 803.581 618.328 812.85C612.321 822.12 599.937 824.765 590.668 818.758L554.098 795.06C544.828 789.053 542.183 776.669 548.19 767.399Z" fill="#2C3D46"/><path d="M471.237 635.302C500.806 640.099 520.887 667.959 516.09 697.528L510.072 734.382C505.275 763.951 477.415 784.032 447.846 779.235C418.277 774.438 398.196 746.579 402.993 717.01L409.011 680.155C413.808 650.586 441.668 630.505 471.237 635.302Z" fill="#1F2E35"/><path d="M487.635 497.949C557.328 497.949 613.826 543.56 613.826 599.824C613.826 656.088 557.328 701.7 487.635 701.7C417.942 701.7 364.444 656.088 364.444 599.824C364.444 543.56 437 497.949 487.635 497.949Z" fill="#1F2E35"/><path d="M378.951 569.582C396.531 530.402 433.032 502.562 487.633 502.562C542.635 502.562 589.42 530.972 606.697 570.605C600.169 610.248 577.932 637.715 522.475 651.02C461.246 668.993 395.517 620.051 378.951 569.582Z" fill="#4A5A62"/>
<path d="M640.921 661.302C640.921 701.82 619.411 740.754 609.396 759.594C606.403 765.227 600.489 762.951 600.489 756.575L595.489 671.971C595.489 609.145 568.747 541.738 552.878 515.887C538.644 498.216 561.466 466.546 597.983 505.421C655.493 552.786 640.921 661.302 640.921 661.302Z" fill="#2C3D46"/><path d="M654.935 237.385L650.372 354.805C650.238 358.26 648.877 361.451 646.64 364.108C642.935 359.298 636.181 356.059 628.38 356.059C620.579 356.059 613.825 359.298 610.12 364.108C607.893 361.451 606.522 358.26 606.388 354.805L601.825 237.385C601.261 222.862 613.244 215.73 628.38 215.73C643.516 215.73 655.499 222.862 654.935 237.385Z" fill="#3F515B"/><path d="M679.856 241.844H674.964C645.877 241.844 622.297 265.424 622.297 294.511L621.82 543.107C621.82 572.194 645.4 595.773 674.487 595.773H679.379C708.466 595.773 732.046 572.194 732.046 543.107L732.523 294.511C732.523 265.424 708.943 241.844 679.856 241.844Z" fill="#364750"/><path d="M621.92 471.48L622.203 334.928L732.952 331.93L732.84 476.632L621.92 471.48Z" fill="#1F2E35"/><path d="M739.266 331.863C739.266 338.341 736.837 344.452 732.526 349.841H732.516C732.516 349.851 732.505 349.863 732.495 349.873L730.117 353.051C720.546 365.844 712.83 379.877 706.524 394.557C700.021 409.695 689.402 419.556 677.41 419.556C665.426 419.556 654.818 409.708 648.317 394.586C642.001 379.896 634.286 365.847 624.706 353.044L622.356 349.904L622.304 349.841C617.982 344.452 615.555 338.341 615.555 331.863C615.555 310.013 643.254 292.297 677.41 292.297C711.576 292.297 739.266 310.013 739.266 331.863Z" fill="#364750"/><path d="M727.976 452.687C717.495 428.688 696.235 404.992 677.14 404.992C658.045 404.992 636.786 428.688 626.305 452.687C608.469 493.526 624.139 545.559 677.14 545.559C730.141 545.559 745.812 493.526 727.976 452.687Z" fill="#364750"/><path fill-rule="evenodd" clip-rule="evenodd" d="M633.83 480.561C661.616 471.589 689.844 471.137 727.216 478.667L713.784 545.328C684.155 539.358 668.332 540.878 654.726 545.271C641.532 549.532 629.317 556.579 608.965 568.321C604.102 571.126 598.775 574.199 592.859 577.567L559.221 518.47C563.66 515.943 568.046 513.398 572.394 510.876C593.193 498.809 613.116 487.25 633.83 480.561Z" fill="#2C3D46"/><path d="M712 475.998C716 483.998 727 511.498 710 541.498C703.5 541.998 703.091 552.616 731.5 555.998C773.5 560.998 777.5 471.998 712 475.998Z" fill="#3F515B"/><path d="M628.611 712.107V750.189C628.611 776.421 607.5 780.687 581.459 780.687C555.418 780.687 534.307 776.421 534.307 750.189L534.115 724.107C534 724.001 500.59 691.081 507.355 678.095C516 661.501 561.094 636.461 588.925 644.752C613.82 652.168 628.611 703.824 628.611 712.107Z" fill="#1F2E35"/><path fill-rule="evenodd" clip-rule="evenodd" d="M513.69 408.573C518.323 402.383 527.097 401.12 533.287 405.753L598.805 454.788C604.995 459.421 606.258 468.195 601.625 474.385C596.992 480.576 588.218 481.838 582.028 477.205L516.51 428.17C510.319 423.537 509.057 414.763 513.69 408.573ZM841.284 408.573C845.917 414.763 844.654 423.537 838.464 428.17L772.946 477.205C766.756 481.838 757.982 480.576 753.349 474.385C748.716 468.195 749.978 459.421 756.169 454.788L821.687 405.753C827.877 401.12 836.651 402.383 841.284 408.573Z" fill="#2C3D46"/><path fill-rule="evenodd" clip-rule="evenodd" d="M587.118 463.535C590.425 459.112 596.692 458.208 601.115 461.516L595.126 469.524C601.115 461.516 601.118 461.518 601.122 461.521L601.129 461.526L601.145 461.539L601.186 461.569C601.216 461.592 601.252 461.619 601.294 461.652C601.379 461.717 601.489 461.802 601.622 461.907C601.887 462.117 602.245 462.406 602.682 462.772C603.555 463.505 604.75 464.553 606.158 465.905C608.966 468.601 612.669 472.553 616.372 477.681C623.758 487.911 631.403 503.206 631.403 522.661V720.788C631.403 720.789 631.403 720.79 621.403 720.79H631.403V721.206L631.372 721.575C631.372 721.574 631.372 721.577 631.371 721.586C631.371 721.591 631.371 721.597 631.37 721.605C631.367 721.648 631.362 721.74 631.355 721.875C631.342 722.146 631.326 722.592 631.323 723.187C631.315 724.381 631.356 726.147 631.564 728.283C631.984 732.617 633.054 738.134 635.521 743.416C637.949 748.613 641.665 753.467 647.46 756.959C653.258 760.452 661.91 763.048 674.994 762.424C675.85 762.384 676.685 762.452 677.487 762.616C678.288 762.452 679.124 762.384 679.979 762.424C693.063 763.048 701.715 760.452 707.513 756.959C713.308 753.467 717.023 748.613 719.451 743.416C721.918 738.134 722.988 732.617 723.409 728.283C723.616 726.148 723.657 724.381 723.65 723.187C723.646 722.592 723.63 722.146 723.617 721.875C723.611 721.74 723.605 721.649 723.602 721.605C723.602 721.597 723.601 721.591 723.601 721.587C723.6 721.578 723.6 721.574 723.6 721.576L723.569 721.206V720.79H733.569C723.569 720.79 723.569 720.789 723.569 720.788V522.661C723.569 503.206 731.214 487.911 738.601 477.681C742.304 472.553 746.007 468.6 748.815 465.905C750.223 464.553 751.418 463.505 752.291 462.772C752.728 462.406 753.086 462.117 753.352 461.907C753.484 461.802 753.594 461.717 753.679 461.652C753.721 461.619 753.758 461.592 753.788 461.569L753.828 461.538L753.844 461.526L753.852 461.521C753.855 461.518 753.858 461.516 759.847 469.524L753.858 461.516C758.281 458.208 764.548 459.112 767.855 463.535C771.155 467.948 770.263 474.195 765.868 477.509C765.861 477.514 765.854 477.519 765.847 477.524L765.857 477.517L765.865 477.511C765.85 477.522 765.812 477.551 765.752 477.599C765.633 477.693 765.426 477.859 765.145 478.095C764.581 478.568 763.723 479.317 762.667 480.331C760.548 482.366 757.682 485.419 754.816 489.389C749.063 497.356 743.569 508.63 743.569 522.661V720.454C743.577 720.587 743.586 720.745 743.594 720.926C743.619 721.45 743.644 722.171 743.649 723.058C743.661 724.829 743.599 727.292 743.315 730.214C742.755 735.996 741.296 743.908 737.572 751.88C733.808 759.937 727.67 768.164 717.834 774.09C708 780.015 695.244 783.174 679.027 782.402C678.501 782.377 677.987 782.311 677.487 782.209C676.986 782.311 676.472 782.377 675.946 782.402C659.73 783.174 646.973 780.015 637.139 774.09C627.303 768.164 621.165 759.938 617.401 751.88C613.677 743.908 612.218 735.996 611.657 730.214C611.374 727.292 611.312 724.83 611.323 723.058C611.329 722.171 611.353 721.45 611.378 720.926C611.386 720.745 611.395 720.587 611.403 720.454V522.661C611.403 508.63 605.909 497.356 600.157 489.389C597.291 485.419 594.425 482.366 592.306 480.331C591.25 479.317 590.392 478.568 589.828 478.095C589.547 477.859 589.34 477.693 589.221 477.599C589.161 477.551 589.123 477.522 589.109 477.511C589.108 477.51 589.107 477.509 589.106 477.509C584.71 474.195 583.818 467.948 587.118 463.535Z" fill="#3F515B"/><path d="M679.07 609.168H675.751C656.02 609.168 640.024 625.164 640.024 644.895V816.684C640.024 836.416 656.02 852.411 675.751 852.411H679.07C698.801 852.411 714.797 836.416 714.797 816.684V644.895C714.797 625.164 698.801 609.168 679.07 609.168Z" fill="#1F2E35"/><path d="M621.82 550.511L622.297 690.107C622.297 719.194 645.877 742.773 674.964 742.773H679.856C708.943 742.773 732.523 719.194 732.523 690.107L732.046 550.511C732.046 521.424 621.82 521.424 621.82 550.511Z" fill="#364750"/><path fill-rule="evenodd" clip-rule="evenodd" d="M505.095 435.008C534.086 434.508 557.993 457.604 558.492 486.595L558.992 515.595C559.492 544.586 536.396 568.493 507.405 568.992C478.415 569.492 454.508 546.396 454.008 517.405L453.508 488.405C453.008 459.415 476.104 435.508 505.095 435.008Z" fill="#3F515B"/><path d="M497.404 716.998C516.848 651.792 504.805 543.624 502.824 508.388C444.53 479.239 404.644 520.388 404.644 520.388C404.644 520.388 353.397 556.118 330.064 642.952C306.731 729.786 410.841 774.514 452.655 785.957C460.286 788.331 465.044 785.75 467.953 781.21C467.953 781.21 486.726 752.806 497.404 716.998Z" fill="#2C3D46"/><path d="M621.368 578.945C640.608 553.232 659.149 568.001 660.52 592.523C663.856 651.839 681.594 688.793 659.979 704.509C644.096 716.726 627.699 707.431 621.877 701.723C618.083 698.003 608.078 689.953 598.249 694.381C592.862 696.807 586.349 695.338 582.442 692.041C568.195 676.521 591.858 618.383 621.368 578.945Z" fill="#4A5A62"/><path fill-rule="evenodd" clip-rule="evenodd" d="M508.522 646.026C467.312 627.228 434.026 582.397 421.262 533.773L495.739 514.223C503.975 545.598 524.688 568.767 540.478 575.97M540.478 575.97C559.639 584.71 583.438 589.036 604.59 585.511L617.248 661.463C578.401 667.938 539.061 659.956 508.522 646.026" fill="#2C3D46"/><path fill-rule="evenodd" clip-rule="evenodd" d="M615.429 591.218C617.679 584.692 624.794 581.225 631.32 583.475L665.221 595.163C671.748 597.413 675.215 604.528 672.964 611.055C670.714 617.581 663.599 621.048 657.073 618.798L623.172 607.11C616.645 604.86 613.179 597.745 615.429 591.218Z" fill="#3F515B"/><path fill-rule="evenodd" clip-rule="evenodd" d="M622.328 580.809C645.753 582.291 663.541 602.482 662.059 625.908L661.915 628.184C660.433 651.609 640.242 669.397 616.817 667.915C593.391 666.433 575.603 646.242 577.085 622.817L577.229 620.541C578.711 597.115 598.902 579.327 622.328 580.809Z" fill="#3F515B"/><path d="M747.172 575.884C747.172 586.024 717.17 598.424 677.405 598.424C637.65 598.424 607.649 586.024 607.649 575.884C607.586 534.288 642.516 494.847 677.405 492.691C712.294 494.847 747.224 534.288 747.172 575.884ZM726.209 575.445C726.209 581.738 704.361 586.84 677.41 586.84C650.459 586.84 628.611 581.738 628.611 575.445C628.611 569.152 650.459 564.051 677.41 564.051C704.361 564.051 726.209 569.152 726.209 575.445ZM693.431 542.627C694.713 546.901 698.232 550.136 702.589 550.992C715.101 553.452 723.463 557.415 723.47 552.849C723.5 532.869 705.114 512.417 687.984 507.926C685.624 507.307 683.5 509.528 684.204 511.876L693.431 542.627Z" fill="#364750"/><path d="M726.209 575.449C726.209 581.742 704.361 586.844 677.41 586.844C650.459 586.844 628.611 581.742 628.611 575.449C628.611 569.156 650.459 564.055 677.41 564.055C704.361 564.055 726.209 569.156 726.209 575.449Z" fill="#4A5A62"/><path d="M693.431 542.63C694.713 546.904 698.232 550.139 702.589 550.995C715.101 553.455 723.463 557.418 723.47 552.852C723.5 532.872 705.114 512.42 687.984 507.929C685.624 507.31 683.5 509.531 684.204 511.879L693.431 542.63Z" fill="#4A5A62"/><path fill-rule="evenodd" clip-rule="evenodd" d="M677.25 363.116C695.135 430.081 655.348 498.865 588.383 516.75L507.883 538.25C440.919 556.135 372.135 516.348 354.25 449.383C336.365 382.419 376.152 313.635 443.116 295.75L523.616 274.25C590.581 256.365 659.365 296.152 677.25 363.116Z" fill="#3F515B"/><path fill-rule="evenodd" clip-rule="evenodd" d="M644.875 334.25C644.875 320.443 656.068 309.25 669.875 309.25H670.625C684.432 309.25 695.625 320.443 695.625 334.25C695.625 348.057 684.432 359.25 670.625 359.25H669.875C656.068 359.25 644.875 348.057 644.875 334.25ZM329.375 466.25C329.375 452.443 340.568 441.25 354.375 441.25H355.125C368.932 441.25 380.125 452.443 380.125 466.25C380.125 480.057 368.932 491.25 355.125 491.25H354.375C340.568 491.25 329.375 480.057 329.375 466.25Z" fill="#3F515B"/><path fill-rule="evenodd" clip-rule="evenodd" d="M381.873 483.3C384.745 490.479 381.253 498.627 374.074 501.498L373.449 501.748C366.27 504.62 358.123 501.128 355.251 493.949C352.38 486.77 355.871 478.623 363.05 475.751L363.675 475.501C370.854 472.63 379.002 476.121 381.873 483.3Z" fill="#2C3D46"/><path d="M506.545 446.922C506.545 433.115 517.738 421.922 531.545 421.922H544.432C558.239 421.922 569.432 433.115 569.432 446.922V465.494C569.432 482.86 555.354 496.938 537.989 496.938H530.545C517.291 496.938 506.545 486.192 506.545 472.938V446.922Z" fill="#4A5A62"/><path fill-rule="evenodd" clip-rule="evenodd" d="M566.855 477.98C562.613 487.774 553.534 494.984 542.63 496.597C538.345 492.104 539.069 484.431 539.385 481.085C539.41 480.815 539.433 480.574 539.45 480.365L540.332 469.708C540.493 466.269 544.434 453.729 556.949 454.764C563.165 455.278 568.303 460.472 567.434 470.981L566.855 477.98Z" fill="#1F2E35"/><path fill-rule="evenodd" clip-rule="evenodd" d="M569.432 451.389C550.404 460.702 528.939 466.526 506.545 469.905V446.922C506.545 433.115 517.738 421.922 531.545 421.922H544.432C558.239 421.922 569.432 433.115 569.432 446.922V451.389Z" fill="#2C3D46"/><path d="M584.174 422.818C584.174 409.877 595.094 389.383 611.244 389.383H618.422C628.916 389.383 635.43 396.751 635.43 407.245V428.556C635.43 447.968 622.136 467.399 605.737 467.399C593.22 467.399 584.174 456.965 584.174 444.448L584.174 422.818Z" fill="#4A5A62"/><path fill-rule="evenodd" clip-rule="evenodd" d="M631.751 446.394C626.695 458.33 616.941 467.399 605.737 467.399C605.569 467.399 605.402 467.397 605.235 467.394C604.376 464.709 604.043 462.232 604.106 461.038L604.659 450.504C604.913 441.77 609.019 424.492 623.412 425.247C631.246 425.658 632.351 434.959 632.144 438.909L631.751 446.394Z" fill="#1F2E35"/><path fill-rule="evenodd" clip-rule="evenodd" d="M635.43 421.523C620.269 431.674 602.619 438.791 584.174 443.362L584.174 422.818C584.174 409.877 595.094 389.383 611.244 389.383H618.422C628.916 389.383 635.43 396.751 635.43 407.245V421.523Z" fill="#2C3D46"/><path fill-rule="evenodd" clip-rule="evenodd" d="M579.867 510.011C579.871 510.014 579.874 510.017 574.46 516.569C573.302 517.974 570.052 520.972 568.424 519.82C567.81 519.386 566.744 521.512 565.443 520.759C562.833 519.25 558.961 517.36 554.065 515.954C544.406 513.179 530.528 512.193 513.907 520.178L506.545 504.855C527.44 494.817 545.679 495.857 558.759 499.615C565.231 501.474 570.383 503.978 573.955 506.044C575.746 507.079 577.153 508.013 578.147 508.716C578.644 509.067 579.039 509.362 579.328 509.584C579.472 509.695 579.59 509.788 579.681 509.861C579.727 509.897 579.766 509.928 579.798 509.954L579.841 509.99L579.859 510.004L579.867 510.011Z" fill="#3F515B"/><path fill-rule="evenodd" clip-rule="evenodd" d="M586.496 504.157C587.206 506.047 586.249 508.156 584.359 508.866C584.369 508.862 584.306 508.899 583.564 509.241C582.992 509.505 582.218 509.85 581.272 510.223C579.384 510.967 576.809 511.825 573.74 512.387C567.588 513.516 559.39 513.466 550.861 508.913C549.08 507.963 548.406 505.747 549.357 503.966C550.308 502.184 552.523 501.511 554.305 502.462C566.508 508.975 577.653 503.892 581 502.365C581.351 502.205 581.615 502.084 581.787 502.02C583.678 501.31 585.786 502.266 586.496 504.157Z" fill="#2C3D46"/><path d="M600.694 480.435C602.162 487.158 597.904 493.795 591.183 495.263C584.462 496.731 577.824 492.473 576.356 485.75C574.888 479.03 580.343 461.858 583.725 461.119C587.107 460.38 599.226 473.715 600.694 480.435Z" fill="#2C3D46"/><path d="M610.548 302.544C616.614 329.356 630.87 352.97 646.486 354.557C659.214 355.205 668.135 353.458 674.105 349.066C673.582 347.722 673.032 346.382 672.457 345.045C656.998 309.207 625.347 284.164 588.353 274.06L570.761 270.445C571.979 275.008 609.458 297.715 610.548 302.544Z" fill="#364750"/><path d="M591.171 345.46C613.936 337.797 625.354 312.367 615.951 290.262L612.698 282.618C587.173 222.613 518.112 194.325 457.828 219.184L420.583 234.542C378.975 251.7 359.758 299.834 378.108 340.93C394.891 378.515 437.492 397.188 476.503 384.057L591.171 345.46Z" fill="#1F2E35"/><path d="M537.877 276.456C537.877 247.757 514.611 224.492 485.912 224.492H470.56C397.725 224.492 338.681 283.536 338.681 356.371V388.653C338.681 443.659 383.273 488.25 438.279 488.25C493.286 488.25 541.877 443.659 541.877 388.653L537.877 276.456Z" fill="#1F2E35"/></svg>