<svg width="1080" height="1080" viewBox="0 0 1080 1080" fill="none" xmlns="http://www.w3.org/2000/svg"><path d="M603.339 726.099C734.221 819.08 806.716 941.537 765.26 999.615C723.804 1057.69 584.097 1029.4 453.215 936.417C322.333 843.436 249.838 720.979 291.294 662.901C332.75 604.823 472.457 633.118 603.339 726.099Z" fill="#1A2628"/><path d="M592.381 788.38L561.012 753.83C552.003 743.907 536.655 743.167 526.732 752.176C516.809 761.185 516.068 776.533 525.077 786.456L556.446 821.006C565.455 830.929 580.803 831.669 590.726 822.66C600.649 813.651 601.39 798.303 592.381 788.38Z" fill="#2C3D46"/><path d="M553.519 564.398C585.488 564.398 611.404 608.394 611.404 662.666V706.282C611.404 760.554 585.488 804.55 553.519 804.55C521.55 804.55 495.634 760.554 495.634 706.282V662.666C495.634 608.394 521.55 564.398 553.519 564.398Z" fill="#2C3D46"/><path d="M476.125 636.622C476.125 561.879 440.308 501.289 396.125 501.289C351.942 501.289 316.125 561.879 316.125 636.622C316.125 711.365 351.942 771.955 396.125 771.955C440.308 771.955 476.125 711.365 476.125 636.622Z" fill="#1F2E35"/><path d="M260.91 582.992C251.175 595.418 249.975 609.98 263.389 619.6L408.304 723.524C415.017 728.338 425.561 725.385 432.067 717.081C438.573 708.777 438.916 697.834 432.635 692.468L297.047 576.638C284.496 565.916 270.645 570.566 260.91 582.992Z" fill="#3F515B"/><path d="M413.704 588.267C413.704 588.267 452.054 638.773 452.892 731.272L537.562 795.478C544.122 800.453 552.13 803.145 560.363 803.145H641.896L648.118 697.766L431.401 561.773L413.704 588.267Z" fill="#2C3D46"/><path d="M488.266 384.449C566.326 384.449 629.607 447.73 629.607 525.79C629.607 603.85 566.326 667.131 488.266 667.131C410.206 667.131 346.925 603.85 346.925 525.79C346.925 447.73 410.206 384.449 488.266 384.449Z" fill="#1F2E35"/><path d="M488.411 386.707C565.814 396.821 620.362 467.766 610.248 545.169C600.134 622.571 529.189 677.12 451.786 667.006C374.383 656.892 319.834 585.946 329.948 508.544C340.062 431.141 411.008 376.593 488.411 386.707Z" fill="#1F2E35"/><path d="M608.271 498.33C607.181 502.4 606.001 506.36 604.721 510.21C574.561 522.71 533.521 530.4 488.301 530.4C434.501 530.4 386.611 519.521 355.921 502.59C350.101 489.48 346.101 475.95 344.381 462.64C363.991 424.74 399.991 397.51 441.881 389.03C453.121 386.761 464.781 385.831 476.671 386.41H476.721C480.551 386.6 484.401 386.95 488.261 387.45C549.351 395.43 596.201 441.3 608.271 498.33Z" fill="#4A5A62"/><path d="M589.351 539.141C589.351 472.091 558.151 428.676 541.214 401.09C526.023 382.231 527.01 347.177 565.982 388.664C604.954 430.15 633.731 482.868 634.896 521.081L636.557 563.973C636.557 607.213 627.797 647.577 601.531 661.176C598.337 667.185 592.025 664.758 592.025 657.953L589.351 539.141Z" fill="#2C3D46"/><path fill-rule="evenodd" clip-rule="evenodd" d="M422.145 707.962C426.213 702.385 434.033 701.162 439.61 705.231L500.778 749.854C500.778 749.854 500.777 749.854 500.778 749.854C505.325 753.171 510.956 754.651 516.542 753.998L571.818 747.537C578.675 746.736 584.883 751.645 585.685 758.502C586.486 765.359 581.577 771.567 574.72 772.368L519.446 778.828C519.446 778.828 519.446 778.828 519.446 778.828C507.603 780.213 495.675 777.077 486.045 770.052L424.876 725.427C419.299 721.359 418.076 713.539 422.145 707.962Z" fill="#3F515B"/><path d="M557.027 718.157C579.415 737.143 611.579 753.595 628.316 744.401C647.615 740.745 706.385 726.432 702.37 697.353C695.538 647.869 579.428 593.843 523.872 621.738C490.983 641.705 518.929 685.848 557.027 718.157Z" fill="#364750"/><path fill-rule="evenodd" clip-rule="evenodd" d="M542.775 653.065C538.131 655.958 532.011 654.58 529.059 649.956C526.088 645.3 527.454 639.118 532.109 636.146C532.109 636.146 532.106 636.148 532.118 636.141L532.126 636.136L532.144 636.124L532.185 636.099C532.214 636.08 532.246 636.06 532.283 636.038C532.355 635.993 532.442 635.94 532.544 635.88C532.748 635.758 533.01 635.607 533.33 635.431C533.97 635.078 534.842 634.626 535.941 634.12C538.137 633.107 541.244 631.875 545.212 630.787C553.173 628.605 564.514 627.03 578.782 628.914C584.257 629.637 588.11 634.662 587.387 640.137C586.664 645.612 581.639 649.465 576.164 648.742C564.765 647.237 556.114 648.536 550.5 650.075C547.68 650.848 545.603 651.688 544.314 652.283C543.669 652.58 543.222 652.815 542.979 652.949C542.87 653.01 542.802 653.049 542.775 653.065Z" fill="#4A5A62"/><path fill-rule="evenodd" clip-rule="evenodd" d="M367.933 680.824C367.933 675.301 372.41 670.824 377.933 670.824H423.1C428.359 670.824 433.496 672.371 437.874 675.263L514.256 712.214C519.228 714.619 521.308 720.599 518.903 725.571C516.498 730.543 510.518 732.623 505.546 730.218L427.734 692.575L427.047 692.085C425.896 691.266 424.516 690.824 423.1 690.824H377.933C372.41 690.824 367.933 686.347 367.933 680.824Z" fill="#3F515B"/><path fill-rule="evenodd" clip-rule="evenodd" d="M748.472 462.315C754.501 467.156 755.464 475.967 750.623 481.996L696.675 549.182C691.834 555.211 683.022 556.174 676.993 551.333C670.964 546.492 670.001 537.68 674.842 531.652L728.79 464.466C733.631 458.437 742.443 457.474 748.472 462.315Z" fill="#2C3D46"/><path fill-rule="evenodd" clip-rule="evenodd" d="M683.482 543.699C688.436 546.14 690.474 552.135 688.033 557.089C685.511 562.21 684.676 567.997 685.647 573.621L727.379 815.302C728.319 820.744 724.669 825.918 719.226 826.857C713.784 827.797 708.61 824.147 707.671 818.705L665.939 577.025V577.025C664.248 567.235 665.702 557.163 670.092 548.251C672.533 543.297 678.527 541.259 683.482 543.699Z" fill="#3F515B"/><path d="M770.291 853.306C770.291 778.563 734.474 717.973 690.291 717.973C646.108 717.973 610.291 778.563 610.291 853.306C610.291 928.049 646.108 988.639 690.291 988.639C734.474 988.639 770.291 928.049 770.291 853.306Z" fill="#1F2E35"/><path d="M681.375 861.639C678.71 825.286 667.179 796.503 655.619 797.35C644.059 798.197 636.848 828.354 639.513 864.707C642.178 901.06 653.709 929.843 665.269 928.996C676.829 928.149 684.04 897.992 681.375 861.639Z" fill="#4A5A62"/><path d="M713.447 853.298C706.527 851.371 701.497 845.362 700.906 838.203C696.835 788.848 677.363 751.442 653.962 751.442C636.062 751.442 623.514 773.954 615.344 806.334C606.502 802.523 601.961 792.574 605.016 783.443C620.838 736.155 653.593 703.672 691.442 703.672C743.261 703.672 774.804 756.272 776.528 832.237C776.642 837.278 774.52 842.131 770.716 845.441C762.452 852.631 744.792 862.028 713.447 853.298Z" fill="#364750"/><path d="M680.093 636.137L618.894 645.768L625.191 691.399L686.39 676.584L680.093 636.137Z" fill="#3F515B"/><path d="M748.3 603.268C749.317 637.888 713.3 669.086 676.599 675.947C641.845 680.581 615.744 645.357 614.767 612.412C611.843 544.363 742.774 553.191 748.3 603.268Z" fill="#364750"/><path fill-rule="evenodd" clip-rule="evenodd" d="M566.863 594.999C567.106 589.481 571.775 585.205 577.293 585.447C607.53 586.776 619.674 609.059 622.537 622.82L622.541 622.839L672.348 866.954C673.452 872.365 669.96 877.647 664.549 878.751C659.137 879.855 653.856 876.363 652.752 870.952L602.956 626.894C602.955 626.888 602.954 626.882 602.953 626.876C601.244 618.692 594.456 606.221 576.415 605.428C570.897 605.186 566.621 600.516 566.863 594.999Z" fill="#3F515B"/><path fill-rule="evenodd" clip-rule="evenodd" d="M713.239 732.663C716.205 728.004 722.386 726.631 727.045 729.596C727.045 729.596 727.04 729.594 727.057 729.604L727.069 729.612L727.095 729.629L727.15 729.665C727.189 729.69 727.232 729.718 727.278 729.749C727.371 729.811 727.478 729.884 727.598 729.969C727.839 730.138 728.135 730.354 728.48 730.621C729.169 731.155 730.053 731.892 731.086 732.866C733.155 734.816 735.804 737.699 738.681 741.777C744.446 749.951 751.016 762.775 755.729 782.253C757.027 787.621 753.729 793.025 748.361 794.324C742.993 795.623 737.588 792.324 736.29 786.956C732.113 769.693 726.516 759.231 722.337 753.304C720.241 750.332 718.473 748.461 717.368 747.42C716.814 746.897 716.422 746.579 716.232 746.432C716.182 746.393 716.146 746.366 716.124 746.351C711.611 743.342 710.312 737.261 713.239 732.663Z" fill="#4A5A62"/><path d="M748.3 603.268C749.317 637.888 713.3 669.086 676.599 675.947C641.845 680.581 621.501 648.5 624.767 609.412C630.184 544.586 742.774 553.191 748.3 603.268Z" fill="#364750"/><path d="M732.544 615.349C735.11 598.397 719.17 590.353 696.941 597.383C674.712 604.413 654.612 623.853 652.046 640.805C649.48 657.757 665.42 665.801 687.649 658.771C709.878 651.741 729.978 632.301 732.544 615.349Z" fill="#4A5A62"/><path fill-rule="evenodd" clip-rule="evenodd" d="M702.662 504.024C704.471 498.826 701.739 493.139 696.544 491.306C691.335 489.469 685.624 492.203 683.787 497.411C683.787 497.411 683.788 497.408 683.784 497.419L683.781 497.427L683.774 497.446L683.758 497.493C683.746 497.528 683.732 497.57 683.715 497.619C683.682 497.717 683.64 497.844 683.59 497.998C683.491 498.306 683.361 498.723 683.212 499.238C682.915 500.265 682.538 501.695 682.176 503.426C681.463 506.842 680.761 511.663 680.961 516.996C681.366 527.802 685.74 542.115 702.229 549.088C707.316 551.239 713.183 548.859 715.334 543.772C717.485 538.685 715.105 532.818 710.018 530.667C703.262 527.81 701.183 522.553 700.947 516.246C700.826 513.023 701.256 509.902 701.754 507.515C701.998 506.345 702.247 505.408 702.425 504.793C702.513 504.488 702.583 504.266 702.624 504.139C702.644 504.076 702.657 504.037 702.662 504.024Z" fill="#3F515B"/><path fill-rule="evenodd" clip-rule="evenodd" d="M551.551 366.722C564.358 350.446 587.935 347.634 604.21 360.442C604.21 360.442 604.206 360.438 604.212 360.443L604.771 360.883C605.129 361.166 605.655 361.581 606.332 362.116C607.685 363.186 609.646 364.738 612.091 366.682C616.98 370.566 623.816 376.021 631.617 382.313C647.136 394.827 666.798 410.909 682.566 424.561C701.841 441.25 715.801 455.18 725.127 465.182C729.79 470.183 733.293 474.201 735.722 477.088C736.937 478.532 737.883 479.694 738.571 480.554C738.915 480.985 739.195 481.34 739.411 481.617C739.519 481.756 739.612 481.876 739.689 481.976L739.792 482.11L739.835 482.167L739.864 482.204C739.87 482.213 739.872 482.216 739.872 482.216C752.407 498.703 749.202 522.229 732.715 534.763C716.269 547.267 692.817 544.109 680.26 527.728C680.243 527.705 680.207 527.66 680.152 527.591C680.11 527.537 680.057 527.47 679.993 527.39C679.689 527.011 679.138 526.331 678.328 525.367C676.707 523.441 674.05 520.38 670.273 516.329C662.72 508.229 650.679 496.158 633.474 481.261C618.727 468.493 599.89 453.076 584.537 440.695C576.904 434.539 570.211 429.198 565.43 425.399C563.04 423.5 561.131 421.988 559.823 420.954C559.17 420.438 558.667 420.041 558.329 419.775L557.831 419.382C541.555 406.574 538.743 382.998 551.551 366.722Z" fill="#2C3D46"/><path d="M668.514 506.778C669.675 528.931 688.574 545.948 710.727 544.787C732.879 543.626 749.897 524.726 748.736 502.574C747.575 480.421 728.675 463.403 706.522 464.564C684.37 465.725 667.353 484.625 668.514 506.778Z" fill="#3F515B"/><path fill-rule="evenodd" clip-rule="evenodd" d="M512.947 312.92C543.003 318.931 562.496 348.17 556.485 378.227L550.236 409.476C544.225 439.533 514.986 459.026 484.93 453.015C454.873 447.004 435.38 417.765 441.391 387.709L447.641 356.459C453.652 326.402 482.89 306.909 512.947 312.92Z" fill="#3F515B"/><path d="M674.875 532.352C679.409 525.838 682.598 520.698 687.445 519.525C696.817 517.256 707.374 524.393 707.667 536.111L696.389 549.656C696.389 549.656 682.001 539.25 674.875 532.352Z" fill="#2C3D46"/><path fill-rule="evenodd" clip-rule="evenodd" d="M366.515 753.182C380.238 754.707 390.126 767.068 388.602 780.79L387.712 788.799L393.892 793.262C405.085 801.346 407.606 816.973 399.522 828.167C391.437 839.36 375.81 841.88 364.617 833.796L346.617 820.796C339.313 815.521 335.413 806.723 336.408 797.768L338.907 775.269C340.432 761.546 352.793 751.658 366.515 753.182Z" fill="#2C3D46"/><path d="M432.378 604.284L451.3 615.718C473.436 629.094 479.568 659.488 464.994 683.606L446.839 713.651C432.266 737.769 402.506 746.478 380.37 733.101L361.449 721.668C339.313 708.291 333.181 677.897 347.754 653.779L365.909 623.734C380.483 599.616 410.242 590.907 432.378 604.284Z" fill="#1F2E35"/><path d="M419.296 569.405C443.708 501.587 467.307 412.119 462.805 376.166C394.135 367.294 351.667 434.001 341.068 459.322L309.784 546.231C282.92 620.86 326.715 657.233 370.016 675.693C375.309 677.95 381.251 675.095 383.2 669.68L419.296 569.405Z" fill="#2C3D46"/><path fill-rule="evenodd" clip-rule="evenodd" d="M586.705 593.178C588.475 600.705 583.807 608.241 576.281 610.011L478.681 632.955C471.154 634.724 463.618 630.057 461.848 622.53C460.079 615.003 464.746 607.467 472.273 605.698L569.873 582.754C577.4 580.984 584.936 585.651 586.705 593.178Z" fill="#2C3D46"/><path fill-rule="evenodd" clip-rule="evenodd" d="M400.202 405.26C419.111 396.811 441.289 405.291 449.738 424.2C455.708 437.561 468.057 460.492 484.798 484.178C501.704 508.097 521.493 530.504 541.773 544.966C558.635 556.991 562.557 580.409 550.531 597.271C538.506 614.133 515.089 618.054 498.227 606.029C468.307 584.692 442.846 554.765 423.552 527.467C404.093 499.936 389.292 472.768 381.262 454.795C372.813 435.886 381.293 413.708 400.202 405.26Z" fill="#2C3D46"/><path d="M582.756 577.341C578.077 557.442 555.626 545.699 532.611 551.111C509.596 556.523 494.732 577.041 499.411 596.94C501.438 605.561 506.803 612.652 514.103 617.48C523.652 623.794 536.513 626.236 549.556 623.169C572.571 617.757 587.434 597.239 582.756 577.341Z" fill="#3F515B"/><path d="M493.357 602.262C493.357 602.262 518.558 619.953 529.082 621.576C551.389 625.019 549.63 550.241 549.63 550.241C549.63 550.241 517.05 546.097 504.278 561.981C491.506 577.865 493.088 597.487 493.357 602.262Z" fill="#3F515B"/><path d="M490.261 602.137C490.261 602.137 521.25 594.497 527.052 621.61H509.313L490.261 602.137Z" fill="#2C3D46"/><path d="M712.659 255.109C727.129 257.99 736.525 272.055 733.645 286.525C730.764 300.995 716.699 310.391 702.229 307.51C687.759 304.63 678.363 290.565 681.243 276.095C684.124 261.624 698.189 252.228 712.659 255.109Z" fill="#3F515B"/><path d="M478.981 173.374L568.835 168.389C642.693 164.292 705.889 220.843 709.986 294.701C714.083 368.56 657.532 431.755 583.674 435.852L493.82 440.837C419.962 444.935 356.766 388.383 352.669 314.525C348.572 240.667 405.123 177.471 478.981 173.374Z" fill="#3F515B"/><path d="M350.574 282.894C365.044 285.775 374.44 299.84 371.56 314.31C368.679 328.78 354.614 338.176 340.144 335.295C325.674 332.415 316.278 318.35 319.158 303.88C322.039 289.41 336.104 280.014 350.574 282.894ZM342.432 325.031C347.753 318.896 357.04 318.234 363.175 323.555C369.31 328.876 369.972 338.164 364.651 344.299C359.33 350.434 350.042 351.094 343.907 345.773C337.772 340.452 337.111 331.166 342.432 325.031Z" fill="#3F515B"/><path d="M342.432 325.032C347.753 318.897 357.04 318.236 363.175 323.557C369.31 328.878 369.972 338.165 364.651 344.3C359.33 350.435 350.042 351.096 343.907 345.775C337.772 340.454 337.111 331.167 342.432 325.032Z" fill="#2C3D46"/><path d="M649.193 350.2C650.42 344.037 649.943 328.987 633.504 325.715C603.296 319.703 591.18 345.597 588.899 359.296L585.627 375.737C584.553 381.131 583.494 401.215 603.273 405.152C631.399 410.751 643.979 378.181 646.381 364.329L649.193 350.2Z" fill="#4A5A62"/><path d="M605.54 355.649C604.223 359.216 603.731 362.87 603.725 365.578L603.441 374.793C603.347 377.817 607.096 390.196 617.33 389.07C631.551 387.505 632.399 370.737 632.463 363.005L632.707 355.087C632.814 351.631 631.362 343.515 622.994 343.257C621.621 343.215 620.339 343.297 619.144 343.488C619.72 345.344 619.764 347.386 619.153 349.383C617.533 354.681 611.917 357.667 606.619 356.048C606.248 355.934 605.888 355.801 605.54 355.649Z" fill="#1F2E35"/><path d="M585.232 378.814C585.324 377.553 585.476 376.498 585.627 375.737L588.899 359.296C591.18 345.597 603.297 319.703 633.504 325.715C649.944 328.987 650.421 344.037 649.194 350.2L647.036 361.04C628.577 368.271 599.666 377.243 585.232 378.814Z" fill="#2C3D46"/><path d="M571.791 368.583C575.421 350.345 563.572 339.441 548.417 336.425C517.902 330.35 506.456 351.129 505.571 357.139L501.89 375.634C500.561 382.312 493.161 407.411 526.171 413.981C554.22 419.564 565.596 399.486 567.778 388.748L571.791 368.583Z" fill="#4A5A62"/><path d="M529.305 369.792C528.759 371.982 528.584 374.178 528.699 376.133L528.982 385.347C529.074 388.371 533.574 400.498 543.721 398.746C557.819 396.312 557.635 379.523 557.225 371.802L557.193 366.876C557.088 363.42 552.739 356.915 545.365 357.017C544.552 357.028 543.775 357.082 543.032 357.175C543.84 359.295 543.939 361.7 543.143 364.012C541.339 369.25 535.622 372.038 530.384 370.235C530.012 370.106 529.652 369.959 529.305 369.792Z" fill="#1F2E35"/><path d="M598.369 404.235C599.548 411.48 594.63 418.312 587.383 419.49C580.138 420.67 573.307 415.751 572.128 408.506C570.948 401.259 577.746 383.27 581.394 382.677C585.04 382.084 597.19 396.988 598.369 404.235Z" fill="#2C3D46"/><path d="M494 391.996C494 391.996 495.5 407.995 511.999 417.996C528.499 427.996 551 417.996 551 417.996C551 417.996 537.491 407.018 522 400.496C503 392.496 494 391.996 494 391.996Z" fill="#3F515B"/><path fill-rule="evenodd" clip-rule="evenodd" d="M532.04 419.792C533.288 418.315 535.496 418.13 536.973 419.378C539.823 421.786 545.145 423.933 551.367 425.116C557.526 426.287 563.929 426.392 568.666 425.245C570.544 424.79 572.436 425.945 572.891 427.823C573.346 429.702 572.192 431.594 570.313 432.049C564.311 433.502 556.845 433.283 550.059 431.992C543.337 430.714 536.641 428.262 532.454 424.724C530.978 423.476 530.792 421.268 532.04 419.792Z" fill="#2C3D46"/><path d="M569.075 382.232L571.791 368.583C575.422 350.345 563.572 339.441 548.417 336.425C517.902 330.35 506.456 351.129 505.571 357.139L502.001 375.077C511.332 376.521 526.288 377.946 540.743 379.322C551.232 380.32 561.457 381.294 569.075 382.232Z" fill="#2C3D46"/><path d="M685.92 305.709C656.11 293.172 655.769 252.991 659.228 223.511L659.242 223.394C659.859 218.125 660.47 212.911 660.881 207.868L654.818 193.648C654.817 193.644 654.815 193.64 654.814 193.637C686.325 216.484 707.662 252.809 709.986 294.702C710.245 299.364 710.262 303.984 710.048 308.55C702.564 309.279 695.052 309.55 685.92 305.709Z" fill="#364750"/><path d="M587.654 171.213C593.53 139.701 573.921 108.982 543.853 102.601L527.769 99.1882C451.464 82.9948 377.519 134.699 362.606 214.674L355.997 250.118C344.735 310.517 382.322 369.394 439.95 381.624C497.576 393.853 553.421 354.805 564.684 294.407L587.654 171.213ZM626.142 278.064C651.75 276.855 666.648 244.075 663.344 217.365L664.991 196.077C656.022 123.57 590.38 83.7981 521.258 91.9166L478.553 96.9322C430.844 102.536 397.236 148.42 404.273 198.348C410.709 244.008 449.231 283.291 493.112 281.22L626.142 278.064Z" fill="#1F2E35"/></svg>