<svg width="1080" height="1080" viewBox="0 0 1080 1080" fill="none" xmlns="http://www.w3.org/2000/svg"><path d="M538.665 547.871C650.923 547.871 741.926 627.753 741.926 726.292C741.926 824.831 650.923 904.713 538.665 904.713C426.407 904.713 335.404 824.831 335.404 726.292C335.404 627.753 426.407 547.871 538.665 547.871Z" fill="#1A2628"/><path fill-rule="evenodd" clip-rule="evenodd" d="M549.372 774.075C559.548 765.582 574.683 766.946 583.176 777.123L610.926 810.373C619.419 820.549 618.054 835.683 607.878 844.177C597.702 852.67 582.567 851.305 574.074 841.129L546.324 807.879C537.831 797.702 539.196 782.568 549.372 774.075ZM529.54 774.211C539.641 782.793 540.872 797.939 532.29 808.04L504.04 841.29C495.458 851.391 480.312 852.623 470.21 844.041C460.109 835.458 458.878 820.312 467.46 810.211L495.71 776.961C504.292 766.86 519.438 765.628 529.54 774.211Z" fill="#2C3D46"/><path d="M740.319 644.82C740.319 752.082 649.316 839.035 537.058 839.035C424.8 839.035 333.797 752.082 333.797 644.82C333.797 501.001 740.319 494.001 740.319 644.82ZM570.298 576.301C590.643 576.301 607.137 592.794 607.137 613.139V652.766C607.137 673.111 590.643 689.604 570.298 689.604C556.799 689.604 544.995 682.343 538.58 671.513C533.5 679.001 522.25 689.766 506.46 689.766C490.67 689.766 470.46 678.001 470.46 653.445C470.46 628.515 466.21 583.639 466.21 583.639C466.21 563.294 549.953 576.301 570.298 576.301ZM334.004 636.014C337.087 569.994 374.665 512.548 429.934 479.734L488.63 573.843C480.276 594.302 463.205 665.067 460.844 791.266C460.7 798.961 452.953 804.227 446.013 800.899C382.053 770.23 337.377 708.255 334.004 636.014ZM646.366 481.051C700.446 514.074 737.081 570.882 740.115 636.04C736.789 707.092 693.508 768.21 631.223 799.376C624.278 802.851 616.4 797.591 616.247 789.827C613.784 664.531 596.811 594.227 588.488 573.846L646.366 481.051Z" fill="#364750"/><path d="M570.298 576.299C590.643 576.299 607.137 592.792 607.137 613.137V652.764C607.137 673.109 590.643 689.602 570.298 689.602C556.799 689.602 544.995 682.341 538.58 671.511C533.5 678.999 522.25 689.764 506.46 689.764C490.67 689.764 470.46 677.999 470.46 653.443C470.46 628.513 466.21 583.637 466.21 583.637C466.21 563.292 549.953 576.299 570.298 576.299Z" fill="#4A5A62"/><path d="M334.004 636.014C337.087 569.994 374.665 512.548 429.934 479.734L488.63 573.843C480.276 594.302 463.205 665.067 460.844 791.266C460.7 798.961 452.953 804.227 446.013 800.899C382.053 770.23 337.377 708.255 334.004 636.014ZM646.366 481.051C700.446 514.074 737.081 570.882 740.115 636.04C736.789 707.092 693.508 768.21 631.223 799.376C624.278 802.851 616.4 797.591 616.247 789.827C613.784 664.531 596.811 594.227 588.488 573.846L646.366 481.051Z" fill="#2C3D46"/><path d="M316.894 633.434C316.894 552.583 394.407 487.562 420.08 487.562C435.97 487.562 377.012 557.801 377.012 617.342V685.021C361.017 687.938 316.894 681.703 316.894 633.434Z" fill="#364750"/><path fill-rule="evenodd" clip-rule="evenodd" d="M636.929 511.143C648.769 495.864 670.754 493.076 686.033 504.916C713.966 526.562 740.505 568.273 750.123 615.654C760.107 664.84 752.338 723.028 706.692 773.184C693.681 787.479 671.545 788.521 657.249 775.511C642.953 762.5 641.911 740.364 654.922 726.068C683.143 695.059 687.83 660.657 681.522 629.579C674.847 596.696 656.345 570.468 643.156 560.247C627.877 548.407 625.089 526.423 636.929 511.143Z" fill="#364750"/><path d="M741.924 380.543C741.924 298.607 675.501 232.184 593.565 232.184H483.761C401.824 232.184 335.401 298.607 335.401 380.543C335.401 462.48 401.824 528.903 483.761 528.903H593.564C675.501 528.903 741.924 462.48 741.924 380.543ZM536.236 363.945C599.599 363.945 684.938 376.501 684.938 474.994C684.938 494.289 684.91 512.301 684.91 526.683C684.91 590.88 618.715 642.921 537.059 642.921C455.403 642.921 389.208 590.88 389.208 526.683C389.208 516.379 389.128 487.711 389.128 474.543C389.128 384.251 467.687 363.945 536.236 363.945Z" fill="#2C3D46"/><path d="M536.236 363.945C599.599 363.945 684.938 376.501 684.938 474.994C684.938 494.289 684.91 512.301 684.91 526.683C684.91 590.88 618.715 642.921 537.059 642.921C455.403 642.921 389.208 590.88 389.208 526.683C389.208 516.379 389.128 487.711 389.128 474.543C389.128 384.251 467.687 363.945 536.236 363.945Z" fill="#3F515B"/><path d="M402.524 457.209C401.057 465.278 396.382 483.016 389.34 494.68C381.637 476.386 377.628 470.138 378.316 469.313C378.866 468.652 383.681 452.899 386.019 445.105L402.524 457.209Z" fill="#2C3D46"/>
<path d="M671.884 458.138C673.351 466.208 678.026 483.946 685.068 495.609C692.771 477.316 696.78 471.068 696.092 470.242C695.542 469.582 690.728 453.829 688.389 446.034L671.884 458.138Z" fill="#2C3D46"/><path d="M608.366 507.824C607.258 528.825 589.932 542.173 546.338 543.387C546.338 532.132 546.338 527.244 546.732 515.651C560.561 515.651 586.747 514.01 608.366 507.824Z" fill="#4A5A62"/><path d="M469.053 507.824C470.162 528.825 487.488 542.173 531.082 543.387C531.082 532.132 531.082 527.244 530.688 515.651C516.859 515.651 490.673 514.01 469.053 507.824Z" fill="#4A5A62"/><path fill-rule="evenodd" clip-rule="evenodd" d="M531.028 529.263C528.515 524.927 524.441 522.09 518.599 522.196C508.675 522.376 502.824 530.563 502.46 540.112C510.374 541.957 519.857 543.074 531.082 543.387V543.378C531.082 537.579 531.082 533.471 531.028 529.263Z" fill="#1F2E35"/><path fill-rule="evenodd" clip-rule="evenodd" d="M561.725 542.343C561.717 542.22 561.709 542.097 561.703 541.974C561.198 532.011 567.635 522.376 576.359 521.764C583.554 521.259 590.174 525.937 592.394 533.559C585.066 537.832 574.997 540.829 561.725 542.343Z" fill="#1F2E35"/><path d="M525.511 560.522C521.003 550.068 501.739 517.692 452.146 519.537V560.522H525.511Z" fill="#3F515B"/><path fill-rule="evenodd" clip-rule="evenodd" d="M429.8 487.931C430.457 486.23 432.368 485.384 434.068 486.041C442.967 489.478 448.62 494.045 452.08 497.866C453.804 499.77 454.972 501.475 455.722 502.74C456.097 503.373 456.367 503.896 456.552 504.279C456.644 504.47 456.714 504.627 456.765 504.745C456.791 504.804 456.812 504.854 456.828 504.893L456.849 504.945L456.857 504.965L456.86 504.973L456.862 504.977C456.862 504.979 456.863 504.981 453.786 506.176L456.863 504.981C457.333 506.191 457.05 507.563 456.141 508.489C455.234 509.413 453.871 509.721 452.656 509.278C452.656 509.278 452.656 509.278 452.656 509.278C452.655 509.277 452.653 509.277 452.651 509.276C452.642 509.273 452.622 509.266 452.592 509.256C452.533 509.236 452.433 509.203 452.297 509.16C452.024 509.076 451.606 508.955 451.069 508.825C449.989 508.564 448.452 508.273 446.659 508.161C443.041 507.935 438.633 508.448 434.739 511.104C433.233 512.132 431.18 511.744 430.152 510.238C429.125 508.732 429.513 506.678 431.019 505.65C436.304 502.044 442.065 501.349 446.476 501.541C443.605 498.585 438.96 495.007 431.69 492.2C429.989 491.543 429.143 489.632 429.8 487.931ZM646.705 487.034C647.857 488.446 647.646 490.526 646.234 491.678L631.469 503.723L644.493 505.094C646.306 505.285 647.621 506.91 647.43 508.723C647.239 510.536 645.615 511.851 643.801 511.66L622.894 509.459C621.569 509.32 620.457 508.397 620.077 507.119C619.696 505.842 620.121 504.461 621.153 503.618L642.06 486.562C643.473 485.41 645.552 485.621 646.705 487.034Z" fill="#364750"/><path d="M553.335 547.354C553.429 555.114 547.214 561.48 539.455 561.574C531.695 561.668 525.328 555.453 525.234 547.693C525.14 539.933 535.073 522.199 538.978 522.152C542.883 522.105 553.242 539.594 553.335 547.354Z" fill="#2C3D46"/><path fill-rule="evenodd" clip-rule="evenodd" d="M483.64 544.039C485.366 542.796 487.773 543.187 489.016 544.913C501.449 562.172 517.408 568.808 531.405 569.988C533.525 570.167 535.098 572.03 534.92 574.15C534.741 576.269 532.878 577.843 530.758 577.664C514.722 576.312 496.627 568.658 482.766 549.415C481.522 547.689 481.914 545.282 483.64 544.039Z" fill="#2C3D46"/><path fill-rule="evenodd" clip-rule="evenodd" d="M563.19 601.255C564.158 602.426 563.993 604.16 562.821 605.128C555.89 610.854 546.28 613.598 536.93 613.598C527.586 613.598 518.083 610.856 511.405 605.089C510.255 604.096 510.128 602.359 511.121 601.209C512.114 600.059 513.851 599.932 515.001 600.925C520.428 605.611 528.531 608.096 536.93 608.096C545.323 608.096 553.594 605.613 559.317 600.886C560.489 599.918 562.223 600.084 563.19 601.255Z" fill="#364750"/><path fill-rule="evenodd" clip-rule="evenodd" d="M538.835 442.54C542.774 442.579 546.391 444.72 548.319 448.154C552 454.708 554.475 458.928 558.76 462.465C562.908 465.888 569.714 469.373 582.972 471.595C588.966 472.6 593.01 478.273 592.005 484.267C591.001 490.26 585.328 494.304 579.334 493.3C563.616 490.665 552.785 486.068 544.752 479.438C542.4 477.497 540.372 475.442 538.591 473.349C536.76 475.471 534.68 477.557 532.275 479.524C524.169 486.153 513.301 490.776 497.529 493.359C491.532 494.342 485.874 490.276 484.891 484.279C483.909 478.282 487.975 472.624 493.972 471.642C507.199 469.475 514.082 465.973 518.344 462.488C522.775 458.865 525.367 454.549 529.241 447.964C531.238 444.569 534.897 442.5 538.835 442.54Z" fill="#1F2E35"/><path d="M417.797 475.647C369.7 453.433 349.5 404.002 345.892 384.793C342.284 365.584 340.5 351.002 344.476 331.614C350.33 303.067 395.111 234.603 473.917 232.431C491.304 231.952 568.5 232.483 598.772 232.483C674.5 232.483 718.403 294.327 728.926 319.165C735 333.502 741.06 360.992 734.534 384.715C715.75 453.002 666.747 473.635 662.472 475.66C647.5 482.752 631.114 472.268 626.557 456.385C622 440.502 619.627 431.343 619.627 431.343L539.568 431.409L461.414 431.474C461.414 431.474 456.079 448.704 453.757 456.632C449.089 472.568 432.873 482.61 417.797 475.647Z" fill="#1F2E35"/><path fill-rule="evenodd" clip-rule="evenodd" d="M611.142 233.042C611.215 234.392 611.252 235.752 611.252 237.12C611.252 278.099 578.033 311.319 537.054 311.319C496.075 311.319 462.855 278.099 462.855 237.12C462.855 235.796 462.89 234.48 462.959 233.173C466.535 232.785 470.188 232.533 473.917 232.431C485.88 232.101 526.156 232.25 559.981 232.374C575.318 232.431 589.328 232.483 598.772 232.483C602.994 232.483 607.118 232.675 611.142 233.042Z" fill="#19252A"/><path fill-rule="evenodd" clip-rule="evenodd" d="M475 236C475 202.311 502.311 175 536 175H537.5C571.189 175 598.5 202.311 598.5 236C598.5 269.689 571.189 297 537.5 297H536C502.311 297 475 269.689 475 236Z" fill="#1F2E35"/><path fill-rule="evenodd" clip-rule="evenodd" d="M567.09 760.238C576.389 758.944 584.976 765.433 586.27 774.732L569.433 777.075C586.27 774.732 586.271 774.74 586.272 774.747L586.274 774.762L586.279 774.794L586.289 774.867C586.296 774.92 586.303 774.979 586.312 775.046C586.328 775.179 586.348 775.341 586.368 775.53C586.41 775.908 586.459 776.397 586.506 776.989C586.601 778.17 586.692 779.768 586.713 781.714C586.757 785.591 586.527 790.932 585.473 797.153C583.371 809.566 577.905 825.879 564.449 840.759C559.318 846.588 553.763 851.662 548.873 855.984C547.604 857.106 546.406 858.156 545.268 859.152C541.73 862.251 538.784 864.831 536.149 867.445C532.675 870.891 531.225 873.007 530.684 874.198C530.587 874.412 530.547 874.5 530.535 874.531C530.531 874.541 530.53 874.545 530.531 874.546C530.532 874.547 530.54 874.536 530.549 874.526C530.56 874.515 530.571 874.506 530.575 874.517C533.572 883.415 528.789 893.058 519.891 896.055C510.993 899.052 501.351 894.269 498.354 885.371C491.814 865.956 503.95 851.496 512.204 843.308C515.665 839.874 519.71 836.334 523.417 833.09C524.428 832.205 525.414 831.342 526.357 830.509C531.052 826.359 535.313 822.411 538.992 818.221C539.052 818.153 539.113 818.085 539.174 818.018C547.286 809.075 550.633 799.252 551.951 791.474C552.609 787.586 552.74 784.307 552.716 782.093C552.703 780.992 552.653 780.177 552.615 779.706C552.596 779.471 552.581 779.324 552.575 779.273C552.575 779.273 552.575 779.273 552.575 779.273C551.369 770.03 557.839 761.525 567.09 760.238ZM552.591 779.392C552.591 779.391 552.591 779.392 552.591 779.392Z" fill="#2C3D46"/><path d="M703.122 577.447L658.124 574.635L671.624 551.386C676.491 543.004 688.837 543.776 692.622 552.699L703.122 577.447Z" fill="#2C3D46"/><path d="M727.75 611.186L693.852 580.544L718.593 570.024C727.512 566.229 736.933 574.247 734.617 583.659L727.75 611.186Z" fill="#2C3D46"/><path d="M710.021 703.491C744.349 663.463 739.913 610.897 707.452 580.739C674.992 550.581 629.79 547.572 599.714 584.271C581.399 606.619 551.899 630.229 524.217 643.201C478.76 664.503 469.451 709.263 494.846 750.709C520.242 792.155 570.17 802.794 618.538 777.916C647.99 762.767 689.117 727.865 710.021 703.491Z" fill="#2C3D46"/><path fill-rule="evenodd" clip-rule="evenodd" d="M656.202 572.904C657.118 573.937 657.023 575.517 655.99 576.433C654.246 577.98 653.745 579.529 653.791 580.809C653.84 582.157 654.508 583.534 655.674 584.61C657.958 586.717 661.775 587.365 665.054 584.042C666.02 583.064 667.595 583.049 668.579 584.009C669.563 584.969 669.588 586.543 668.634 587.533C666.872 589.362 666.384 591.079 666.462 592.451C666.543 593.867 667.245 595.22 668.401 596.245C670.699 598.283 674.437 598.767 677.434 595.676C678.396 594.684 679.978 594.66 680.97 595.621C681.961 596.582 681.985 598.165 681.024 599.156C675.946 604.393 669.139 603.582 665.084 599.986C663.063 598.194 661.637 595.646 661.47 592.736C661.442 592.249 661.45 591.76 661.495 591.27C658.027 591.724 654.658 590.475 652.284 588.285C650.289 586.445 648.897 583.863 648.794 580.989C648.689 578.047 649.945 575.111 652.673 572.692C653.706 571.776 655.286 571.871 656.202 572.904Z" fill="#1F2E35"/><path d="M637.887 656.321L613.064 634.088C601.573 623.795 600.601 606.134 610.894 594.643C621.187 583.152 638.846 582.181 650.338 592.473L675.16 614.707C686.652 625.001 687.624 642.659 677.33 654.151C667.037 665.643 649.379 666.615 637.887 656.321Z" fill="#4A5A62"/><path d="M641.213 600.784C641.1 596.488 646.18 594.137 649.382 597.004L657.267 604.068C660.469 606.935 658.69 612.243 654.405 612.602L646.724 613.244C643.918 613.479 641.489 611.305 641.416 608.49L641.213 600.784Z" fill="#2C3D46"/><path fill-rule="evenodd" clip-rule="evenodd" d="M696.742 717.705L681.812 699.228C676.084 692.14 665.695 691.037 658.607 696.764C651.519 702.492 650.417 712.881 656.144 719.969L672.381 740.062C681.126 732.639 689.45 724.993 696.742 717.705ZM658.367 751.47L644.796 731.7C639.638 724.188 629.367 722.278 621.854 727.435C614.341 732.593 612.432 742.864 617.589 750.377L631.42 770.524C640.084 765.107 649.276 758.557 658.367 751.47Z" fill="#1F2E35"/><path fill-rule="evenodd" clip-rule="evenodd" d="M464.579 702.905C466.171 695.339 473.596 690.496 481.162 692.088L513.269 698.845C520.835 700.437 525.678 707.861 524.086 715.427C522.494 722.994 515.069 727.837 507.503 726.244L475.396 719.488C467.83 717.896 462.987 710.472 464.579 702.905Z" fill="#2C3D46"/><path fill-rule="evenodd" clip-rule="evenodd" d="M523.037 739.902C526.272 746.925 523.2 755.241 516.177 758.475L486.377 772.2C479.354 775.434 471.038 772.363 467.804 765.34C464.569 758.317 467.641 750.002 474.664 746.767L504.464 733.043C511.487 729.808 519.803 732.879 523.037 739.902Z" fill="#2C3D46"/><path d="M689.301 726.576C694.156 729.687 699.067 734.027 701.69 739.619C704.314 745.211 705.823 751.232 706.131 757.338C706.439 763.444 705.54 769.516 703.485 775.207C701.431 780.898 698.261 786.096 694.156 790.505C690.051 794.915 685.093 798.448 679.563 800.904C674.034 803.36 668.042 804.691 661.929 804.82C655.065 804.965 647.223 805.291 641.458 803.074C635.693 800.857 632.869 796.123 628.329 791.897L659.584 758.322L689.301 726.576Z" fill="#3F515B"/><path fill-rule="evenodd" clip-rule="evenodd" d="M653.26 707.471C658.801 703.354 666.631 704.508 670.749 710.05C675.078 715.876 679.687 719.988 683.16 722.61C684.89 723.917 686.315 724.836 687.245 725.397C687.709 725.678 688.047 725.867 688.235 725.969C688.318 726.015 688.372 726.043 688.393 726.054C694.526 729.136 697.03 736.597 693.984 742.76C691.804 747.171 687.371 749.727 682.762 749.724C682.575 752.653 681.361 755.528 679.122 757.765L670.288 748.921C679.122 757.765 679.119 757.767 679.117 757.77L679.112 757.775L679.099 757.787L679.069 757.817L678.986 757.9C678.919 757.964 678.833 758.049 678.725 758.153C678.511 758.359 678.216 758.641 677.842 758.988C677.094 759.684 676.03 760.646 674.673 761.808C671.962 764.128 668.057 767.262 663.139 770.654C658.935 773.554 653.923 776.689 648.226 779.674C653.303 780.04 657.208 779.852 660.038 779.511C662.753 779.184 664.525 778.71 665.442 778.415C665.83 778.29 666.07 778.196 666.167 778.156C672.172 775.156 679.516 777.442 682.737 783.388C686.025 789.458 683.77 797.045 677.7 800.333L671.85 789.533C677.7 800.333 677.692 800.337 677.684 800.341L677.669 800.35L677.636 800.367L677.567 800.404C677.52 800.429 677.469 800.455 677.414 800.483C677.306 800.539 677.183 800.6 677.047 800.666C676.775 800.798 676.448 800.949 676.066 801.113C675.3 801.442 674.313 801.823 673.096 802.214C670.658 802.998 667.325 803.814 663.03 804.332C654.423 805.369 642.132 805.19 625.634 801.335C620.104 800.042 616.297 795.264 615.995 789.868C611.747 788.774 608.202 785.472 607.011 780.928C605.26 774.25 609.254 767.417 615.932 765.666C629.217 762.183 640.682 755.773 648.944 750.075C653.04 747.25 656.258 744.662 658.418 742.814C659.495 741.892 660.303 741.159 660.818 740.68C661.075 740.441 661.259 740.266 661.366 740.162C661.42 740.111 661.454 740.077 661.469 740.062L661.463 740.068L661.463 740.068L661.462 740.07C661.462 740.069 661.463 740.069 661.463 740.068C661.467 740.064 661.471 740.06 661.475 740.056C662.027 739.508 662.616 739.022 663.236 738.597C659.274 735.115 654.88 730.61 650.682 724.96C646.564 719.418 647.719 711.588 653.26 707.471ZM680.536 741.759C680.536 741.759 680.536 741.759 680.536 741.759L682.778 737.222C681.898 739.002 681.158 740.499 680.536 741.759ZM665.808 778.342L665.809 778.342Z" fill="#3F515B"/><path fill-rule="evenodd" clip-rule="evenodd" d="M327.644 621.567C340.668 607.283 362.805 606.262 377.089 619.286C377.827 619.959 395.153 635.429 436.858 640.202C456.063 642.399 469.85 659.749 467.652 678.954C465.454 698.158 448.105 711.945 428.9 709.748C371.193 703.144 340.457 680.615 329.925 671.012C315.641 657.988 314.62 635.85 327.644 621.567Z" fill="#364750"/><path d="M499.198 678.027C497.467 654.374 476.89 636.604 453.237 638.335C429.584 640.066 411.813 660.643 413.544 684.296C415.275 707.949 435.853 725.72 459.506 723.989C483.159 722.258 500.929 701.68 499.198 678.027Z" fill="#3F515B"/><path fill-rule="evenodd" clip-rule="evenodd" d="M458.538 648.943C460.96 642.478 468.163 639.2 474.628 641.622L470.244 653.328C474.628 641.622 474.633 641.624 474.639 641.626L474.65 641.63L474.675 641.639L474.732 641.661C474.774 641.677 474.824 641.696 474.881 641.718C474.995 641.763 475.138 641.82 475.308 641.889C475.65 642.029 476.102 642.219 476.654 642.464C477.756 642.954 479.259 643.666 481.064 644.626C484.665 646.541 489.515 649.474 494.788 653.657C505.348 662.034 517.759 675.555 524.986 695.964C527.291 702.472 523.883 709.615 517.376 711.92C510.868 714.224 503.725 710.817 501.42 704.309C496.105 689.301 487.036 679.418 479.252 673.244C475.354 670.152 471.816 668.023 469.322 666.696C468.078 666.035 467.107 665.579 466.497 665.308C466.193 665.173 465.98 665.084 465.869 665.039C465.83 665.023 465.804 665.013 465.792 665.008C459.372 662.561 456.125 655.386 458.538 648.943Z" fill="#3F515B"/><path fill-rule="evenodd" clip-rule="evenodd" d="M534.019 623.967C535.004 616.298 542.02 610.879 549.689 611.864L582.231 616.044C589.9 617.029 595.318 624.045 594.333 631.714C593.348 639.383 586.333 644.801 578.664 643.816L546.122 639.636C538.453 638.651 533.034 631.636 534.019 623.967Z" fill="#2C3D46"/><path fill-rule="evenodd" clip-rule="evenodd" d="M560.275 664.966C563.142 653.727 574.575 646.941 585.814 649.807L617.606 657.914C628.844 660.781 635.631 672.214 632.765 683.453C629.899 694.691 618.465 701.478 607.226 698.612L575.435 690.504C564.196 687.638 557.409 676.204 560.275 664.966Z" fill="#1F2E35"/><path fill-rule="evenodd" clip-rule="evenodd" d="M567.059 666.697C568.969 659.204 576.592 654.68 584.084 656.59L615.876 664.698C623.368 666.609 627.893 674.232 625.982 681.724C624.071 689.216 616.449 693.741 608.957 691.83L577.165 683.722C569.673 681.811 565.148 674.189 567.059 666.697Z" fill="#2C3D46"/><path d="M605.421 714.844L619.57 651.328L643.781 669.566L628.06 718.931L605.421 714.844Z" fill="#2C3D46"/></svg>