<svg width="1080" height="1080" viewBox="0 0 1080 1080" fill="none" xmlns="http://www.w3.org/2000/svg"><path fill-rule="evenodd" clip-rule="evenodd" d="M453.939 759.197C418.283 787.43 368.663 804.939 313.791 804.939C205.244 804.939 117.25 736.424 117.25 651.906C117.25 567.388 205.244 498.873 313.791 498.873C419.011 498.873 504.918 563.252 510.086 644.18C544.404 617.864 591.543 601.62 643.565 601.62C748.524 601.62 833.609 667.743 833.609 749.31C833.609 830.877 748.524 897 643.565 897C542.881 897 460.484 836.154 453.939 759.197Z" fill="#1A2628"/><path fill-rule="evenodd" clip-rule="evenodd" d="M334.457 612.307C339.811 613.664 343.051 619.104 341.693 624.457L323.693 695.457C322.336 700.811 316.896 704.051 311.542 702.693C306.189 701.336 302.949 695.896 304.307 690.542L322.307 619.542C323.664 614.189 329.104 610.949 334.457 612.307Z" fill="#1F2E35"/><path fill-rule="evenodd" clip-rule="evenodd" d="M329.304 614.429C332.381 619.015 331.158 625.228 326.571 628.304L262.132 671.534C257.546 674.611 251.334 673.388 248.257 668.801C245.18 664.215 246.404 658.003 250.99 654.926L315.429 611.696C320.015 608.619 326.228 609.843 329.304 614.429Z" fill="#1F2E35"/><path fill-rule="evenodd" clip-rule="evenodd" d="M330.133 607.378C331.028 601.928 336.172 598.237 341.622 599.133L414.622 611.133C420.072 612.028 423.763 617.172 422.868 622.622C421.972 628.072 416.828 631.763 411.378 630.868L338.378 618.868C332.928 617.972 329.237 612.828 330.133 607.378Z" fill="#1F2E35"/><path d="M242.21 630.912L205.323 611.883C194.881 605.571 191.532 591.99 197.844 581.548L317.19 516.524C332.522 507.04 343.286 507.057 353.728 513.369L411.852 537.077C414.186 538.029 416.4 539.29 418.293 540.954C422.297 544.474 424.177 548.612 423.975 553.225C423.729 558.842 420.288 563.831 415.325 566.474L288.029 637.361C274 646 252.652 637.224 242.21 630.912Z" fill="#2C3D46"/><path d="M462 212.62V484.18C462 490.85 458.36 497 452.52 500.21L214.09 631.13C209.81 633.48 205.19 633.92 201 632.89C200.75 632.83 200.51 632.76 200.27 632.69L196.06 630.88C196.05 630.88 196.04 630.87 196.03 630.86L150.63 611.33C148.37 609.88 147 607.38 147 604.69L139 311.12C139 310.06 139.2 309.07 139.56 308.18C140.04 306.03 141.52 304.08 143.6 302.89L384.16 177.85C393.63 172.88 404.66 172.54 413.44 176.95L450.37 195.49L450.26 195.55C456.92 198.12 462 204.52 462 212.62Z" fill="#4A5A62"/><path d="M201.952 633.097C201.632 633.037 201.315 632.967 201 632.89C200.75 632.83 200.51 632.76 200.27 632.69L196.06 630.88C196.05 630.88 196.04 630.87 196.03 630.86L150.63 611.33C148.37 609.88 147 607.38 147 604.69L139 311.12C139 310.06 139.2 309.07 139.56 308.18C140.04 306.03 141.52 304.08 143.6 302.89L201.124 272.99L201.952 633.097Z" fill="#2C3D46"/><path d="M457.268 200.334L202 333L140.779 305.45C141.493 304.429 142.456 303.545 143.6 302.89L384.16 177.85C393.63 172.88 404.66 172.54 413.44 176.95L450.37 195.49L450.26 195.55C452.923 196.578 455.334 198.218 457.268 200.334Z" fill="#364750"/><path d="M598 614.5C598 649.018 573.6 677 543.5 677C513.4 677 489 649.018 489 614.5C489 579.982 513.4 552 543.5 552C573.6 552 598 579.982 598 614.5Z" fill="#4A5A62"/><path d="M602.944 719.9V719.901C614.608 726.587 618.642 741.462 611.956 753.126L602.656 769.35C595.97 781.014 581.094 785.048 569.43 778.362C557.766 771.676 553.732 756.8 560.418 745.136L569.718 728.913C576.404 717.249 591.28 713.214 602.944 719.9Z" fill="#1F2E35"/><path d="M667.547 739.139C656.721 747.11 654.406 762.349 662.377 773.175L673.464 788.234C681.435 799.06 696.674 801.375 707.5 793.404H707.501C718.327 785.433 720.642 770.194 712.671 759.368L701.583 744.309C693.612 733.483 678.373 731.168 667.547 739.139Z" fill="#1F2E35"/><path d="M761.772 341.923C799.901 341.923 830.811 372.833 830.811 410.962C830.811 449.091 799.901 480 761.772 480C723.643 480 692.734 449.091 692.734 410.962C692.734 372.833 723.643 341.923 761.772 341.923Z" fill="#1F2E35"/><path d="M690.367 290.923C729.929 290.923 762 322.994 762 362.556C762 402.118 729.929 434.189 690.367 434.189C650.805 434.189 618.734 402.118 618.734 362.556C618.734 322.994 650.805 290.923 690.367 290.923Z" fill="#1F2E35"/><path d="M630.2 408.481C630.2 442.988 602.226 470.962 567.719 470.962C533.212 470.962 505.238 442.988 505.238 408.481C505.238 373.974 533.212 346 567.719 346C602.226 346 630.2 373.974 630.2 408.481Z" fill="#1F2E35"/><path d="M788.582 577.999L728.472 619.533L766.784 674.978C778.253 691.579 801.008 695.738 817.607 684.269C834.206 672.8 838.364 650.043 826.894 633.445L788.582 577.999Z" fill="#4A5A62"/><path d="M644.707 314.104H665.708C736.86 314.104 794.539 370 794.539 442.935C794.539 515.87 794.539 590.93 794.539 651.465C794.539 712 736.86 780.297 665.708 780.297H644.707C573.555 780.297 515.876 723 515.876 651.465C515.876 579.93 515.876 516.87 515.876 442.935C515.876 369 573.555 314.104 644.707 314.104Z" fill="#364750"/><path fill-rule="evenodd" clip-rule="evenodd" d="M702.086 621.917C718.098 605.906 744.057 605.906 760.068 621.917C776.08 637.929 776.08 663.889 760.068 679.9C744.057 695.912 718.098 695.912 702.086 679.9C686.075 663.889 686.075 637.929 702.086 621.917ZM752.997 628.988C740.891 616.882 721.264 616.882 709.157 628.988C697.051 641.095 697.051 660.723 709.157 672.829C721.264 684.936 740.891 684.936 752.997 672.829C765.104 660.723 765.104 641.095 752.997 628.988Z" fill="#202F36"/><path d="M794.539 641.241V651.465C794.539 712 736.86 780.297 665.708 780.297H644.707C573.676 780.297 516.072 723.194 515.876 651.829C530.473 672.273 565.64 705.632 641.044 709.238C722.881 713.151 773.944 665.564 794.539 641.241Z" fill="#2C3D46"/><path d="M522.348 692.042C518.148 679.302 515.876 665.664 515.876 651.465V634.65C540.78 662.157 585.265 699.517 643.204 699.547C711.105 699.582 769.038 651.505 794.539 626.544V651.465C794.539 661.632 792.912 672.018 789.867 682.263C772.765 711.287 715.717 743.164 658.848 746.171C593.848 746.734 541.213 722.721 522.348 692.042Z" fill="#1F2E35"/><path d="M543.627 687.556L544.12 718.685L567.126 731.131L567.526 702.863L543.627 687.556Z" fill="#2C3D46"/><path d="M695.259 717.222L695.684 746L668.17 749.131L667.771 719.649C677.889 718.778 693.222 717.407 695.259 717.222Z" fill="#2C3D46"/><path d="M515.875 650.288V580.515C519.51 603.217 536.179 655.575 610 667C679.48 674.84 726.54 653.06 754.6 631.73C756.04 630.63 757.43 629.53 758.78 628.41C781.496 609.753 791.837 593.275 794.538 585.154V642.162C787.529 707.152 701.845 726.159 617 719C547.88 709.784 521.092 665.754 515.875 650.288Z" fill="#4A5A62"/><path d="M599.179 688.118L574.07 651.978L604.029 648.175L633.044 662.766L606.872 688.468C604.693 690.608 601.155 690.446 599.179 688.118Z" fill="#364750"/><path d="M653 376C687.458 376.051 726.608 392.402 742 411L740.669 446.997C743 502.333 778.271 491.898 797 490L796.5 444.33C796.5 366.25 735.167 299.953 657.087 299.953C624.32 299.953 594.156 311.1 570.182 329.81C537.029 355.683 515.711 396.017 515.711 441.33V464C515.711 427.5 531.437 399.185 531.437 399.185C531.437 399.185 585.444 378.111 653 376Z" fill="#1F2E35"/><path d="M597 255.259C642.514 255.259 679.411 292.156 679.411 337.67C679.411 383.184 642.514 420.08 597 420.08C551.486 420.08 514.589 383.184 514.589 337.67C514.589 292.156 551.486 255.259 597 255.259Z" fill="#1F2E35"/><path d="M657.454 281.556C657.454 281.556 670 294 690.367 290.923C708 293 667.682 333.91 667.682 333.91L632.2 285.593L657.454 281.556Z" fill="#1F2E35"/><path d="M793.854 455.481C806.921 455.481 817.514 466.074 817.514 479.141C817.514 492.208 806.921 502.801 793.854 502.801C780.787 502.801 770.194 492.208 770.194 479.141C770.194 466.074 780.787 455.481 793.854 455.481Z" fill="#364750"/><path d="M559.695 502.637C575.701 513.531 589.222 516.968 601.527 520.299L591.44 550.185C546.556 545.222 552.34 515.482 554.222 504.333C554.432 503.089 558.652 501.927 559.695 502.637Z" fill="#4A5A62"/><path d="M670.351 526.917C669.635 536.233 665.468 553.928 642.888 556.02C628.299 557.351 615.813 554.572 614.166 533.941C612.519 513.31 614.81 517.056 614.81 517.056C627.425 518.889 641.503 519.468 662.834 520.321C669.035 518.42 670.889 519.911 670.351 526.917Z" fill="#4A5A62"/><path d="M633.499 509.415C640.373 508.459 646.72 513.256 647.676 520.13L648.171 523.687C649.127 530.561 644.329 536.908 637.455 537.864C630.581 538.82 624.234 534.022 623.278 527.148L622.783 523.592C621.827 516.718 626.625 510.371 633.499 509.415Z" fill="#1F2E35"/><path d="M585.827 500.945C592.513 502.807 596.422 509.737 594.56 516.423L593.597 519.882C591.735 526.568 584.805 530.477 578.119 528.615C571.433 526.753 567.524 519.823 569.386 513.137L570.35 509.679C572.212 502.993 579.141 499.083 585.827 500.945Z" fill="#1F2E35"/><path fill-rule="evenodd" clip-rule="evenodd" d="M587.687 545.078L604.375 559.432L618.536 548.062L619.055 548.238C620.693 548.793 622.56 549.407 624.611 550.082C635.608 553.698 651.878 559.049 666.279 566.328C674.825 570.648 682.778 575.678 688.608 581.479C694.439 587.282 698.222 593.937 698.222 601.479C698.222 615.607 692.338 625.046 684.892 630.93C677.487 636.781 668.57 639.096 662.443 639.096C656.118 639.096 643.774 638.048 632.885 631.697L632.874 631.69L632.863 631.684C628.397 628.92 620.254 624.107 613.219 619.979C609.704 617.917 606.468 616.027 604.111 614.653C602.932 613.966 601.973 613.408 601.309 613.022L600.595 612.606C600.43 612.638 600.207 612.682 599.927 612.742C599.245 612.887 598.226 613.121 596.895 613.474C594.232 614.181 590.319 615.365 585.349 617.269C583.291 618.057 581.224 618.936 579.134 619.823C578.679 620.017 578.222 620.211 577.765 620.404C575.218 621.482 572.643 622.543 570.076 623.414C564.953 625.151 559.742 626.173 554.668 624.996C547.877 623.421 539.72 620.762 533.594 615.275C527.407 609.733 523.391 601.394 524.756 588.726C526.311 574.295 537.44 564.719 550.237 558.143C561.784 552.209 574.932 548.592 584.245 546.031C585.269 545.749 586.247 545.48 587.171 545.222L587.687 545.078ZM600.778 611.556C601.28 610.691 601.281 610.691 601.281 610.691L602.315 611.293C602.979 611.679 603.939 612.238 605.118 612.925C607.476 614.3 610.714 616.19 614.231 618.254C621.257 622.376 629.412 627.197 633.904 629.976C644.347 636.063 656.273 637.096 662.443 637.096C668.154 637.096 676.626 634.913 683.652 629.361C690.636 623.841 696.222 614.972 696.222 601.479C696.222 594.658 692.811 588.483 687.197 582.896C681.58 577.307 673.837 572.39 665.377 568.113C651.126 560.909 635.029 555.614 624.022 551.994C622.171 551.385 620.464 550.823 618.933 550.308L604.331 562.032L587.193 547.292C586.419 547.507 585.613 547.729 584.777 547.959C575.445 550.527 562.501 554.089 551.151 559.922C538.537 566.404 528.189 575.538 526.744 588.94C525.444 601.009 529.251 608.699 534.928 613.785C540.667 618.925 548.414 621.492 555.12 623.048C559.653 624.099 564.436 623.214 569.433 621.519C571.926 620.674 574.443 619.638 576.986 618.562C577.436 618.372 577.888 618.18 578.341 617.987C580.432 617.099 582.539 616.204 584.633 615.401C589.672 613.471 593.653 612.265 596.382 611.541C597.746 611.179 598.797 610.937 599.511 610.785C599.868 610.71 600.141 610.656 600.326 610.621C600.377 610.612 600.421 610.604 600.459 610.597C600.49 610.591 600.516 610.587 600.538 610.583L600.594 610.573L600.61 610.57L600.615 610.57L600.616 610.569C600.616 610.569 600.617 610.569 600.778 611.556ZM600.778 611.556L600.616 610.569L600.971 610.511L601.281 610.691L600.778 611.556Z" fill="#1F2E35"/><path d="M618.734 549.185C639.667 556.28 697.222 572.754 697.222 601.479C697.222 629.099 674.28 638.096 662.443 638.096C656.194 638.096 644.056 637.055 633.389 630.833C624.433 625.292 600.778 611.556 600.778 611.556C600.778 611.556 595 612.5 584.991 616.335C574.883 620.208 564.5 626.25 554.894 624.022C541.397 620.891 523.084 613.57 525.75 588.833C528.75 561 568.704 551.413 587.44 546.185L604.353 560.732L618.734 549.185Z" fill="#1F2E35"/><path fill-rule="evenodd" clip-rule="evenodd" d="M560.463 481.175C555.734 476.739 548.31 476.64 543.459 481.099C538.378 485.772 538.046 493.679 542.718 498.761C544.192 500.365 546.404 501.896 547.922 502.9C549.911 504.214 552.536 505.792 555.764 507.493C562.228 510.898 571.264 514.876 582.666 518.221C605.528 524.928 637.837 529.065 677.794 521C684.561 519.634 688.94 513.041 687.574 506.274C686.208 499.507 679.615 495.128 672.848 496.494C637.234 503.682 609.047 499.906 589.703 494.232C580.003 491.386 572.508 488.056 567.417 485.374C564.867 484.031 562.958 482.87 561.707 482.043C560.932 481.531 560.559 481.247 560.463 481.175Z" fill="#1F2E35"/><path d="M601.975 538.768C612.199 538.768 620.487 547.056 620.487 557.28C620.487 567.504 612.199 575.792 601.975 575.792C591.751 575.792 583.463 567.504 583.463 557.28C583.463 547.056 591.751 538.768 601.975 538.768Z" fill="#364750"/><path d="M731.202 575.233L728.459 644.127C728.332 647.314 725.742 649.85 722.553 649.909C719.344 649.968 716.652 647.499 716.433 644.297L711.736 575.541C711.501 572.105 714.19 569.173 717.633 569.109L725.073 568.971C728.536 568.907 731.34 571.772 731.202 575.233Z" fill="#2B3B44"/><path d="M724.045 577.157L718.966 577.315C715.407 577.426 711.722 575.24 710.539 571.869L704.297 554.089C700.607 543.578 703.923 531.049 713.337 530.756L726.769 530.338C736.183 530.045 740.272 542.344 737.242 553.064L732.117 571.198C731.145 574.636 727.604 577.046 724.045 577.157Z" fill="#1F2E35"/><path d="M738.147 543.94C737.544 536.411 733.529 530.128 726.769 530.338L713.337 530.756C703.923 531.049 700.607 543.578 704.297 554.089L705.847 558.504C707.368 559.562 709.235 560.149 711.229 560.068L713.78 559.964C718.64 559.764 722.418 555.663 722.218 550.804L722.042 546.495C723.681 547.931 725.853 548.764 728.203 548.668L730.754 548.563C733.975 548.431 736.72 546.585 738.147 543.94Z" fill="#4A5A62"/><path d="M516.347 440.462C516.347 445.731 516.5 450.977 516.5 464.044C516.5 477.111 516.347 483.231 516.347 487.782C509.773 487.782 504.444 477.189 504.444 464.122C504.444 451.055 509.773 440.462 516.347 440.462Z" fill="#364750"/><path d="M756.778 626.778L717 683.889L758.176 702.315C789.822 716.171 826.618 697.28 832.882 663.307C833.433 660.318 833.685 657.577 833.591 655.215C833 633 791.444 631 793.222 646.333L756.778 626.778Z" fill="#4A5A62"/><path d="M794.5 590.5L787.5 621.5L786.5 666.5L803 664L802.5 622L794.5 590.5Z" fill="#4A5A62"/><path d="M705.622 625.453C691.563 639.512 691.563 662.306 705.622 676.365C719.681 690.424 742.474 690.424 756.533 676.365C770.592 662.306 770.592 639.512 756.533 625.453C742.474 611.394 719.681 611.394 705.622 625.453Z" fill="#364750"/></svg>