<svg width="1080" height="1080" viewBox="0 0 1080 1080" fill="none" xmlns="http://www.w3.org/2000/svg"><path d="M780.098 837.923C780.098 900.788 714.641 951.755 633.902 951.755C553.163 951.755 487.706 900.788 487.706 837.923C487.706 821.696 492.062 806.261 499.928 792.302C480.137 798.872 458.348 802.499 435.479 802.499C344.552 802.499 270.851 745.106 270.851 674.312C270.851 603.518 344.552 546.134 435.479 546.134C526.406 546.134 600.116 603.518 600.116 674.312C600.116 694.733 593.978 714.047 583.061 731.183C598.892 726.602 616.019 724.1 633.902 724.1C714.641 724.1 780.098 775.058 780.098 837.923Z" fill="#1A2628"/><path d="M263.575 593.395C263.575 621.895 285.338 644.999 312.183 644.999C339.028 644.999 360.791 621.895 360.791 593.395C360.791 564.895 339.028 541.79 312.183 541.79C285.338 541.79 263.575 564.895 263.575 593.395Z" fill="#4A5A62"/><path d="M582.335 557.867C662.234 450.966 697.966 449.433 713.587 483.309L743.005 473.503C743.005 473.503 778.577 471.072 759.299 440.9C712.113 360.188 613.823 438.849 613.823 438.849C613.823 438.849 592.763 454.334 580.633 462.233L582.335 557.867Z" fill="#4A5A62"/><path d="M415.315 680.405V680.404C426.111 675.363 438.948 680.028 443.989 690.824L451 705.838C456.041 716.634 451.377 729.471 440.582 734.512C429.786 739.553 416.949 734.889 411.908 724.094L404.896 709.078C399.855 698.283 404.52 685.446 415.315 680.405Z" fill="#1F2E35"/><path d="M517.927 644.154C510.274 653.285 511.473 666.892 520.604 674.544L533.306 685.189C542.437 692.841 556.044 691.643 563.696 682.511C571.349 673.38 570.149 659.774 561.018 652.121L548.317 641.477C539.186 633.824 525.579 635.023 517.927 644.154Z" fill="#1F2E35"/>
<path d="M671.909 522.858C683.429 538.905 702.601 541.646 714.731 528.978C726.86 516.311 727.352 493.032 715.831 476.985C704.31 460.937 685.138 458.196 673.008 470.864C660.879 483.531 660.388 506.81 671.909 522.858Z" fill="#1F2E35"/><path d="M705.193 513.532C699.808 532.539 709.601 549.248 727.065 550.853C744.53 552.458 763.052 538.35 768.437 519.343C773.823 500.336 764.031 483.627 746.566 482.022C729.102 480.417 710.579 494.525 705.193 513.532Z" fill="#1F2E35"/><path d="M730.299 630.163L697.127 523.351L700.408 522.331C712.885 518.457 726.141 525.43 730.016 537.907L749.155 599.538C753.03 612.014 746.057 625.27 733.581 629.144L730.299 630.163Z" fill="#4A5A62"/><path d="M642.216 607.524L726.462 530.707C716.107 519.35 698.505 518.538 687.147 528.893L651.599 560.867C640.242 571.222 631.86 596.167 642.216 607.524Z" fill="#4A5A62"/><path d="M690.838 507.834L692.583 508.646C698.627 511.456 705.805 508.833 708.615 502.789L721.441 475.195C724.251 469.15 721.629 461.972 715.584 459.162L713.84 458.351C707.796 455.541 700.618 458.164 697.808 464.208L684.981 491.802C682.171 497.847 684.793 505.024 690.838 507.834Z" fill="#364750"/><path d="M767.552 462.452C767.516 455.36 765.41 448.628 760.73 443.165C754.232 435.587 742.748 432.446 732.686 433.166C718.142 434.219 705.632 443.732 699.89 457.124C687.578 485.843 704.569 516.365 707.648 500.063C708.588 495.083 712.25 498.239 715.772 501.606C718.081 503.812 720.062 506.337 721.676 509.091L727.033 518.233C731.218 523.417 740.99 526.085 746.234 521.966C753.7 516.099 760.55 494.753 758.264 487.859C758.264 487.859 768.004 471.103 767.552 462.452Z" fill="#364750"/><path fill-rule="evenodd" clip-rule="evenodd" d="M768.162 462.015C766.562 456.078 760.479 452.516 754.505 454.048C748.487 455.591 744.859 461.722 746.403 467.74L757.3 464.945C746.403 467.74 746.404 467.745 746.405 467.749L746.408 467.759L746.413 467.78L746.425 467.826C746.434 467.858 746.443 467.893 746.454 467.933C746.475 468.011 746.501 468.104 746.531 468.21C746.592 468.421 746.672 468.687 746.773 469.001C746.974 469.628 747.262 470.452 747.654 471.424C748.433 473.356 749.653 475.942 751.476 478.737C755.128 484.334 761.427 491.078 771.585 494.616C777.453 496.659 783.866 493.56 785.91 487.692C787.953 481.824 784.853 475.411 778.986 473.368C774.759 471.896 772.064 469.116 770.32 466.442C769.446 465.102 768.866 463.866 768.521 463.009C768.351 462.587 768.245 462.276 768.193 462.115C768.178 462.068 768.168 462.034 768.162 462.015Z" fill="#364750"/><path d="M588.892 290.48C627.632 294.22 656.006 328.658 652.267 367.398C648.527 406.139 614.09 434.513 575.349 430.773C536.609 427.034 508.235 392.597 511.974 353.857C515.714 315.116 550.151 286.741 588.892 290.48Z" fill="#1F2E35"/><path d="M482.806 353.746C478.033 403.189 434.083 439.402 384.64 434.629C335.198 429.857 298.985 385.906 303.757 336.464C308.53 287.021 352.481 250.808 401.923 255.581C451.366 260.353 487.579 304.304 482.806 353.746Z" fill="#1F2E35"/><path d="M483.181 213.927C521.921 217.666 550.296 252.103 546.556 290.843C542.817 329.584 508.38 357.958 469.639 354.219C430.899 350.479 402.525 316.043 406.264 277.302C410.004 238.562 444.44 210.187 483.181 213.927Z" fill="#1F2E35"/><path d="M601.966 293.3C601.966 293.3 575.567 287.966 564.9 274.5C561.318 269.977 539.1 239.3 515.9 225.7C494.3 217.7 508.1 325.7 508.1 325.7L572.1 302.5L601.966 293.3Z" fill="#1F2E35"/><path d="M595.3 506.5L582.5 566.5C580.9 585.7 584.1 592.9 574.5 623.3C555.774 682.599 483.845 712.733 420.53 706.622C386.591 703.346 357.386 687.866 336.389 664.25C315.383 640.634 302.585 608.882 301.451 573.053C301.451 573.053 291.299 487.301 350.501 387.302C376.898 340.529 449.022 294.348 516.9 300.9L544.098 311.196C592.905 331.194 625.637 355.944 632.9 394.5C638.948 426.549 610.267 477.529 595.3 506.5Z" fill="#364750"/><path fill-rule="evenodd" clip-rule="evenodd" d="M581.085 595.021C580.248 602.143 578.466 610.742 574.5 623.301C555.774 682.6 483.845 712.734 420.53 706.623C386.591 703.347 357.386 687.867 336.389 664.251C315.747 641.045 303.032 609.982 301.521 574.915C301.557 574.545 301.595 574.175 301.635 573.805L302.269 566.842L311.417 569.532L363.816 615.763L452.349 637.396L565.744 617.472L581.085 595.021Z" fill="#2C3D46"/><path fill-rule="evenodd" clip-rule="evenodd" d="M307.644 612.036C304.012 599.785 301.883 586.716 301.451 573.054C301.451 573.054 300.859 568.05 300.794 559.05L305.433 557.699L371.757 621.308L478.336 639.558L578.233 584.899L581.847 583.068C581.641 591.761 581.073 600.382 576.793 615.633C556.975 641.074 513.079 682.218 440.1 678.233C365.502 672.415 324.677 638.75 307.644 612.036Z" fill="#1F2E35"/><path d="M474.899 646.681L446 649.238V682.256L474.899 678.372V646.681Z" fill="#2C3D46"/><path fill-rule="evenodd" clip-rule="evenodd" d="M301.509 574.639C301.487 574.112 301.467 573.583 301.451 573.054C301.451 573.054 298.314 546.562 305.694 505.857C363.888 616.424 474.146 602.594 474.146 602.594C508.633 599.566 573.7 584.899 585.137 554.138L582.5 566.501C582.068 571.685 581.986 575.995 581.907 580.123C581.828 584.284 581.752 588.261 581.325 592.762C562.199 616.067 515.051 656.191 437.386 649.532C351.457 642.164 318.141 601.832 307.833 579.033C307.235 577.705 304.626 576.178 301.509 574.639Z" fill="#4A5A62"/><path d="M525.014 613.438L497.758 594.309L520.241 578.103L548.385 584.124L531.69 612.017C530.3 614.339 527.23 614.993 525.014 613.438Z" fill="#364750"/><path d="M542.441 787.001C542.441 838.013 563.708 893.768 632.045 893.804H632.126C700.463 893.768 721.73 838.013 721.73 787.001H542.441Z" fill="#1F2E35"/><path d="M722.251 783.4C722.251 824.931 681.883 858.599 632.086 858.599C582.289 858.599 541.921 824.931 541.921 783.4C541.921 741.868 582.289 708.199 632.086 708.199C681.883 708.199 722.251 741.868 722.251 783.4Z" fill="#364750"/><path d="M705.738 778.809C705.738 812.734 672.763 840.236 632.086 840.236C591.408 840.236 558.433 812.734 558.433 778.809C558.433 744.883 591.408 717.381 632.086 717.381C672.763 717.381 705.738 744.883 705.738 778.809Z" fill="#4A5A62"/><path d="M660.262 796.768C655.436 790.313 641.891 779.399 633.064 771.319L612.106 752.138C611.66 751.73 611.243 751.292 610.839 750.842C608.94 748.72 601.189 741.755 588.1 751.4C570.184 764.601 592.771 785.086 606.383 797.211C613.967 803.934 623.493 810.766 644.026 809.7C644.026 809.7 663.434 807.534 660.262 796.768Z" fill="#1F2E35"/><path fill-rule="evenodd" clip-rule="evenodd" d="M656.318 702.877C656.317 702.878 656.316 702.88 664.099 707.399C671.882 711.918 671.881 711.92 671.88 711.922L671.877 711.927L671.871 711.938L671.851 711.972L671.787 712.08C671.735 712.169 671.661 712.293 671.567 712.45C671.379 712.763 671.11 713.207 670.763 713.764C670.07 714.878 669.065 716.449 667.785 718.342C665.231 722.116 661.54 727.226 656.99 732.548C652.167 738.189 645.934 744.606 638.677 749.806C644.997 750.474 651.866 750.704 658.192 750.209C665.863 749.608 671.539 748.024 674.708 745.911L684.692 760.888C677.661 765.576 668.259 767.475 659.597 768.154C650.667 768.854 641.224 768.344 633.138 767.273C625.274 766.232 617.801 764.543 613.149 762.456C611.965 761.924 610.473 761.155 609.13 760.052C608.141 759.239 605.13 756.548 605.144 751.978C605.16 746.836 608.846 744.147 610.341 743.266C612.053 742.259 613.908 741.734 615.347 741.414C624.88 739.295 634.935 730.644 643.309 720.851C647.309 716.172 650.592 711.632 652.876 708.256C654.014 706.574 654.894 705.196 655.481 704.253C655.774 703.782 655.993 703.421 656.134 703.187C656.204 703.069 656.255 702.984 656.286 702.932L656.318 702.877Z" fill="#1F2E35"/><path d="M614.546 745.452V745.543C614.52 745.944 614.454 746.348 614.377 746.749C612.174 756.977 590.656 764.999 564.433 764.999C538.224 764.999 516.705 756.977 514.502 746.749C514.425 746.348 514.36 745.944 514.334 745.543V745.452C514.347 745.31 514.347 745.167 514.347 745.025C515.254 718.153 537.329 696.636 564.433 696.636C591.538 696.636 613.626 718.153 614.533 745.025C614.533 745.167 614.534 745.31 614.546 745.452Z" fill="#364750"/><path d="M771.034 751.079V751.183C771.004 751.645 770.929 752.106 770.84 752.568C768.309 764.316 743.589 773.534 713.465 773.534C683.356 773.534 658.637 764.316 656.106 752.568C656.016 752.106 655.942 751.645 655.912 751.183V751.079C655.927 750.915 655.926 750.751 655.926 750.588C656.969 719.719 682.328 695 713.465 695C744.602 695 769.976 719.719 771.018 750.588C771.018 750.751 771.018 750.915 771.034 751.079Z" fill="#364750"/><path fill-rule="evenodd" clip-rule="evenodd" d="M572.347 697.257C589.894 700.04 604.412 711.929 610.904 727.924C589.551 721.67 575.028 711.925 572.63 700.796C572.484 700.038 572.362 699.281 572.312 698.523V698.352C572.337 698.083 572.337 697.813 572.337 697.545C572.34 697.449 572.343 697.353 572.347 697.257ZM658.598 735.078C666.001 711.84 687.765 695 713.465 695C729.386 695 743.8 701.463 754.226 711.906C740.05 725.591 706.248 735.218 666.801 735.218C664.037 735.218 661.301 735.171 658.598 735.078Z" fill="#202F36"/><path d="M755.133 696.545V696.706C755.087 697.414 754.973 698.121 754.836 698.83C750.951 716.857 713.024 731 666.802 731C620.603 731 582.677 716.857 578.792 698.83C578.655 698.121 578.541 697.414 578.495 696.706V696.545C578.518 696.294 578.518 696.042 578.518 695.791C580.117 648.428 619.028 610.5 666.802 610.5C714.577 610.5 753.51 648.428 755.109 695.791C755.109 696.042 755.11 696.294 755.133 696.545Z" fill="#364750"/><path d="M679.231 616.314C674.234 610.73 676.499 605.423 678.401 601.46C682.168 593.61 695.762 589.018 704.501 587.991C707.326 587.659 709.53 590.382 708.634 593.082C705.944 601.196 700.942 615.343 693.148 618.554C689.947 619.872 683.407 619.86 679.231 616.314Z" fill="#364750"/><path d="M689.788 604.866C690.85 605.267 695.87 607.91 698.712 602.814C700.182 598.333 695.427 595.834 689.788 604.866Z" fill="#364750"/><path d="M672.199 614.2C650.097 617.415 655.424 591.975 661.405 580.162C662.69 577.624 666.177 577.293 667.932 579.531C675.373 589.02 690.279 608.977 672.199 614.2Z" fill="#364750"/><path d="M556.5 339.5C532.362 405.88 460.1 386.899 460.1 386.899C450.1 384.699 446.333 381.866 446.333 381.866L421.323 430.368C405.765 461.352 349.978 437.289 333.7 432.899L341.7 389.699C352.396 357.753 366.894 322.256 394.721 308.09L444.953 282.973L504.604 280.881C538.092 292.393 562.499 306.3 562.499 312.099C562.499 317.899 556.5 339.5 556.5 339.5Z" fill="#1F2E35"/><path fill-rule="evenodd" clip-rule="evenodd" d="M314.594 468.828C318.492 455.826 323.456 442.021 329.761 427.662L352.9 444.367C346.676 474.566 321.346 470.488 314.594 468.828Z" fill="#1F2E35"/><path d="M352.384 404.662C363.91 405.774 372.351 416.02 371.239 427.546C370.126 439.073 359.881 447.514 348.354 446.401C336.828 445.289 328.386 435.043 329.498 423.517C330.611 411.991 340.857 403.55 352.384 404.662Z" fill="#364750"/><path d="M522.346 423.326C506.721 420.404 491.784 430.183 488.982 445.166L485.232 465.218C482.431 480.201 492.826 494.716 508.451 497.638C524.076 500.559 539.02 491.682 541.822 476.699L545.564 455.745C548.366 440.762 537.971 426.247 522.346 423.326Z" fill="#4A5A62"/><path d="M562.582 456.913L557.184 475.445C553.081 486.508 556.924 498.801 567.986 502.904C579.049 507.007 589.648 503.978 593.153 492.721L608.17 456.913C608.17 456.913 611.6 441.05 588.2 441.613C564.8 442.177 562.582 456.913 562.582 456.913Z" fill="#4A5A62"/><path d="M529.938 448.153C524.686 447.257 519.706 451.322 518.816 457.232L516.981 469.411C516.091 475.321 519.627 480.839 524.879 481.736C530.132 482.632 535.112 478.567 536.002 472.657L537.837 460.479C538.727 454.568 535.191 449.05 529.938 448.153Z" fill="#1F2E35"/><path d="M576.026 458.145C571.767 457.14 567.407 459.971 566.287 464.466L563.98 473.726C562.86 478.22 565.405 482.678 569.664 483.682C573.923 484.687 578.283 481.857 579.403 477.363L581.71 468.102C582.829 463.607 580.285 459.149 576.026 458.145Z" fill="#1F2E35"/><path fill-rule="evenodd" clip-rule="evenodd" d="M562.695 516.38C563.983 533.48 551.165 548.386 534.065 549.674C529.528 550.016 522.153 552.871 513.855 557.88C510.152 560.115 506.993 562.333 504.782 563.977C503.69 564.79 502.863 565.437 502.354 565.844C502.1 566.047 501.928 566.187 501.844 566.256C501.821 566.275 501.805 566.289 501.796 566.296C488.706 577.307 469.166 575.658 458.108 562.592C447.03 549.502 448.662 529.91 461.752 518.832L481.81 542.534C461.752 518.832 461.757 518.828 461.762 518.824L461.795 518.795L461.848 518.751C461.887 518.718 461.932 518.68 461.984 518.637C462.087 518.55 462.217 518.443 462.372 518.316C462.681 518.061 463.091 517.727 463.596 517.324C464.603 516.519 465.996 515.432 467.716 514.152C471.132 511.611 475.972 508.211 481.762 504.715C492.451 498.263 510.038 489.208 529.401 487.749C546.501 486.461 561.407 499.28 562.695 516.38Z" fill="#1F2E35"/><path fill-rule="evenodd" clip-rule="evenodd" d="M593.734 493.646C601.082 498.651 604.434 505.481 605.904 509.555C607.544 514.101 607.967 518.228 608.106 520.706C608.256 523.398 608.143 525.721 608.022 527.262C607.958 528.072 607.884 528.768 607.818 529.314C607.785 529.589 607.753 529.831 607.725 530.037C607.711 530.141 607.697 530.235 607.685 530.321L607.667 530.442L607.658 530.498L607.652 530.537C607.651 530.544 607.65 530.55 579.963 526.288L607.65 530.55C605.268 546.025 590.792 556.639 575.317 554.257C568.616 553.226 562.826 549.926 558.608 545.259C549.271 543.957 540.79 538.028 536.64 528.794C530.223 514.512 536.598 497.732 550.88 491.315C556.579 488.754 575.52 480.539 593.734 493.646ZM575.142 542.612C575.142 542.612 575.115 542.622 575.065 542.638C575.118 542.619 575.143 542.611 575.142 542.612ZM551.608 521.937C551.608 521.937 551.608 521.937 551.608 521.937L551.608 521.941C551.608 521.939 551.608 521.938 551.608 521.937Z" fill="#1F2E35"/><path d="M524.879 552.328L553.495 540.147L564.299 551.018L545.47 551.644L524.879 552.328Z" fill="#364750"/><path fill-rule="evenodd" clip-rule="evenodd" d="M505.86 421.438C505.823 421.439 505.786 421.438 505.749 421.438C498.349 421.386 492.36 415.378 492.346 407.963C492.333 400.507 498.366 394.452 505.821 394.439L505.846 407.938C505.821 394.439 505.827 394.438 505.833 394.438L505.846 394.438L505.873 394.438L505.933 394.439C505.976 394.439 506.025 394.439 506.08 394.44C506.19 394.441 506.323 394.444 506.479 394.448C506.791 394.456 507.192 394.472 507.675 394.501C508.64 394.558 509.938 394.667 511.494 394.876C514.586 395.292 518.816 396.118 523.519 397.784C532.951 401.125 544.821 408.075 552.493 422.184C556.055 428.734 553.632 436.931 547.082 440.493C540.532 444.055 532.335 441.632 528.773 435.082C525.168 428.453 519.645 425.056 514.503 423.234C511.919 422.319 509.566 421.86 507.897 421.635C507.073 421.525 506.447 421.475 506.081 421.454C505.902 421.443 505.789 421.439 505.749 421.438C505.748 421.438 505.747 421.438 505.747 421.438C505.737 421.438 505.733 421.438 505.733 421.438C505.733 421.438 505.738 421.438 505.748 421.438L505.794 421.438L505.828 421.438L505.849 421.438L505.86 421.438Z" fill="#1F2E35"/><path fill-rule="evenodd" clip-rule="evenodd" d="M575.912 466.774C569.617 470.677 561.341 468.778 557.382 462.502C553.404 456.196 555.291 447.86 561.597 443.881L568.738 455.201C561.597 443.881 561.601 443.879 561.605 443.876L561.614 443.87L561.634 443.858L561.677 443.831C561.708 443.812 561.744 443.79 561.783 443.765C561.862 443.717 561.958 443.658 562.071 443.591C562.296 443.457 562.588 443.287 562.943 443.087C563.652 442.689 564.62 442.172 565.82 441.591C568.211 440.432 571.58 438.993 575.718 437.735C583.942 435.234 595.663 433.316 608.862 436.214C616.144 437.813 620.752 445.013 619.153 452.295C617.554 459.577 610.354 464.185 603.072 462.586C595.637 460.953 588.774 461.985 583.573 463.567C580.998 464.35 578.944 465.234 577.591 465.89C576.919 466.215 576.433 466.478 576.158 466.632C576.024 466.707 575.941 466.756 575.912 466.774Z" fill="#1F2E35"/><path d="M553.495 475.1C563.188 475.1 571.045 482.957 571.045 492.65C571.045 502.343 563.188 510.2 553.495 510.2C543.802 510.2 535.945 502.343 535.945 492.65C535.945 482.957 543.802 475.1 553.495 475.1Z" fill="#364750"/><path d="M265.031 588.114C265.022 588.106 264.045 582.253 270.719 567.724C280.95 545.453 303.269 531.967 327.359 529.666C342.683 528.202 357.861 539.114 360.435 554.291C360.704 555.88 360.839 557.452 360.839 559C360.838 572.899 355.7 589.7 332.101 594.614C332.1 594.614 332.099 594.614 332.099 594.614C327.485 594.998 309.483 598.452 309.483 614.523C309.483 619.228 309.715 625.948 309.636 627.832L265.031 588.114Z" fill="#4A5A62"/></svg>