<svg width="1080" height="1080" viewBox="0 0 1080 1080" fill="none" xmlns="http://www.w3.org/2000/svg"><path d="M370.663 778.67C370.663 851.583 446.577 910.69 540.221 910.69C633.865 910.69 709.778 851.583 709.778 778.67C709.778 705.758 633.865 646.65 540.221 646.65C446.577 646.65 370.663 705.758 370.663 778.67Z" fill="#1A2628"/><path d="M313.094 651.833C299.936 667.101 301.647 690.145 316.915 703.303C332.183 716.461 355.226 714.75 368.385 699.482C381.543 684.214 379.831 661.17 364.563 648.012C349.295 634.854 326.252 636.565 313.094 651.833Z" fill="#364750"/><path d="M403.631 740.842C398.166 742.08 392.733 738.653 391.495 733.188L382.437 693.206L390.798 691.312C397.111 689.882 403.388 693.84 404.817 700.153L411.285 728.705C412.523 734.17 409.096 739.604 403.631 740.842Z" fill="#364750"/><path d="M383.841 745.325C378.376 746.563 372.942 743.136 371.704 737.671L362.647 697.69L382.437 693.207L391.495 733.188C392.733 738.653 389.306 744.087 383.841 745.325Z" fill="#364750"/><path d="M364.051 749.808C358.585 751.046 353.152 747.62 351.914 742.154L342.857 702.173L362.647 697.69L371.704 737.671C372.942 743.136 369.516 748.57 364.051 749.808Z" fill="#364750"/><path d="M344.26 754.289C338.795 755.527 333.362 752.101 332.124 746.636L323.066 706.654L342.856 702.171L351.914 742.153C353.152 747.618 349.725 753.051 344.26 754.289Z" fill="#364750"/><path d="M324.469 758.774C319.004 760.012 313.57 756.586 312.332 751.121L305.865 722.568C304.435 716.256 308.393 709.98 314.705 708.55L323.066 706.656L332.123 746.638C333.361 752.103 329.934 757.536 324.469 758.774Z" fill="#364750"/><path d="M365.487 710.199C359.818 710.199 355.222 705.602 355.222 699.933V685.344H375.753V699.933C375.753 705.602 371.157 710.199 365.487 710.199Z" fill="#364750"/><path d="M340.219 689.591C352.697 700.344 365.57 693.405 371.55 689.543C378.047 684.96 401.386 675.754 412.069 667.46C423.227 645.078 438.48 594.888 419.124 598.148C390.134 615.115 339.215 636.92 335.229 641.546C330.245 647.328 314.959 667.823 340.219 689.591Z" fill="#4A5A62"/><path d="M577.876 791.14C576.029 777.647 563.592 768.207 550.099 770.054V770.054C536.606 771.902 527.166 784.338 529.014 797.831L532.871 825.999C534.718 839.492 547.154 848.933 560.647 847.085V847.085C574.14 845.237 583.581 832.801 581.733 819.308L577.876 791.14Z" fill="#1F2E35"/><path d="M466.613 749.678C477.579 742.511 492.279 745.591 499.445 756.557V756.557C506.612 767.524 503.532 782.223 492.566 789.39L467.195 805.971C456.228 813.137 441.529 810.057 434.362 799.091V799.091C427.195 788.125 430.275 773.425 441.242 766.258L466.613 749.678Z" fill="#1F2E35"/><path d="M384.139 425.521C384.139 472.093 421.893 509.848 468.465 509.848C515.036 509.848 552.79 472.093 552.79 425.521C552.79 378.949 515.036 341.194 468.465 341.194C421.893 341.194 384.139 378.949 384.139 425.521Z" fill="#1F2E35"/><path d="M555.601 454.521C555.601 506.36 597.625 548.384 649.463 548.384C701.301 548.384 743.324 506.36 743.324 454.521C743.324 402.682 701.301 360.658 649.463 360.658C597.625 360.658 555.601 402.682 555.601 454.521Z" fill="#1F2E35"/><path d="M690.495 482.765C690.495 401.159 624.34 335.003 542.733 335.003V335.003C461.126 335.003 394.97 401.158 394.97 482.765V672.919C394.97 754.526 461.126 820.681 542.733 820.681V820.681C624.34 820.681 690.495 754.526 690.495 672.919V482.765Z" fill="#364750"/><path d="M401.291 360.471C401.291 407.808 439.665 446.182 487.001 446.182C534.338 446.182 572.712 407.808 572.712 360.471C572.712 313.134 534.338 274.76 487.001 274.76C439.665 274.76 401.291 313.134 401.291 360.471Z" fill="#1F2E35"/><path d="M618.757 492.296C618.757 476.395 620.231 466.105 621.203 446.634C622.676 417.136 637.103 375.286 637.103 375.286L698.619 401.137L713.317 467.282L704.421 524.143L683.146 529.559C679.923 533.943 670.978 542.704 656.129 542.307C625.688 541.491 618.757 508.196 618.757 492.296Z" fill="#1F2E35"/><path fill-rule="evenodd" clip-rule="evenodd" d="M686.043 446.619C688.951 458.187 690.496 470.296 690.496 482.766V580.797C681.66 574.7 680.176 564.264 679.759 553.937V504.812L686.043 446.619Z" fill="#1F2E35"/><path d="M662.451 526.279C662.451 539.631 673.275 550.455 686.627 550.455C699.979 550.455 710.803 539.631 710.803 526.279C710.803 512.927 699.979 502.104 686.627 502.104C673.275 502.104 662.451 512.927 662.451 526.279Z" fill="#364750"/><path d="M507.341 582.176C525.443 582.176 531.516 567.606 532.29 560.321C532.29 560.321 503.758 555.653 492.943 552.431C482.128 549.21 468.273 540.98 468.273 540.98C462.084 567.09 484.712 582.176 507.341 582.176Z" fill="#4A5A62"/><path fill-rule="evenodd" clip-rule="evenodd" d="M500.004 554.223C497.273 553.603 494.836 552.995 492.943 552.431C487.683 550.864 481.703 548.112 476.948 545.699C476.849 546.212 476.773 546.735 476.723 547.268C476.008 554.926 480.903 561.646 487.656 562.276C492.942 562.77 497.799 559.388 500.004 554.223Z" fill="#1F2E35"/><path d="M447.964 557.225C454.927 557.225 456.151 543.171 455.894 536.53C431.911 526.628 415.343 513.708 410.057 508.1C410.057 545.814 437.907 557.225 447.964 557.225Z" fill="#4A5A62"/><path fill-rule="evenodd" clip-rule="evenodd" d="M394.971 603.249V672.914C394.971 754.521 461.127 820.677 542.734 820.677C624.341 820.677 690.496 754.521 690.496 672.914V601.743L690.495 601.742C686.369 635.524 649.338 703.087 534.223 703.087C428.623 703.087 393.939 635.524 395.744 601.742L394.971 603.249Z" fill="#4A5A62"/><path d="M546.793 636.134C546.793 606.736 495.734 579.337 470.205 568.442L452.605 573.083L445.642 559.545C437.712 553.163 420.306 551.035 414.697 551.035C409.088 551.035 386.653 553.743 386.653 587.589C386.653 621.435 426.301 627.237 438.873 627.237C451.444 627.237 487.418 665.532 510.433 665.532C515.075 665.532 546.793 665.532 546.793 636.134Z" fill="#1F2E35"/><path fill-rule="evenodd" clip-rule="evenodd" d="M404.955 489.042C399.486 493.782 398.895 502.058 403.635 507.527C410.404 515.337 428.938 531.929 452.281 538.686C459.233 540.699 466.5 536.695 468.513 529.743C470.525 522.791 466.521 515.523 459.569 513.511C442.644 508.612 428.152 495.798 423.441 490.362C418.701 484.893 410.425 484.302 404.955 489.042Z" fill="#1F2E35"/><path d="M428.596 527.112C427.881 534.77 432.776 541.489 439.529 542.12C446.283 542.751 452.337 537.054 453.053 529.396C453.768 521.738 448.873 515.018 442.12 514.387C435.366 513.756 429.312 519.453 428.596 527.112Z" fill="#1F2E35"/><path fill-rule="evenodd" clip-rule="evenodd" d="M403.386 433.486C423.677 376.109 478.404 335.003 542.731 335.003C550.986 335.003 559.082 335.68 566.968 336.981C565.154 352.711 562.982 374.422 561.686 387.996L500.57 378.978C477.96 373.898 427.369 387.805 403.386 433.486Z" fill="#1F2E35"/><path d="M634.287 429.069C629.437 414.7 601.758 381.295 558.381 382.216L516.405 306.752C538.136 301.959 570.935 298.241 601.507 318.021C630.821 336.988 647.356 363.285 656.181 406.194L634.287 429.069Z" fill="#1F2E35"/><path fill-rule="evenodd" clip-rule="evenodd" d="M396.416 693.666C406.504 765.449 468.169 820.679 542.733 820.679C622.952 820.679 688.241 756.754 690.438 677.066L685.081 682.2L644.853 737.901L538.866 774.262L454.541 747.959L396.416 693.666Z" fill="#2C3D46"/><path d="M462.469 716.626L488.386 696.512L471.946 679.106L438.874 670.596L462.469 716.626Z" fill="#364750"/><path fill-rule="evenodd" clip-rule="evenodd" d="M689.11 693.242C690.024 686.597 690.496 679.812 690.496 672.916V660.725C661.981 724.156 625.054 755.307 531.903 755.307C462.155 755.307 413.647 705.747 395.016 676.579C395.26 686.633 396.509 696.439 398.666 705.899C416.246 736.666 477.067 783.932 531.903 783.932C601.981 783.932 670.283 750.522 689.11 693.242Z" fill="#1F2E35"/><path d="M434.619 570.763C434.619 581.658 443.452 590.49 454.347 590.49C465.242 590.49 474.074 581.658 474.074 570.763C474.074 559.867 465.242 551.035 454.347 551.035C443.452 551.035 434.619 559.867 434.619 570.763Z" fill="#364750"/><path d="M539.648 753.897L539.078 785.573L513.161 788.281L514.094 753.758C514.139 752.089 515.505 750.76 517.174 750.76H536.567C538.29 750.76 539.679 752.173 539.648 753.897Z" fill="#2C3D46"/><path fill-rule="evenodd" clip-rule="evenodd" d="M519.458 483.98C509.728 480.592 499.927 479.059 493.551 478.669C486.331 478.228 480.121 483.723 479.68 490.943C479.239 498.163 484.734 504.373 491.954 504.814C496.253 505.077 503.656 506.214 510.844 508.717C518.351 511.332 523.561 514.72 525.982 518.16C530.146 524.074 538.316 525.493 544.231 521.329C550.145 517.165 551.564 508.995 547.401 503.081C540.291 492.983 528.869 487.258 519.458 483.98Z" fill="#1F2E35"/><path d="M655.996 752.113C654.815 772.234 670.17 789.502 690.292 790.683C710.413 791.863 727.682 776.508 728.862 756.386C730.042 736.265 714.687 718.996 694.565 717.816C674.444 716.636 657.176 731.991 655.996 752.113Z" fill="#364750"/><path d="M720.603 733.911C720.96 727.815 697.283 673.017 685.86 645.92C674.231 630.106 652.199 677.035 644.63 700.872C646.528 714.264 656.879 737.119 658.352 744.932C659.958 751.868 664.372 765.81 680.815 766.774C714.104 768.727 720.156 741.531 720.603 733.911Z" fill="#4A5A62"/><path fill-rule="evenodd" clip-rule="evenodd" d="M414.988 408.454C402.261 430.285 394.971 455.673 394.971 482.764V487.906C405.069 469.885 414.141 441.036 419.784 407.877L414.988 408.454Z" fill="#1F2E35"/></svg>
