<svg width="1080" height="1080" viewBox="0 0 1080 1080" fill="none" xmlns="http://www.w3.org/2000/svg"><path d="M507.687 683.248C598.983 683.248 672.993 744.043 672.993 819.038C672.993 894.033 598.983 954.828 507.687 954.828C416.391 954.828 342.381 894.033 342.381 819.038C342.381 744.043 416.391 683.248 507.687 683.248Z" fill="#1A2628"/><path d="M693.482 568.263C685.895 587.136 664.446 596.286 645.573 588.699C626.7 581.112 617.549 559.663 625.136 540.79C632.723 521.917 654.173 512.766 673.046 520.353C691.919 527.94 701.069 549.39 693.482 568.263Z" fill="#364750"/><path fill-rule="evenodd" clip-rule="evenodd" d="M593.389 500.591C592.896 501.121 592.391 501.659 591.873 502.206C578.584 516.243 579.189 538.396 593.226 551.685C607.262 564.975 629.415 564.37 642.705 550.333C656.376 535.893 667.403 521.582 673.565 507.437C679.8 493.122 683.707 471.708 669.522 452.811C657.426 436.698 638.823 432.193 627.293 430.615C614.269 428.832 599.764 429.42 585.672 431.017C566.465 433.195 552.66 450.531 554.838 469.738C557.009 488.888 574.25 502.668 593.389 500.591Z" fill="#2C3D46"/><path fill-rule="evenodd" clip-rule="evenodd" d="M502.225 789.34C506.88 774.015 523.077 765.364 538.402 770.019L574.441 780.965C589.766 785.62 598.416 801.816 593.761 817.141C589.107 832.466 572.91 841.116 557.585 836.462L521.546 825.516C521.427 825.48 521.308 825.443 521.189 825.405L528.338 842.821C534.419 857.637 527.338 874.579 512.522 880.66C497.705 886.742 480.763 879.661 474.682 864.844L462.067 834.11C455.985 819.293 463.066 802.352 477.883 796.27C485.621 793.094 493.938 793.508 500.985 796.739C501.074 794.284 501.478 791.801 502.225 789.34Z" fill="#2C3D46"/><path fill-rule="evenodd" clip-rule="evenodd" d="M534.5 611.418C551.621 611.418 565.5 625.297 565.5 642.418V775.021C565.5 792.142 551.621 806.021 534.5 806.021C529.063 806.021 523.953 804.621 519.511 802.163V806.025C519.511 823.146 505.632 837.025 488.511 837.025C471.39 837.025 457.511 823.146 457.511 806.025V673.422C457.511 656.301 471.39 642.422 488.511 642.422C493.948 642.422 499.057 643.822 503.5 646.28V642.418C503.5 625.297 517.379 611.418 534.5 611.418Z" fill="#24343B"/><path d="M343.366 632.312C338.649 629.503 333.672 626.664 328.313 624.591C324.444 623.094 322.956 622.683 319.756 627.365C306.661 646.523 303.208 662.253 302.517 685.078C302.348 690.656 304.204 691.416 308.497 692.524C314.443 694.058 321.93 694.349 327.774 694.126C331.993 693.965 334.562 693.06 334.632 688.261C334.92 668.624 337.561 657.852 346.15 640.175C348.249 635.855 346.772 634.34 343.366 632.312ZM343.568 641.076C343.153 635.079 341.292 627.857 339.14 622.144C337.587 618.019 335.815 616.456 331.039 617.413C311.498 621.328 293.453 628.222 275.61 637.068C271.249 639.23 270.816 641.443 271.904 645.823C273.411 651.89 275.842 659.116 278.769 664.57C280.882 668.508 282.566 670.087 287.15 667.764C305.906 658.261 317.651 652.204 338.631 648.655C343.759 647.788 343.867 645.406 343.568 641.076Z" fill="#4A5A62"/><path d="M506.824 445.994C598.825 445.994 667.406 512.075 667.406 604.076C667.406 696.077 592.825 770.658 500.824 770.658C408.823 770.658 334.242 696.077 334.242 604.076C340.5 520.001 414.823 445.994 506.824 445.994ZM334.45 612.464C375.846 533.621 413.139 454.654 500.825 454.279C590.01 453.898 662.828 524.367 667.199 612.469C666.738 621.754 664.45 637.733 662.53 646.558C629.055 701.363 568.678 737.944 499.758 737.944C430.838 737.944 370.462 701.363 336.987 646.558C335.758 635.371 334.911 621.751 334.45 612.464Z" fill="#24343B"/><path d="M334.45 612.464C375.846 533.621 413.139 454.654 500.825 454.279C590.01 453.898 662.828 524.367 667.199 612.469C666.738 621.754 664.45 637.733 662.53 646.558C629.055 701.363 568.678 737.944 499.758 737.944C430.838 737.944 370.462 701.363 336.987 646.558C335.758 635.371 334.911 621.751 334.45 612.464Z" fill="#4A5A62"/><path d="M334.757 617.268C334.416 612.915 334.242 608.515 334.242 604.075C334.242 580.774 339.026 558.591 347.665 538.454C356.333 518.249 372.882 504.104 388.375 488.956C418.408 459.592 455.503 437.492 500.824 437.492C592.825 437.492 667.406 512.074 667.406 604.075C667.406 608.515 667.233 612.915 666.892 617.269C634.185 675.172 572.07 714.264 500.824 714.264C429.579 714.264 367.463 675.172 334.757 617.268Z" fill="#2C3D46"/><path fill-rule="evenodd" clip-rule="evenodd" d="M618.925 529.845C622.386 530.958 624.289 534.666 623.177 538.127L617.256 556.542C616.223 559.755 612.926 561.666 609.625 560.966L590.701 556.956C587.144 556.203 584.872 552.709 585.626 549.152C586.379 545.596 589.873 543.323 593.43 544.077L606.541 546.855L610.644 534.097C611.756 530.636 615.464 528.732 618.925 529.845ZM580.045 553.313C583.123 555.249 584.049 559.312 582.113 562.39L570.325 581.134C568.815 583.536 565.935 584.7 563.18 584.021L541.68 578.728C538.15 577.859 535.992 574.293 536.861 570.763C537.731 567.233 541.297 565.076 544.827 565.945L561.711 570.102L570.969 555.381C572.904 552.304 576.968 551.378 580.045 553.313ZM527.94 573.132C530.773 575.41 531.223 579.554 528.945 582.387L515.069 599.642C513.291 601.853 510.296 602.676 507.638 601.684L486.894 593.942C483.488 592.67 481.757 588.879 483.028 585.473C484.299 582.067 488.091 580.336 491.497 581.608L507.788 587.688L518.686 574.137C520.964 571.304 525.107 570.854 527.94 573.132Z" fill="#24343B"/><path d="M668.258 611.58C668.199 500.165 592.678 445 500.678 445C500.678 445 380.825 450.484 347.494 538.855C347.494 538.855 431.491 549.227 470.844 651.666L472.407 764.475C472.518 772.489 478.792 779.057 486.791 779.551C558.283 783.966 633.483 756.072 665.512 704.038C666.949 701.704 667.725 699.021 667.77 696.28C668.054 679.015 668.26 615.521 668.258 611.58ZM484.496 611.482C463.521 567.52 431.549 543.118 409.291 530.62C394.404 522.261 383.862 519.227 383.862 519.227L422.176 507.278L542.514 469.746C623.696 493.055 636.196 551.523 636.196 551.523C600.09 592.513 536.603 608.224 484.496 611.482Z" fill="#4A5A62"/><path fill-rule="evenodd" clip-rule="evenodd" d="M606.596 476.164C650.403 501.999 667.642 549.88 665.486 594.085L641.514 592.916C643.358 555.121 628.598 517.002 594.404 496.837L606.596 476.164Z" fill="#4A5A62"/><path fill-rule="evenodd" clip-rule="evenodd" d="M426.619 604.804C424.372 585.844 407.303 572.142 388.248 574.121C369.022 576.117 355.054 593.322 357.051 612.549L391.863 608.934C357.051 612.549 357.053 612.574 357.056 612.599L357.061 612.652L357.074 612.766C357.082 612.845 357.092 612.931 357.103 613.023C357.124 613.208 357.15 613.42 357.18 613.657C357.24 614.132 357.32 614.711 357.423 615.385C357.629 616.732 357.931 618.47 358.366 620.536C359.232 624.652 360.646 630.158 362.932 636.504C367.473 649.108 375.716 665.735 390.575 681.143C422.236 713.973 475.408 732.973 558.054 715.483C576.965 711.481 589.052 692.906 585.05 673.995C581.047 655.084 562.473 642.998 543.561 647C478.029 660.868 451.728 643.715 440.961 632.551C434.607 625.962 430.898 618.632 428.789 612.779C427.751 609.896 427.166 607.549 426.865 606.118C426.719 605.423 426.644 604.969 426.619 604.804Z" fill="#2C3D46"/><path d="M596.827 700.49C586.907 721.864 561.538 731.147 540.165 721.226C518.792 711.306 509.508 685.938 519.428 664.564C529.349 643.191 554.718 633.907 576.091 643.828C597.464 653.748 606.747 679.117 596.827 700.49Z" fill="#364750"/><path d="M631.175 770.783L621.677 754.264L622.574 739.631C620.353 726.226 616.887 719.415 612.708 717.133L572.946 693.733C568.034 690.842 566.509 684.448 569.589 679.651C572.466 675.172 578.338 673.715 582.975 676.331L622.733 698.763C622.733 698.763 622.868 698.86 623.171 698.996C623.191 698.997 623.201 699.008 623.22 699.019C625.296 699.919 634.4 702.178 657.388 687.731C669.182 680.319 665.367 698.083 656.814 717.402L631.175 770.783Z" fill="#3F515B"/><path d="M837.753 753.498C841.499 710.711 796.437 671.814 737.103 666.62C677.77 661.425 626.635 691.902 622.889 734.69C619.144 777.477 664.206 816.375 723.539 821.569C782.873 826.764 834.008 796.286 837.753 753.498Z" fill="#1F2E35"/><path d="M826.414 775.821C830.18 732.796 789.667 694.102 735.924 689.398C682.182 684.694 635.561 715.759 631.795 758.784C628.029 801.809 668.543 840.502 722.285 845.206C776.028 849.91 822.648 818.846 826.414 775.821Z" fill="#2C3D46"/><path d="M808.548 774.727C805.036 808.121 767.085 830.474 723.594 825.901C680.103 821.328 647.331 794.542 650.843 761.148L652.037 749.016L809.252 763.779L808.548 774.727Z" fill="#4A5A62"/><path d="M809.064 766.74C812.113 737.751 779.399 710.55 735.996 705.986C692.594 701.422 654.938 721.223 651.889 750.212C648.841 779.201 681.555 806.401 724.957 810.966C768.36 815.53 806.016 795.729 809.064 766.74Z" fill="#364750"/><path d="M837.065 770.114C832.629 820.79 780.866 857.657 721.443 852.455C662.03 847.254 617.452 801.954 621.888 751.278L623.681 751.437C631.328 786.547 672.834 815.926 724.247 820.427C775.67 824.929 820.118 803.325 833.75 770.077L837.865 756.721L837.065 770.114Z" fill="#364750"/><path d="M606.022 290.674C606.022 373.642 538.763 432.507 455.794 432.507C372.826 432.507 305.567 373.642 305.567 290.674C305.567 207.706 372.826 140.447 455.794 140.447C538.763 140.447 606.022 207.706 606.022 290.674Z" fill="#2C3D46"/><path fill-rule="evenodd" clip-rule="evenodd" d="M538.392 165.172C543.262 168.384 547.934 171.871 552.386 175.613C558.534 198.188 558.128 220.406 553.381 243.758L553.381 243.758C546.315 278.509 533.268 300.232 530.969 303.688L522.643 298.149C524.35 295.582 536.815 275.047 543.581 241.766C548.99 215.162 548.399 190.625 538.392 165.172Z" fill="#1F2E35"/><path fill-rule="evenodd" clip-rule="evenodd" d="M630.323 411.049C646.582 460.933 619.324 514.553 569.439 530.812L482.959 558.999C433.075 575.258 379.456 547.999 363.196 498.115C346.937 448.231 374.196 394.611 424.08 378.352L510.56 350.165C560.444 333.906 614.064 361.165 630.323 411.049Z" fill="#1F2E35"/><path d="M489.667 424.958C447.725 424.958 422.591 411.409 409.234 403.549C405.053 401.088 400.366 395.218 400.366 390.367C400.366 389.947 400.591 387.979 400.961 387.782C455.869 358.436 524.712 294.986 524.712 294.986C524.712 294.986 532.568 299.802 574.493 322.053C579.166 324.534 582.487 328.997 582.76 334.28C583.201 342.811 583.017 354.651 582.708 364.622C582.321 377.132 578.193 389.646 568.952 398.087C555.464 410.408 531.554 424.958 489.667 424.958Z" fill="#364750"/><path d="M536.482 365.256C536.482 348.64 550.052 326.182 564.825 326.182C573.758 326.182 576.219 333.972 576.333 337.867V362.334C576.333 379.315 566.027 401.591 550.739 401.591C538.509 401.591 536.367 386.862 536.482 379.498V365.256Z" fill="#4A5A62"/><path d="M463.218 372.285C463.218 355.541 476.792 341.967 493.536 341.967V341.967C510.281 341.967 523.855 355.541 523.855 372.285V388.26C523.855 405.005 510.281 418.579 493.536 418.579V418.579C476.792 418.579 463.218 405.005 463.218 388.26V372.285Z" fill="#4A5A62"/><path fill-rule="evenodd" clip-rule="evenodd" d="M568.005 390.363C563.614 396.984 557.692 401.591 550.739 401.591C548.575 401.591 546.726 401.13 545.15 400.33C544.793 399.05 544.599 397.598 544.599 395.992V385.648C544.599 378.701 548.325 371.013 553.645 366.984C561.218 361.249 568.569 365.28 568.569 375.168V385.511C568.569 387.107 568.372 388.742 568.005 390.363Z" fill="#1F2E35"/><path fill-rule="evenodd" clip-rule="evenodd" d="M523.774 390.499C522.955 401.718 516.031 411.243 506.309 415.765C499.459 414.566 493.972 408.599 493.972 401.074V390.913C493.972 384.089 498.606 378.137 505.221 376.464C514.504 374.117 523.518 380.999 523.774 390.499Z" fill="#1F2E35"/><path d="M546.773 361.428C551.43 359.388 555.206 362.668 555.206 368.753C555.206 374.838 551.43 381.424 546.773 383.464C542.116 385.504 538.339 382.224 538.339 376.139C538.339 370.054 542.116 363.468 546.773 361.428Z" fill="#4A5A62"/><path d="M495.733 369.746C501.818 369.746 506.751 374.679 506.751 380.764C506.751 386.849 501.818 391.782 495.733 391.782C489.648 391.782 484.715 386.849 484.715 380.764C484.715 374.679 489.648 369.746 495.733 369.746Z" fill="#4A5A62"/><path fill-rule="evenodd" clip-rule="evenodd" d="M494.501 444.838C496.1 443.751 498.276 444.167 499.363 445.766C507.933 458.376 524.781 463.119 536.097 458.162C537.867 457.386 539.931 458.193 540.707 459.963C541.483 461.734 540.676 463.798 538.906 464.574C524.175 471.026 503.831 464.795 493.573 449.7C492.487 448.101 492.902 445.924 494.501 444.838Z" fill="#1F2E35"/><path d="M538.143 394.904C547.953 394.904 555.905 402.857 555.905 412.667C555.905 422.477 547.953 430.429 538.143 430.429C528.333 430.429 520.38 422.477 520.38 412.667C520.38 402.857 528.333 394.904 538.143 394.904Z" fill="#364750"/></svg>