<svg width="1080" height="1080" viewBox="0 0 1080 1080" fill="none" xmlns="http://www.w3.org/2000/svg"><path d="M537.498 677.141C623.904 677.141 693.95 734.68 693.95 805.658C693.95 876.636 623.904 934.176 537.498 934.176C451.091 934.176 381.045 876.636 381.045 805.658C381.045 734.68 451.091 677.141 537.498 677.141Z" fill="#1A2628"/><path fill-rule="evenodd" clip-rule="evenodd" d="M544.556 768.889C558.206 762.229 574.67 767.896 581.33 781.545L598.883 817.522C605.543 831.172 599.876 847.636 586.226 854.296C572.576 860.955 556.112 855.289 549.453 841.639L535.794 813.644L522.097 841.718C515.438 855.368 498.974 861.034 485.324 854.375C471.674 847.715 466.007 831.251 472.667 817.601L490.22 781.624C496.88 767.975 513.344 762.308 526.993 768.968C530.442 770.65 533.381 772.959 535.741 775.69C538.112 772.924 541.074 770.587 544.556 768.889Z" fill="#2C3D46"/><path fill-rule="evenodd" clip-rule="evenodd" d="M535.317 631.781C529.647 625.553 521.475 621.645 512.389 621.645C495.268 621.645 481.389 635.524 481.389 652.644V786.572C481.389 803.693 495.268 817.572 512.389 817.572C521.475 817.572 529.647 813.663 535.317 807.436C540.987 813.663 549.16 817.572 558.246 817.572C575.367 817.572 589.246 803.693 589.246 786.572V652.644C589.246 635.524 575.367 621.645 558.246 621.645C549.16 621.645 540.987 625.553 535.317 631.781Z" fill="#24343B"/><path fill-rule="evenodd" clip-rule="evenodd" d="M446.053 471.762C455.26 492.751 445.709 517.23 424.72 526.437C408.108 533.724 398.293 539.372 392.361 545.189C388.19 549.279 385.387 553.805 385.284 563.487C385.04 586.406 366.263 604.787 343.344 604.543C320.426 604.299 302.045 585.523 302.289 562.604C302.633 530.186 314.921 504.88 334.249 485.927C351.816 468.701 373.909 458.092 391.378 450.429C412.367 441.222 436.846 450.773 446.053 471.762Z" fill="#2C3D46"/><path fill-rule="evenodd" clip-rule="evenodd" d="M633.947 471.762C643.154 450.773 667.633 441.222 688.622 450.429C706.091 458.092 728.184 468.701 745.751 485.927C765.079 504.88 777.367 530.186 777.711 562.604C777.955 585.523 759.574 604.299 736.656 604.543C713.737 604.787 694.96 586.406 694.716 563.487C694.613 553.805 691.81 549.279 687.639 545.189C681.707 539.372 671.892 533.724 655.28 526.437C634.291 517.23 624.74 492.751 633.947 471.762Z" fill="#2C3D46"/><path fill-rule="evenodd" clip-rule="evenodd" d="M344.227 521.541C367.146 521.785 385.527 540.562 385.284 563.48C385.071 583.431 394.405 591.738 409.348 605.041C413.291 608.55 417.623 612.406 422.274 616.916C438.729 632.871 439.133 659.144 423.178 675.599C407.223 692.053 380.95 692.458 364.496 676.503C363.839 675.866 362.612 674.875 360.943 673.529C346.901 662.193 301.618 625.636 302.289 562.598C302.532 539.679 321.309 521.298 344.227 521.541Z" fill="#2C3D46"/><path fill-rule="evenodd" clip-rule="evenodd" d="M735.773 521.541C758.692 521.298 777.468 539.679 777.712 562.598C778.382 625.636 733.099 662.193 719.057 673.529C717.389 674.875 716.162 675.866 715.505 676.503C699.05 692.458 672.777 692.053 656.822 675.599C640.867 659.144 641.272 632.871 657.726 616.916C662.377 612.406 666.71 608.55 670.652 605.041C685.596 591.738 694.929 583.431 694.717 563.48C694.473 540.562 712.855 521.785 735.773 521.541Z" fill="#2C3D46"/><path d="M369.986 590.416C369.979 589.786 369.975 589.151 369.975 588.517C369.975 496.782 444.341 422.414 536.079 422.414C627.816 422.414 702.183 496.782 702.183 588.517C702.183 589.151 702.179 589.782 702.175 590.412C681.267 660.131 614.818 711.09 536.079 711.09C457.341 711.09 390.895 660.131 369.986 590.416Z" fill="#2C3D46"/><path fill-rule="evenodd" clip-rule="evenodd" d="M385.323 559.597C387.238 559.856 388.58 561.62 388.321 563.535C388.047 565.55 388.766 568.95 390.944 573.674C393.056 578.255 396.306 583.59 400.402 589.255C408.591 600.58 419.923 612.898 431.562 622.702C433.04 623.947 433.229 626.155 431.984 627.633C430.739 629.112 428.531 629.301 427.052 628.056C414.975 617.883 403.253 605.144 394.73 593.357C390.47 587.465 386.95 581.729 384.587 576.604C382.29 571.622 380.83 566.68 381.384 562.595C381.644 560.679 383.407 559.337 385.323 559.597ZM694.191 559.597C696.106 559.337 697.87 560.679 698.129 562.595C698.651 566.445 697.767 571.118 696.067 576.007C694.338 580.976 691.644 586.51 688.182 592.218C681.26 603.632 671.109 616.005 658.945 626.251C657.467 627.496 655.259 627.307 654.013 625.828C652.768 624.35 652.957 622.142 654.436 620.897C665.987 611.167 675.649 599.385 682.197 588.588C685.47 583.191 687.925 578.106 689.455 573.707C691.014 569.228 691.498 565.785 691.193 563.535C690.933 561.62 692.275 559.856 694.191 559.597Z" fill="#1F2E35"/><path d="M686.381 298.613C686.381 382.992 617.974 416.232 533.595 416.232C449.215 416.232 380.818 382.992 380.818 298.613C380.818 214.233 449.215 145.826 533.595 145.826C567.362 145.826 598.568 156.783 623.852 175.336C626.876 177.548 629.826 179.877 632.671 182.3C665.542 210.325 686.381 252.035 686.381 298.613Z" fill="#2C3D46"/><path d="M624.131 175.547C626.99 177.648 629.782 179.854 632.48 182.144C618.821 222.65 599.296 255.498 583.174 277.486C559.904 309.223 540.503 326.496 537.829 328.876L537.827 328.878C537.74 328.955 537.671 329.017 537.621 329.062L530.939 321.622C530.983 321.582 531.045 321.527 531.126 321.456C533.549 319.301 552.402 302.542 575.11 271.573C591.191 249.64 610.823 216.469 624.131 175.547Z" fill="#1F2E35"/><path d="M484.719 377.082H585.968C641.425 377.082 686.381 422.039 686.381 477.496C686.381 532.952 641.425 577.909 585.968 577.909H484.719C429.262 577.909 384.306 532.952 384.306 477.496C384.306 422.039 429.262 377.082 484.719 377.082Z" fill="#1F2E35"/><path d="M533.431 455.83C471.888 455.83 442.845 428.514 436.016 414.856C436.016 414.856 433.504 402.187 436.017 389.702C486.852 364.003 534.895 317.859 534.895 317.859C534.895 317.859 585.171 364.739 633.773 389.171C636.286 401.656 633.773 414.856 633.773 414.856C625.969 428.514 594.974 455.83 533.431 455.83Z" fill="#364750"/><path d="M577.969 531.962C551.257 539.391 519.879 539.394 493.139 531.962C456.007 519.889 462.466 465.067 505.994 478.713C516.289 482.062 526.54 482.955 535.558 482.695C544.577 482.955 554.829 482.062 565.124 478.713C608.653 465.069 615.108 519.892 577.969 531.962Z" fill="#4A5A62"/><path d="M504.036 478.143L507.263 535.136C505.979 534.912 504.702 534.673 503.432 534.419L500.195 477.253C501.44 477.488 502.72 477.783 504.036 478.143Z" fill="#364750"/><path d="M538.195 537.52C536.934 537.539 535.673 537.545 534.411 537.536V482.727C534.796 482.72 535.179 482.712 535.559 482.701C536.427 482.726 537.306 482.74 538.195 482.742V537.52Z" fill="#364750"/><path d="M569.151 534.117C567.881 534.385 566.603 534.637 565.318 534.874L568.551 477.765C569.866 477.447 571.144 477.194 572.384 477.004L569.151 534.117Z" fill="#364750"/><path d="M607.81 397.328C607.64 383.245 595.093 375.994 580.108 376.175C549.777 376.541 542.673 396.37 542.912 406.238C542.954 409.668 543.07 414.846 543.203 425.823C543.369 439.544 558.579 453.223 585.355 447.344C602.677 443.541 608.045 427.267 608.115 418.178C608.047 412.521 607.946 408.594 607.81 397.328Z" fill="#4A5A62"/><path d="M561.91 385.573C563.704 385.053 565.75 384.768 568.078 384.793C575.01 384.869 580.458 389.124 580.351 397.1C580.301 400.835 580.325 404.005 580.344 406.634C580.358 408.497 580.369 410.089 580.351 411.418C580.199 416.565 576.138 425.457 568.078 427.405C555.62 430.416 550.126 422.75 550.23 414.977C550.283 410.989 550.257 407.32 550.239 404.689C550.229 403.218 550.221 402.071 550.23 401.375C550.233 400.447 550.34 399.367 550.581 398.211C550.907 389.034 561.91 385.573 561.91 385.573Z" fill="#1F2E35"/><path d="M561.62 385.672C559.906 386.287 551.19 389.797 550.605 397.778C553.143 398.886 556.563 397.881 559.098 395.018C561.564 392.235 562.473 388.509 561.62 385.672Z" fill="#4A5A62"/><path d="M461.811 398.332C461.981 384.249 474.529 376.998 489.514 377.179C519.845 377.545 526.948 397.374 526.709 407.242C526.668 410.672 526.552 415.85 526.419 426.827C526.253 440.548 511.042 454.227 484.266 448.348C466.944 444.545 461.577 428.271 461.506 419.182C461.574 413.525 461.675 409.598 461.811 398.332Z" fill="#4A5A62"/><path d="M501.017 384.57C515.13 384.426 518.952 395.642 518.971 401.27C518.98 401.972 518.972 403.126 518.962 404.607C518.943 407.256 518.917 410.951 518.971 414.967C519.076 422.794 513.544 430.776 500.999 427.744C492.883 425.782 488.792 416.566 488.639 411.383C488.621 410.045 488.633 408.442 488.647 406.566C488.665 404.138 488.685 401.253 488.65 397.891C488.65 397.891 486.997 385.762 501.017 384.57Z" fill="#1F2E35"/><path d="M489.237 384.417C486.045 388.02 485.462 393.201 487.932 395.99C490.402 398.78 494.994 398.12 498.185 394.517C501.377 390.914 501.96 385.733 499.49 382.944C497.02 380.154 492.428 380.814 489.237 384.417Z" fill="#4A5A62"/><path d="M611.389 436.072C595.613 446.023 571.743 454.919 538.522 455.75C542.529 448.203 554.276 432.614 570.511 429.455C591.072 425.455 610.678 428.135 611.122 430.42C611.19 430.768 611.334 432.814 611.389 436.072Z" fill="#364750"/><path d="M459.753 437.893C475.499 447.486 499.183 455.654 532.46 455.81C528.464 448.272 516.71 432.658 500.462 429.497C479.9 425.497 460.294 428.177 459.85 430.462C459.775 430.848 459.682 433.584 459.753 437.893Z" fill="#364750"/><path d="M534.958 437.08C544.733 437.08 552.67 445.017 552.67 454.792C552.67 464.566 544.733 472.503 534.958 472.503C525.184 472.503 517.247 464.566 517.247 454.792C517.247 445.017 525.184 437.08 534.958 437.08Z" fill="#364750"/><path d="M427.237 700.777L430.97 716.19C430.97 716.19 380.565 719.236 367.943 678.094C367.943 678.094 367.943 678.094 367.943 678.083C365.857 673.036 364.709 667.516 364.709 661.721C364.709 638.069 383.883 618.895 407.525 618.895C431.177 618.895 450.353 638.069 450.353 661.721C450.353 679.094 442.113 694.055 427.237 700.777Z" fill="#364750"/><path d="M647.736 700.777L644.329 715.526C644.329 715.526 695.462 719.236 708.084 678.094C708.084 678.094 708.084 678.094 708.084 678.083C710.169 673.036 711.317 667.516 711.317 661.721C711.317 638.069 692.143 618.895 668.501 618.895C644.849 618.895 625.674 638.069 625.674 661.721C625.674 679.094 632.86 694.055 647.736 700.777Z" fill="#364750"/><path d="M420.759 649.275C420.296 653.972 420.055 658.755 420.055 663.599C420.055 735.638 472.496 794.027 537.198 794.027C601.888 794.027 654.33 735.638 654.33 663.599C654.33 658.755 654.088 653.972 653.625 649.275H420.759Z" fill="#4A5A62"/><path d="M653.626 646.739C647.226 592.698 597.538 550.645 537.198 550.645C476.847 550.645 427.161 592.698 420.761 646.739C420.298 650.627 420.056 654.586 420.056 658.595C420.056 718.219 472.496 766.546 537.198 766.546C601.889 766.546 654.331 718.219 654.331 658.595C654.331 654.586 654.089 650.627 653.626 646.739ZM635.507 683.325C617.713 736.739 554.433 766.705 501.697 746.573C430.261 719.381 410.258 636.034 474.432 588.095C508.217 560.879 564.223 560.37 598.521 587.041C627.448 608.054 648.727 647.533 635.507 683.325Z" fill="#364750"/><path d="M635.507 683.316C617.713 736.73 554.433 766.697 501.697 746.565C430.261 719.373 410.258 636.025 474.432 588.086C508.217 560.871 564.223 560.362 598.521 587.032C627.448 608.045 648.727 647.524 635.507 683.316Z" fill="#2C3D46"/><path d="M652.063 679.855L630.147 696.178C627.677 701.055 624.808 705.681 621.594 710.03L649.561 689.2C650.541 686.14 651.377 683.023 652.063 679.855Z" fill="#364750"/><path d="M501.697 746.565C554.433 766.697 617.712 736.73 635.506 683.316C648.726 647.524 627.447 608.045 598.52 587.032C595.06 584.341 591.378 581.927 587.521 579.789C581.883 578.616 576.042 578 570.057 578C541.25 578 515.772 592.277 500.289 614.153C489.461 605.726 476.305 600.236 461.973 598.851C413.372 647.629 435.355 721.312 501.697 746.565Z" fill="#4A5A62"/><path d="M452.552 709.924C453.007 709.326 453.477 708.718 453.961 708.104C461.052 699.106 471.534 688.159 484.475 681.969C495.223 676.829 506.494 674.599 515.809 673.439C520.388 672.869 524.57 672.55 527.983 672.289L528.179 672.274C531.806 671.998 534.173 671.803 535.605 671.516C537.083 671.22 539.198 670.598 542.221 669.709L542.637 669.586C545.748 668.671 549.519 667.575 553.705 666.582C562.052 664.601 572.319 662.961 583.045 663.948C604.451 665.916 622.207 675.172 635.099 684.513C633.764 688.35 632.192 692.063 630.407 695.642C618.422 686.533 601.829 677.458 581.97 675.632C573.029 674.81 564.157 676.162 556.414 677.999C552.555 678.915 549.042 679.934 545.947 680.844L545.234 681.054C542.527 681.852 539.923 682.619 537.907 683.022C535.658 683.472 532.523 683.711 529.311 683.956L528.948 683.984C525.504 684.247 521.558 684.548 517.259 685.083C508.537 686.169 498.671 688.188 489.538 692.555C478.981 697.604 469.838 706.916 463.178 715.367C462.127 716.7 461.148 717.999 460.245 719.241C457.455 716.259 454.888 713.146 452.552 709.924Z" fill="#364750"/><path d="M469.496 727.956C475.962 720.039 485.081 710.953 496.225 705.623C506.219 700.844 515.714 699.053 523.477 698.263C527.058 697.898 530.312 697.743 532.994 697.616L533.605 697.587C536.574 697.445 538.427 697.326 539.631 697.085C540.957 696.82 542.971 696.242 545.878 695.407L546.55 695.215C549.681 694.317 553.499 693.237 557.701 692.252C566.041 690.297 576.273 688.618 586.289 689.539C603.121 691.087 614.947 698.889 623.087 707.933C620.8 711.202 618.321 714.322 615.672 717.284C609.043 709.309 599.368 702.525 585.215 701.224C577.049 700.473 568.25 701.831 560.379 703.676C556.476 704.591 552.892 705.603 549.784 706.494C549.493 706.578 549.203 706.661 548.915 706.744L548.912 706.745C546.264 707.506 543.764 708.225 541.934 708.591C539.684 709.041 536.854 709.179 534.167 709.308L533.589 709.335C530.88 709.464 527.919 709.605 524.665 709.936C517.737 710.642 509.673 712.199 501.288 716.209C492.513 720.406 484.825 727.816 478.932 734.956C475.61 732.762 472.463 730.423 469.496 727.956Z" fill="#364750"/><path d="M591.692 737.146C582.414 728.45 569.694 723.086 555.661 723.086C535.895 723.086 518.734 733.729 510.126 749.337C513.562 750.292 517.029 751.047 520.512 751.61C527.736 740.622 540.608 733.144 555.661 733.144C565.894 733.144 575.118 736.599 582.246 742.263C585.476 740.713 588.63 739.005 591.692 737.146Z" fill="#364750"/><path d="M587.521 579.789C581.883 578.616 576.042 578 570.057 578C539.522 578 512.727 594.041 497.612 618.171C500.251 620.378 502.734 622.765 505.042 625.313C518.156 603.014 542.37 588.058 570.057 588.058C588.059 588.058 604.593 594.381 617.562 604.933C611.894 598.115 605.425 592.048 598.521 587.032C595.06 584.341 591.379 581.927 587.521 579.789Z" fill="#364750"/><path d="M634.784 634.615C638.893 646.024 640.569 658.119 638.851 670.106C635.298 640.534 610.235 617.675 579.923 617.675C552.859 617.675 529.979 635.899 522.858 660.854C521.824 655.533 520.222 650.416 518.116 645.567C529.621 623.036 552.979 607.617 579.923 607.617C602.233 607.617 622.085 618.188 634.784 634.615Z" fill="#364750"/><path d="M623.226 680.495C619.676 664.126 603.947 651.007 583.881 651.007C567.601 651.007 554.175 659.644 547.793 671.645C543.389 672.986 539.153 674.636 535.118 676.567C540.419 656.132 560.24 640.949 583.881 640.949C611.581 640.949 634.037 661.793 634.037 687.505C634.037 687.744 634.035 687.983 634.031 688.221C630.686 685.395 627.072 682.809 623.226 680.495Z" fill="#364750"/><path d="M435.903 665.349C453.467 668.928 464.941 682.241 464.941 695.893C464.941 699.263 464.242 702.613 462.924 705.8C466.601 701.941 470.643 698.434 474.994 695.332C474.686 675.379 457.934 658.821 435.803 655.126C435.619 658.54 435.654 661.953 435.903 665.349Z" fill="#364750"/><path d="M440.883 631.02C467.669 631.416 490.481 655.148 490.481 685.932C490.481 686.161 490.479 686.389 490.477 686.616C493.711 685.226 497.051 684.034 500.481 683.056C499.157 650.344 475.374 623.909 445.325 621.188C443.611 624.42 442.132 627.703 440.883 631.02Z" fill="#364750"/><path d="M453.447 608.576C456.001 605.244 458.842 601.995 461.976 598.85C499.991 602.524 529.727 635.083 529.727 674.705C529.727 676.51 529.665 678.3 529.544 680.073C527.538 679.929 525.512 679.856 523.468 679.856C522.128 679.856 520.794 679.888 519.469 679.95C519.602 678.22 519.669 676.471 519.669 674.705C519.669 638.015 490.466 608.562 454.797 608.562C454.346 608.562 453.896 608.567 453.447 608.576Z" fill="#364750"/><path fill-rule="evenodd" clip-rule="evenodd" d="M409.166 644.348C409.166 644.348 409.17 644.347 409.178 644.348C409.17 644.348 409.166 644.348 409.166 644.348ZM418.938 620.785C425.5 622.601 433.63 626.488 441.34 634.209C445.591 638.467 446.206 645.149 442.803 650.111C439.4 655.073 432.945 656.907 427.442 654.475L402.564 643.481C396.304 640.714 393.433 633.428 396.123 627.135C397.21 624.591 398.855 623.052 399.76 622.318C400.738 621.525 401.638 621.039 402.184 620.772C403.268 620.242 404.201 619.979 404.648 619.863C405.628 619.608 406.486 619.502 407.002 619.45C408.14 619.336 409.324 619.326 410.462 619.378C412.796 619.484 415.695 619.888 418.938 620.785ZM671.908 623.371C672.814 624.105 674.459 625.644 675.546 628.189C678.259 634.537 675.312 641.882 668.964 644.595C666.68 645.571 664.268 645.814 661.988 645.43C661.437 645.482 660.542 645.616 659.398 645.932C656.59 646.709 652.383 648.557 648.019 652.927C643.141 657.812 635.227 657.818 630.342 652.94C625.456 648.062 625.451 640.147 630.328 635.262C638.038 627.541 646.168 623.654 652.73 621.838C655.974 620.941 658.872 620.537 661.207 620.431C662.345 620.379 663.529 620.389 664.666 620.503C665.182 620.555 666.041 620.661 667.02 620.916C667.468 621.032 668.401 621.295 669.484 621.825C670.031 622.092 670.931 622.578 671.908 623.371Z" fill="#364750"/><path d="M711.238 596.974L702.746 589.741C701.149 588.381 698.704 588.584 697.351 590.19L588.455 719.443C587.164 720.976 587.349 723.222 588.873 724.52C590.397 725.818 592.711 725.7 594.103 724.253L711.491 602.234C712.949 600.718 712.835 598.334 711.238 596.974Z" fill="#24343B"/><path d="M728.092 616.566L720.828 608.187C719.462 606.611 717.017 606.464 715.433 607.861L587.926 720.323C586.414 721.656 586.249 723.908 587.553 725.412C588.857 726.916 591.159 727.129 592.757 725.895L727.528 621.812C729.202 620.519 729.458 618.142 728.092 616.566Z" fill="#24343B"/></svg>