<svg width="1080" height="1080" viewBox="0 0 1080 1080" fill="none" xmlns="http://www.w3.org/2000/svg"><path d="M670.95 795.031C737.302 795.031 791.175 839.285 791.175 893.789C791.175 948.293 737.302 992.547 670.95 992.547C604.599 992.547 550.726 948.293 550.726 893.789C550.726 839.285 604.599 795.031 670.95 795.031Z" fill="#1A2628"/><path d="M343.638 648.605C434.87 648.605 508.944 709.453 508.944 784.395C508.944 859.338 434.87 920.185 343.638 920.185C252.406 920.185 178.332 859.338 178.332 784.395C178.332 709.453 252.406 648.605 343.638 648.605Z" fill="#1A2628"/><path fill-rule="evenodd" clip-rule="evenodd" d="M323.491 763.035C329.894 748.054 347.229 741.099 362.21 747.502L394.898 761.472C409.879 767.875 416.833 785.211 410.43 800.192C404.027 815.174 386.692 822.128 371.71 815.725L339.023 801.755C324.042 795.352 317.088 778.017 323.491 763.035Z" fill="#2C3D46"/><path fill-rule="evenodd" clip-rule="evenodd" d="M241.924 644.406C249.161 659.003 243.195 676.703 228.598 683.94L196.75 699.731C182.154 706.968 164.454 701.002 157.216 686.405C149.979 671.808 155.945 654.108 170.542 646.871L202.39 631.081C216.986 623.843 234.686 629.81 241.924 644.406Z" fill="#2C3D46"/><path fill-rule="evenodd" clip-rule="evenodd" d="M193.614 654.768C199.543 635.501 219.968 624.688 239.235 630.616C243.619 631.965 247.912 634.213 249.494 635.042C249.562 635.077 249.625 635.11 249.683 635.14C252.185 636.448 255.069 638.043 257.98 639.682C261.466 641.645 265.62 644.029 269.812 646.435C272.459 647.954 275.122 649.482 277.641 650.918C282.075 653.447 286.238 655.791 289.885 657.779C295.307 655.336 301.726 652.385 308.251 649.369C311.09 648.057 313.961 646.727 316.761 645.43C321.572 643.202 326.169 641.072 330.022 639.303C333.078 637.899 335.844 636.639 338.01 635.677C338.056 635.657 338.123 635.627 338.209 635.588C339.262 635.114 343.19 633.344 346.473 632.406C365.856 626.868 386.058 638.092 391.596 657.475C396.889 676 386.871 695.273 369.052 701.778C368.764 701.9 368.302 702.1 367.633 702.397C365.911 703.161 363.493 704.261 360.494 705.639C356.73 707.368 352.332 709.405 347.614 711.59C344.793 712.897 341.858 714.256 338.875 715.635C331.03 719.261 322.936 722.98 316.441 725.873C313.218 727.31 310.165 728.642 307.635 729.69C307.581 729.712 307.508 729.743 307.416 729.782C306.133 730.322 301.263 732.372 296.659 733.293C287.663 735.092 280.155 733.012 278.687 732.606C278.629 732.59 278.581 732.576 278.542 732.566C275.823 731.831 273.459 730.921 271.871 730.271C268.584 728.924 265.13 727.23 262.098 725.673C255.871 722.475 248.396 718.276 241.485 714.335C238.515 712.642 235.687 711.019 233.002 709.477C229.085 707.229 225.471 705.154 222.162 703.291C219.439 701.758 217.351 700.611 215.883 699.844C215.617 699.705 215.394 699.591 215.213 699.499C197.558 692.62 187.953 673.166 193.614 654.768ZM214.569 699.185C214.567 699.183 214.629 699.211 214.765 699.277C214.64 699.221 214.572 699.188 214.569 699.185ZM299.549 662.721C299.541 662.718 299.533 662.714 299.524 662.711C299.611 662.745 299.623 662.751 299.549 662.721Z" fill="#24343B"/><path fill-rule="evenodd" clip-rule="evenodd" d="M394.926 612.061C413.118 616.715 424.093 635.235 419.439 653.427C416.473 665.023 408.348 692.457 401.251 716.09C397.644 728.106 394.21 739.44 391.68 747.768C390.414 751.933 389.374 755.349 388.649 757.725C388.287 758.913 388.003 759.841 387.81 760.473L387.513 761.444C387.513 761.444 387.513 761.446 355 751.5C322.487 741.555 322.487 741.555 322.487 741.555L322.777 740.608C322.967 739.984 323.248 739.065 323.607 737.887C324.326 735.531 325.359 732.138 326.617 727.998C329.134 719.717 332.544 708.458 336.124 696.535C343.403 672.294 351.027 646.478 353.561 636.574C358.215 618.382 376.735 607.407 394.926 612.061ZM345.055 784.013C327.098 778.521 316.995 759.511 322.487 741.555L355 751.5L387.513 761.446C382.02 779.402 363.011 789.506 345.055 784.013Z" fill="#24343B"/><path d="M406.912 412.373C497.142 430.337 541 472 539.762 566.275C521.798 656.505 434.09 715.089 343.86 697.125C253.63 679.161 195.046 591.453 213.01 501.223C258 420 316.682 394.409 406.912 412.373Z" fill="#24343B"/><path d="M211.571 509.49C233.068 423.942 318.162 369.421 405.635 386.836C493.108 404.251 550.831 487.206 537.915 574.466C535.651 583.482 532.681 592.155 529.075 600.435C485.548 647.65 419.188 671.737 351.594 658.28C284.001 644.823 231.925 597.156 209.8 536.871C209.64 527.84 210.219 518.69 211.571 509.49Z" fill="#1F2E35"/><path d="M210.937 514.265C211.454 509.929 212.146 505.581 213.013 501.226C230.977 410.996 318.683 352.411 408.912 370.375C499.141 388.339 557.724 476.048 539.76 566.278C538.893 570.633 537.868 574.914 536.684 579.118C493.298 629.52 424.74 655.73 354.871 641.82C284.992 627.908 231.711 577.441 210.937 514.265Z" fill="#2C3D46"/><path d="M634.535 517.869C624.272 523.699 604.148 507.642 589.585 482.005C575.023 456.368 571.536 430.861 581.798 425.031C592.061 419.202 612.185 435.259 626.748 460.895C641.31 486.532 644.797 512.04 634.535 517.869Z" fill="#2C3D46"/><path d="M479.782 531.449C482.84 533.416 483.724 537.489 481.757 540.547L471.294 556.814C469.468 559.653 465.791 560.651 462.78 559.124L445.532 550.375C442.289 548.731 440.994 544.769 442.639 541.527C444.283 538.285 448.245 536.99 451.487 538.634L463.436 544.695L470.685 533.425C472.652 530.367 476.724 529.483 479.782 531.449Z" fill="#24343B"/><path d="M431.667 542.476C434.367 544.911 434.581 549.073 432.147 551.773L419.191 566.135C416.93 568.642 413.14 569.032 410.416 567.039L394.808 555.617C391.875 553.47 391.237 549.351 393.384 546.418C395.531 543.484 399.649 542.846 402.583 544.993L413.396 552.905L422.371 542.955C424.806 540.255 428.968 540.041 431.667 542.476Z" fill="#24343B"/><path d="M553.863 647.171C541.42 658.404 519.092 648.929 509.135 637.797L453.321 575.435C446.867 568.219 446.862 557.491 453.312 550.329L570.503 420.263C573.026 417.464 577.538 417.56 579.959 420.456L645.791 498.192C647.476 500.211 646.686 502.818 645.254 505.015L553.863 647.171Z" fill="#2C3D46"/><path fill-rule="evenodd" clip-rule="evenodd" d="M704.882 595.887C703.115 603.698 695.35 608.597 687.539 606.829C647.883 597.855 614.841 607.658 591.387 619.932C579.638 626.081 570.402 632.804 564.141 637.955C561.018 640.525 558.66 642.684 557.123 644.156C556.355 644.892 555.794 645.454 555.448 645.808C555.276 645.985 555.156 646.109 555.092 646.177C555.063 646.207 555.046 646.226 555.039 646.234C549.608 652.095 540.454 652.459 534.575 647.039C528.687 641.612 528.314 632.438 533.742 626.55C533.742 626.55 533.738 626.554 533.751 626.54L533.762 626.529L533.787 626.501L533.855 626.429C533.907 626.373 533.974 626.302 534.055 626.216C534.218 626.044 534.438 625.815 534.716 625.531C535.271 624.963 536.055 624.179 537.06 623.216C539.07 621.291 541.973 618.64 545.714 615.562C553.18 609.419 564.074 601.495 577.94 594.238C605.715 579.703 645.842 567.66 693.94 578.544C701.751 580.312 706.65 588.076 704.882 595.887Z" fill="#2C3D46"/><path fill-rule="evenodd" clip-rule="evenodd" d="M619.82 394.515L561.107 468.004L543.138 453.648L601.991 379.982L602.058 379.901C615.823 363.304 640.592 362.888 654.554 379.385L677.785 403.06L678.109 403.455C687.062 414.366 691.252 430.822 682.462 445.331L662.79 433.413C665.168 429.49 664.875 423.818 660.615 418.402L637.456 394.798L637.132 394.403C632.622 388.908 624.677 388.734 619.82 394.515Z" fill="#2C3D46"/><path d="M711.423 557.049C700.599 554.195 682.405 570.009 649.646 574.502L639.263 604.688C672.123 605.336 682.789 630.521 695.352 633.51C706.528 636.169 711.423 557.049 711.423 557.049Z" fill="#2C3D46"/><path d="M712.517 556.981C698.085 554.491 683.744 567.229 678.505 588.732C673.028 611.208 683.401 631.181 695.722 633.456C709.728 636.042 722.811 628.101 729.092 601.165C735.029 575.702 727.308 559.533 712.517 556.981Z" fill="#1F2E35"/><path d="M626.38 521.594C616.118 527.423 595.76 512.339 581.197 486.702C566.634 461.065 563.089 442.228 573.351 436.399C583.614 430.569 603.738 446.626 618.301 472.263C632.864 497.9 636.643 515.765 626.38 521.594Z" fill="#1F2E35"/><path d="M573.589 471.699C575.635 476.372 578.18 481.392 581.197 486.704C595.76 512.341 616.118 527.425 626.38 521.596C631.514 518.68 633.134 512.752 631.648 504.347C629.633 503.56 627.629 502.787 625.642 502.019C604.169 493.727 584.627 486.181 573.589 471.699Z" fill="#4A5A62"/><path d="M796.303 870.616C801.962 899.746 782.935 927.949 753.806 933.608C748.851 934.571 743.922 934.824 739.128 934.424C735.297 955.594 718.877 973.264 696.485 977.615C670.616 982.64 645.488 968.203 636.21 944.516C629.185 950.883 620.388 955.464 610.413 957.403C581.276 963.063 553.072 944.037 547.411 914.9C542.649 890.389 555.366 866.532 576.877 856.212C571.232 849.473 567.172 841.249 565.377 832.012C559.716 802.875 578.743 774.671 607.88 769.011C624.75 765.733 641.308 770.732 653.358 781.182C660.626 766.978 674.1 756.146 690.97 752.868C720.107 747.207 748.311 766.234 753.971 795.371C756.162 806.645 754.657 817.793 750.294 827.537C772.701 830.362 791.76 847.232 796.303 870.616Z" fill="#3F515B"/><path d="M731.121 573.808C722.013 571.193 712.465 568.484 706.786 569.829C691.515 578.109 687.954 599.365 691.124 610.299C693.655 619.028 697.429 621.976 705.436 624.553C728.499 640 704 716 671.309 813.374C671.309 813.374 653.519 867.518 731.345 886.506C788.68 900.495 797.401 851.519 797.401 851.519C797.401 851.519 846.09 603.476 731.121 573.808Z" fill="#4A5A62"/><path d="M576.942 841.299C565.264 839.204 558.271 828.659 560.366 816.981C562.461 805.303 573.626 797.535 585.304 799.63C596.982 801.725 603.975 812.27 601.88 823.948C599.785 835.626 588.62 843.394 576.942 841.299ZM589.009 858.414C582.541 868.359 569.234 871.177 559.289 864.709C549.343 858.24 546.895 844.615 552.994 834.988C559.093 825.362 572.769 822.225 582.714 828.693C592.66 835.162 595.478 848.468 589.009 858.414ZM612.497 843.595C600.736 845.151 589.94 836.878 588.384 825.117C586.827 813.355 595.1 802.559 606.861 801.002C618.623 799.446 628.998 806.994 630.976 819.48C632.953 831.966 624.259 842.038 612.497 843.595Z" fill="#364750"/><path d="M605.015 842.71L604.621 832.663C604.324 825.113 595.966 820.715 589.576 824.746L581.072 830.112C574.683 834.143 575.053 843.581 581.739 847.099L590.638 851.78C597.324 855.298 605.311 850.26 605.015 842.71Z" fill="#4A5A62"/><path d="M609.082 853.994C615.497 863.974 612.608 877.265 602.627 883.68C592.647 890.095 579.356 887.205 572.941 877.225C566.526 867.245 569.416 853.954 579.396 847.539C589.376 841.124 602.667 844.014 609.082 853.994ZM599.865 859.809C593.62 849.722 596.734 836.481 606.821 830.236C616.908 823.991 630.238 826.99 636.394 837.192C642.55 847.394 639.524 860.519 629.437 866.765C619.351 873.01 606.111 869.896 599.865 859.809Z" fill="#364750"/><path d="M658.156 891.823C653.553 880.888 658.588 869.28 669.523 864.677C680.458 860.073 693.053 865.206 697.656 876.141C702.26 887.076 697.224 898.684 686.29 903.287C675.355 907.89 662.759 902.757 658.156 891.823ZM650.374 911.264C638.51 911.256 628.9 901.631 628.908 889.767C628.916 877.903 639.01 868.429 650.405 868.301C661.801 868.173 671.88 877.934 671.872 889.798C671.863 901.662 662.238 911.273 650.374 911.264ZM675.595 922.892C667.885 913.876 668.943 900.316 677.959 892.605C686.975 884.894 700.536 885.952 708.247 894.968C715.958 903.984 715.278 916.797 705.883 925.256C696.489 933.715 683.306 931.908 675.595 922.892Z" fill="#364750"/><path d="M672.264 916.135L680.475 910.332C686.646 905.972 685.782 896.567 678.921 893.404L669.789 889.194C662.928 886.031 655.215 891.481 655.906 899.005L656.826 909.018C657.518 916.541 666.094 920.496 672.264 916.135Z" fill="#4A5A62"/><path d="M665.015 925.695C660.139 936.511 647.418 941.326 636.602 936.45C625.786 931.574 620.971 918.853 625.847 908.037C630.723 897.221 643.444 892.406 654.26 897.282C665.076 902.158 669.891 914.879 665.015 925.695ZM655.118 921.132C660.176 910.401 672.977 905.801 683.708 910.859C694.439 915.917 699.184 928.73 693.981 939.449C688.778 950.169 676.122 954.78 665.39 949.722C654.659 944.664 650.06 931.863 655.118 921.132Z" fill="#364750"/><path d="M719.306 830.768C709.049 824.805 706.084 812.504 712.047 802.247C718.01 791.991 731.158 788.51 741.415 794.472C751.672 800.435 754.637 812.736 748.674 822.993C742.711 833.25 729.563 836.73 719.306 830.768ZM724.762 849.512C715.283 856.645 701.815 854.742 694.682 845.262C687.548 835.782 689.908 822.141 698.931 815.181C707.955 808.221 721.879 809.951 729.012 819.431C736.146 828.911 734.242 842.378 724.762 849.512ZM750.78 844.172C739.196 841.611 731.88 830.145 734.44 818.561C737.001 806.976 748.467 799.66 760.051 802.221C771.636 804.781 778.804 815.422 776.392 827.832C773.98 840.241 762.364 846.732 750.78 844.172Z" fill="#364750"/><path d="M745.35 839.931L748.416 830.355C750.719 823.159 744.369 816.168 736.986 817.771L727.16 819.904C719.777 821.507 716.897 830.502 721.977 836.094L728.738 843.537C733.817 849.13 743.046 847.127 745.35 839.931Z" fill="#4A5A62"/><path d="M745.67 851.399C748.285 862.971 741.024 874.472 729.451 877.087C717.879 879.702 706.378 872.44 703.763 860.868C701.148 849.296 708.409 837.795 719.982 835.18C731.554 832.565 743.055 839.826 745.67 851.399ZM734.543 855.021C732.124 843.407 739.579 832.03 751.194 829.611C762.808 827.192 774.309 834.57 776.604 846.262C778.899 857.954 771.567 869.253 759.953 871.672C748.338 874.091 736.962 866.636 734.543 855.021Z" fill="#364750"/><path fill-rule="evenodd" clip-rule="evenodd" d="M517.678 374.784C517.693 374.779 517.722 374.769 517.765 374.754C517.889 374.712 518.128 374.631 518.476 374.517C519.172 374.289 520.297 373.928 521.798 373.477C524.81 372.571 529.286 371.314 534.806 370.02C546.009 367.396 560.73 364.812 575.873 364.43C608.102 363.619 628.685 372.211 637.335 393.251C644.686 411.129 665.138 419.663 683.015 412.313C700.893 404.962 709.427 384.511 702.077 366.633C676.294 303.924 615.075 293.421 574.111 294.453C552.657 294.993 532.934 298.564 518.841 301.865C511.714 303.535 505.829 305.183 501.642 306.442C499.544 307.072 497.861 307.609 496.648 308.007C496.041 308.206 495.551 308.371 495.184 308.496C495.001 308.559 494.848 308.611 494.727 308.653L494.57 308.708L494.483 308.738C494.452 308.749 494.461 308.746 494.461 308.746C476.231 315.176 466.666 335.166 473.096 353.395C479.518 371.602 499.467 381.167 517.678 374.784Z" fill="#2C3D46"/><path d="M709.895 422.907C696.245 442.114 669.609 446.618 650.402 432.969C631.194 419.32 626.69 392.685 640.339 373.478C653.989 354.27 680.624 349.765 699.831 363.414C719.038 377.063 723.544 403.699 709.895 422.907Z" fill="#364750"/><path fill-rule="evenodd" clip-rule="evenodd" d="M660.365 400.915C665.275 396.886 672.521 397.6 676.55 402.51C681.572 408.63 684.519 416.701 685.467 424.428C686.408 432.102 685.566 441.083 681.016 448.592L680.949 448.702L625.737 535.374C622.324 540.73 615.216 542.306 609.859 538.894C604.502 535.482 602.926 528.373 606.338 523.016L661.394 436.592C662.429 434.821 663.166 431.532 662.638 427.228C662.109 422.911 660.491 419.197 658.77 417.1C654.741 412.19 655.455 404.944 660.365 400.915Z" fill="#2C3D46"/><path fill-rule="evenodd" clip-rule="evenodd" d="M249.518 451.425C271.597 443.458 295.954 454.899 303.92 476.977C309.056 491.21 318.305 506.667 338.089 520.696C358.544 535.2 392.573 549.789 449.755 557.332C473.025 560.402 489.401 581.755 486.331 605.026C483.261 628.296 461.908 644.672 438.638 641.602C372.211 632.839 323.833 614.788 288.922 590.033C253.342 564.803 234.269 534.381 223.966 505.827C215.999 483.748 227.44 459.392 249.518 451.425Z" fill="#2C3D46"/><path fill-rule="evenodd" clip-rule="evenodd" d="M515.898 567.682C519.249 573.718 517.072 581.327 511.036 584.677C499.578 591.037 486.702 590.913 478.009 589.845C473.464 589.287 469.544 588.405 466.749 587.662C465.342 587.289 464.197 586.944 463.372 586.681C462.959 586.549 462.625 586.438 462.377 586.353C462.253 586.311 462.15 586.275 462.07 586.247L461.966 586.21L461.926 586.196L461.903 586.187C461.892 586.183 461.896 586.185 461.896 586.185C455.406 583.832 452.052 576.663 454.406 570.173C456.754 563.695 463.899 560.342 470.379 562.668C470.389 562.672 470.415 562.681 470.455 562.695C470.548 562.726 470.718 562.783 470.958 562.86C471.439 563.013 472.195 563.242 473.171 563.501C475.14 564.025 477.907 564.645 481.056 565.032C487.748 565.854 494.278 565.386 498.903 562.819C504.938 559.469 512.548 561.646 515.898 567.682Z" fill="#364750"/><path d="M491.235 617.406C481.769 596.546 498.58 589.27 498.58 589.27L501.463 578.16C500.449 565.976 485.493 565.267 471.238 561.845C448.329 556.345 425.288 570.456 419.788 593.365C414.288 616.274 428.112 640.727 451.318 644.817C455.778 645.6 486.919 654.973 505.257 633.462L491.235 617.406Z" fill="#364750"/><path d="M554.211 267.417C554.002 350.385 486.594 409.08 403.624 408.871C320.654 408.662 253.542 349.628 253.751 266.66C253.96 183.692 321.39 116.604 404.36 116.813C487.33 117.022 554.42 184.449 554.211 267.417ZM490.161 143.97C494.463 146.994 497.911 149.63 501.872 153.078C506.184 172.241 510.13 195.878 505.815 217.875C499.858 248.253 482.834 278.139 465.142 294.656L458.958 288.039C474.675 273.366 491.156 245.617 496.93 216.133C502.147 189.521 497.684 162.693 490.161 143.97ZM500 322.502C489.5 322.002 378 350.502 359 359.002C340 367.502 283.747 404.707 312 476.002C344 556.752 417.322 540.123 436.5 534.002C460 526.502 489.5 517.002 516.5 508.002C552.076 496.143 598.5 448.502 577.5 385.502C558.047 327.143 510.5 323.002 500 322.502Z" fill="#2C3D46"/><path d="M490.161 143.969C494.463 146.993 497.911 149.629 501.872 153.077C506.184 172.24 510.13 195.877 505.815 217.874C499.858 248.252 482.834 278.138 465.142 294.655L458.958 288.038C474.675 273.365 491.156 245.616 496.93 216.132C502.147 189.52 497.684 162.692 490.161 143.969ZM500 322.501C489.5 322.001 378 350.501 359 359.001C340 367.501 283.747 404.706 312 476.001C344 556.751 417.322 540.122 436.5 534.001C460 526.501 489.5 517.001 516.5 508.001C552.076 496.142 598.5 448.501 577.5 385.501C558.047 327.142 510.5 323.001 500 322.501Z" fill="#1F2E35"/><path d="M500 322.499C489.5 321.999 378 350.499 359 358.999C340 367.499 283.747 404.704 312 475.999C344 556.749 417.322 540.12 436.5 533.999C460 526.499 489.5 516.999 516.5 507.999C552.076 496.14 598.5 448.499 577.5 385.499C558.047 327.14 510.5 322.999 500 322.499Z" fill="#1F2E35"/><path d="M437.513 401.406C395.573 401.3 370.477 387.688 357.137 379.794C352.963 377.322 348.288 371.441 348.3 366.59C348.301 366.17 348.536 364.202 348.906 364.006C403.89 334.798 472.89 271.523 472.89 271.523C472.89 271.523 480.728 276.358 522.602 298.715C527.266 301.208 530.574 305.679 530.841 310.963C531.26 319.495 531.039 331.335 530.704 341.305C530.292 353.814 526.131 366.317 516.87 374.735C503.349 387.022 479.403 401.512 437.513 401.406Z" fill="#364750"/><path d="M510.192 303.527C499.982 304.592 487.372 311.222 484.5 336.5C481.647 361.606 485.5 373.443 492 376.5C504 382.145 519.928 372.838 522 353.5C523.146 342.8 523.636 329.092 523.845 318.982C524.019 310.583 518.547 302.655 510.192 303.527Z" fill="#4A5A62"/><path d="M441 317C424.431 317 411 330.432 411 347V366C411 382.569 424.431 396 441 396C457.569 396 471 382.569 471 366V347C471 330.432 457.569 317 441 317Z" fill="#4A5A62"/><path d="M471 354.394C467.595 349.629 461.482 347.02 455.234 348.582C453.034 349.133 451.051 350.158 449.383 351.532C450.259 353.117 450.756 354.941 450.751 356.881C450.74 361.468 447.928 365.393 443.937 367.041L443.922 373.163C443.899 382.569 452.452 389.562 461.553 387.854C467.369 382.383 471 374.616 471 366V354.394Z" fill="#1F2E35"/><path d="M505.43 335.267C508.025 333.298 510.998 332.109 514.058 332.117C519.438 332.131 520.906 336.824 520.97 339.169L520.933 353.898C520.907 364.12 514.682 374.089 505.472 374.066C498.112 374.047 496.845 365.177 496.926 360.744L496.94 355.265C500.285 352.965 502.486 348.532 502.498 343.518C502.502 341.886 502.169 340.393 501.594 339.123C502.627 337.781 503.888 336.471 505.43 335.267Z" fill="#1F2E35"/><path fill-rule="evenodd" clip-rule="evenodd" d="M472.647 380.772C479.677 373.743 491.073 373.743 498.103 380.772L498.228 380.897C505.257 387.927 505.257 399.323 498.228 406.353C491.198 413.382 479.802 413.382 472.772 406.353L472.647 406.228C465.618 399.198 465.618 387.802 472.647 380.772Z" fill="#364750"/><path fill-rule="evenodd" clip-rule="evenodd" d="M449.942 427.463C451.665 426.587 453.772 427.273 454.649 428.996C456.085 431.82 459.504 435.36 464.194 436.852C468.657 438.271 474.691 437.967 481.883 432.474C483.419 431.301 485.615 431.595 486.788 433.131C487.962 434.667 487.668 436.864 486.132 438.037C477.322 444.766 468.938 445.706 462.072 443.523C455.434 441.412 450.614 436.504 448.409 432.169C447.533 430.446 448.219 428.339 449.942 427.463Z" fill="#1F2E35"/></svg>