<svg width="1080" height="1080" viewBox="0 0 1080 1080" fill="none" xmlns="http://www.w3.org/2000/svg"><path d="M828.401 878.224C828.401 949.194 758.351 1006.73 671.951 1006.73C589.761 1006.73 522.371 954.674 515.991 888.524C503.441 891.194 490.271 892.614 476.711 892.614C390.301 892.614 320.251 835.074 320.251 764.094C320.251 693.124 390.301 635.584 476.711 635.584C558.891 635.584 626.281 687.644 632.661 753.794C645.221 751.124 658.381 749.704 671.951 749.704C758.351 749.704 828.401 807.244 828.401 878.224Z" fill="#1A2628"/><path fill-rule="evenodd" clip-rule="evenodd" d="M488.096 729.766C501.48 723.192 517.66 728.712 524.234 742.096L538.234 770.596C544.809 783.98 539.289 800.16 525.905 806.734C512.521 813.309 496.341 807.789 489.766 794.405L475.766 765.905C469.192 752.521 474.712 736.341 488.096 729.766Z" fill="#2C3D46"/><path fill-rule="evenodd" clip-rule="evenodd" d="M462.644 726.408C476.226 732.562 482.247 748.562 476.093 762.144L461.593 794.144C455.438 807.727 439.438 813.748 425.856 807.594C412.274 801.439 406.252 785.439 412.407 771.857L426.907 739.857C433.061 726.275 449.061 720.253 462.644 726.408Z" fill="#2C3D46"/><path fill-rule="evenodd" clip-rule="evenodd" d="M499.075 615.752C515.918 615.931 529.428 629.731 529.248 646.574L528.248 740.574C528.069 757.418 514.269 770.927 497.426 770.748C488.533 770.654 480.569 766.762 475.059 760.631C469.583 766.758 461.663 770.667 452.799 770.808C435.956 771.077 422.085 757.641 421.816 740.799L420.316 646.799C420.047 629.956 433.483 616.085 450.325 615.816C460.208 615.658 469.068 620.219 474.757 627.418C480.409 620.226 489.221 615.647 499.075 615.752Z" fill="#24343B"/><path d="M309.998 564.256C331.582 564.256 349.106 581.78 349.106 603.363C349.106 624.947 331.582 642.471 309.998 642.471C288.415 642.471 270.891 624.947 270.891 603.363C270.891 581.78 288.415 564.256 309.998 564.256Z" fill="#364750"/><path fill-rule="evenodd" clip-rule="evenodd" d="M367.305 516.918C367.305 516.918 367.305 516.918 367.305 516.918L367.312 516.915ZM367.324 516.912L367.321 516.912L367.312 516.915C367.316 516.914 367.32 516.913 367.324 516.912ZM367.369 516.896C388.294 509.939 399.646 487.35 392.729 466.4C385.804 445.423 363.184 434.031 342.206 440.957L354.746 478.941C342.206 440.957 342.196 440.96 342.185 440.964L342.109 440.989L341.975 441.034C341.931 441.049 341.882 441.065 341.829 441.083C341.761 441.106 341.686 441.131 341.604 441.159C341.31 441.259 340.926 441.391 340.457 441.555C339.521 441.883 338.245 442.34 336.688 442.921C333.585 444.081 329.304 445.759 324.33 447.925C314.653 452.14 301.154 458.716 288.444 467.572C276.687 475.763 260.47 489.38 252.27 509.378C247.835 520.195 245.803 532.81 248.227 546.296C250.614 559.572 256.854 571.141 264.968 580.895C279.095 597.878 304.316 600.194 321.299 586.066C336.347 573.549 339.88 552.323 330.663 535.834C331.633 535.052 332.794 534.175 334.177 533.211C340.864 528.552 349.083 524.403 356.274 521.271C359.735 519.764 362.676 518.613 364.686 517.862C365.685 517.489 366.439 517.22 366.893 517.061C367.12 516.981 367.271 516.93 367.339 516.907C367.352 516.902 367.362 516.899 367.369 516.896Z" fill="#2C3D46"/><path d="M310.345 548.422C305.164 584.719 357.226 705.517 488.221 704.367C619.216 703.217 634.377 607.58 634.377 607.58C634.377 607.58 606.383 665.328 480.37 664.434C354.357 663.54 316.012 567.373 310.345 548.422ZM311.543 570.913C322.45 617.319 357.226 705.517 488.221 704.367C619.216 703.217 634.377 607.58 634.377 607.58C634.377 607.58 607.032 682.323 481.019 681.429C355.007 680.535 317.74 593.359 311.543 570.913Z" fill="#1F2E35"/><path d="M311.542 570.912C322.45 617.318 357.226 705.516 488.221 704.366C619.216 703.216 634.377 607.579 634.377 607.579C634.377 607.579 607.032 682.322 481.019 681.429C355.007 680.535 317.74 593.359 311.542 570.912Z" fill="#24343B"/><path d="M308.959 544.183C308.952 543.555 308.948 542.922 308.948 542.29C308.948 450.836 384.138 376.695 475.594 376.695C567.05 376.695 642.44 450.827 642.44 542.281C642.44 542.913 643.536 660.843 475.594 664.488C397.116 666.191 329.804 613.684 308.959 544.183Z" fill="#2C3D46"/><path d="M574.29 619.32C567.463 698.578 567.043 714.627 524.084 716.318C521.248 716.423 429.932 716.423 427.086 716.318C384.127 714.627 384.758 698.578 377.931 619.32C377.931 576.782 377.678 558.338 378.193 550.954C378.414 547.582 403.758 546.521 403.758 546.521C420.931 552.623 435.736 558.588 474.74 557.529C513.744 556.47 529.506 554.879 546.679 548.777C546.679 548.777 572.899 547.608 572.988 550.922C573.482 558.285 574.29 576.719 574.29 619.32Z" fill="#4A5A62"/><path d="M405.897 520.591L405.364 549.276L378.235 552.276L378.486 498.43L405.897 520.591Z" fill="#4A5A62"/><path d="M545.488 520.591L546.021 549.276L573.148 553.776L572.899 498.43L545.488 520.591Z" fill="#4A5A62"/><path fill-rule="evenodd" clip-rule="evenodd" d="M627.522 780.19C632.75 781.968 635.547 787.649 633.768 792.878L608.731 866.477C606.952 871.705 601.272 874.502 596.043 872.723C590.815 870.945 588.018 865.264 589.797 860.035L614.834 786.436C616.612 781.208 622.293 778.411 627.522 780.19ZM738.047 780.19C743.276 778.411 748.956 781.208 750.735 786.436L775.772 860.035C777.551 865.264 774.754 870.945 769.525 872.723C764.297 874.502 758.616 871.705 756.838 866.477L731.801 792.878C730.022 787.649 732.819 781.968 738.047 780.19ZM681.092 820.544C686.615 820.544 691.092 825.021 691.092 830.544V925.349C691.092 930.872 686.615 935.349 681.092 935.349C675.569 935.349 671.092 930.872 671.092 925.349V830.544C671.092 825.021 675.569 820.544 681.092 820.544Z" fill="#1F2E35"/><path d="M553.695 706.451C553.695 784.857 610.732 848.417 681.092 848.417C751.452 848.417 808.49 784.857 808.49 706.451" fill="#2C3D46"/><path fill-rule="evenodd" clip-rule="evenodd" d="M579.605 653.734C579.96 659.522 575.555 664.501 569.766 664.856C550.117 666.059 541.054 677.546 539.506 689.462C537.877 702.003 544.333 716.588 560.031 723.844C565.294 726.278 567.589 732.517 565.156 737.781C562.722 743.045 556.483 745.34 551.219 742.906C527.167 731.788 515.873 708.373 518.681 686.757C521.57 664.518 539.133 645.692 568.483 643.895C574.271 643.541 579.251 647.946 579.605 653.734ZM789.968 648.347C792.178 646.125 795.264 645.006 798.384 645.295C825.65 647.827 840.49 667.942 842.089 689.294C843.655 710.203 832.672 733.106 809.032 742.835C805.961 744.099 802.474 743.836 799.628 742.125C796.781 740.415 794.912 737.459 794.586 734.155L786.964 656.78C786.657 653.661 787.759 650.569 789.968 648.347ZM809.4 670.317C809.4 670.317 771.327 736.641 794.065 728.857C803.34 725.682 813.722 714.197 813.722 714.197C819.272 707.546 821.759 699.021 821.148 690.863C820.519 682.472 816.69 674.841 809.4 670.317Z" fill="#1F2E35"/><path d="M625.792 261.868C625.285 345.988 558.492 388.798 474.373 388.292C390.253 387.785 328.517 339.841 328.206 255.72C327.875 166.046 390.102 105.658 474.221 106.165C523.145 106.459 566.553 129.797 594.201 165.822C597.025 169.494 599.681 173.291 602.157 177.224C617.181 200.989 625.974 231.661 625.792 261.868Z" fill="#2C3D46"/><path d="M682.092 569.484C752.452 569.484 809.49 617.946 809.49 677.726C809.49 737.506 752.452 785.968 682.092 785.968C611.732 785.968 554.694 737.506 554.694 677.726C554.694 617.946 611.732 569.484 682.092 569.484Z" fill="#2C3D46"/><path fill-rule="evenodd" clip-rule="evenodd" d="M682.092 574.484C613.698 574.484 559.694 621.441 559.694 677.726C559.694 734.012 613.698 780.968 682.092 780.968C750.485 780.968 804.49 734.012 804.49 677.726C804.49 621.441 750.485 574.484 682.092 574.484ZM549.694 677.726C549.694 614.452 609.765 564.484 682.092 564.484C754.418 564.484 814.49 614.452 814.49 677.726C814.49 741.001 754.418 790.968 682.092 790.968C609.765 790.968 549.694 741.001 549.694 677.726Z" fill="#364750"/><path fill-rule="evenodd" clip-rule="evenodd" d="M542.121 450.004C550.099 429.404 573.266 419.172 593.867 427.15L579.421 464.45C593.867 427.15 593.887 427.158 593.907 427.165L593.95 427.182L594.042 427.218C594.106 427.243 594.176 427.271 594.252 427.301C594.403 427.361 594.578 427.431 594.775 427.512C595.17 427.672 595.654 427.873 596.222 428.117C597.359 428.604 598.836 429.262 600.608 430.103C604.147 431.785 608.891 434.214 614.471 437.503C625.597 444.062 640.271 454.171 655.373 468.778C685.969 498.371 717.597 545.827 725.302 616.7C727.689 638.662 711.821 658.401 689.859 660.789C667.897 663.176 648.158 647.308 645.77 625.346C640.37 575.668 618.94 544.837 599.755 526.282C589.967 516.814 580.569 510.384 573.846 506.421C570.502 504.449 567.877 503.123 566.278 502.363C565.481 501.985 564.947 501.751 564.715 501.651C564.679 501.636 564.651 501.624 564.629 501.615C544.261 493.513 534.187 470.489 542.121 450.004Z" fill="#2C3D46"/><path d="M413.911 378.251L513.178 358.829C528.947 358.924 555.706 340.853 568.936 347.429C602.089 363.907 624.78 398.212 624.542 437.729C624.209 493.015 579.121 537.563 523.835 537.23L422.899 536.622C367.613 536.289 323.064 491.201 323.397 435.915C323.624 398.197 344.682 365.477 375.598 348.597C381.104 363.367 396.343 378.145 413.911 378.251Z" fill="#1F2E35"/><path d="M602.157 177.224C579.942 234.859 528.925 282.322 500.19 300.95L495.618 291.112C521.601 272.415 574.134 224.29 594.202 165.821C597.026 169.494 599.681 173.291 602.157 177.224Z" fill="#1F2E35"/><path d="M472.193 415.207C410.839 414.838 382.049 387.432 375.323 373.775C375.323 373.775 372.895 361.13 375.475 348.699C442.367 338.529 495.712 290.768 495.712 290.768C495.712 290.768 524.32 324.707 572.626 349.356C575.056 361.818 572.472 374.962 572.472 374.962C564.61 388.531 533.545 415.577 472.193 415.207Z" fill="#364750"/><path fill-rule="evenodd" clip-rule="evenodd" d="M679.262 611.103C686.093 610.677 691.322 604.827 690.965 597.976C690.606 591.082 684.725 585.785 677.831 586.144L678.482 598.627C677.831 586.144 677.823 586.145 677.815 586.145L677.797 586.146L677.759 586.148L677.669 586.154C677.604 586.158 677.528 586.163 677.441 586.169C677.268 586.182 677.052 586.2 676.797 586.224C676.288 586.274 675.618 586.351 674.816 586.471C673.222 586.71 671.057 587.127 668.571 587.854C663.694 589.28 657.004 592.074 651.103 597.619C644.98 603.372 640.26 611.589 638.99 622.64C637.754 633.392 639.849 646.138 645.884 661.301C648.437 667.716 655.706 670.846 662.12 668.293C668.534 665.741 671.665 658.471 669.112 652.057C664.043 639.32 663.21 630.86 663.826 625.496C664.409 620.431 666.323 617.622 668.222 615.838C670.343 613.845 673.062 612.588 675.59 611.848C676.806 611.492 677.842 611.297 678.523 611.195C678.859 611.144 679.095 611.119 679.208 611.108C679.232 611.106 679.25 611.104 679.262 611.103Z" fill="#364750"/><path fill-rule="evenodd" clip-rule="evenodd" d="M622.479 657.547C617.588 658.371 612.731 655.449 611.258 650.577C609.659 645.29 612.649 639.709 617.936 638.111L620.802 647.589C617.936 638.111 617.939 638.11 617.942 638.109L617.969 638.101L618.022 638.085C618.064 638.072 618.119 638.056 618.187 638.036C618.323 637.997 618.511 637.942 618.75 637.875C619.229 637.741 619.91 637.555 620.785 637.329C622.031 637.007 623.669 636.605 625.671 636.157C627.456 634.497 629.849 633.482 632.479 633.482C633.723 633.482 634.914 633.709 636.012 634.124C641.406 633.197 647.878 632.281 655.246 631.59C674.107 629.822 698.968 629.522 726.698 634.396C727.971 633.809 729.388 633.482 730.882 633.482C733.785 633.482 736.4 634.719 738.227 636.696C740.03 637.099 741.843 637.524 743.664 637.974C749.026 639.297 752.301 644.716 750.978 650.078C749.82 654.769 745.528 657.862 740.882 657.677V664.694C740.882 670.216 736.405 674.694 730.882 674.694C725.359 674.694 720.882 670.216 720.882 664.694V653.692C696.227 649.612 674.08 649.912 657.113 651.503C651.656 652.014 646.748 652.658 642.479 653.329V664.694C642.479 670.216 638.002 674.694 632.479 674.694C626.956 674.694 622.479 670.216 622.479 664.694V657.547ZM623.717 657.257L623.715 657.257L623.711 657.259C623.71 657.259 623.71 657.259 623.711 657.259" fill="#1F2E35"/><path d="M685.536 572.051C710.591 572.051 730.933 592.393 730.933 617.448C730.933 642.502 710.591 662.845 685.536 662.845C660.482 662.845 640.139 642.502 640.139 617.448C640.139 592.393 660.482 572.051 685.536 572.051Z" fill="#364750"/><path d="M418.055 355.24C417.851 366.537 417.726 370.474 417.623 376.147C417.639 385.263 422.924 401.615 440.273 405.534C467.089 411.59 482.426 397.966 482.675 384.206C482.874 373.198 483.021 368.006 483.084 364.567C483.384 354.671 476.379 334.744 445.964 334.194C430.938 333.921 418.311 341.118 418.055 355.24ZM552.604 351.148C552.531 337.024 540.97 329.682 527.108 329.78C499.051 329.978 492.36 349.823 492.522 359.721C492.54 363.161 492.615 368.355 492.672 379.365C492.742 393.126 506.729 406.927 531.531 401.181C547.577 397.464 552.64 381.174 552.76 372.058C552.731 366.385 552.661 362.446 552.604 351.148Z" fill="#4A5A62"/><path fill-rule="evenodd" clip-rule="evenodd" d="M482.791 378.127C482.02 372.229 477.695 363.313 465.142 363.374C458.196 363.408 452.711 367.638 452.769 375.632C452.797 379.376 452.755 382.554 452.72 385.189C452.695 387.054 452.673 388.647 452.683 389.978C452.796 394.745 456.233 402.959 463.12 405.756C475.634 402.496 482.509 393.381 482.675 384.206C482.716 381.946 482.755 379.932 482.791 378.127ZM552.751 372.482C552.756 364.702 547.797 360.525 541.48 360.412C528.516 360.181 524.939 371.326 524.887 376.928C524.874 377.626 524.875 378.773 524.875 380.245C524.877 382.881 524.878 386.558 524.805 390.556C524.726 394.857 526.225 399.136 529.526 401.607C530.187 401.479 530.855 401.337 531.532 401.181C547.331 397.52 552.483 381.67 552.751 372.482Z" fill="#1F2E35"/><path d="M522.423 359.632C527.861 359.664 532.248 364.355 532.213 370.1C532.179 375.845 527.736 380.483 522.297 380.45C516.859 380.417 512.472 375.726 512.507 369.982C512.541 364.237 516.985 359.599 522.423 359.632ZM450.418 360.198C455.856 360.231 460.243 364.922 460.209 370.667C460.174 376.412 455.731 381.049 450.293 381.017C444.855 380.984 440.468 376.293 440.502 370.548C440.537 364.803 444.98 360.165 450.418 360.198Z" fill="#4A5A62"/><path d="M491.97 398.569C501.715 398.628 509.579 406.587 509.521 416.332C509.462 426.077 501.502 433.941 491.758 433.883C482.013 433.824 474.148 425.864 474.207 416.12C474.266 406.375 482.225 398.511 491.97 398.569Z" fill="#364750"/><path fill-rule="evenodd" clip-rule="evenodd" d="M448.346 432.822C449.819 431.571 452.028 431.751 453.279 433.224C456.61 437.147 463.348 440.884 471.434 443.661C479.406 446.4 488.059 447.993 494.673 448.032C496.605 448.044 498.163 449.62 498.151 451.553C498.14 453.486 496.563 455.044 494.63 455.032C487.11 454.987 477.697 453.214 469.16 450.282C460.735 447.388 452.521 443.146 447.943 437.755C446.692 436.282 446.872 434.073 448.346 432.822Z" fill="#1F2E35"/></svg>