<svg width="1080" height="1080" viewBox="0 0 1080 1080" fill="none" xmlns="http://www.w3.org/2000/svg"><path d="M532.303 465.189C711.487 371.194 886.858 352.405 924.007 423.222C961.157 494.039 846.015 627.647 666.832 721.642C487.648 815.637 312.277 834.426 275.128 763.609C237.979 692.792 353.12 559.184 532.303 465.189Z" fill="#1A2628"/><path fill-rule="evenodd" clip-rule="evenodd" d="M458.943 549.29C471.685 560.308 473.083 579.569 462.065 592.31L353.179 718.235C342.161 730.976 322.9 732.374 310.158 721.356C297.416 710.338 296.019 691.078 307.036 678.336L415.923 552.411C426.94 539.67 446.201 538.272 458.943 549.29Z" fill="#2C3D46"/><path fill-rule="evenodd" clip-rule="evenodd" d="M208.501 638.393C211.309 615.924 231.801 599.986 254.27 602.795L256.27 603.045C278.738 605.853 294.676 626.345 291.868 648.813C289.059 671.282 268.568 687.22 246.099 684.412L244.099 684.162C221.63 681.353 205.692 660.861 208.501 638.393Z" fill="#364750"/><path fill-rule="evenodd" clip-rule="evenodd" d="M836.443 470.704C848.745 491.66 841.73 518.622 820.774 530.924L720.274 589.925C699.318 602.227 672.356 595.212 660.053 574.256C647.751 553.3 654.766 526.338 675.722 514.035L776.222 455.035C797.178 442.733 824.14 449.748 836.443 470.704Z" fill="#3F515B"/><path fill-rule="evenodd" clip-rule="evenodd" d="M768.08 425.853C777.537 445.818 769.019 469.669 749.054 479.126L701.554 501.626C681.589 511.083 657.738 502.565 648.281 482.6C638.824 462.635 647.342 438.784 667.307 429.327L714.807 406.827C734.772 397.37 758.623 405.888 768.08 425.853Z" fill="#3F515B"/><path fill-rule="evenodd" clip-rule="evenodd" d="M897.901 412.171C886.351 419.737 870.855 416.507 863.289 404.957L838.917 367.749C831.351 356.199 834.581 340.703 846.131 333.138C857.681 325.572 873.177 328.802 880.743 340.352L905.115 377.559C912.681 389.109 909.451 404.605 897.901 412.171Z" fill="#2C3D46"/><path fill-rule="evenodd" clip-rule="evenodd" d="M871.427 362.057C883.531 382.489 876.78 408.865 856.348 420.969L750.848 483.469C730.416 495.574 704.04 488.822 691.935 468.39C679.831 447.958 686.582 421.582 707.014 409.478L812.515 346.978C832.947 334.874 859.323 341.625 871.427 362.057Z" fill="#3F515B"/><path fill-rule="evenodd" clip-rule="evenodd" d="M734.61 343.529C755.718 333.912 780.626 343.229 790.243 364.337L840.265 474.138C849.881 495.246 840.565 520.154 819.457 529.771C798.348 539.387 773.44 530.071 763.824 508.962L713.801 399.162C704.185 378.053 713.501 353.146 734.61 343.529Z" fill="#3F515B"/><path fill-rule="evenodd" clip-rule="evenodd" d="M724.098 413.745C725.563 413.091 727.281 413.749 727.935 415.214L752.935 471.214C753.589 472.679 752.932 474.397 751.467 475.051C750.002 475.705 748.284 475.047 747.63 473.582L722.63 417.582C721.976 416.117 722.633 414.399 724.098 413.745Z" fill="#364750"/><path fill-rule="evenodd" clip-rule="evenodd" d="M772.028 301.019C784.591 306.748 790.13 321.576 784.402 334.138L762.499 382.169C756.77 394.732 741.942 400.272 729.379 394.543C716.817 388.814 711.277 373.986 717.005 361.423L738.909 313.392C744.637 300.83 759.465 295.29 772.028 301.019Z" fill="#2C3D46"/><path d="M349.106 691.036C349.106 691.036 222.273 729.196 221.062 728.772C220.46 728.579 151.54 677.115 151.54 677.115C149.92 675.914 149.137 674.197 149.065 672.479L149.121 671.315C149.466 668.896 151.121 666.692 153.921 665.95L276.336 628.624C278.246 627.968 279.541 627.447 285.807 631.896L349.874 679.525C355.041 681.883 354.541 689.384 349.106 691.036Z" fill="#2C3D46"/><path d="M353.441 684.425L353.48 704.157C353.363 706.56 349.965 708.167 347.693 708.932L228.243 745.27C215.374 750.105 208.112 744.676 208.112 744.676V744.667C207.766 744.468 151.507 702.846 151.507 702.846C149.314 701.052 148.913 699.821 149.05 696.991L149.065 672.481L149.135 671.027C149.135 671.027 220.951 724.148 221.275 724.378C221.599 724.608 222.058 724.478 222.058 724.478L353.441 684.425Z" fill="#1F2E35"/><path d="M221.322 652.098L284.438 698.78L222.868 717.546L159.738 670.876L221.322 652.098Z" fill="#4A5A62"/><path d="M205.486 723.614L190.493 712.665C186.756 709.801 181.879 711.245 181.538 717.088L181.223 724.513C181.146 726.324 181.771 727.735 183.164 728.896L198.09 739.795C201.79 742.878 207.034 741.808 207.237 736.996L207.591 728.642C207.672 726.748 206.991 724.768 205.486 723.614Z" fill="#2C3D46"/><path d="M285.368 644.071L272.383 648.075L261.157 640.011L248.325 643.963L259.153 652.014L246.15 656.069L257.147 664.262L270.125 660.173L281.251 668.302L294.486 664.389L283.297 656.187L296.294 652.21L285.368 644.071ZM294.374 683.004C300.619 681.222 302.079 677.996 297.813 675.804C293.625 673.653 285.359 673.252 279.182 674.9C272.89 676.579 270.982 679.783 275.099 682.068C279.295 684.397 288.007 684.82 294.374 683.004ZM325.374 683.004C331.619 681.222 333.078 677.996 328.812 675.804C324.624 673.653 316.359 673.252 310.182 674.9C303.89 676.579 301.982 679.783 306.099 682.068C310.295 684.397 319.008 684.82 325.374 683.004Z" fill="#1F2E35"/><path fill-rule="evenodd" clip-rule="evenodd" d="M271.182 628.175C274.286 623.952 275.083 618.223 272.773 613.107C269.364 605.556 260.479 602.199 252.929 605.608C245.848 608.805 242.105 614.805 240.888 620.712C239.836 625.816 240.667 630.549 241.43 633.56C242.251 636.802 243.415 639.641 244.283 641.542C244.734 642.528 245.145 643.349 245.457 643.949C245.615 644.25 245.749 644.501 245.855 644.693C245.908 644.789 245.953 644.872 245.991 644.939L246.041 645.028L246.062 645.064L246.075 645.088C246.077 645.091 246.079 645.095 258.931 637.748L246.079 645.095C250.191 652.287 259.354 654.784 266.546 650.672C273.714 646.574 276.219 637.458 272.164 630.277C272.151 630.253 272.115 630.186 272.06 630.082C271.949 629.869 271.773 629.519 271.571 629.078C271.437 628.783 271.306 628.479 271.182 628.175Z" fill="#364750"/><path d="M711.981 452.372C751.169 484.889 759.872 542.253 730.184 578.031C700.496 613.809 643.661 614.453 604.473 581.936C565.285 549.419 557.582 494.055 587.27 458.277C616.958 422.499 672.793 419.855 711.981 452.372ZM654.079 601.423C646.513 608.036 636.824 610.099 627.701 609.413C604.337 615.273 569.264 486.567 593.278 484.684C641.477 480.904 666.477 568.904 654.079 601.423Z" fill="#3F515B"/><path d="M654.079 601.424C646.513 608.037 636.824 610.1 627.701 609.414C604.337 615.274 569.264 486.567 593.278 484.684C641.477 480.904 666.477 568.905 654.079 601.424Z" fill="#364750"/><path fill-rule="evenodd" clip-rule="evenodd" d="M699.229 446.607C700.144 445.289 701.955 444.964 703.272 445.879C703.331 445.92 703.394 445.964 703.461 446.01C708.22 449.313 731.457 465.44 741.819 493.155C742.381 494.658 741.618 496.332 740.116 496.894C738.613 497.456 736.939 496.693 736.377 495.19C726.657 469.191 704.672 453.925 700.1 450.75C700.05 450.715 700.002 450.682 699.956 450.65C698.639 449.735 698.313 447.924 699.229 446.607Z" fill="#364750"/><path fill-rule="evenodd" clip-rule="evenodd" d="M600.026 528.648L659.527 502.647L668.336 522.807L608.836 548.807L600.026 528.648Z" fill="#3F515B"/><path d="M604.466 636.488C569.111 646.343 540.093 630.552 526.73 617.189C526.73 617.189 586.318 499.3 593.948 497.322C603.485 494.849 622.311 521.954 631.744 558.335C641.177 594.716 629.01 628.121 604.466 636.488Z" fill="#2C3D46"/><path fill-rule="evenodd" clip-rule="evenodd" d="M543.975 552.976C559.054 560.484 565.192 578.794 557.685 593.873L492.695 724.407C486.386 737.079 472.187 743.745 458.408 740.503L359.284 717.187C342.886 713.33 332.72 696.911 336.577 680.514C340.434 664.117 356.854 653.951 373.251 657.808L448.856 675.592L503.078 566.686C510.586 551.606 528.896 545.468 543.975 552.976Z" fill="#2C3D46"/><path d="M310.724 731.301C344.077 758.118 415.122 711.466 394.983 668.947C384.037 650.112 351.053 646.991 336.13 661.889C336.13 661.889 319.865 690.626 311.365 700.15C311.365 700.15 291.257 716.364 310.724 731.301Z" fill="#364750"/><path fill-rule="evenodd" clip-rule="evenodd" d="M353.874 679.294C343.314 676.356 332.572 675.033 325.054 677.129C317.073 679.353 308.801 674.686 306.577 666.706C304.353 658.726 309.02 650.454 317 648.23C332.73 643.846 350.137 647.115 361.913 650.391C368.12 652.117 373.487 654.058 377.307 655.567C379.226 656.325 380.777 656.983 381.875 657.464C382.425 657.705 382.863 657.902 383.178 658.046C383.336 658.118 383.463 658.176 383.558 658.221L383.677 658.277L383.719 658.296L383.742 658.307C383.745 658.308 383.748 658.31 377.409 671.682L383.748 658.31C391.234 661.858 394.426 670.803 390.877 678.289C387.332 685.768 378.401 688.961 370.919 685.429C370.916 685.427 370.912 685.425 370.909 685.424C370.908 685.423 370.908 685.423 370.907 685.423C370.904 685.421 370.901 685.42 370.898 685.419L377.323 671.864C370.898 685.419 370.901 685.42 370.904 685.421M353.874 679.294C358.834 680.673 363.183 682.243 366.285 683.469ZM366.285 683.469C367.828 684.078 369.04 684.593 369.84 684.944ZM369.84 684.944C370.239 685.119 370.534 685.252 370.714 685.334ZM370.714 685.334C370.804 685.375 370.865 685.404 370.897 685.418ZM370.897 685.418L370.909 685.424ZM370.907 685.423C370.908 685.423 370.908 685.423 370.909 685.424Z" fill="#364750"/><path fill-rule="evenodd" clip-rule="evenodd" d="M263.935 456.481C263.935 355.413 345.867 273.48 446.935 273.48H448.935C550.003 273.48 631.935 355.413 631.935 456.481C631.935 557.549 550.003 639.481 448.935 639.481H446.935C345.867 639.481 263.935 557.549 263.935 456.481Z" fill="#3F515B"/><path d="M272.773 400.137C267.035 417.887 263.935 436.823 263.935 456.483C263.935 549.535 333.385 626.366 423.278 637.969C468.174 594.979 461.159 513.226 407.116 454.224C368.596 412.17 316.471 392.904 272.773 400.137Z" fill="#364750"/><path d="M348.257 524.87C348.257 524.87 344.282 528.179 342.539 531.519C337.176 541.799 343.225 549.174 347.658 552.429C354.85 557.711 399.413 559.697 424.324 556.698C425.744 534.839 413.428 527.802 413.428 527.802L403.418 529.776C403.418 529.776 372.816 536.808 348.257 524.87Z" fill="#4A5A62"/><path d="M378.009 531.743C368.662 531.351 357.985 529.599 348.257 524.87C348.257 524.87 344.282 528.179 342.539 531.519C337.176 541.799 343.225 549.174 347.658 552.429C350.82 554.751 361.206 556.437 373.969 557.341C375.179 555.493 376.077 553.355 376.573 550.981L378.461 541.949C379.178 538.52 378.97 535.019 378.009 531.743Z" fill="#1F2E35"/><path d="M279.047 489.445C279.047 489.445 305.765 527.054 320.431 537.11C322.9 537.8 324.069 534.842 328.789 528.287C334.03 521.009 335.69 511.729 333.137 503.131C329.872 492.138 321.974 480.385 311.573 475.07C290.835 464.472 285.739 475.227 283.984 477.248C283.984 477.248 279.337 485.234 279.047 489.445Z" fill="#4A5A62"/><path d="M331.702 498.994C328.74 496.027 324.953 493.882 320.727 493.067C310.169 491.031 300.861 498.065 299.94 508.779L299.34 515.763C306.635 524.51 314.514 533.052 320.431 537.11C322.346 537.645 323.479 535.985 326.094 532.154C326.85 531.046 327.73 529.757 328.789 528.286C334.03 521.008 335.69 511.728 333.137 503.13C332.729 501.759 332.25 500.375 331.702 498.994Z" fill="#1F2E35"/><path d="M370.742 587.878C376.672 607.107 392.904 614.79 407.461 613.914C425.713 612.588 431.398 589.086 417.121 580.005C415.651 579.07 414.212 578.09 412.9 576.943C411.359 575.596 409.591 574.051 409.591 574.051L370.742 587.878Z" fill="#24343B"/><path d="M334.114 559.969C330.569 565.861 322.919 567.763 317.027 564.218C311.135 560.673 309.232 553.023 312.777 547.131C316.322 541.239 332.071 532.501 335.036 534.285C338.001 536.069 337.659 554.077 334.114 559.969Z" fill="#24343B"/><path fill-rule="evenodd" clip-rule="evenodd" d="M409.767 571.165C411.476 572.747 411.578 575.415 409.996 577.123C406.719 580.663 401.683 583.79 395.907 586.284C390.063 588.807 383.168 590.808 375.909 591.932C361.522 594.159 344.967 593.037 332.281 584.779C330.329 583.509 329.777 580.898 331.047 578.946C332.318 576.995 334.929 576.442 336.881 577.713C347.145 584.394 361.306 585.66 374.619 583.599C381.211 582.579 387.413 580.767 392.564 578.543C397.783 576.29 401.641 573.736 403.809 571.395C405.391 569.686 408.059 569.584 409.767 571.165Z" fill="#24343B"/><path d="M426.898 478.845C398.728 505.358 337.248 522.882 270.117 464.033C264.599 458.515 262.263 454.088 259.372 451.255C230.33 404.498 245.253 373.513 250.369 371.68C259.372 367.033 264.91 397.412 291.933 395.373C295.677 395.089 300.029 394.883 304.822 394.844C310.389 394.795 316.565 394.961 323.083 395.471C358.976 400.764 397.928 429.198 424.294 472.943C424.343 473.551 426.898 478.355 426.898 478.845Z" fill="#1F2E35"/><path d="M523.356 597.08C526.116 594.889 529.949 594.656 533.007 596.409C539.543 600.156 551.221 606.473 560.727 609.584C569.851 612.569 583.044 614.277 591.061 615.101C594.491 615.453 596.646 618.995 595.159 622.106C589.032 634.932 573.987 663.317 557.317 671.652C553.664 673.478 543.559 671.244 533.802 668.335C519.42 664.047 507.855 653.631 500.494 640.552L494.146 629.274C492.129 625.691 493.015 621.173 496.235 618.617L523.356 597.08Z" fill="#3F515B"/><path d="M502.48 643.857C512.816 639.7 523.612 634.916 533.998 629.856C545.932 624.041 557.608 617.728 567.532 611.44C565.124 610.886 562.819 610.268 560.727 609.584C558.134 608.736 555.38 607.649 552.613 606.44C545.326 610.661 537.225 614.935 528.742 619.068C518.021 624.292 506.919 629.181 496.439 633.348L500.493 640.552C501.125 641.674 501.787 642.776 502.48 643.857Z" fill="#2C3D46"/></svg>