<svg width="1080" height="1080" viewBox="0 0 1080 1080" fill="none" xmlns="http://www.w3.org/2000/svg"><path d="M557.136 728.469C628.564 728.469 686.559 773.624 686.559 829.239C686.559 884.854 628.564 930.01 557.136 930.01C485.707 930.01 427.713 884.854 427.713 829.239C427.713 773.624 485.707 728.469 557.136 728.469Z" fill="#1A2628"/><path fill-rule="evenodd" clip-rule="evenodd" d="M557.043 794.506C563.665 801.546 563.326 812.621 556.286 819.243L531.036 842.993C523.996 849.615 512.921 849.276 506.299 842.236C499.677 835.196 500.016 824.121 507.056 817.499L532.306 793.749C539.346 787.127 550.421 787.466 557.043 794.506Z" fill="#2C3D46"/><path fill-rule="evenodd" clip-rule="evenodd" d="M550.1 790.695C557.032 783.96 568.111 784.119 574.847 791.051L600.597 817.551C607.332 824.482 607.173 835.561 600.241 842.297C593.31 849.032 582.231 848.873 575.495 841.942L549.745 815.442C543.01 808.51 543.169 797.431 550.1 790.695Z" fill="#2C3D46"/><path fill-rule="evenodd" clip-rule="evenodd" d="M585.174 495.401C595.307 487.74 609.731 489.744 617.392 499.876C632.784 520.233 646.692 538.115 656.75 550.905C661.777 557.298 665.839 562.413 668.638 565.924C670.038 567.679 671.122 569.033 671.853 569.944C672.218 570.4 672.495 570.745 672.68 570.974L672.949 571.309" fill="#2C3D46"/><rect x="576.179" y="524.137" width="41.3015" height="94.2439" transform="rotate(-40.8983 576.179 524.137)" fill="#2C3D46"/><rect width="41.0036" height="94.9526" transform="matrix(-0.857655 -0.514226 -0.514226 0.857655 530.136 518.684)" fill="#2C3D46"/><path fill-rule="evenodd" clip-rule="evenodd" d="M518.38 501.048C529.459 507.26 533.406 521.278 527.194 532.358C520.031 545.132 512.655 557.798 505.106 570.325C499.779 579.162 495.962 585.323 493.038 590.04C490.989 593.347 489.38 595.944 487.998 598.258L487.997 598.259C486.067 601.489 482.676 607.368 479.616 612.757C478.098 615.43 476.703 617.911 475.65 619.809C474.663 621.589 474.311 622.268 474.301 622.263C474.298 622.261 474.344 622.16 474.424 621.982C469.206 633.564 455.587 638.722 444.006 633.504C432.425 628.286 427.266 614.668 432.484 603.086C433.471 600.895 436.95 594.738 439.615 590.043C442.715 584.585 446.308 578.349 448.506 574.669M518.38 501.048C507.3 494.836 493.282 498.782 487.07 509.862ZM453.578 566.4C451.296 570.096 449.492 573.018 448.507 574.668Z" fill="#2C3D46"/><path d="M553.696 529.102C603.476 529.102 643.832 566.177 643.832 611.912C643.832 657.647 603.476 694.723 553.696 694.723C503.916 694.723 463.561 657.647 463.561 611.912C463.561 566.177 503.916 529.102 553.696 529.102Z" fill="#3F515B"/><path fill-rule="evenodd" clip-rule="evenodd" d="M589 606.125C609.987 606.125 627 623.138 627 644.125V778.625C627 799.612 609.987 816.625 589 816.625C572.564 816.625 558.566 806.191 553.267 791.585C548.2 806.615 533.989 817.438 517.25 817.438C496.263 817.438 479.25 800.425 479.25 779.438V644.938H551V644.125C551 623.138 568.013 606.125 589 606.125Z" fill="#3F515B"/><path d="M553.687 524.137C584.54 524.137 609.591 538.948 609.591 557.191C609.591 575.433 584.54 590.245 553.687 590.245C522.833 590.245 497.783 575.433 497.783 557.191C497.783 538.948 522.833 524.137 553.687 524.137Z" fill="#364750"/><path d="M524.801 561.043V591.412H511.882V561.043H524.801ZM596.001 561.043V591.412H583.082V561.043H596.001Z" fill="#3F515B"/><path d="M499.985 544.273C499.985 537.963 507.998 517.105 512.005 507.465H592.381C597.389 516.354 607.405 536.16 607.405 544.273C607.405 554.414 589.901 576.199 551.215 576.199C512.529 576.199 499.985 552.161 499.985 544.273Z" fill="#2C3D46"/><path fill-rule="evenodd" clip-rule="evenodd" d="M567.62 690.976C568.158 692.833 567.089 694.774 565.233 695.312C556.687 697.788 547.742 697.621 539.669 695.417C537.804 694.907 536.705 692.983 537.214 691.118C537.723 689.253 539.648 688.155 541.513 688.664C548.434 690.553 556.063 690.681 563.285 688.588C565.141 688.05 567.083 689.12 567.62 690.976Z" fill="#364750"/><path fill-rule="evenodd" clip-rule="evenodd" d="M557.35 799.662C555.685 797.162 554.308 794.454 553.267 791.585C552.496 793.872 551.513 796.062 550.342 798.131C550.282 786.268 550.158 767.653 550.035 749.391L549.973 740.234C549.824 718.184 549.69 698.48 549.69 694.398H556.69C556.69 698.454 556.823 718.135 556.973 740.206L557.035 749.344C557.164 768.41 557.293 787.893 557.35 799.662Z" fill="#364750"/><path d="M481.874 542.511L474.205 583.987C473.267 589.061 476.619 593.935 481.693 594.873C486.767 595.811 491.641 592.458 492.579 587.384L500.248 545.908C501.186 540.834 497.834 535.961 492.76 535.022C487.686 534.084 482.813 537.437 481.874 542.511Z" fill="#364750"/><path d="M543.227 636.151L585.399 636.918C590.558 637.012 594.815 632.906 594.91 627.746C595.004 622.587 590.897 618.33 585.738 618.236L543.567 617.469C538.407 617.375 534.15 621.481 534.056 626.64C533.962 631.8 538.068 636.057 543.227 636.151Z" fill="#364750"/><path fill-rule="evenodd" clip-rule="evenodd" d="M668.352 567.182C678.943 576.465 680.004 592.575 670.722 603.167L667.425 606.928L612.14 645.519C600.592 653.58 584.696 650.754 576.635 639.205C568.574 627.657 571.401 611.761 582.949 603.7L633.271 568.573C642.666 558.904 658.096 558.195 668.352 567.182Z" fill="#2C3D46"/><path d="M578.57 509.17C577.68 504.238 603.501 490.905 610.759 501.322L627.045 524.95C629.812 528.964 628.609 534.222 624.302 536.929L600.652 551.795C594.668 555.556 586.365 552.404 585.197 545.925L578.57 509.17Z" fill="#3F515B"/><path d="M553.695 473.043C587.576 473.043 615.042 486.55 615.042 503.213C615.042 519.876 587.576 533.383 553.695 533.383C519.814 533.383 492.348 519.876 492.348 503.213C492.348 486.55 519.814 473.043 553.695 473.043Z" fill="#3F515B"/><path d="M553.695 155C653.994 155 735.302 236.308 735.302 336.607C735.302 436.906 653.994 518.214 553.695 518.214C453.396 518.214 372.088 436.906 372.088 336.607C372.088 236.308 453.396 155 553.695 155Z" fill="#3F515B"/><path d="M553.696 263.387C631.761 263.387 695.044 315.164 695.044 379.035C695.044 442.906 631.761 494.683 553.696 494.683C475.631 494.683 412.348 442.906 412.348 379.035C412.348 315.164 475.631 263.387 553.696 263.387Z" fill="#364750"/><path fill-rule="evenodd" clip-rule="evenodd" d="M507.181 576.084C515.42 587.506 512.839 603.444 501.418 611.683L470.918 633.683C459.496 641.922 443.557 639.341 435.319 627.92C427.08 616.498 429.66 600.559 441.082 592.321L471.582 570.321C483.004 562.082 498.942 564.662 507.181 576.084Z" fill="#2C3D46"/><path d="M567.962 447.726C568.042 454.305 562.773 459.702 556.194 459.782C549.615 459.862 544.218 454.593 544.138 448.014C544.058 441.435 552.479 426.399 555.79 426.359C559.101 426.319 567.883 441.147 567.962 447.726Z" fill="#24343B"/><path fill-rule="evenodd" clip-rule="evenodd" d="M529.966 456.728C531.852 455.362 534.488 455.783 535.853 457.669C539.254 462.364 545.331 467.733 552.37 469.253C558.902 470.664 567.314 468.984 576.422 457.52C577.87 455.696 580.522 455.393 582.345 456.841C584.169 458.289 584.472 460.941 583.024 462.765C572.345 476.208 560.874 479.716 550.59 477.495C540.813 475.383 533.141 468.298 529.025 462.615C527.659 460.729 528.08 458.094 529.966 456.728Z" fill="#24343B"/><path d="M550.901 413.485C550.901 385.857 514.062 367.602 493.67 367.602C468.344 367.602 465.59 383.03 464.891 385.856C464.219 388.57 464.997 397.709 468.3 399.961C497.616 407.57 529.275 432.562 535.442 432.562C540.704 432.562 550.901 426.148 550.901 413.485Z" fill="#4A5A62"/><path d="M562.026 413.485C562.026 385.857 598.864 367.602 619.256 367.602C644.582 367.602 647.337 383.03 648.036 385.856C648.12 386.195 648.182 386.635 648.218 387.149C648.688 393.764 644.564 399.875 638.329 402.132C605.708 413.937 583.135 430.726 577.485 432.562C572.48 434.189 562.026 426.148 562.026 413.485Z" fill="#4A5A62"/><path fill-rule="evenodd" clip-rule="evenodd" d="M541.613 430.537C543.062 427.472 543.661 423.576 543.661 420.075V411.246C543.661 400.957 535.366 391.744 525.134 390.669C514.902 389.594 506.607 397.062 506.607 407.351V416.181C506.607 416.305 506.622 416.542 506.648 416.866C511.109 419.402 515.267 421.889 518.979 424.11C527.115 428.977 533.106 432.562 535.442 432.562C537.151 432.562 539.381 431.885 541.613 430.537Z" fill="#1F2E35"/><path fill-rule="evenodd" clip-rule="evenodd" d="M568.851 409.012C569.253 409.053 569.66 409.074 570.073 409.074C576.554 409.074 581.808 403.82 581.808 397.339C581.808 395.921 581.556 394.561 581.095 393.303C582.98 392.455 585.001 391.89 587.105 391.669C597.337 390.594 605.632 398.062 605.632 408.351V416.781C598.287 420.682 592.139 424.332 587.388 427.152C582.602 429.993 579.233 431.993 577.485 432.562C576.024 433.037 574.098 432.688 572.104 431.64C569.886 428.802 568.578 425.16 568.578 421.075V412.246C568.578 411.153 568.671 410.072 568.851 409.012Z" fill="#1F2E35"/><path d="M518.985 395.625C518.985 402.106 513.731 407.359 507.25 407.359C500.769 407.359 495.515 402.106 495.515 395.625C495.515 389.144 500.769 383.891 507.25 383.891C513.731 383.891 518.985 389.144 518.985 395.625Z" fill="#4A5A62"/><path d="M476.784 389.382C582.823 389.382 625.415 320.887 635.058 284.418C576.089 240.92 515.169 262.997 515.169 262.997C458 278.955 442.5 313.955 412.596 312.227C398.3 311.401 390.171 298.866 382.37 306.984C377.11 312.77 394.204 389.382 476.784 389.382Z" fill="#1F2E35"/><path fill-rule="evenodd" clip-rule="evenodd" d="M454.199 537.656C457.593 533.299 463.877 532.519 468.234 535.913L675.788 697.594C680.145 700.988 680.926 707.272 677.532 711.628C674.138 715.985 667.854 716.766 663.498 713.372L455.943 551.69C451.586 548.296 450.806 542.013 454.199 537.656Z" fill="#24343B"/><path d="M463.631 397.518L317.529 589.072C312.099 596.191 301.927 597.561 294.808 592.131L251.474 559.079C244.355 553.649 242.985 543.477 248.415 536.358L394.517 344.804C399.947 337.685 410.118 336.315 417.237 341.745L460.572 374.797C467.69 380.227 469.061 390.399 463.631 397.518ZM433.824 364.933C489.93 407.726 500.722 487.899 457.929 544.005C415.136 600.112 334.963 610.903 278.857 568.111C222.75 525.318 211.959 445.145 254.752 389.038C297.544 332.932 377.717 322.14 433.824 364.933Z" fill="#2C3D46"/><path d="M356.754 351.235C349.362 349.591 324.384 348.943 308.445 356.935C304.633 358.847 304.236 364.146 307.666 366.68L333.905 386.071C336.411 387.924 340.04 387.217 341.962 384.763L362.02 360.143C364.731 356.361 362.969 352.616 356.754 351.235ZM436.119 405.797L413.642 435.266C410.134 439.866 403.562 440.75 398.962 437.243L369.819 415.016C365.219 411.508 364.336 404.935 367.844 400.336L390.321 370.865C393.829 366.265 400.401 365.382 405.001 368.89L434.143 391.117C438.743 394.624 439.627 401.197 436.119 405.797Z" fill="#3F515B"/><path d="M436.119 405.795L413.642 435.265C410.134 439.865 403.562 440.749 398.962 437.241L369.819 415.014C365.22 411.506 364.336 404.934 367.844 400.334L390.321 370.864C393.829 366.264 400.401 365.381 405.001 368.888L434.143 391.115C438.743 394.623 439.627 401.196 436.119 405.795Z" fill="#3F515B"/><path fill-rule="evenodd" clip-rule="evenodd" d="M331.23 591.826C327.326 591.046 323.446 590.081 319.603 588.928L464.727 398.809C466.852 402.211 468.806 405.7 470.587 409.26L331.23 591.826ZM243.936 527.329L384.707 341.914C388.051 342.673 391.375 343.57 394.671 344.606C394.971 344.224 395.285 343.86 395.612 343.512L396.686 344.327L396.121 345.071L250.044 537.474L248.289 539.787L246.905 538.736C247.332 537.916 247.834 537.12 248.414 536.359L248.898 535.726C247.131 532.982 245.477 530.181 243.936 527.329Z" fill="#24343B"/><path d="M585.532 590.412C605.472 590.35 621.712 606.49 621.774 626.431C621.835 646.371 605.695 662.611 585.755 662.672C565.815 662.734 549.575 646.594 549.513 626.654C549.451 606.713 565.591 590.473 585.532 590.412Z" fill="#364750"/><path d="M500.542 538.31C520.483 538.249 536.723 554.389 536.784 574.329C536.846 594.269 520.706 610.509 500.766 610.571C480.825 610.633 464.585 594.493 464.524 574.552C464.462 554.612 480.602 538.372 500.542 538.31Z" fill="#364750"/></svg>