<svg width="1080" height="1080" viewBox="0 0 1080 1080" fill="none" xmlns="http://www.w3.org/2000/svg"><path d="M680.886 829.137C680.886 885.356 622.353 930.93 550.15 930.93C477.947 930.93 419.414 885.356 419.414 829.137C419.414 772.918 477.947 727.344 550.15 727.344C622.353 727.344 680.886 772.918 680.886 829.137Z" fill="#1A2628"/><path fill-rule="evenodd" clip-rule="evenodd" d="M624.36 802.126C635.198 804.258 642.256 814.772 640.124 825.61L620.5 821.75C640.124 825.61 640.124 825.61 640.124 825.61L639.979 826.341C639.885 826.815 639.746 827.518 639.562 828.438C639.195 830.277 638.652 832.984 637.945 836.473C636.53 843.452 634.458 853.56 631.823 866.11C629.553 876.92 618.949 883.843 608.139 881.573C597.329 879.303 590.407 868.699 592.677 857.89C595.291 845.44 597.344 835.423 598.742 828.527C599.441 825.078 599.976 822.411 600.336 820.609C600.515 819.708 600.651 819.024 600.742 818.567L600.876 817.889C600.876 817.889 600.876 817.89 600.876 817.889C603.008 807.052 613.522 799.994 624.36 802.126Z" fill="#364750"/><path fill-rule="evenodd" clip-rule="evenodd" d="M503.703 777.754C513.115 771.973 525.432 774.916 531.213 784.328C536.994 793.74 534.05 806.057 524.638 811.838L514.171 794.796C524.638 811.838 524.639 811.838 524.638 811.838L524.637 811.839L524.456 811.949C524.341 812.02 524.171 812.124 523.947 812.261C523.5 812.535 522.837 812.939 521.967 813.469C520.225 814.529 517.651 816.092 514.297 818.114C507.588 822.158 497.761 828.043 485.242 835.429C475.729 841.042 463.467 837.88 457.854 828.367C452.241 818.854 455.402 806.592 464.916 800.979C477.318 793.661 487.036 787.842 493.644 783.858C496.948 781.866 499.473 780.333 501.168 779.302C502.015 778.786 502.654 778.396 503.079 778.136C503.292 778.006 503.45 777.909 503.555 777.845L503.703 777.754Z" fill="#364750"/><path d="M347.985 530.767C348.305 529.147 350.505 524.921 358.892 526.546C365.003 527.684 367.467 527.261 384.006 529.375C404.931 531.064 450.627 529.237 473.879 514.308C477.597 511.909 485.899 515.867 488.711 519.198C492.688 523.907 492.152 523.74 493.535 526.169C495.804 530.156 498.872 534.405 493.352 537.923C459.239 559.738 419.103 573.832 378.098 578.501C365.273 579.646 357.676 580.794 346.835 579.638C346.835 579.638 342.404 579.961 339.327 574.999C336.107 568.695 347.985 530.767 347.985 530.767Z" fill="#3F515B"/><path fill-rule="evenodd" clip-rule="evenodd" d="M488.741 538.709C487.411 533.71 484.36 529.141 479.767 525.976C469.535 518.924 455.524 521.502 448.473 531.734L422.973 568.734C417.356 576.884 417.725 587.747 423.881 595.497C430.038 603.248 440.537 606.064 449.746 602.436L515.746 576.436C527.307 571.882 532.988 558.817 528.433 547.255C523.879 535.694 510.814 530.013 499.252 534.568L488.741 538.709ZM568.581 532.887C574.775 526.143 584.439 523.826 593.018 527.027L660.018 552.027C666.972 554.622 672.199 560.479 673.988 567.682C675.778 574.885 673.9 582.508 668.969 588.055L632.969 628.555C627.951 634.2 620.437 636.951 612.961 635.88C605.485 634.809 599.046 630.059 595.815 623.232L564.815 557.732C560.898 549.456 562.387 539.631 568.581 532.887Z" fill="#4A5A62"/><path fill-rule="evenodd" clip-rule="evenodd" d="M558.007 626.06C580.065 618.884 603.764 630.949 610.939 653.007L651.44 777.507C658.615 799.566 646.55 823.264 624.492 830.44C602.434 837.615 578.735 825.55 571.56 803.492L531.06 678.992C523.884 656.934 535.949 633.236 558.007 626.06Z" fill="#4A5A62"/><path fill-rule="evenodd" clip-rule="evenodd" d="M547.359 610.4C564.077 626.479 564.596 653.067 548.516 669.786L509.026 710.847L528.799 739.438C541.993 758.516 537.223 784.678 518.144 797.872C499.066 811.066 472.905 806.296 459.711 787.218L420.402 730.378C409.036 713.943 410.823 691.776 424.674 677.374L487.973 611.558C504.052 594.839 530.64 594.321 547.359 610.4Z" fill="#4A5A62"/><path d="M642.643 640.907L590.981 599.384L487.655 598.453L435.052 629.074C430.531 633.073 430.097 639.961 434.058 644.515C449.498 662.268 487.45 701.577 529.587 707.061C529.587 707.061 585.63 718.603 642.103 654.756C645.548 650.861 645.765 645.066 642.643 640.907Z" fill="#4A5A62"/><path d="M589.358 545.865C597.928 562.864 599.247 584.21 583.027 594.167C573.317 600.124 559.218 604.98 539.058 604.98C518.888 604.98 504.798 600.124 495.088 594.167C478.858 584.21 480.177 562.864 488.747 545.865L519.397 485.102C527.537 468.971 550.568 468.971 558.708 485.102L589.358 545.865ZM553.196 539.567C553.196 539.567 603.797 533.61 581.325 546.16C538.352 579.37 522.458 616.923 522.458 616.923L498.272 614.12C498.272 614.12 531.626 554.464 553.196 539.567ZM515.53 583.59C498.99 569.849 486.078 550.239 481.227 542.281L516.746 538.494L533.794 557.801" fill="#4A5A62"/><path fill-rule="evenodd" clip-rule="evenodd" d="M554.485 542.946C549.681 546.452 544.076 552.415 538.245 559.691C532.179 567.262 526.054 576.016 520.569 584.355C515.089 592.687 510.274 600.562 506.829 606.357C505.717 608.226 504.749 609.877 503.948 611.256L520.345 613.157C520.874 612.065 521.596 610.626 522.527 608.887C524.743 604.745 528.141 598.899 532.896 592.009C542.404 578.233 557.36 560.259 579.185 543.393L579.391 543.233L579.618 543.106C580.361 542.691 580.983 542.317 581.5 541.985C579.899 541.78 577.901 541.677 575.659 541.659C570.895 541.621 565.395 541.963 561.039 542.323C558.871 542.501 557.007 542.683 555.686 542.819C555.211 542.868 554.807 542.911 554.485 542.946ZM525.68 618.292L524.659 620.704L492.656 616.995L495.217 612.414L498.272 614.122C495.217 612.414 495.217 612.414 495.218 612.413L495.243 612.367L495.318 612.234C495.383 612.118 495.48 611.947 495.606 611.723C495.859 611.277 496.232 610.622 496.713 609.786C497.674 608.112 499.07 605.709 500.812 602.779C503.668 597.977 507.457 591.754 511.792 585.013C495.521 570.985 482.993 551.905 478.238 544.105L475.363 539.388L518.173 534.824L534.451 553.26C540.125 546.368 545.898 540.356 551.207 536.689L551.923 536.195L552.787 536.093L553.196 539.569C552.787 536.093 552.787 536.093 552.788 536.093L552.829 536.088L552.942 536.075C553.041 536.064 553.185 536.047 553.372 536.027C553.745 535.985 554.287 535.926 554.967 535.856C556.325 535.716 558.238 535.53 560.463 535.346C564.893 534.981 570.638 534.618 575.716 534.659C578.247 534.68 580.704 534.801 582.789 535.095C584.674 535.361 586.95 535.849 588.531 537.053C589.439 537.745 590.409 538.904 590.56 540.58C590.702 542.164 590.039 543.468 589.383 544.355C588.17 545.998 586.003 547.54 583.263 549.088C562.225 565.386 547.81 582.725 538.657 595.985C534.067 602.635 530.805 608.253 528.699 612.19C527.646 614.158 526.882 615.704 526.386 616.748C526.138 617.27 525.957 617.666 525.841 617.927C525.782 618.057 525.74 618.153 525.714 618.214L525.686 618.278L525.681 618.289L525.68 618.291L525.68 618.292ZM530.027 558.825L515.319 542.168L487.188 545.167C492.937 553.979 503.164 568.132 515.654 579.095C520.14 572.326 525.051 565.289 530.027 558.825Z" fill="#364750"/><path d="M459.64 710.476L443.754 698.707C441.537 697.064 441.072 693.955 442.662 691.699C481.582 636.481 497.076 608.818 497.238 608.492L524.122 621.809C523.372 623.327 499.352 663.987 466.762 709.356C465.117 711.648 461.907 712.155 459.64 710.476Z" fill="#2C3D46"/><path fill-rule="evenodd" clip-rule="evenodd" d="M513.477 616.535L524.122 621.808C523.43 623.209 502.907 657.967 474.119 698.993L473.937 698.882C471.587 697.445 470.824 694.387 472.219 692.012C490.998 660.044 505.791 631.721 513.477 616.535Z" fill="#24343B"/><path d="M506.111 710.114L488.401 701.307C485.935 700.081 484.908 697.101 486.09 694.614C509.703 644.954 525.282 604.045 525.379 603.626L554.626 610.304C554.184 612.249 539.46 652.158 512.937 707.75C511.719 710.303 508.644 711.374 506.111 710.114Z" fill="#2C3D46"/><path fill-rule="evenodd" clip-rule="evenodd" d="M519.659 629.362C506.557 627.419 497.354 623.006 491.186 618.727C495.277 612.014 497.182 608.605 497.238 608.492L524.122 621.809C523.939 622.178 522.382 624.861 519.659 629.362Z" fill="#24343B"/><path fill-rule="evenodd" clip-rule="evenodd" d="M524.191 606.763C527.189 606.994 530.323 607.062 533.588 606.927C535.303 606.856 536.973 606.761 538.599 606.645L554.626 610.304C554.448 611.086 551.963 618 547.333 629.6C543.252 630.101 538.858 630.386 534.143 630.386C527.085 630.386 520.863 629.72 515.398 628.619C519.632 618.393 522.645 610.76 524.191 606.763Z" fill="#24343B"/><path d="M593.731 602.81C593.731 602.81 576.733 622.366 537.653 622.366C497.091 622.366 484.107 600.366 484.107 600.366V580.621C484.107 580.621 503.811 600.284 537.098 598.907C578.485 597.195 593.731 581.621 593.731 581.621V602.81Z" fill="#2C3D46"/><path d="M599.63 535.361C599.63 551.927 572.559 565.356 539.167 565.356C505.775 565.356 478.705 551.927 478.705 535.361C478.705 518.795 505.775 505.367 539.167 505.367C572.559 505.367 599.63 518.795 599.63 535.361Z" fill="#3F515B"/><path d="M524.876 180.984C626.192 180.984 708.325 263.117 708.325 364.433C708.325 465.749 626.192 547.882 524.876 547.882C423.56 547.882 341.427 465.749 341.427 364.433C341.427 263.117 423.56 180.984 524.876 180.984Z" fill="#3F515B"/><path d="M487.023 543.97C536.221 532.183 570.987 518.703 609.805 489.145L614.636 495.489C579.707 522.085 547.884 536.007 507.237 547.052C500.076 546.286 492.072 545.076 487.023 543.97Z" fill="#364750"/><path d="M678.766 414.193C658.531 485.979 596.223 531.536 533.905 527.042C467.916 522.284 437.573 491.612 441.835 432.51C446.849 362.98 531.042 276.99 598.786 281.875C666.52 286.759 698.991 342.407 678.766 414.193Z" fill="#364750"/><path d="M601.329 438.084C601.421 412.719 633.607 383.855 651.465 383.921C661.409 383.957 666.365 391.392 666.336 399.408C666.219 431.35 621.257 454.291 611.415 454.254C606.646 454.237 601.28 451.275 601.329 438.084ZM576.874 464.78C584.179 464.807 591.624 455.5 592.688 441.4C592.712 434.805 592.683 414.613 559.22 409.315C509.382 401.426 498.996 439.475 501.644 448.879C503.405 455.13 569.569 464.753 576.874 464.78Z" fill="#4A5A62"/><path d="M636.59 399.415C638.217 398.513 640.037 397.958 641.974 397.84C649.707 397.368 656.404 404.015 656.932 412.683L657.393 420.239C657.921 428.907 652.08 436.317 644.347 436.789C636.615 437.26 629.918 430.615 629.39 421.947C629.39 421.947 629.218 417.478 628.929 414.389C635.756 415.172 642.25 406.323 636.59 399.415ZM566.319 423.103C568.173 422.238 569.457 421.894 571.632 421.822C580.312 421.533 587.582 428.336 587.871 437.016L588.123 444.583C588.413 453.263 581.61 460.533 572.93 460.822C564.25 461.111 556.98 454.309 556.69 445.628L556.407 436.046C556.407 436.046 569.805 435.407 566.319 423.103Z" fill="#1F2E35"/><path d="M592.339 458.711C592.339 458.711 554.734 440.565 491.824 450.75C428.914 460.935 600.238 478.504 600.238 478.504C600.238 478.504 660.56 452.78 674.466 414.82C621.666 430.593 598.79 458.793 598.79 458.793L592.339 458.711Z" fill="#364750"/><path d="M603.232 502.496C600.931 513.977 589.87 526.262 577.292 529.918C565.45 533.36 557.384 527.245 559.685 515.764L603.232 502.496Z" fill="#364750"/><path d="M585.176 495.922C591.659 494.011 596.232 497.06 594.801 503.66C593.37 510.26 587.87 516.635 580.62 518.652C573.875 520.528 569.995 516.885 570.994 510.914C571.993 504.943 577.245 498.26 585.176 495.922Z" fill="#1F2E35"/><path d="M613.06 468.899C614.128 474.787 609.998 481.459 603.628 482.617C597.248 483.776 591.04 478.981 589.972 473.094C588.894 467.207 597.199 449.995 597.685 449.907C598.161 449.819 611.992 463.012 613.06 468.899Z" fill="#24343B"/><path d="M501.488 415.992C623.09 420.134 650.502 347.341 649.728 299.676C643.874 294.371 625.524 283.283 598.963 281.368C543.507 277.369 494.858 327.064 475.132 352.295C455.416 377.526 425.873 371.512 423.639 377.523C421.406 383.534 434.205 413.7 501.488 415.992Z" fill="#1F2E35"/><path d="M434.092 534.808C428.488 553.635 439.207 573.439 458.034 579.043C476.861 584.647 496.666 573.928 502.27 555.101C507.874 536.274 497.155 516.47 478.328 510.866C459.501 505.262 439.696 515.981 434.092 534.808ZM579.426 627.974C590.186 644.408 612.231 649.008 628.665 638.248C645.099 627.488 649.698 605.443 638.938 589.009C628.178 572.575 606.134 567.975 589.7 578.735C573.266 589.495 568.666 611.54 579.426 627.974Z" fill="#364750"/></svg>